<?xml version="1.0" encoding="UTF-8" standalone="no"?>
<!-- Created with Inkscape (http://www.inkscape.org/) -->

<svg
   xmlns:dc="http://purl.org/dc/elements/1.1/"
   xmlns:cc="http://creativecommons.org/ns#"
   xmlns:rdf="http://www.w3.org/1999/02/22-rdf-syntax-ns#"
   xmlns:svg="http://www.w3.org/2000/svg"
   xmlns="http://www.w3.org/2000/svg"
   xmlns:sodipodi="http://sodipodi.sourceforge.net/DTD/sodipodi-0.dtd"
   xmlns:inkscape="http://www.inkscape.org/namespaces/inkscape"
   width="219.99243"
   height="135.41264"
   id="svg2995"
   version="1.1"
   inkscape:version="0.48.2 r9819"
   sodipodi:docname="New document 2">
  <defs
     id="defs2997" />
  <sodipodi:namedview
     id="base"
     pagecolor="#ffffff"
     bordercolor="#666666"
     borderopacity="1.0"
     inkscape:pageopacity="0.0"
     inkscape:pageshadow="2"
     inkscape:zoom="0.82"
     inkscape:cx="153.34375"
     inkscape:cy="21.806253"
     inkscape:document-units="px"
     inkscape:current-layer="layer1"
     showgrid="false"
     fit-margin-top="0"
     fit-margin-left="0"
     fit-margin-right="0"
     fit-margin-bottom="0"
     inkscape:window-width="1280"
     inkscape:window-height="737"
     inkscape:window-x="-8"
     inkscape:window-y="-8"
     inkscape:window-maximized="1" />
  <metadata
     id="metadata3000">
    <rdf:RDF>
      <cc:Work
         rdf:about="">
        <dc:format>image/svg+xml</dc:format>
        <dc:type
           rdf:resource="http://purl.org/dc/dcmitype/StillImage" />
        <dc:title></dc:title>
      </cc:Work>
    </rdf:RDF>
  </metadata>
  <g
     inkscape:label="Layer 1"
     inkscape:groupmode="layer"
     id="layer1"
     transform="translate(-221.65625,-418.7558)">
    <path
       sodipodi:type="arc"
       style="opacity:0.33628319;fill:#ffffff;fill-opacity:1;stroke:#000000;stroke-width:17.46299934;stroke-miterlimit:4;stroke-opacity:1;stroke-dasharray:none"
       id="path3003"
       sodipodi:cx="373.17075"
       sodipodi:cy="487.72803"
       sodipodi:rx="59.756096"
       sodipodi:ry="57.317074"
       d="m 314.75587,499.80358 c -6.95294,-30.94484 13.56382,-61.437 45.82547,-68.10615 32.26164,-6.66915 64.05134,13.0102 71.00428,43.95504 6.95294,30.94484 -13.56382,61.43701 -45.82546,68.10615 -29.771,6.15428 -59.60447,-10.15137 -69.26162,-37.85533"
       sodipodi:start="2.9293222"
       sodipodi:end="9.1021075"
       sodipodi:open="true" />
    <path
       style="fill:none;stroke:#000000;stroke-width:1px;stroke-linecap:butt;stroke-linejoin:miter;stroke-opacity:1"
       d="m 221.95122,512.11828 c 2.1887,-1.54257 5.00321,0.77129 7.31707,0 0.54539,-0.18179 0.70532,-0.96242 1.21951,-1.21951 0.36359,-0.1818 0.81301,0 1.21952,0 0.81301,0 1.62601,0 2.43902,0 2.84553,0 5.69106,0 8.53659,0 8.13008,0 16.26016,0 24.39024,0 3.65854,0 7.31707,0 10.97561,0 2.03252,0 4.0927,-0.33415 6.09756,0 1.26799,0.21133 2.39802,0.96741 3.65854,1.21951 1.59444,0.31889 3.25203,0 4.87805,0 2.43902,0 4.87805,0 7.31707,0 4.47154,0 8.94309,0 13.41463,0 1.62602,0 3.25204,0 4.87805,0 0.40651,0 0.81301,0 1.21952,0 0.4065,0 1.21951,-0.4065 1.21951,0 0,0.4065 -1.21951,0.4065 -1.21951,0 0,-0.57488 0.96241,-0.70532 1.21951,-1.21951 0.18179,-0.36359 0,-0.81301 0,-1.21951 0,-3.25204 -0.40651,0.4065 1.21951,-1.21952 0.28744,-0.28744 0,-0.813 0,-1.21951 0,-0.4065 0,-0.81301 0,-1.21951 0,-0.54922 0.18557,-3.2874 0,-3.65854 -0.2571,-0.51419 -0.81301,-0.81301 -1.21951,-1.21951 -0.40651,-0.4065 -0.70532,-0.96242 -1.21951,-1.21951 -0.36359,-0.1818 -0.83387,0.12855 -1.21952,0 -0.86232,-0.28744 -1.55719,-0.99906 -2.43902,-1.21951 -0.47039,-0.1176 -6.84668,-0.1176 -7.31707,0 -0.88184,0.22045 -1.5572,0.99905 -2.43903,1.21951 -0.78873,0.19718 -1.65029,-0.19719 -2.43902,0 -1.18478,0.29619 -2.91474,1.32333 -3.65854,2.43902 -0.50421,0.75631 -0.71531,1.68272 -1.21951,2.43903 -0.31889,0.47833 -0.96242,0.70532 -1.21951,1.21951 -0.1818,0.36359 0,0.81301 0,1.21951 0,0.81301 0,1.62602 0,2.43903 0,2.32718 -0.28745,0.17859 1.21951,2.43902 1.62601,2.43902 0.4065,2.84553 3.65853,3.65854 0.78874,0.19718 1.6503,-0.19719 2.43903,0 0.88183,0.22045 1.55719,0.99905 2.43902,1.21951 0.78874,0.19718 1.62602,0 2.43903,0 1.21951,0 2.4627,0.23916 3.65853,0 0.89132,-0.17826 1.5572,-0.99906 2.43903,-1.21951 0.78873,-0.19719 1.65029,0.19718 2.43902,0 3.25204,-0.81301 2.03252,-1.21952 3.65854,-3.65854 1.48759,-2.23139 1.55481,-0.12167 2.43902,-3.65854 0.19719,-0.78873 0,-1.62601 0,-2.43902 0,-0.4065 0.12855,-0.83387 0,-1.21951 -0.28744,-0.86233 -0.813,-1.62602 -1.21951,-2.43903 -1.62765,-3.2553 -1.62275,-3.2504 -4.87805,-4.87805 -0.81301,-0.4065 -1.5767,-0.93207 -2.43902,-1.21951 -0.38565,-0.12855 -0.81301,0 -1.21951,0 -0.81301,0 -1.62602,0 -2.43903,0 -0.4065,0 -0.83387,-0.12855 -1.21951,0 -0.89121,0.29707 -3.10041,1.32278 -3.65854,2.43903 -0.18179,0.36358 0.1818,0.85592 0,1.21951 -0.25709,0.51419 -0.96241,0.70532 -1.21951,1.21951 -0.18179,0.36359 0,0.81301 0,1.21951 0,0.81301 -0.25709,1.66774 0,2.43903 0.1818,0.54538 0.81301,0.81301 1.21951,1.21951 0.40651,0.4065 0.67413,1.03772 1.21952,1.21951 0.77128,0.2571 1.62601,0 2.43902,0 0.81301,0 1.62602,0 2.43902,0 0.81301,0 1.62602,0 2.43903,0 0.81301,0 1.65029,0.19718 2.43902,0 3.53687,-0.88422 1.42715,-0.95143 3.65854,-2.43902 0.75631,-0.50421 1.68271,-0.71531 2.43902,-1.21952 1.67769,-1.11845 1.25425,-1.88136 2.43903,-3.65853 0.31889,-0.47833 0.96241,-0.70532 1.21951,-1.21951 0.18179,-0.36359 0,-0.81301 0,-1.21952 0,-0.813 0.2571,-1.66773 0,-2.43902 -0.18179,-0.54538 -0.81301,-0.81301 -1.21951,-1.21951 -0.40651,-0.40651 -0.74118,-0.90063 -1.21951,-1.21951 -0.75631,-0.50421 -1.62602,-0.81301 -2.43903,-1.21952 -0.81301,-0.4065 -1.5767,-0.93207 -2.43902,-1.21951 -0.33022,-0.11007 -5.95967,-0.046 -6.09756,0 -0.54539,0.18179 -0.74118,0.90062 -1.21952,1.21951 -0.75631,0.50421 -1.79628,0.57678 -2.43902,1.21952 -0.64274,0.64273 -0.71531,1.68271 -1.21951,2.43902 -0.31889,0.47833 -1.03772,0.67413 -1.21951,1.21951 -0.2571,0.77129 0,1.62602 0,2.43903 0,0.813 0,1.62601 0,2.43902 0,0.81301 0,1.62602 0,2.43902 0,0.81301 -0.2571,1.66774 0,2.43903 0.18179,0.54538 0.813,0.81301 1.21951,1.21951 0.4065,0.40651 0.81301,0.81301 1.21951,1.21951 0.4065,0.40651 0.67413,1.03772 1.21951,1.21952 0.77129,0.25709 1.62602,0 2.43903,0 0.813,0.4065 1.5767,0.93207 2.43902,1.21951 2.49656,0.83218 5.74979,-3.31077 7.31707,-4.87805 0.40651,-0.4065 0.96242,-0.70532 1.21952,-1.21951 0.18179,-0.36359 0.12854,-0.83387 0,-1.21952 -0.28745,-0.86232 -0.71531,-1.68271 -1.21952,-2.43902 -0.43624,-0.65436 -4.82347,-4.85076 -4.87804,-4.87805 -0.72718,-0.36359 -1.6503,0.19719 -2.43903,0 -0.88183,-0.22046 -1.55719,-0.99905 -2.43902,-1.21951 -0.78874,-0.19718 -1.62602,0 -2.43903,0 -0.81301,0 -1.65029,-0.19718 -2.43902,0 -2.39413,0.59853 -5.49903,3.70343 -6.09756,6.09756 -0.19719,0.78873 0,1.62602 0,2.43902 0,0.81301 -0.19719,1.6503 0,2.43903 0.70614,2.82459 2.52106,3.69955 4.87805,4.87805 0.813,0.4065 1.55719,0.99905 2.43902,1.21951 0.78873,0.19718 1.62602,0 2.43902,0 0.81301,0 1.65029,0.19718 2.43903,0 1.89103,-0.47276 8.76318,-5.33124 9.7561,-7.31707 0.36358,-0.72718 0,-1.62602 0,-2.43903 0,-0.81301 0,-1.62601 0,-2.43902 0,-0.81301 0.19718,-1.65029 0,-2.43903 -0.57786,-2.31143 -2.56661,-4.30019 -4.87805,-4.87804 -0.78874,-0.19719 -1.62602,0 -2.43903,0 -1.21951,0 -2.47543,-0.29578 -3.65853,0 -0.55772,0.13942 -0.67413,1.03771 -1.21952,1.21951 -4.52086,1.50695 -0.79856,-1.64046 -3.65853,1.21951"
       id="path3005"
       inkscape:connector-curvature="0" />
    <path
       style="fill:none;stroke:#000000;stroke-width:1px;stroke-linecap:butt;stroke-linejoin:miter;stroke-opacity:1"
       d="m 380.4878,432.84999 c 0,-1.62602 0.39437,-3.30058 0,-4.87805 -0.0986,-0.39437 -0.85592,0.18179 -1.21951,0 -0.51419,-0.2571 -0.70532,-0.96242 -1.21951,-1.21951 -0.36359,-0.1818 -0.85592,0.18179 -1.21951,0 -0.51419,-0.2571 -0.70532,-0.96242 -1.21951,-1.21952 -0.36359,-0.18179 -0.81301,0 -1.21952,0 -0.813,0 -1.66773,-0.25709 -2.43902,0 -0.54538,0.1818 -0.70532,0.96242 -1.21951,1.21952 -0.36359,0.18179 -0.85593,-0.1818 -1.21951,0 -0.50458,0.25228 -3.31394,3.14163 -3.65854,3.65853 -0.50421,0.75631 -0.93207,1.5767 -1.21951,2.43903 -0.12855,0.38564 0,0.81301 0,1.21951 0,0.81301 -0.2571,1.66774 0,2.43902 0.18179,0.54539 1.03771,0.67413 1.21951,1.21952 0.25709,0.77128 -0.45098,1.76256 0,2.43902 0.5042,0.75631 1.68271,0.71531 2.43902,1.21951 0.47833,0.31889 0.67413,1.03772 1.21952,1.21952 0.77128,0.25709 1.65029,-0.19719 2.43902,0 2.87771,0.71942 1.78808,1.992 4.87805,1.21951 0.72974,-0.18244 6.1988,-2.94983 6.09756,-3.65854 -0.36359,-2.54512 -4.25697,-5.49913 -2.43903,-7.31707 6.58185,-6.58185 5.15072,9.88495 7.31708,1.21951 0.19718,-0.78873 0,-1.62602 0,-2.43902 0,-0.81301 0.19718,-1.6503 0,-2.43903 -0.22046,-0.88183 -0.81301,-1.62602 -1.21951,-2.43902 -0.40651,-0.81301 -0.57678,-1.79629 -1.21952,-2.43903 -0.64274,-0.64274 -1.68271,-0.7153 -2.43902,-1.21951 -5.2591,-3.50607 6.32614,2.04265 -4.87805,-2.43902 -0.84396,-0.33759 -1.55719,-0.99906 -2.43902,-1.21952 -2.94325,-0.73581 -6.03635,1.18891 -8.53659,2.43903 -0.81301,0.4065 -1.68271,0.7153 -2.43902,1.21951 -0.47834,0.31889 -0.81301,0.81301 -1.21952,1.21951 -0.813,0.81301 -1.92483,1.41064 -2.43902,2.43903 -0.36359,0.72717 0.19718,1.65029 0,2.43902 -0.22046,0.88183 -0.99905,1.55719 -1.21951,2.43903 -0.4651,1.8604 0.47829,4.61512 1.21951,6.09756 0.2571,0.51419 0.90062,0.74118 1.21951,1.21951 1.61405,2.42107 0.72812,3.1198 3.65854,4.87805 2.94757,1.76854 6.52448,1.21951 9.7561,1.21951 2.03252,0 4.10451,0.39861 6.09756,0 2.98448,-0.5969 3.97476,-3.46285 6.09756,-4.87805 0.75631,-0.50421 1.93482,-0.4632 2.43902,-1.21951 0.45098,-0.67647 0,-1.62602 0,-2.43903 0,-0.813 0,-1.62601 0,-2.43902 0,-0.81301 0.19719,-1.65029 0,-2.43902 -0.544,-2.17602 -2.17835,-3.39787 -3.65853,-4.87805 -0.81301,-0.81301 -1.41065,-1.92484 -2.43903,-2.43903 -0.72718,-0.36359 -1.65029,0.19719 -2.43902,0 -0.88183,-0.22046 -1.54771,-1.04125 -2.43903,-1.21951 -1.19583,-0.23917 -2.43902,0 -3.65853,0 -2.96245,0 -4.20939,1.77036 -6.09756,3.65854 -0.40651,0.4065 -0.96242,0.70532 -1.21952,1.21951 -0.1711,0.3422 -0.1711,4.53585 0,4.87805 0.10461,0.20922 3.50704,3.60804 3.65854,3.65853 0.77129,0.2571 1.69175,0.32026 2.43902,0 2.17866,-0.93371 4.31373,-2.09768 6.09756,-3.65853 0.30954,-0.27084 4.52596,-4.36273 3.65854,-6.09756 -1.3482,-2.69641 -0.75688,-0.37844 -2.43902,-1.21952 -0.51419,-0.25709 -0.70532,-0.96241 -1.21952,-1.21951 -0.25015,-0.12508 -3.48655,-0.17198 -3.65853,0 -0.60976,0.60976 0.60975,3.04878 0,3.65854 -0.28744,0.28744 -1.46342,-0.3252 -1.21951,0 1.37972,1.83963 4.6241,2.59258 4.87804,4.87805 0.26176,2.35581 -2.5985,3.97749 -3.65853,6.09756 -0.13667,0.27333 0,4.58825 0,4.87805 0,10.97561 0,21.95122 0,32.92683 0,3.25203 0,6.50406 0,9.75609 0,1.21952 0,2.43903 0,3.65854 0,1.21951 0.20048,2.45562 0,3.65854 -0.21133,1.26799 -1.00818,2.39055 -1.21951,3.65853 -0.20049,1.20292 0,2.43903 0,3.65854 0,2.03252 0,4.06504 0,6.09756 0,1.21951 0.23916,2.46271 0,3.65854 -0.17827,0.89132 -1.04125,1.5477 -1.21952,2.43902 -0.23916,1.19583 0,2.43903 0,3.65854 0,3.65854 0,7.31707 0,10.97561 0,0.65148 -0.17451,5.74853 0,6.09756 0.2571,0.51419 0.96242,0.70532 1.21952,1.21951 0.16033,0.32066 0,4.24034 0,4.87805 0,1.62602 0,3.25203 0,4.87805 0,0.4065 0,0.81301 0,1.21951 0,0.40651 0.4065,1.21951 0,1.21951 -0.0895,0 0.11188,-3.43477 0,-3.65853 -0.2571,-0.51419 -0.96242,-0.70532 -1.21952,-1.21951 -0.36358,-0.72718 0.2571,-1.66774 0,-2.43903 -0.7383,-2.21491 -1.04371,-2.26323 -2.43902,-3.65854 -0.4065,-0.4065 -0.70532,-0.96241 -1.21951,-1.21951 -0.36359,-0.18179 -0.85593,0.1818 -1.21951,0 -0.5142,-0.25709 -0.70533,-0.96241 -1.21952,-1.21951 -0.0638,-0.0319 -3.59473,-0.0319 -3.65853,0 -0.5142,0.2571 -0.96242,0.70532 -1.21952,1.21951 -0.36358,0.72718 0.2571,1.66774 0,2.43903 -0.28744,0.86232 -0.93207,1.5767 -1.21951,2.43902 -0.12855,0.38564 0,0.81301 0,1.21951 0,0.81301 -0.25709,1.66774 0,2.43903 0.1818,0.54538 1.03772,0.67413 1.21951,1.21951 0.2571,0.77129 -0.25709,1.66774 0,2.43902 0.1818,0.54539 0.81301,0.81301 1.21952,1.21952 2.82306,2.82306 3.72558,2.43902 7.31707,2.43902 0.81301,0 1.62602,0 2.43902,0 0.81301,0 1.71185,0.36359 2.43903,0 1.02838,-0.51419 1.62601,-1.62602 2.43902,-2.43902 1.21951,-1.21952 2.62375,-2.27882 3.65854,-3.65854 0.54538,-0.72718 0.81301,-1.62602 1.21951,-2.43902 1.005,-2.01 3.23278,-4.93581 2.43903,-7.31708 -0.1818,-0.54538 -0.90063,-0.74118 -1.21952,-1.21951 -0.5042,-0.75631 -0.4632,-1.93482 -1.21951,-2.43902 -0.67646,-0.45098 -1.65029,0.19718 -2.43902,0 -0.88183,-0.22046 -1.5572,-0.99906 -2.43903,-1.21952 -0.78873,-0.19718 -1.62601,0 -2.43902,0 -0.81301,0 -1.65029,-0.19718 -2.43903,0 -0.88183,0.22046 -1.62601,0.81301 -2.43902,1.21952 -0.81301,0.4065 -1.62602,0.813 -2.43902,1.21951 -0.81301,0.4065 -1.79629,0.57677 -2.43903,1.21951 -0.64274,0.64274 -0.57677,1.79628 -1.21951,2.43902 -0.64274,0.64274 -1.93482,0.46321 -2.43903,1.21952 -0.45097,0.67646 0.19719,1.65029 0,2.43902 -0.22045,0.88183 -0.93207,1.5767 -1.21951,2.43903 -0.12855,0.38564 0,0.813 0,1.21951 0,0.81301 -0.25709,1.66773 0,2.43902 0.1818,0.54538 0.90063,0.74118 1.21951,1.21951 0.42689,0.64033 1.24068,3.25909 2.43903,3.65854 0.77129,0.2571 1.62601,0 2.43902,0 0.81301,0 1.62602,0 2.43903,0 1.21951,0 2.4627,0.23917 3.65853,0 0.89132,-0.17826 1.59507,-0.88193 2.43903,-1.21951 1.75675,-0.7027 4.46329,-1.21332 6.09756,-2.43903 0.91981,-0.68986 1.62602,-1.62601 2.43902,-2.43902 0.81301,-0.81301 1.74917,-1.51921 2.43903,-2.43902 0.54538,-0.72718 0.81301,-1.62602 1.21951,-2.43903 0.4065,-0.81301 0.99905,-1.55719 1.21951,-2.43902 0.60278,-2.41113 0.14866,-2.29038 -1.21951,-3.65854 -2.49409,-2.49409 -4.04033,-2.43902 -7.31707,-2.43902 -1.21952,0 -2.45562,-0.20049 -3.65854,0 -1.26799,0.21133 -2.43902,0.813 -3.65854,1.21951 -1.21951,0.4065 -2.43902,0.81301 -3.65853,1.21951 -1.21951,0.4065 -2.55625,0.55814 -3.65854,1.21951 -3.01578,1.80947 -2.44687,3.06839 -3.65854,6.09756 -0.33758,0.84396 -0.99905,1.5572 -1.21951,2.43903 -0.19718,0.78873 0,1.62601 0,2.43902 0,1.93203 -0.36359,3.29495 1.21951,4.87805 0.64274,0.64274 1.59507,0.88193 2.43903,1.21951 3.69152,1.47661 2.84,1.21951 6.09756,1.21951 1.21951,0 2.45562,0.20049 3.65854,0 1.26798,-0.21133 2.43902,-0.813 3.65853,-1.21951 1.21951,-0.4065 2.50877,-0.64463 3.65854,-1.21951 3.0768,-1.5384 3.82897,-2.60946 6.09756,-4.87805 3.10979,-3.10979 3.65854,-2.90999 3.65854,-7.31707 0,-1.93203 0.36359,-3.29495 -1.21952,-4.87805 -0.64273,-0.64274 -1.55719,-0.99905 -2.43902,-1.21951 -0.95929,-0.23982 -6.04887,0 -7.31707,0 -1.21952,0 -2.52625,-0.45292 -3.65854,0 -1.06753,0.42701 -1.62602,1.62601 -2.43902,2.43902 -0.40651,0.40651 -0.81301,0.81301 -1.21952,1.21951 -0.813,0.81301 -1.62601,1.62602 -2.43902,2.43903 -0.4065,0.4065 -0.96242,0.70532 -1.21951,1.21951 -0.1818,0.36359 0,0.81301 0,1.21951 0,0.40651 0,0.81301 0,1.21952 0,0.4065 -0.28744,0.93207 0,1.21951 0.28744,0.28744 0.81301,0 1.21951,0 0.81301,0 1.62602,0 2.43902,0 0.40651,0 0.83387,0.12855 1.21952,0 0.86232,-0.28744 1.68271,-0.71531 2.43902,-1.21951 0.50715,-0.33811 4.65997,-4.44189 4.87805,-4.87805 0.18179,-0.36359 0,-0.81301 0,-1.21952 0,-3.10751 -1.42247,-1.62543 -2.43903,-3.65853 -0.18179,-0.36359 0,-0.81301 0,-1.21951"
       id="path3007"
       inkscape:connector-curvature="0" />
  </g>
</svg>
