<?xml version="1.0" encoding="UTF-8" standalone="no"?>
<!-- Created with Inkscape (http://www.inkscape.org/) -->

<svg
   xmlns:dc="http://purl.org/dc/elements/1.1/"
   xmlns:cc="http://creativecommons.org/ns#"
   xmlns:rdf="http://www.w3.org/1999/02/22-rdf-syntax-ns#"
   xmlns:svg="http://www.w3.org/2000/svg"
   xmlns="http://www.w3.org/2000/svg"
   xmlns:sodipodi="http://sodipodi.sourceforge.net/DTD/sodipodi-0.dtd"
   xmlns:inkscape="http://www.inkscape.org/namespaces/inkscape"
   width="238.57903"
   height="94.217628"
   id="svg2"
   version="1.1"
   inkscape:version="0.48.2 r9819"
   sodipodi:docname="New document 1">
  <defs
     id="defs4" />
  <sodipodi:namedview
     id="base"
     pagecolor="#ffffff"
     bordercolor="#666666"
     borderopacity="1.0"
     inkscape:pageopacity="0.0"
     inkscape:pageshadow="2"
     inkscape:zoom="1.01"
     inkscape:cx="175.34375"
     inkscape:cy="16.610294"
     inkscape:document-units="px"
     inkscape:current-layer="layer1"
     showgrid="false"
     fit-margin-top="0"
     fit-margin-left="0"
     fit-margin-right="0"
     fit-margin-bottom="0"
     inkscape:window-width="1280"
     inkscape:window-height="737"
     inkscape:window-x="-8"
     inkscape:window-y="-8"
     inkscape:window-maximized="1" />
  <metadata
     id="metadata7">
    <rdf:RDF>
      <cc:Work
         rdf:about="">
        <dc:format>image/svg+xml</dc:format>
        <dc:type
           rdf:resource="http://purl.org/dc/dcmitype/StillImage" />
        <dc:title></dc:title>
      </cc:Work>
    </rdf:RDF>
  </metadata>
  <g
     inkscape:label="Layer 1"
     inkscape:groupmode="layer"
     id="layer1"
     transform="translate(-199.65625,-454.75485)">
    <path
       style="fill:none;stroke:#000000;stroke-width:1px;stroke-linecap:butt;stroke-linejoin:miter;stroke-opacity:1"
       d="m 200,510.77802 c 1.32013,1.32014 2.50255,2.79413 3.9604,3.9604 0.51542,0.41234 1.354,-0.20873 1.98019,0 0.70011,0.23337 1.2801,0.75673 1.9802,0.9901 0.3131,0.10436 0.677,-0.10437 0.9901,0 5.60959,2.80479 -1.47595,-0.36899 3.9604,0.9901 0.71594,0.17898 1.28009,0.75673 1.9802,0.9901 0.31309,0.10436 0.66006,0 0.99009,0 0.9901,0 1.99943,-0.19418 2.9703,0 0.72365,0.14473 1.26426,0.81111 1.9802,0.9901 0.64036,0.16009 1.32013,0 1.9802,0 0.9901,0 1.9802,0 2.97029,0 1.65017,0 3.30033,0 4.9505,0 0.66007,0 1.33984,0.16009 1.9802,0 0.71594,-0.17899 1.25655,-0.84537 1.9802,-0.9901 1.04553,-0.20911 5.49881,0 6.93069,0 0.66006,0 1.354,0.20873 1.9802,0 0.44278,-0.1476 0.54731,-0.84251 0.9901,-0.9901 0.56323,-0.18775 4.01798,0 4.95049,0 3.9604,0 7.92079,0 11.88119,0 0.68865,0 4.59244,0.17902 4.95049,0 0.41747,-0.20873 0.57264,-0.78137 0.9901,-0.9901 0.59038,-0.29519 1.51346,0.46674 1.9802,0 0.23337,-0.23337 0,-0.66007 0,-0.9901 0,-0.33003 0,-0.66007 0,-0.9901 0,-1.2771 -0.22419,-6.25812 0,-6.93069 0.23337,-0.70011 0.81111,-1.26426 0.9901,-1.9802 0.38827,-1.5531 -0.38827,-3.3974 0,-4.95049 0.17899,-0.71595 0.81111,-1.26426 0.9901,-1.9802 0.31094,-1.24376 -0.31094,-2.71664 0,-3.9604 0.17898,-0.71594 0.81111,-1.26425 0.9901,-1.9802 0.16009,-0.64036 -0.16009,-1.33984 0,-1.9802 0.17898,-0.71594 0.81111,-1.26425 0.9901,-1.98019 0.16009,-0.64036 -0.16009,-1.33984 0,-1.9802 0.17898,-0.71594 0.66006,-1.32013 0.9901,-1.9802 0.33003,-0.66007 0.66006,-1.32013 0.99009,-1.9802 0.66007,-1.32013 1.32014,-2.64026 1.9802,-3.96039 0.33004,-0.66007 0.58075,-1.36617 0.9901,-1.9802 0.7767,-1.16505 2.13017,-1.85013 2.9703,-2.9703 0.44278,-0.59038 0.46827,-1.45837 0.9901,-1.9802 0.52183,-0.52182 1.38981,-0.54731 1.9802,-0.9901 0.74678,-0.56008 1.23341,-1.42011 1.98019,-1.98019 0.59038,-0.44279 1.34739,-0.61042 1.9802,-0.9901 10.94805,-7.2987 -2.66081,1.59648 4.9505,-2.9703 1.02037,-0.61222 1.90597,-1.44804 2.97029,-1.9802 1.86695,-0.93347 4.07365,-1.04672 5.9406,-1.9802 1.06432,-0.53216 1.90597,-1.44803 2.9703,-1.98019 0.77793,-0.38897 8.11344,-2.85638 8.91089,-2.9703 1.30686,-0.1867 2.64026,0 3.96039,0 0.9901,0 1.9802,0 2.9703,0 1.32013,0 2.64026,0 3.9604,0 0.99009,0 1.99366,-0.16277 2.97029,0 1.02946,0.17158 1.9802,0.66007 2.9703,0.9901 0.9901,0.33003 1.9802,0.66006 2.9703,0.9901 0.9901,0.33003 2.03682,0.52336 2.97029,0.9901 1.06433,0.53216 1.94993,1.36797 2.9703,1.98019 3.08485,1.85091 1.30115,0.0508 4.9505,2.9703 0.72892,0.58314 1.17975,1.49993 1.98019,1.9802 0.89493,0.53696 2.07537,0.45314 2.9703,0.9901 0.80045,0.48027 1.32013,1.32013 1.9802,1.9802 0.66006,0.66006 1.42011,1.23342 1.9802,1.98019 0.44278,0.59039 0.46827,1.45837 0.9901,1.9802 0.52182,0.52183 1.45837,0.46827 1.98019,0.9901 0.0635,0.0634 1.85725,3.77597 1.9802,3.9604 1.20775,1.81162 1.26232,0.0988 1.9802,2.97029 0.16009,0.64036 -0.16009,1.33984 0,1.9802 0.17899,0.71595 0.81111,1.26426 0.9901,1.9802 0.16009,0.64036 0,1.32013 0,1.9802 0,2.31023 0,4.62046 0,6.93069 0,0.9901 0,1.9802 0,2.9703 0,0.9901 0.19417,1.99942 0,2.9703 -0.14473,0.72364 -0.84537,1.25655 -0.9901,1.98019 -0.38835,1.94175 0.38835,3.99885 0,5.9406 -0.14473,0.72364 -0.84537,1.25655 -0.9901,1.9802 -0.32362,1.61812 0.40022,3.3496 0,4.95049 -0.17898,0.71594 -0.81111,1.26426 -0.9901,1.9802 -0.16009,0.64036 0.16009,1.33984 0,1.9802 -0.17898,0.71594 -0.75673,1.28009 -0.9901,1.9802 -0.10436,0.31309 0.10437,0.677 0,0.99009 -0.23337,0.70011 -0.75673,1.2801 -0.9901,1.9802 -0.10436,0.3131 0.1476,0.69491 0,0.9901 -0.20873,0.41746 -0.78136,0.57264 -0.9901,0.9901 -0.14759,0.29519 0.1476,0.69491 0,0.9901 -3.28374,3.28374 0.46674,-0.93347 -0.99009,1.9802 -0.2644,0.52879 -2.44905,2.44904 -2.9703,2.97029 -0.9901,0.9901 -1.9802,1.9802 -2.9703,2.9703 -0.33003,0.33003 -0.60175,0.7312 -0.9901,0.9901 -7.17879,3.5894 1.56549,-1.04366 -2.97029,1.9802 -0.61404,0.40935 -1.45837,0.46827 -1.9802,0.9901 -0.52183,0.52183 -0.46827,1.45837 -0.9901,1.9802 -0.52183,0.52182 -1.32013,0.66006 -1.9802,0.99009 -0.66007,0.33004 -1.32013,0.66007 -1.9802,0.9901 -1.32013,0.66007 -2.59001,1.43205 -3.96039,1.9802 -0.96901,0.38761 -2.00129,0.6025 -2.9703,0.9901 -1.37039,0.54816 -2.64026,1.32013 -3.9604,1.9802 -0.66006,0.33003 -1.25655,0.84537 -1.98019,0.9901 -1.61812,0.32362 -3.3496,-0.40023 -4.9505,0 -0.71594,0.17898 -1.26426,0.81111 -1.9802,0.9901 -0.64036,0.16009 -1.32013,0 -1.9802,0 -0.66006,0 -1.32013,0 -1.98019,0 -0.66007,0 -1.32014,0 -1.9802,0 -0.66007,0 -1.33984,0.16009 -1.9802,0 -0.71594,-0.17899 -1.26426,-0.81112 -1.9802,-0.9901 -0.64036,-0.16009 -1.32013,0 -1.9802,0 -1.65016,0 -3.33237,0.32362 -4.95049,0 -0.72365,-0.14473 -1.26426,-0.81112 -1.9802,-0.9901 -1.28072,-0.32018 -2.67968,0.32018 -3.9604,0 -0.71594,-0.17899 -1.26425,-0.81111 -1.98019,-0.9901 -0.64036,-0.16009 -1.35401,0.20873 -1.9802,0 -0.44279,-0.1476 -0.54731,-0.8425 -0.9901,-0.9901 -0.62619,-0.20873 -1.33984,0.16009 -1.9802,0 -0.71594,-0.17898 -1.26425,-0.81111 -1.9802,-0.9901 -0.64035,-0.16009 -1.354,0.20873 -1.98019,0 -0.44279,-0.14759 -0.54732,-0.8425 -0.9901,-0.9901 -0.6262,-0.20873 -1.35401,0.20873 -1.9802,0 -0.67045,-0.22348 -2.21397,-2.59213 -2.9703,-2.97029 -0.29519,-0.1476 -0.69491,0.14759 -0.9901,0 -2.18916,-1.09459 -0.30725,-0.6145 -0.9901,-1.9802 -0.20873,-0.41746 -0.78136,-0.57264 -0.9901,-0.9901 -0.26391,-0.52784 0.26392,-1.45236 0,-1.9802 -0.20873,-0.41746 -0.78136,-0.57264 -0.99009,-0.9901 -0.29519,-0.59038 0.29519,-1.38982 0,-1.9802 -0.20874,-0.41746 -0.78137,-0.57263 -0.9901,-0.9901 -0.39604,-0.79207 0.39604,-2.17821 0,-2.97029 -0.20873,-0.41747 -0.78137,-0.57264 -0.9901,-0.9901 -0.29519,-0.59038 0.29519,-1.38982 0,-1.9802 -0.20873,-0.41746 -0.78137,-0.57264 -0.9901,-0.9901 -0.29519,-0.59038 0.29519,-1.38982 0,-1.9802 -0.20873,-0.41746 -0.78137,-0.57263 -0.9901,-0.9901 -0.29519,-0.59038 0.46674,-1.51346 0,-1.98019 -0.23337,-0.23337 -0.75673,0.23336 -0.9901,0 -0.20241,-0.20242 0.19628,-2.57773 0,-2.9703 -1.22347,-2.44694 -0.9901,0.34176 -0.9901,-1.9802 0,-0.33003 -0.33003,-0.9901 0,-0.9901 0.33003,0 -0.33003,0.9901 0,0.9901 3.49177,0 -1.51084,-1.9802 1.9802,-1.9802"
       id="path2985"
       inkscape:connector-curvature="0" />
    <path
       style="fill:none;stroke:#000000;stroke-width:1px;stroke-linecap:butt;stroke-linejoin:miter;stroke-opacity:1"
       d="m 360.39604,505.82753 c 0.28512,-0.69708 5.76771,0.38766 6.93069,0 0.44279,-0.1476 0.54732,-0.8425 0.9901,-0.9901 1.25239,-0.41746 2.70801,0.41746 3.9604,0 0.44278,-0.1476 0.54731,-0.8425 0.9901,-0.9901 0.62619,-0.20873 1.32013,0 1.98019,0 0.9901,0 1.9802,0 2.9703,0 0.66007,0 1.33984,0.16009 1.9802,0 0.71594,-0.17898 1.25655,-0.84537 1.9802,-0.9901 1.94174,-0.38835 3.98734,0.32554 5.94059,0 1.02946,-0.17157 1.94084,-0.81852 2.9703,-0.9901 1.95325,-0.32554 3.98734,0.32555 5.94059,0 1.02946,-0.17157 1.93713,-0.8425 2.9703,-0.9901 1.30686,-0.18669 2.64026,0 3.9604,0 1.98019,0 3.96039,0 5.94059,0 0.9901,0 1.99015,0.14003 2.9703,0 1.34708,-0.19244 2.61815,-0.76639 3.96039,-0.99009 0.65109,-0.10852 1.32014,0 1.9802,0 0.9901,0 1.9802,0 2.9703,0 4.29043,0 8.58086,0 12.87129,0 0.24012,0 2.93845,0.0318 2.97029,0 0.23337,-0.23337 0,-0.66007 0,-0.9901"
       id="path2987"
       inkscape:connector-curvature="0" />
    <path
       style="fill:none;stroke:#000000;stroke-width:1px;stroke-linecap:butt;stroke-linejoin:miter;stroke-opacity:1"
       d="m 361.38614,501.86713 c -0.95332,2.95191 -3.47454,-0.73797 -4.9505,0 -0.41746,0.20873 -0.66006,0.66007 -0.9901,0.9901 -0.33003,0.33004 -0.57263,0.78137 -0.99009,0.9901 -0.29519,0.1476 -0.75673,-0.23337 -0.9901,0 -0.23337,0.23337 0.14759,0.69491 0,0.9901 -0.20873,0.41746 -0.78137,0.57264 -0.9901,0.9901 -0.1476,0.29519 0.23337,0.75673 0,0.9901 -0.23337,0.23337 -0.75673,-0.23337 -0.9901,0 -0.13963,0.13963 -0.10155,2.7672 0,2.9703 0.20873,0.41746 0.57264,0.78136 0.9901,0.99009 0.29519,0.1476 0.69491,-0.14759 0.9901,0 0.41746,0.20874 0.57263,0.78137 0.9901,0.9901 0.0518,0.0259 2.91849,0.0259 2.97029,0 0.41746,-0.20873 0.54732,-0.8425 0.9901,-0.9901 0.6262,-0.20873 1.35401,0.20874 1.9802,0 0.44279,-0.14759 0.66007,-0.66006 0.9901,-0.99009 0.33003,-0.33004 0.66006,-0.66007 0.9901,-0.9901 0.33003,-0.33004 0.78137,-0.57264 0.9901,-0.9901 0.14759,-0.29519 0.10436,-0.67701 0,-0.9901 -0.56203,-1.68608 -0.80985,-3.61296 -1.9802,-4.9505 -1.26723,-1.44826 -3.16373,-2.25559 -4.9505,-2.97029 -0.30642,-0.12258 0.1476,0.6949 0,0.9901 -0.20873,0.41746 -0.57263,0.78136 -0.9901,0.99009 -0.29519,0.1476 -0.75673,-0.23336 -0.99009,0 -0.23337,0.23337 0.10436,0.67701 0,0.9901 -1.1377,3.41309 -0.9901,0.73343 -0.9901,2.9703 0,0.33003 -0.10437,0.677 0,0.9901 0.23337,0.7001 0.75673,1.28009 0.9901,1.9802 0.10436,0.31309 -0.1476,0.69491 0,0.9901 0.20873,0.41746 0.66006,0.66006 0.99009,0.9901 0.33004,0.33003 0.66007,0.66006 0.9901,0.99009 2.06602,2.06602 1.16832,1.9802 3.9604,1.9802 0.33003,0 0.69491,0.1476 0.9901,0 0.83492,-0.41746 1.14527,-1.56273 1.9802,-1.9802 1.0561,-0.52805 1.32345,0.98015 1.98019,-0.99009 0.20874,-0.6262 0,-1.32014 0,-1.9802 0,-2.28996 0.20617,-5.9406 -3.96039,-5.9406 -1.92441,0 -2.25559,3.16373 -2.9703,4.9505 -0.12257,0.30643 0.69491,-0.1476 0.9901,0 2.44694,1.22347 -0.34176,0.9901 1.9802,0.9901 0.51774,0 3.70006,0.13017 3.96039,0 0.41747,-0.20873 0.78137,-0.57264 0.9901,-0.9901 0.1476,-0.29519 0,-0.66007 0,-0.9901 0,-0.33003 0,-0.66007 0,-0.9901 0,-0.33003 0,-0.66007 0,-0.9901 0,-0.33003 0.30643,-0.86753 0,-0.9901 -1.56248,-0.62499 -3.30033,-0.66006 -4.95049,-0.9901 z"
       id="path2989"
       inkscape:connector-curvature="0" />
    <path
       style="fill:none;stroke:#000000;stroke-width:1px;stroke-linecap:butt;stroke-linejoin:miter;stroke-opacity:1"
       d="m 271.28713,509.78793 c 0.28312,4.66737 -3.78365,-1.16685 -4.9505,0 -0.23336,0.23336 0.1476,0.6949 0,0.99009 -0.59406,1.18812 -2.37623,1.78218 -2.97029,2.9703 -0.1476,0.29519 0.23337,0.75673 0,0.9901 -0.23337,0.23337 -0.75673,-0.23337 -0.9901,0 -0.23337,0.23337 0.14759,0.69491 0,0.9901 -0.40253,0.80506 -1.57059,0.81922 -0.9901,1.9802 0.20873,0.41746 0.66006,0.66006 0.9901,0.9901 0.33003,0.33003 0.57263,0.78136 0.9901,0.9901 0.29519,0.14759 0.66006,0 0.9901,0 0.33003,0 0.6949,0.14759 0.99009,0 0.41747,-0.20874 0.66007,-0.66007 0.9901,-0.9901 0.33004,-0.33004 0.66007,-0.66007 0.9901,-0.9901 0.33004,-0.33004 0.78137,-0.57264 0.9901,-0.9901 0.26366,-0.52732 -0.26366,-1.45288 0,-1.9802 0.86062,-1.72124 3.83092,-3.22925 2.9703,-4.95049 -0.75259,-1.50519 -3.26765,0.99009 -4.9505,0.99009 -0.46673,0 -0.57263,-0.78136 -0.9901,-0.99009 -0.0518,-0.0259 -2.91849,-0.0259 -2.97029,0 -0.41746,0.20873 -0.66007,0.66006 -0.9901,0.99009 -0.33003,0.33004 -0.78137,0.57264 -0.9901,0.9901 -0.1476,0.29519 0,0.66007 0,0.9901 0,0.66007 0,1.32013 0,1.9802 0,0.66007 -0.20873,1.354 0,1.9802 0.23337,0.7001 0.58074,1.36616 0.9901,1.9802 0.27978,0.41966 2.56064,2.76547 2.9703,2.97029 0.29519,0.1476 0.66006,0 0.99009,0 0.33004,0 0.66007,0 0.9901,0 0.9901,0 2.03101,0.3131 2.9703,0 0.44279,-0.14759 0.66007,-0.66006 0.9901,-0.9901 0.33003,-0.33003 0.78137,-0.57263 0.9901,-0.99009 0.14759,-0.2952 -0.1476,-0.69491 0,-0.9901 0.20873,-0.41747 0.8425,-0.54732 0.9901,-0.9901 0.20873,-0.6262 0,-1.32013 0,-1.9802 0,-0.33003 0.0543,-0.66456 0,-0.9901 -0.27666,-1.65995 0.41011,-4.01702 -0.9901,-4.95049 -0.70291,-0.46861 -5.06555,0.2301 -5.9406,1.98019 -0.13016,0.26034 0,3.44266 0,3.9604 0,0.33003 -0.23336,0.75673 0,0.9901 0.23337,0.23337 0.69491,-0.1476 0.9901,0 0.83493,0.41746 1.09463,1.68501 1.9802,1.9802 4.20792,1.40264 1.03135,-0.0413 1.9802,-0.9901 0.23337,-0.23337 0.69491,0.14759 0.9901,0 0.41746,-0.20873 0.66006,-0.66007 0.9901,-0.9901 0.33003,-0.33003 0.66006,-0.66007 0.9901,-0.9901 0.33003,-0.33003 1.13769,-0.54731 0.9901,-0.9901 -0.60856,-1.82565 -1.60954,-3.58973 -2.9703,-4.95049 -1.36076,-1.36077 -3.05227,-2.65393 -4.9505,-2.9703 -1.09141,-0.1819 -1.22179,5.4772 -0.9901,5.94059 0.20874,0.41746 0.57264,1.19883 0.9901,0.9901 1.89015,-0.94507 3.30033,-2.64026 4.9505,-3.96039 z"
       id="path2991"
       inkscape:connector-curvature="0" />
    <path
       style="fill:none;stroke:#000000;stroke-width:1px;stroke-linecap:butt;stroke-linejoin:miter;stroke-opacity:1"
       d="m 281.18812,466.22357 c -1.32013,0.9901 -2.9703,4.29043 -3.9604,2.9703 -0.9901,-1.32014 3.9604,-4.62047 3.9604,-2.9703 0,2.11324 -2.78818,3.19217 -3.9604,4.95049 -0.10619,0.15929 -0.12025,2.85005 0,2.9703 0.23337,0.23337 0.66007,0 0.9901,0 0.33003,0 0.66007,0 0.9901,0 0.4459,0 2.66898,0.15066 2.9703,0 0.41746,-0.20873 0.66006,-0.66007 0.9901,-0.9901 0.33003,-0.33003 0.78136,-0.57263 0.9901,-0.9901 0.14759,-0.29519 0.14759,-0.69491 0,-0.9901 -0.86062,-1.72124 -1.04589,-4.95049 -2.9703,-4.95049 -1.68285,0 -0.9901,3.26765 -0.9901,4.95049 0,0.33004 0.66007,0 0.9901,0 0.33003,0 0.66006,0 0.9901,0 0.33003,0 1.05482,0.32363 0.9901,0 -0.34856,-1.74276 -0.20292,-4.95049 -1.9802,-4.95049 -1.65017,0 -0.27129,3.32278 0,4.95049 0.0767,0.46039 0.78137,0.57264 0.9901,0.9901 0.14759,0.29519 -0.1476,0.69491 0,0.9901 0.20873,0.41746 0.78137,0.57264 0.9901,0.9901 0.14759,0.29519 -0.1476,0.69491 0,0.9901 0.20873,0.41746 0.66006,0.66007 0.9901,0.9901 0.33003,0.33003 0.57263,0.78137 0.99009,0.9901 0.2952,0.14759 0.69491,-0.1476 0.9901,0 0.83493,0.41746 1.14528,1.56273 1.9802,1.9802 0.29519,0.14759 0.69491,-0.1476 0.9901,0 0.41746,0.20873 0.57264,0.78136 0.9901,0.99009 0.29519,0.1476 0.66007,0 0.9901,0 0.66006,0 1.354,-0.20873 1.9802,0 0.44278,0.1476 0.57263,0.78137 0.9901,0.9901 0.6223,0.31115 3.33809,-0.31115 3.96039,0 0.41746,0.20874 0.57264,0.78137 0.9901,0.9901 0.22191,0.11096 3.72512,0 3.9604,0 1.65016,0 3.30033,0 4.95049,0 0.66007,0 1.35401,0.20873 1.9802,0 0.70011,-0.23337 1.28009,-0.75673 1.9802,-0.9901 0.62619,-0.20873 1.38982,0.29519 1.9802,0 0.41746,-0.20873 0.66006,-0.66006 0.9901,-0.9901 0.66006,0 1.354,0.20874 1.98019,0 0.88557,-0.29519 1.14528,-1.56273 1.9802,-1.98019 0.29519,-0.1476 0.66007,0 0.9901,0 0.66007,-0.33004 1.36616,-0.58075 1.9802,-0.9901 1.4569,-0.97127 2.50349,-2.98913 3.96039,-3.9604 0.61404,-0.40935 1.36617,-0.58074 1.9802,-0.9901 0.38835,-0.2589 0.66007,-0.66006 0.9901,-0.9901 0.9901,-0.9901 1.9802,-1.98019 2.9703,-2.97029 0.33003,-0.33004 0.66006,-0.66007 0.9901,-0.9901 0.33003,-0.33004 0.78137,-0.57264 0.9901,-0.9901 0.14759,-0.29519 -0.1476,-0.69491 0,-0.9901 0.20873,-0.41746 0.78136,-0.57264 0.9901,-0.9901 0.14759,-0.29519 -0.1476,-0.69491 0,-0.9901 0.20873,-0.41746 0.78136,-0.57263 0.99009,-0.9901 0.1476,-0.29519 -0.14759,-0.69491 0,-0.9901 0.20874,-0.41746 0.78137,-0.57263 0.9901,-0.9901 0.10155,-0.20309 0.13963,-2.83066 0,-2.97029 -0.13963,-0.13963 -2.7672,-0.10155 -2.97029,0 -0.41747,0.20873 -0.57264,0.78137 -0.9901,0.9901 -0.29519,0.14759 -0.75673,-0.23337 -0.9901,0 -0.46674,0.46673 0.46674,1.51346 0,1.98019 -0.23337,0.23337 -0.75673,-0.23336 -0.9901,0 -0.23337,0.23337 -0.23337,0.75674 0,0.9901 0.23337,0.23337 0.75673,-0.23336 0.9901,0 0.23337,0.23337 -0.23337,0.75673 0,0.9901 0.23337,0.23337 0.66006,0 0.9901,0 0.93251,0 4.38726,0.18775 4.95049,0 0.39051,-0.13017 3.44266,-3.44265 3.9604,-3.96039 0.53671,-0.53671 1.47571,-1.00898 0.9901,-1.9802 -0.20873,-0.41746 -0.57264,-0.78137 -0.9901,-0.9901 -0.26034,-0.13017 -3.44265,0 -3.9604,0 -0.33003,0 -0.66006,0 -0.9901,0 -0.33003,0 -0.69491,-0.1476 -0.9901,0 -0.41746,0.20873 -0.57263,0.78137 -0.99009,0.9901 -0.2952,0.14759 -0.75674,-0.23337 -0.9901,0 -0.23337,0.23337 0.14759,0.69491 0,0.9901 -0.20873,0.41746 -0.78137,0.57263 -0.9901,0.9901 -0.1476,0.29519 0,0.66006 0,0.9901 0,0.33003 0,0.66006 0,0.99009 0,0.33004 0,0.66007 0,0.9901 0,0.33004 -0.23337,0.75673 0,0.9901 0.23337,0.23337 0.75673,-0.23337 0.9901,0 0.23336,0.23337 -0.23337,0.75673 0,0.9901 0.23336,0.23337 0.66006,0 0.9901,0 0.24012,0 2.93845,0.0318 2.97029,0 0.23337,-0.23337 -0.23337,-0.75673 0,-0.9901 0.23337,-0.23337 0.75673,0.23337 0.9901,0 0.23337,-0.23337 0,-0.66006 0,-0.9901 0,-0.33003 0,-0.66006 0,-0.9901 0,-0.33003 0,-0.66006 0,-0.99009 0,-0.33004 0.23337,-0.75673 0,-0.9901 -0.23337,-0.23337 -0.69491,0.14759 -0.9901,0 -0.41746,-0.20873 -0.52336,-0.9901 -0.9901,-0.9901 -0.46673,0 -0.9901,0.52336 -0.9901,0.9901 0,0.33003 0.69491,0.14759 0.9901,0 0.41747,-0.20873 0.57264,-0.78137 0.9901,-0.9901 2.3041,-1.15205 -0.44553,2.87125 1.9802,-1.9802"
       id="path2993"
       inkscape:connector-curvature="0" />
  </g>
</svg>
