<?xml version="1.0" encoding="UTF-8" standalone="no"?>
<!-- Created with Inkscape (http://www.inkscape.org/) -->

<svg
   xmlns:dc="http://purl.org/dc/elements/1.1/"
   xmlns:cc="http://creativecommons.org/ns#"
   xmlns:rdf="http://www.w3.org/1999/02/22-rdf-syntax-ns#"
   xmlns:svg="http://www.w3.org/2000/svg"
   xmlns="http://www.w3.org/2000/svg"
   xmlns:sodipodi="http://sodipodi.sourceforge.net/DTD/sodipodi-0.dtd"
   xmlns:inkscape="http://www.inkscape.org/namespaces/inkscape"
   width="340.75247"
   height="306.25018"
   id="svg2"
   version="1.1"
   inkscape:version="0.48.2 r9819"
   sodipodi:docname="New document 1">
  <defs
     id="defs4" />
  <sodipodi:namedview
     id="base"
     pagecolor="#ffffff"
     bordercolor="#666666"
     borderopacity="1.0"
     inkscape:pageopacity="0.0"
     inkscape:pageshadow="2"
     inkscape:zoom="0.76"
     inkscape:cx="221.84621"
     inkscape:cy="189.32549"
     inkscape:document-units="px"
     inkscape:current-layer="layer1"
     showgrid="false"
     fit-margin-top="0"
     fit-margin-left="0"
     fit-margin-right="0"
     fit-margin-bottom="0"
     inkscape:window-width="1280"
     inkscape:window-height="737"
     inkscape:window-x="-8"
     inkscape:window-y="-8"
     inkscape:window-maximized="1" />
  <metadata
     id="metadata7">
    <rdf:RDF>
      <cc:Work
         rdf:about="">
        <dc:format>image/svg+xml</dc:format>
        <dc:type
           rdf:resource="http://purl.org/dc/dcmitype/StillImage" />
        <dc:title></dc:title>
      </cc:Work>
    </rdf:RDF>
  </metadata>
  <g
     inkscape:label="Layer 1"
     inkscape:groupmode="layer"
     id="layer1"
     transform="translate(-153.15379,-415.4375)">
    <path
       style="fill:none;stroke:#000000;stroke-width:1px;stroke-linecap:butt;stroke-linejoin:miter;stroke-opacity:1"
       d="m 171.05263,444.46745 c 1.75439,-0.4386 4.82456,-3.07018 5.26316,-1.31579 0.4386,1.75438 -6.07189,2.93325 -5.26316,1.31579 1.14372,-2.28744 4.61427,-2.31014 6.57895,-3.94737 3.95985,-3.29988 8.82839,-14.64308 10.52631,-19.73684 0.2774,-0.83218 -0.39229,-1.847 0,-2.63158 0.2774,-0.55479 0.8772,-1.75439 1.31579,-1.31579 0.4386,0.43859 -1.03839,0.761 -1.31579,1.31579 -0.58843,1.17687 0,2.63158 0,3.94736 0,5.70176 0,11.40351 0,17.10527 0,10.57683 1.49368,22.43899 0,32.89473 -0.54599,3.82199 -3.33076,13.07532 -1.31578,17.10527 0.19614,0.39229 0.87719,0 1.31578,0"
       id="path2985"
       inkscape:connector-curvature="0" />
    <path
       style="fill:none;stroke:#000000;stroke-width:1px;stroke-linecap:butt;stroke-linejoin:miter;stroke-opacity:1"
       d="m 448.68421,439.20429 c 5.35397,-2.10583 8.20082,-5.87532 10.52632,-10.52632 0.18587,-0.37174 -0.14243,-5.26316 0,-5.26316 1.75438,0 0,3.50878 0,5.26316 0,12.38075 0.42249,24.67415 -1.31579,36.84211 -0.20886,1.46197 -1.66172,25.96986 -1.31579,26.31579 0.43859,0.43859 1.31579,-0.69552 1.31579,-1.31579"
       id="path2987"
       inkscape:connector-curvature="0" />
    <path
       style="fill:none;stroke:#000000;stroke-width:1px;stroke-linecap:butt;stroke-linejoin:miter;stroke-opacity:1"
       d="m 493.42105,415.52008 c -1.29905,8.9303 -7.06,16.39792 -9.21052,25 -0.4255,1.702 0.4255,3.56115 0,5.26316 -1.51194,6.04774 -1.31579,0.29853 -1.31579,3.94736"
       id="path2989"
       inkscape:connector-curvature="0" />
    <path
       style="fill:none;stroke:#000000;stroke-width:1px;stroke-linecap:butt;stroke-linejoin:miter;stroke-opacity:1"
       d="m 153.94737,690.52008 c -3.01398,-12.6655 17.6099,-19.03407 21.05263,-5.26316 2.40474,9.61895 -3.79776,21.73035 -9.21053,28.94737 -1.04456,1.39275 -8.34599,8.75927 -10.52631,6.57895 -4.15854,-4.15854 6.25523,-6.03245 7.89473,-6.57895 4.77329,-1.5911 19.63385,4.3688 25,5.26316 5.25672,0.87612 10.36953,1.31579 15.78948,1.31579"
       id="path2991"
       inkscape:connector-curvature="0" />
    <path
       style="fill:none;stroke:#000000;stroke-width:1px;stroke-linecap:butt;stroke-linejoin:miter;stroke-opacity:1"
       d="m 457.89474,658.94113 c 2.70157,-1.05486 -2.31595,-4.57864 -1.31579,-6.57895 2.738,-5.476 -0.0908,1.40663 2.63158,-1.31579 2.72241,-2.72241 -4.16021,0.10642 1.31579,-2.63158 3.53435,-1.76717 8.22771,4.94629 9.21052,7.89474 0.69348,2.08045 -0.43008,4.42855 0,6.57895 0.19234,0.96168 1.12345,1.66989 1.31579,2.63158 1.87334,9.36668 -4.3894,27.4911 -9.21052,35.52631 -1.7686,2.94767 -8.59798,11.49049 -13.1579,9.21053 -2.90928,-1.45464 -0.40832,-0.81664 -1.31579,-2.63158 -2.27996,-4.55991 2.91768,-6.92218 7.89474,-5.26316 9.91913,3.30638 20.8185,18.65519 32.89473,6.57895"
       id="path2993"
       inkscape:connector-curvature="0" />
    <path
       style="fill:none;stroke:#000000;stroke-width:1px;stroke-linecap:butt;stroke-linejoin:miter;stroke-opacity:1"
       d="m 492.10526,644.46745 c 1.48514,5.97931 -2.64948,9.28216 -3.94737,14.47368 -0.73309,2.9324 -0.30971,3.56071 -1.31578,6.57895 -0.66028,1.98082 1.31578,6.22385 1.31578,2.63158"
       id="path2995"
       inkscape:connector-curvature="0" />
    <path
       style="fill:none;stroke:#000000;stroke-width:1px;stroke-linecap:butt;stroke-linejoin:miter;stroke-opacity:1"
       d="m 230.26316,461.57271 c 12.16347,7.59075 22.73697,17.71062 34.21052,26.31579 0.95068,0.71301 11.02817,7.48776 11.84211,7.89474 0.39229,0.19614 1.00565,-0.31014 1.31579,0 0.31013,0.31013 -0.31014,1.00565 0,1.31578 1.03747,1.03748 3.02464,-0.52966 5.26316,3.94737 1.39092,2.78185 -0.98863,7.56044 0,10.52632 3.4589,10.37671 1.29983,22.30458 3.94737,32.89474 1.64364,6.57459 -0.57418,34.37796 1.31578,38.15789 0.2774,0.55479 1.0384,0.761 1.31579,1.31579 1.9866,3.9732 -0.65159,10.53892 1.31579,14.47368 1.10138,2.20276 2.63158,9.37657 2.63158,11.84211 0,0.87719 0.62027,2.01131 0,2.63158 -0.31013,0.31013 -0.92349,-0.19615 -1.31579,0 -0.96859,0.4843 -12.77908,11.27388 -13.15789,11.8421 -2.3057,3.45855 -5.07119,5.07119 -7.89474,7.89474 -3.30477,3.30477 -5.83371,8.46529 -9.21052,11.84211 -1.11821,1.1182 -2.71252,1.64369 -3.94737,2.63157 -6.51048,5.20839 1.57575,-0.25996 -5.26316,6.57895 -1.11821,1.11821 -2.82916,1.51338 -3.94737,2.63158 -5.11984,5.11984 -9.93007,11.42575 -14.47368,17.10526 -2.11528,2.6441 -6.66564,8.61765 -9.21053,10.52632 -0.78459,0.58844 -1.9381,0.62231 -2.63158,1.31579 -1.60261,1.60261 -0.61634,2.93975 -2.63158,3.94737 -0.39229,0.19614 -1.00565,-0.31014 -1.31579,0 -0.31013,0.31013 0.31014,1.00565 0,1.31579 -0.31013,0.31013 -1.00565,-0.31014 -1.31579,0 -2.20856,2.20856 2.32145,-1.00566 2.63158,-1.31579"
       id="path2997"
       inkscape:connector-curvature="0" />
    <path
       style="fill:none;stroke:#000000;stroke-width:1px;stroke-linecap:butt;stroke-linejoin:miter;stroke-opacity:1"
       d="m 285.52632,616.83587 c 1.75438,-0.4386 4.82456,-3.07018 5.26315,-1.31579 0.4386,1.75438 -6.54187,2.5945 -5.26315,1.31579 4.07566,-4.07567 14.77445,-6.87972 19.73684,-11.84211 0.69348,-0.69348 0.77178,-1.81556 1.31579,-2.63158 2.01523,-3.02285 0.75157,0.56422 3.94737,-2.63158 1.05314,-1.05314 8.38898,-9.29399 9.21052,-10.52631 0.54401,-0.81602 0.62231,-1.9381 1.31579,-2.63158 0.69348,-0.69348 1.81556,-0.77178 2.63158,-1.31579 2.02429,-1.34953 3.23887,-3.91363 5.26316,-5.26316 5.78123,-3.85415 11.32403,-7.98795 17.10526,-11.8421 7.36239,-4.90826 12.37922,-13.51598 19.73684,-18.42106 2.31358,-1.54238 5.95087,-3.31928 7.89474,-5.26315 0.69348,-0.69349 0.62231,-1.9381 1.31579,-2.63158 1.47952,-1.47952 4.82173,-2.77589 6.57895,-3.94737 3.02285,-2.01524 -0.56422,-0.75158 2.63158,-3.94737 3.18636,-1.59318 1.93809,-0.62231 3.94736,-2.63158 1.11821,-1.1182 2.82917,-1.51337 3.94737,-2.63158 3.14385,-3.14385 5.21641,-7.86356 9.21053,-10.52631 3.80904,-2.53936 8.63789,-6.00632 11.8421,-9.21053 0.69349,-0.69348 0.62231,-1.9381 1.31579,-2.63158 4.36393,-4.36392 -1.24053,0.62027 2.63158,-1.31579 1.54107,-0.77053 4.15972,-6.57895 6.57895,-6.57895 0.4386,0 0,0.8772 0,1.31579"
       id="path2999"
       inkscape:connector-curvature="0" />
    <path
       style="fill:none;stroke:#000000;stroke-width:1px;stroke-linecap:butt;stroke-linejoin:miter;stroke-opacity:1"
       d="m 278.94737,497.09902 c 7.85596,11.53474 14.54802,24.06891 26.31579,32.89474 2.75798,2.06848 6.78136,4.14979 9.21052,6.57895 2.17027,2.17027 7.12971,9.39411 10.52632,10.52631 0.83218,0.2774 1.84699,-0.39229 2.63158,0 0.16297,0.0815 1.53273,3.39795 2.63158,3.94737 1.81201,0.90601 6.58079,2.63343 7.89473,3.94737 0.31014,0.31014 -0.31013,1.00566 0,1.31579 0.62027,0.62027 2.01131,-0.62027 2.63158,0 0.31014,0.31014 -0.31013,1.00566 0,1.31579 2.14944,2.14943 3.61085,-2.29506 3.94737,-2.63158 0.31014,-0.31013 1.00566,0.31014 1.31579,0 0.31014,-0.31013 -0.31013,-1.00565 0,-1.31579 0.31014,-0.31013 1.00566,0.31014 1.31579,0 0.31014,-0.31013 -0.19615,-0.92349 0,-1.31579 2.15369,-4.30738 9.44052,-5.80606 13.1579,-3.94737 1.97519,0.9876 5.35593,2.81713 6.57894,5.26316 0.39722,0.79444 -0.60824,3.33913 0,3.94737 0.31014,0.31014 1.00566,-0.31013 1.31579,0 3.38229,3.38229 -10.269,18.93568 -9.21052,21.05263 0.97812,1.95625 7.16789,15.06263 7.89473,15.78948 0.31014,0.31013 0.9235,-0.19615 1.31579,0 2.90929,1.45464 0.40832,0.81663 1.31579,2.63157 2.738,5.47601 -0.0908,-1.40662 2.63158,1.31579 0.31014,0.31014 -0.19615,0.9235 0,1.31579 0.39038,0.78076 6.02961,4.98849 6.57895,5.26316 5.476,2.738 -1.40663,-0.0908 1.31579,2.63158 0.31013,0.31014 0.92349,-0.19615 1.31579,0 0.15396,0.077 5.03794,3.72215 5.26316,3.94737 2.72241,2.72241 -4.16022,-0.10642 1.31578,2.63158 0.3923,0.19614 1.00566,-0.31014 1.31579,0 0.31014,0.31013 -0.31013,1.00565 0,1.31579 0.31014,0.31013 1.00566,-0.31014 1.31579,0 0.31014,0.31013 -0.19614,0.92349 0,1.31579 2.738,5.476 -0.0908,-1.40663 2.63158,1.31579 0.31014,0.31013 -0.31013,1.00565 0,1.31579 0.31014,0.31013 1.00566,-0.31014 1.31579,0 0.31014,0.31013 -0.31013,1.00565 0,1.31579 0.31014,0.31013 0.9235,-0.19615 1.31579,0 1.00069,0.50034 3.46047,4.28934 3.94737,5.26315 0.32236,0.64472 5.93893,4.94315 6.57895,5.26316 2.05523,1.02762 1.47809,4.02852 3.94737,5.26316 0.39229,0.19615 1.00565,-0.31014 1.31579,0 0.76263,0.76263 1.86894,4.50053 2.63157,5.26316 0.31014,0.31013 0.9235,-0.19615 1.31579,0 0.92944,0.46472 3.26103,4.26209 5.26316,5.26315 2.90928,1.45465 0.40832,0.81664 1.31579,2.63158 2.738,5.476 -0.0908,-1.40662 2.63158,1.31579 0.4386,0.4386 0.87719,3.50878 1.31579,3.94737 1.09649,1.09649 2.85088,1.53509 3.94737,2.63158 0.78635,0.78636 -1.42221,2.63158 1.31579,2.63158 0.87719,0 0,-1.75439 0,-2.63158"
       id="path3001"
       inkscape:connector-curvature="0" />
  </g>
</svg>
