<?xml version="1.0" encoding="UTF-8" standalone="no"?>
<!-- Created with Inkscape (http://www.inkscape.org/) -->

<svg
   xmlns:dc="http://purl.org/dc/elements/1.1/"
   xmlns:cc="http://creativecommons.org/ns#"
   xmlns:rdf="http://www.w3.org/1999/02/22-rdf-syntax-ns#"
   xmlns:svg="http://www.w3.org/2000/svg"
   xmlns="http://www.w3.org/2000/svg"
   xmlns:sodipodi="http://sodipodi.sourceforge.net/DTD/sodipodi-0.dtd"
   xmlns:inkscape="http://www.inkscape.org/namespaces/inkscape"
   width="368.0625"
   height="272.54834"
   id="svg2"
   version="1.1"
   inkscape:version="0.48.2 r9819"
   sodipodi:docname="New document 1">
  <defs
     id="defs4">
    <inkscape:path-effect
       effect="spiro"
       id="path-effect3003"
       is_visible="true" />
    <inkscape:path-effect
       effect="spiro"
       id="path-effect2999"
       is_visible="true" />
    <inkscape:path-effect
       effect="spiro"
       id="path-effect2995"
       is_visible="true" />
    <inkscape:path-effect
       effect="spiro"
       id="path-effect2991"
       is_visible="true" />
    <inkscape:path-effect
       effect="spiro"
       id="path-effect2987"
       is_visible="true" />
  </defs>
  <sodipodi:namedview
     id="base"
     pagecolor="#ffffff"
     bordercolor="#666666"
     borderopacity="1.0"
     inkscape:pageopacity="0.0"
     inkscape:pageshadow="2"
     inkscape:zoom="1.43"
     inkscape:cx="222.4375"
     inkscape:cy="148.00902"
     inkscape:document-units="px"
     inkscape:current-layer="layer1"
     showgrid="false"
     fit-margin-top="0"
     fit-margin-left="0"
     fit-margin-right="0"
     fit-margin-bottom="0"
     inkscape:window-width="1280"
     inkscape:window-height="737"
     inkscape:window-x="-8"
     inkscape:window-y="-8"
     inkscape:window-maximized="1" />
  <metadata
     id="metadata7">
    <rdf:RDF>
      <cc:Work
         rdf:about="">
        <dc:format>image/svg+xml</dc:format>
        <dc:type
           rdf:resource="http://purl.org/dc/dcmitype/StillImage" />
        <dc:title></dc:title>
      </cc:Work>
    </rdf:RDF>
  </metadata>
  <g
     inkscape:label="Layer 1"
     inkscape:groupmode="layer"
     id="layer1"
     transform="translate(-152.5625,-515.03125)">
    <path
       style="fill:none;stroke:#000000;stroke-width:1px;stroke-linecap:butt;stroke-linejoin:miter;stroke-opacity:1"
       d="M 201.31579,522.09902 250,593.15166 l 97.36842,2.63158 63.1579,-65.78948"
       id="path2989"
       inkscape:path-effect="#path-effect2991"
       inkscape:original-d="M 201.31579,522.09902 250,593.15166 l 97.36842,2.63158 63.1579,-65.78948"
       inkscape:connector-curvature="0" />
    <path
       style="fill:none;stroke:#000000;stroke-width:1px;stroke-linecap:butt;stroke-linejoin:miter;stroke-opacity:1"
       d="m 344.73684,591.83587 -1.31579,86.8421 -98.68421,-1.31579 L 250,587.8885"
       id="path2993"
       inkscape:path-effect="#path-effect2995"
       inkscape:original-d="m 344.73684,591.83587 c 0,5.26315 -1.31579,86.8421 -1.31579,86.8421 l -98.68421,-1.31579 c 0,0 5.26316,-94.73684 5.26316,-89.47368"
       inkscape:connector-curvature="0" />
    <path
       style="fill:none;stroke:#000000;stroke-width:1px;stroke-linecap:butt;stroke-linejoin:miter;stroke-opacity:1"
       d="M 246.05263,669.46745 202.63158,749.7306"
       id="path2997"
       inkscape:path-effect="#path-effect2999"
       inkscape:original-d="M 246.05263,669.46745 202.63158,749.7306"
       inkscape:connector-curvature="0" />
    <path
       style="fill:none;stroke:#000000;stroke-width:1px;stroke-linecap:butt;stroke-linejoin:miter;stroke-opacity:1"
       d="m 344.73684,674.7306 48.68421,52.63158"
       id="path3001"
       inkscape:path-effect="#path-effect3003"
       inkscape:original-d="m 344.73684,674.7306 48.68421,52.63158"
       inkscape:connector-curvature="0" />
    <path
       style="fill:none;stroke:#000000;stroke-width:1px;stroke-linecap:butt;stroke-linejoin:miter;stroke-opacity:1"
       d="m 264.47368,639.20429 c -0.43859,1.75438 -0.87719,3.50877 -1.31579,5.26316 -0.43859,0 -1.00565,-0.31014 -1.31578,0 -0.3483,0.34829 0,3.40557 0,3.94736 0,8.47046 2.22226,10.97956 9.21052,14.47369 0.78459,0.39229 1.847,-0.39229 2.63158,0 7.47008,3.73504 35.21974,-0.50461 42.10526,-3.94737 4.24661,-2.1233 7.42603,-8.2731 9.21053,-11.84211 2.008,-4.016 1.9629,-17.12683 0,-21.05263 -0.39229,-0.78458 0.62027,-2.01131 0,-2.63158 -0.31013,-0.31013 -1.00565,0.31014 -1.31579,0 -0.62027,-0.62026 0.62027,-2.01131 0,-2.63157 -1.09649,-1.0965 -2.85088,-1.53509 -3.94737,-2.63158 -0.76263,-0.76263 -1.86895,-4.50053 -2.63158,-5.26316 -0.65789,-0.6579 -1.97368,-0.6579 -2.63158,-1.31579 -0.65789,-0.6579 -0.65789,-1.97369 -1.31579,-2.63158 -0.69078,-0.69078 -11.42347,-6.99758 -11.8421,-6.57895 -0.1587,0.1587 0,14.26011 0,15.78948 0,0.54179 -0.3483,3.59907 0,3.94736 0.31013,0.31014 1.00565,0.31014 1.31579,0 1.05709,-1.05709 -1.18105,-4.85893 -1.31579,-5.26315 -1.1996,-3.59881 0,-9.32407 0,-13.1579 0,-0.87719 -0.62027,-2.01131 0,-2.63158 0.32584,-0.32584 4.08322,1.31579 5.26316,1.31579 6.11116,0 10.45855,0.0339 15.78947,-2.63158"
       id="path3005"
       inkscape:connector-curvature="0" />
    <path
       style="fill:none;stroke:#000000;stroke-width:1px;stroke-linecap:butt;stroke-linejoin:miter;stroke-opacity:1"
       d="m 306.57895,564.20429 c -6.86669,-1.16582 -38.32207,7.73057 -40.78948,5.26316 -3.1378,-3.1378 9.7509,-8.43511 10.52632,-9.21053 0.31013,-0.31014 -0.31014,-1.00566 0,-1.31579 0.9304,-0.9304 4.87777,-0.9304 3.94737,0 -3.67715,3.67715 -13.584,4.79958 -15.78948,9.21053 -1.92264,3.84528 12.47466,7.89473 15.78948,7.89473"
       id="path3007"
       inkscape:connector-curvature="0" />
    <path
       style="fill:none;stroke:#000000;stroke-width:1px;stroke-linecap:butt;stroke-linejoin:miter;stroke-opacity:1"
       d="m 286.84211,539.20429 c 3.55934,-6.24437 5.95327,-14.40924 2.63157,-21.05263 -0.39317,-0.78636 0.86618,-2.63158 -1.31579,-2.63158 -1.64169,0 -2.63157,8.33963 -2.63157,9.21052 0,7.65159 -0.18509,18.32852 7.89473,22.36842 1.48348,0.74174 4.97267,0 6.57895,0"
       id="path3009"
       inkscape:connector-curvature="0" />
    <path
       style="fill:none;stroke:#000000;stroke-width:1px;stroke-linecap:butt;stroke-linejoin:miter;stroke-opacity:1"
       d="m 403.94737,743.15166 c 0.87719,-1.75439 0.87719,-6.14035 2.63158,-5.26316 1.75438,0.87719 -4.26362,4.17513 -2.63158,5.26316 1.96523,1.31015 4.24917,-2.24329 6.57895,-2.63158 3.16005,-0.52668 0.0633,6.60428 0,6.57894 -2.37452,-0.9498 -5.43523,-6.2348 -6.57895,-3.94736 -1.25595,2.51189 4.15688,3.99763 5.26316,6.57894 0.27408,0.63954 -6.44123,8.93509 -6.57895,9.21053 -0.27739,0.55479 -1.31579,0.69552 -1.31579,1.31579 0,2.7622 17.10526,0.46183 17.10526,-3.94737"
       id="path3011"
       inkscape:connector-curvature="0" />
    <path
       style="fill:none;stroke:#000000;stroke-width:1px;stroke-linecap:butt;stroke-linejoin:miter;stroke-opacity:1"
       d="m 434.21053,720.78324 c -0.51376,7.75384 -6.57895,12.61494 -6.57895,19.73684"
       id="path3013"
       inkscape:connector-curvature="0" />
    <path
       style="fill:none;stroke:#000000;stroke-width:1px;stroke-linecap:butt;stroke-linejoin:miter;stroke-opacity:1"
       d="m 423.68421,551.04639 c 1.64614,-1.43973 7.89474,-8.73166 7.89474,-10.52631 0,-1.31579 0,-5.26316 0,-3.94737 0,10.52631 0,21.05263 0,31.57895 0,1.1676 0.5962,5.38653 0,6.57894 -0.2774,0.55479 -1.31579,0.69552 -1.31579,1.31579 0,0.8772 1.31579,-0.43859 1.31579,-1.31579"
       id="path3015"
       inkscape:connector-curvature="0" />
    <path
       style="fill:none;stroke:#000000;stroke-width:1px;stroke-linecap:butt;stroke-linejoin:miter;stroke-opacity:1"
       d="m 448.68421,529.99376 c -1.70909,6.63781 -3.30657,12.55129 -5.26316,18.42105 -1.62592,4.87778 -1.31579,-1.60388 -1.31579,2.63158"
       id="path3017"
       inkscape:connector-curvature="0" />
    <path
       style="fill:none;stroke:#000000;stroke-width:1px;stroke-linecap:butt;stroke-linejoin:miter;stroke-opacity:1"
       d="m 152.63158,527.36218 c 5.36751,0.69696 6.04287,-0.24363 7.89474,-3.94737 0.19614,-0.39229 -0.31014,-1.00565 0,-1.31579 0.31013,-0.31013 1.00565,0.31014 1.31579,0 0.65789,-0.65789 -0.6579,-3.28947 0,-3.94736 1.74374,-1.74375 1.31578,6.09282 1.31578,6.57894 0,2.19299 -0.43007,4.42855 0,6.57895 0.19234,0.96169 1.31579,1.65085 1.31579,2.63158 0,1.38696 -1.04378,2.58734 -1.31579,3.94737 -0.64039,3.20198 0,7.27001 0,10.52631"
       id="path3019"
       inkscape:connector-curvature="0" />
    <path
       style="fill:none;stroke:#000000;stroke-width:1px;stroke-linecap:butt;stroke-linejoin:miter;stroke-opacity:1"
       d="m 172.36842,754.99376 c 3.47484,-1.67562 13.84006,-2.68012 10.52632,3.94737 -0.2774,0.55479 -1.11965,0.72735 -1.31579,1.31579 -0.2774,0.83218 0.21275,1.78058 0,2.63158 -0.78906,3.15624 -10.19391,21.38504 -7.89474,23.68421 1.89882,1.89882 7.82071,-2.07565 9.21053,-2.63158 4.37314,-1.74926 6.55519,-3.93153 10.52631,-6.57895"
       id="path3021"
       inkscape:connector-curvature="0" />
    <path
       style="fill:none;stroke:#000000;stroke-width:1px;stroke-linecap:butt;stroke-linejoin:miter;stroke-opacity:1"
       d="m 284.61538,655.15939 c 1.70149,-2.22485 2.70293,-4.61229 3.49651,-6.99301 0.22385,-0.67157 -0.33558,-2.12604 0,-2.7972 1.2722,-2.5444 0.41005,-5.38939 -1.3986,-6.29371 -1.61628,-0.80814 -0.50824,-0.89036 -1.3986,0 -0.16483,0.16483 -0.53448,-0.16483 -0.69931,0 -0.32965,0.32965 0,0.9324 0,1.3986 0,2.6364 -0.513,5.82657 0,8.39161 0.14457,0.72281 0.69931,1.36077 0.69931,2.0979 0,1.41789 -1.07238,2.82787 -0.69931,4.19581 0.63197,2.3172 3.76249,4.8951 5.59441,4.8951"
       id="path3023"
       inkscape:connector-curvature="0" />
    <path
       style="fill:none;stroke:#000000;stroke-width:1px;stroke-linecap:butt;stroke-linejoin:miter;stroke-opacity:1"
       d="m 355.94406,633.48106 c 1.83086,5.10042 0,10.35578 0,15.38462 0,1.63998 0.16482,-0.32965 -0.6993,1.3986 -0.2085,0.41698 0.4662,1.3986 0,1.3986 -0.139,0 1.84585,-4.39101 2.0979,-4.8951 1.10685,-2.2137 2.24589,-4.90865 3.4965,-6.99301 1.0837,-1.80617 3.03098,-3.14786 4.19581,-4.8951 0.30088,-0.45133 1.09574,-2.49435 1.3986,-2.79721 0.16482,-0.16482 0.53447,0.16483 0.6993,0 0.16482,-0.16482 -0.2331,-0.6993 0,-0.6993 0.36655,0 -1.29222,3.98303 -1.3986,4.19581 -0.55944,1.11888 -2.23777,1.67832 -2.79721,2.7972 -0.48229,0.96458 0.84689,0.6255 -0.6993,1.3986 -0.20849,0.10425 -0.53447,-0.16483 -0.6993,0 -1.44688,1.44688 2.21102,-0.0566 -0.6993,1.3986 -0.20849,0.10425 -0.53447,-0.16483 -0.6993,0 -0.16483,0.16483 0.16483,0.53448 0,0.6993 -0.4662,0.4662 -1.6317,0.2331 -2.0979,0.6993 -0.88415,0.88415 6.52831,10.48951 8.39161,10.48951"
       id="path3025"
       inkscape:connector-curvature="0" />
    <path
       style="fill:none;stroke:#000000;stroke-width:1px;stroke-linecap:butt;stroke-linejoin:miter;stroke-opacity:1"
       d="m 373.42657,645.36918 c 0.35164,2.11182 -1.71752,13.28671 0,13.28671"
       id="path3027"
       inkscape:connector-curvature="0" />
    <path
       style="fill:none;stroke:#000000;stroke-width:1px;stroke-linecap:butt;stroke-linejoin:miter;stroke-opacity:1"
       d="m 386.71329,646.76778 c 1.34865,0.17801 9.79021,2.24319 9.79021,-0.6993"
       id="path3029"
       inkscape:connector-curvature="0" />
    <path
       style="fill:none;stroke:#000000;stroke-width:1px;stroke-linecap:butt;stroke-linejoin:miter;stroke-opacity:1"
       d="m 390.20979,641.87267 c 0.14043,4.39974 0.6993,8.08648 0.6993,12.58741"
       id="path3031"
       inkscape:connector-curvature="0" />
    <path
       style="fill:none;stroke:#000000;stroke-width:1px;stroke-linecap:butt;stroke-linejoin:miter;stroke-opacity:1"
       d="m 401.3986,629.28526 c -0.1429,3.10686 -0.6993,5.23677 -0.6993,8.39161 0,2.62928 -0.19358,4.4644 -0.6993,6.993 -0.25715,1.28574 0.41306,2.95662 0,4.19581 -1.02895,3.08686 -0.6993,-2.54068 -0.6993,2.0979 0,0.4662 -0.32965,1.72826 0,1.3986 2.72918,-2.72918 -0.16187,-0.37556 0.6993,-2.0979 1.09907,-2.19814 2.71046,-5.01254 4.1958,-6.99301 1.61133,-2.14843 3.40389,-4.05687 4.89511,-6.2937 0.55093,-0.8264 1.67813,-0.97884 2.0979,-1.3986 0.16483,-0.16483 -0.2331,-0.6993 0,-0.6993 0.32965,0 -0.4662,0.4662 -0.6993,0.6993 -0.39513,0.39512 -0.87767,2.27627 -1.3986,2.7972 -1.4017,1.4017 -3.9973,3.39725 -5.59441,4.1958 -2.91032,1.45516 0.74758,-0.0483 -0.6993,1.3986 -0.16482,0.16483 -0.53447,-0.16482 -0.6993,0 -0.87976,0.87977 4.50915,1.96926 4.89511,2.09791 0.72435,0.24145 1.40414,1.05172 2.0979,1.3986 0.58076,0.29038 2.13424,0 2.7972,0"
       id="path3033"
       inkscape:connector-curvature="0" />
    <path
       style="fill:none;stroke:#000000;stroke-width:1px;stroke-linecap:butt;stroke-linejoin:miter;stroke-opacity:1"
       d="m 415.38462,649.56498 c 0.9324,-0.4662 1.8293,-1.01144 2.7972,-1.3986 1.03672,-0.41469 1.36705,0.33387 2.0979,0.6993 2.97041,1.48521 -4.41542,11.64827 0.6993,9.09091 1.42441,-0.71221 2.60871,-1.30435 4.19581,-2.0979"
       id="path3035"
       inkscape:connector-curvature="0" />
    <path
       style="fill:none;stroke:#000000;stroke-width:1px;stroke-linecap:butt;stroke-linejoin:miter;stroke-opacity:1"
       d="m 431.46853,645.36918 c 4.7188,1.7242 7.8943,-0.101 11.88811,-2.09791"
       id="path3037"
       inkscape:connector-curvature="0" />
    <path
       style="fill:none;stroke:#000000;stroke-width:1px;stroke-linecap:butt;stroke-linejoin:miter;stroke-opacity:1"
       d="m 453.14685,632.08246 c 0.98482,2.8322 -0.6993,5.09019 -0.6993,7.69231 0,0.42051 0,3.4494 0,3.4965 0,1.43495 0.44881,3.5487 0,4.89511 -0.10424,0.31274 -0.59505,0.38656 -0.6993,0.6993 -0.22114,0.66341 0,1.3986 0,2.0979 0,0.2331 -0.2331,0.6993 0,0.6993 0.9651,0 1.30899,-3.04843 1.3986,-3.4965 0.4378,-2.18899 8.21847,-14.68532 10.48951,-14.68532 0.55472,0 -1.94983,2.64913 -2.0979,2.79721 -2.07252,2.07252 -3.75477,5.02423 -6.2937,6.2937 -0.41793,0.20896 -1.39861,-0.46034 -1.39861,0.6993 0,0.39233 2.45532,0.52836 2.79721,0.6993 1.16491,0.58246 4.66414,3.49651 5.5944,3.49651"
       id="path3039"
       inkscape:connector-curvature="0" />
    <path
       style="fill:none;stroke:#000000;stroke-width:1px;stroke-linecap:butt;stroke-linejoin:miter;stroke-opacity:1"
       d="m 470.62937,648.16638 c 12.0325,-0.44687 0.5294,8.2217 2.7972,10.48951 0.6777,0.6777 7.11799,-3.62148 7.69231,-4.19581"
       id="path3041"
       inkscape:connector-curvature="0" />
    <path
       style="fill:none;stroke:#000000;stroke-width:1px;stroke-linecap:butt;stroke-linejoin:miter;stroke-opacity:1"
       d="m 472.72727,628.58596 c 0.71334,4.05098 -2.40916,6.5282 -3.4965,9.79021 -0.40223,1.20667 0.34858,2.0979 -1.3986,2.0979"
       id="path3043"
       inkscape:connector-curvature="0" />
    <path
       style="fill:none;stroke:#000000;stroke-width:1px;stroke-linecap:butt;stroke-linejoin:miter;stroke-opacity:1"
       d="m 488.81119,643.27127 c 0.9324,0.4662 1.82931,1.01145 2.7972,1.3986 2.43908,0.97564 7.12498,0 9.79021,0 0.28795,0 1.91279,0.18511 2.0979,0 0.16483,-0.16482 0,-0.4662 0,-0.6993"
       id="path3045"
       inkscape:connector-curvature="0" />
    <path
       style="fill:none;stroke:#000000;stroke-width:1px;stroke-linecap:butt;stroke-linejoin:miter;stroke-opacity:1"
       d="m 495.8042,638.37617 c 0,5.3613 0,10.72261 0,16.08391"
       id="path3047"
       inkscape:connector-curvature="0" />
    <path
       style="fill:none;stroke:#000000;stroke-width:1px;stroke-linecap:butt;stroke-linejoin:miter;stroke-opacity:1"
       d="m 512.58741,643.27127 c 0.9324,-0.6993 2.0979,-3.0303 2.79721,-2.0979 0.6993,0.9324 -3.31844,3.14036 -2.79721,2.0979 0.73713,-1.47425 2.44131,-2.23027 3.49651,-3.4965 0.0327,-0.0393 -0.64396,-6.77163 -0.6993,-6.99301 -0.43355,-1.73418 -1.73119,-3.06153 -2.09791,-4.8951 -0.0914,-0.45715 0.20849,-0.98162 0,-1.3986 -0.44227,-0.88456 -1.3986,-1.3986 -2.0979,-2.09791 -2.62143,-2.62142 -4.24226,-0.46699 -4.8951,2.79721 -0.27429,1.37144 0.22992,2.81623 0,4.1958 -0.12119,0.7271 -0.6993,1.36078 -0.6993,2.0979 0,0.9611 0.56338,1.84577 0.6993,2.79721 0.93576,6.55035 1.52877,8.37546 4.8951,13.98601 0.8208,1.368 1.98032,3.43771 3.4965,4.1958 0.83397,0.41699 1.86481,0 2.79721,0 1.25669,0 1.86528,0.23262 2.7972,-0.6993"
       id="path3049"
       inkscape:connector-curvature="0" />
    <path
       style="fill:none;stroke:#000000;stroke-width:1px;stroke-linecap:butt;stroke-linejoin:miter;stroke-opacity:1"
       d="m 255.94406,688.02652 c 0,2.331 0,4.662 0,6.99301 0,1.79855 -0.14488,2.53253 -0.6993,4.1958 -0.0392,0.11751 0.0243,4.1958 0,4.1958 -0.038,0 1.31197,-3.32325 1.3986,-3.4965 1.3004,-2.60081 2.59301,-5.28813 4.1958,-7.69231 0.87644,-1.31465 2.84022,-2.14092 3.4965,-2.7972 0.16483,-0.16483 -0.2331,-0.6993 0,-0.6993 0.2331,0 0,0.4662 0,0.6993 0,1.3152 -2.73022,3.46301 -4.1958,4.1958 -2.91032,1.45516 0.74758,-0.0483 -0.6993,1.39861 -1.44688,1.44687 0.0566,-2.21103 -1.3986,0.6993 -0.16288,0.32575 5.8979,6.5972 6.99301,7.6923"
       id="path3051"
       inkscape:connector-curvature="0" />
    <path
       style="fill:none;stroke:#000000;stroke-width:1px;stroke-linecap:butt;stroke-linejoin:miter;stroke-opacity:1"
       d="m 270.62937,699.91463 c 1.10396,3.42948 1.3986,6.1954 1.3986,9.79021"
       id="path3053"
       inkscape:connector-curvature="0" />
    <path
       style="fill:none;stroke:#000000;stroke-width:1px;stroke-linecap:butt;stroke-linejoin:miter;stroke-opacity:1"
       d="m 280.41958,697.81673 c 0.9324,0.2331 1.83611,0.6993 2.7972,0.6993 0.32966,0 0.38657,-0.59506 0.6993,-0.6993 1.35918,-0.45306 3.61652,0.63929 4.89511,0 1.72825,-0.86413 -0.24138,-0.6993 1.3986,-0.6993"
       id="path3055"
       inkscape:connector-curvature="0" />
    <path
       style="fill:none;stroke:#000000;stroke-width:1px;stroke-linecap:butt;stroke-linejoin:miter;stroke-opacity:1"
       d="m 285.31469,692.92162 c 1.87124,1.58193 0.52571,13.11313 1.3986,13.98602 0.16482,0.16482 0.4662,0 0.6993,0"
       id="path3057"
       inkscape:connector-curvature="0" />
    <path
       style="fill:none;stroke:#000000;stroke-width:1px;stroke-linecap:butt;stroke-linejoin:miter;stroke-opacity:1"
       d="m 299.3007,686.62792 c 0.0763,2.75393 -1.3986,5.07813 -1.3986,7.6923 0,2.17844 -0.21162,2.94437 -0.6993,4.89511 -0.11873,0.47493 -0.45611,5.59441 0.6993,5.59441 0.2331,0 -0.10425,-0.49081 0,-0.69931 1.48499,-2.96997 2.00567,-6.87002 4.1958,-9.79021 0.59338,-0.79116 1.65563,-1.21334 2.0979,-2.0979 0.20355,-0.40709 0.52299,-2.0979 1.39861,-2.0979 1.49257,0 -2.32522,2.08053 -2.79721,3.4965 -0.14742,0.44228 0.14743,0.95633 0,1.39861 -0.39587,1.18761 -2.22748,2.35705 -2.7972,3.4965 -1.392,2.78399 3.1201,3.4965 4.8951,3.4965"
       id="path3059"
       inkscape:connector-curvature="0" />
    <path
       style="fill:none;stroke:#000000;stroke-width:1px;stroke-linecap:butt;stroke-linejoin:miter;stroke-opacity:1"
       d="m 309.79021,702.71183 c 0.9324,0 2.7972,-0.9324 2.7972,0 0,0.9324 -2.7972,-0.9324 -2.7972,0 0,1.31862 1.97347,1.76754 2.7972,2.79721 1.29701,1.62126 -3.78503,6.00517 -2.0979,7.6923 0.9164,0.91641 3.66433,-0.86712 4.1958,-1.3986 0.87585,-0.87584 1.22207,-0.52276 2.09791,-1.3986"
       id="path3061"
       inkscape:connector-curvature="0" />
    <path
       style="fill:none;stroke:#000000;stroke-width:1px;stroke-linecap:butt;stroke-linejoin:miter;stroke-opacity:1"
       d="m 323.07692,699.21533 c 3.31633,3.46966 4.18179,1.3986 7.69231,1.3986"
       id="path3063"
       inkscape:connector-curvature="0" />
    <path
       style="fill:none;stroke:#000000;stroke-width:1px;stroke-linecap:butt;stroke-linejoin:miter;stroke-opacity:1"
       d="m 327.97203,694.32022 c 0,5.12821 0,10.25641 0,15.38462"
       id="path3065"
       inkscape:connector-curvature="0" />
    <path
       style="fill:none;stroke:#000000;stroke-width:1px;stroke-linecap:butt;stroke-linejoin:miter;stroke-opacity:1"
       d="m 337.06294,703.41113 c -1.47905,-3.13207 2.04547,-2.69235 2.7972,-4.1958 1.25241,-2.50481 -1.48633,-13.28671 -4.1958,-13.28671 -0.70868,0 -0.69931,3.74528 -0.69931,4.8951 0,3.45688 1.69866,6.29616 2.09791,9.09091 0.16482,1.15379 -0.56602,2.47767 0,3.4965 0.72485,1.30474 2.34988,1.84169 3.4965,2.79721 3.2131,2.67758 -2.84004,-2.14074 1.3986,2.0979 0.18511,0.18511 1.80996,0 2.0979,0"
       id="path3067"
       inkscape:connector-curvature="0" />
    <path
       style="fill:none;stroke:#000000;stroke-width:1px;stroke-linecap:butt;stroke-linejoin:miter;stroke-opacity:1"
       d="m 197.9021,625.78876 c -0.67842,1.31508 0.33921,2.83896 0,4.1958 -0.41114,1.64457 -0.6993,2.41191 -0.6993,4.1958 0,1.39861 0,2.79721 0,4.19581 0,0.2331 0.2331,0.6993 0,0.6993 -0.84046,0 1.02274,-1.34618 1.3986,-2.0979 1.22348,-2.44697 2.38987,-5.04109 4.8951,-6.29371 0.18207,-0.091 0.85194,-1.24596 1.3986,-0.6993 0.94092,0.94092 -6.18155,4.78296 -6.993,5.59441 -1.14361,1.1436 6.87039,4.8951 8.39161,4.8951"
       id="path3069"
       inkscape:connector-curvature="0" />
    <path
       style="fill:none;stroke:#000000;stroke-width:1px;stroke-linecap:butt;stroke-linejoin:miter;stroke-opacity:1"
       d="m 211.18881,637.67687 c 3.20238,1.91011 0.20478,6.00397 1.3986,8.39161 0.58852,1.17704 0.6993,1.35917 0.6993,2.7972"
       id="path3071"
       inkscape:connector-curvature="0" />
    <path
       style="fill:none;stroke:#000000;stroke-width:1px;stroke-linecap:butt;stroke-linejoin:miter;stroke-opacity:1"
       d="m 220.27972,638.37617 c 1.40104,0.25152 9.79021,-0.79704 9.79021,0.6993"
       id="path3073"
       inkscape:connector-curvature="0" />
    <path
       style="fill:none;stroke:#000000;stroke-width:1px;stroke-linecap:butt;stroke-linejoin:miter;stroke-opacity:1"
       d="m 226.57343,632.78176 c -0.27063,2.90897 -1.6996,7.48864 -0.6993,10.48951 0.38191,1.14576 0.6993,1.38243 0.6993,2.79721"
       id="path3075"
       inkscape:connector-curvature="0" />
    <path
       style="fill:none;stroke:#000000;stroke-width:1px;stroke-linecap:butt;stroke-linejoin:miter;stroke-opacity:1"
       d="m 234.96503,641.17337 c -0.7305,-2.39469 2.12971,-2.16151 2.79721,-3.4965 0.20849,-0.41698 -0.14743,-0.95633 0,-1.3986 1.48589,-4.45768 2.21859,-10.12745 0.6993,-14.68532 -0.30733,-0.92198 -1.78773,-2.60264 -2.7972,-2.0979 -1.63142,0.81571 -0.9554,9.65224 -0.69931,11.18881 0.13535,0.81207 1.46415,5.00449 1.39861,5.59441 -0.18741,1.68661 -1.99446,3.30616 -1.39861,4.8951 0.41734,1.11291 2.43341,0.16775 3.49651,0.6993 2.1253,1.06265 -0.55096,2.0979 2.0979,2.0979"
       id="path3077"
       inkscape:connector-curvature="0" />
    <path
       style="fill:none;stroke:#000000;stroke-width:1px;stroke-linecap:butt;stroke-linejoin:miter;stroke-opacity:1"
       d="m 232.16783,551.66288 c -1.48708,2.34469 -1.60012,16.88398 -2.7972,17.48252 -0.36055,0.18027 -4.72042,-4.23962 -5.59441,-4.89511 -2.34232,-1.75674 -5.81741,-2.3209 -7.6923,-4.1958"
       id="path3079"
       inkscape:connector-curvature="0" />
    <path
       style="fill:none;stroke:#000000;stroke-width:1px;stroke-linecap:butt;stroke-linejoin:miter;stroke-opacity:1"
       d="m 188.11189,562.85169 c 1.12979,2.31799 0.13362,19.58042 -1.3986,19.58042 -0.038,0 1.31197,-3.32325 1.3986,-3.4965 1.49906,-2.99813 3.10762,-6.60413 5.5944,-9.09091 0.21023,-0.21022 2.79721,-1.64496 2.79721,-1.3986 0,1.54005 -2.98201,1.7549 -3.49651,2.0979 -0.91921,0.61281 -1.30485,2.00416 -2.0979,2.7972 -0.85174,0.85174 -1.56238,0.32757 -2.0979,1.3986 -2.14548,4.29096 1.84207,5.46649 4.8951,6.99301 0.89788,0.44894 1.67874,0.6993 2.79721,0.6993"
       id="path3081"
       inkscape:connector-curvature="0" />
    <path
       style="fill:none;stroke:#000000;stroke-width:1px;stroke-linecap:butt;stroke-linejoin:miter;stroke-opacity:1"
       d="m 204.8951,579.63491 c 15.93184,-7.97964 -3.68302,13.72962 5.59441,9.09091 1.00314,-0.50157 2.43515,-0.69103 3.4965,-1.3986 3.2036,-2.13573 -2.97243,1.13656 2.09791,-1.3986"
       id="path3083"
       inkscape:connector-curvature="0" />
    <path
       style="fill:none;stroke:#000000;stroke-width:1px;stroke-linecap:butt;stroke-linejoin:miter;stroke-opacity:1"
       d="m 209.79021,715.99855 c 1.1579,-1.73673 2.85067,-0.25093 4.1958,-0.6993 1.11338,-0.37113 3.61241,-2.85516 4.89511,-3.49651 1.04147,-0.52073 2.45983,-0.88027 3.4965,-1.3986 1.56486,-0.78243 2.0979,1.66008 2.0979,2.7972 0,4.35052 -1.00458,11.36628 0,15.38462 0.1942,0.7768 1.28667,2.0979 2.09791,2.0979"
       id="path3085"
       inkscape:connector-curvature="0" />
    <path
       style="fill:none;stroke:#000000;stroke-width:1px;stroke-linecap:butt;stroke-linejoin:miter;stroke-opacity:1"
       d="m 374.12587,697.81673 c 0.35379,1.81733 5.33896,13.54216 4.89511,13.98601 -0.16483,0.16483 -0.53447,-0.16482 -0.6993,0 -0.16483,0.16483 0.16483,0.53448 0,0.6993 -1.72389,1.72389 -6.58389,0.45193 -8.39161,0 -1.94007,-0.48502 -3.63803,-0.0472 -5.59441,-0.6993 -0.98227,-0.32742 -1.77719,0.6993 -2.7972,0.6993"
       id="path3087"
       inkscape:connector-curvature="0" />
  </g>
</svg>
