<?xml version="1.0" encoding="UTF-8" standalone="no"?>
<!-- Created with Inkscape (http://www.inkscape.org/) -->

<svg
   xmlns:dc="http://purl.org/dc/elements/1.1/"
   xmlns:cc="http://creativecommons.org/ns#"
   xmlns:rdf="http://www.w3.org/1999/02/22-rdf-syntax-ns#"
   xmlns:svg="http://www.w3.org/2000/svg"
   xmlns="http://www.w3.org/2000/svg"
   xmlns:sodipodi="http://sodipodi.sourceforge.net/DTD/sodipodi-0.dtd"
   xmlns:inkscape="http://www.inkscape.org/namespaces/inkscape"
   width="500"
   height="200"
   id="svg2"
   version="1.1"
   inkscape:version="0.48.2 r9819"
   sodipodi:docname="New document 3">
  <defs
     id="defs4">
    <inkscape:path-effect
       effect="spiro"
       id="path-effect3187"
       is_visible="true" />
    <inkscape:path-effect
       effect="spiro"
       id="path-effect3183"
       is_visible="true" />
  </defs>
  <sodipodi:namedview
     id="base"
     pagecolor="#ffffff"
     bordercolor="#666666"
     borderopacity="1.0"
     inkscape:pageopacity="0.0"
     inkscape:pageshadow="2"
     inkscape:zoom="1.979899"
     inkscape:cx="230.02998"
     inkscape:cy="82.062358"
     inkscape:document-units="px"
     inkscape:current-layer="layer1"
     showgrid="false"
     inkscape:window-width="1280"
     inkscape:window-height="737"
     inkscape:window-x="-8"
     inkscape:window-y="-8"
     inkscape:window-maximized="1" />
  <metadata
     id="metadata7">
    <rdf:RDF>
      <cc:Work
         rdf:about="">
        <dc:format>image/svg+xml</dc:format>
        <dc:type
           rdf:resource="http://purl.org/dc/dcmitype/StillImage" />
        <dc:title></dc:title>
      </cc:Work>
    </rdf:RDF>
  </metadata>
  <g
     inkscape:label="Layer 1"
     inkscape:groupmode="layer"
     id="layer1"
     transform="translate(0,-852.36215)">
    <path
       style="fill:none;stroke:#000000;stroke-width:1px;stroke-linecap:butt;stroke-linejoin:miter;stroke-opacity:1"
       d="m 128.79445,33.324831 2.0203,128.289369"
       id="path3181"
       inkscape:path-effect="#path-effect3183"
       inkscape:original-d="m 128.79445,33.324831 c -0.50508,5.050763 1.51523,126.269069 2.0203,128.289369"
       inkscape:connector-curvature="0"
       transform="translate(0,852.36215)" />
    <path
       style="fill:none;stroke:#000000;stroke-width:1px;stroke-linecap:butt;stroke-linejoin:miter;stroke-opacity:1"
       d="M 54.043161,107.06597 378.30213,108.5812"
       id="path3185"
       inkscape:path-effect="#path-effect3187"
       inkscape:original-d="m 54.043161,107.06597 c 5.050762,-0.50508 324.258969,1.51523 324.258969,1.51523"
       inkscape:connector-curvature="0"
       transform="translate(0,852.36215)" />
    <path
       style="opacity:0.33628319;fill:#000080;fill-opacity:1;stroke:#000000;stroke-width:0.89999998;stroke-miterlimit:4;stroke-opacity:1;stroke-dasharray:none"
       id="path3189"
       d="m 371.72205,103.81566 c 0.90113,1.2173 2.03577,2.20364 3.20855,3.14651 1.08592,0.7787 2.30914,1.3821 2.91414,2.62264 0.23141,0.97437 -0.40187,1.81034 -0.96035,2.54672 -1.21651,1.42985 -2.58787,2.71558 -3.8645,4.09002 -1.1886,1.23681 -2.40646,2.44379 -3.66989,3.60377 0,0 -0.48632,-0.0404 -0.48632,-0.0404 l 0,0 c 1.26411,-1.15749 2.4814,-2.36325 3.66844,-3.59992 1.27277,-1.37402 2.64009,-2.65944 3.85605,-4.08579 0.5473,-0.71755 1.18426,-1.53841 0.95897,-2.49165 -0.60868,-1.22726 -1.83714,-1.81968 -2.90849,-2.60134 -1.17522,-0.94645 -2.30717,-1.94043 -3.21525,-3.15687 0,0 0.49865,-0.0337 0.49865,-0.0337 z"
       inkscape:connector-curvature="0"
       transform="translate(0,852.36215)" />
    <path
       style="opacity:0.33628319;fill:#000080;fill-opacity:1;stroke:#000000;stroke-width:0.89999998;stroke-miterlimit:4;stroke-opacity:1;stroke-dasharray:none"
       id="path3191"
       d="m 124.82209,35.214131 c -0.84385,1.698984 -1.68132,3.401333 -2.68429,5.013089 -0.15318,0.246241 -0.30153,0.495561 -0.45956,0.738724 -0.15342,0.236081 -0.42805,0.662019 -0.66347,0.870817 -1.11333,0.987437 -0.54981,-0.420076 -0.46069,-0.62637 0.982,-1.946052 2.24033,-3.723684 3.5036,-5.492458 0.97549,-1.112899 1.7791,-2.886741 3.27823,-3.420331 0.17782,-0.06329 0.37168,-0.06602 0.55752,-0.09902 0.36356,0.02815 0.73461,0.0058 1.09066,0.08446 1.27629,0.282019 2.38731,2.246902 3.0564,3.228618 0.94425,1.509368 2.07631,2.864297 3.36176,4.089453 0,0 -0.49017,0.0397 -0.49017,0.0397 l 0,0 c -1.28378,-1.229861 -2.41421,-2.589565 -3.36038,-4.099829 -0.88745,-1.296905 -1.69207,-2.61164 -3.16584,-3.272575 -0.1856,0.02779 -0.37869,0.02426 -0.55681,0.08338 -1.50576,0.499791 -2.31355,2.296101 -3.285,3.396355 -1.26037,1.765047 -2.51714,3.53808 -3.49185,5.48283 -0.2763,0.622111 -0.0263,0.335763 -0.68695,0.607469 -0.0482,0.01983 0.1111,-0.0055 0.15171,-0.03822 0.11197,-0.09024 0.2028,-0.204929 0.29098,-0.318533 0.28541,-0.367709 0.60092,-0.900532 0.83893,-1.281878 1.00567,-1.607207 1.84215,-3.307746 2.67622,-5.008824 0,0 0.499,0.02315 0.499,0.02315 z"
       inkscape:connector-curvature="0"
       transform="translate(0,852.36215)" />
    <path
       style="opacity:0.33628319;fill:#000080;fill-opacity:1;stroke:#000000;stroke-width:0.89999998;stroke-miterlimit:4;stroke-opacity:1;stroke-dasharray:none"
       id="path3193"
       d="m 154.35827,29.70359 c 0.29239,1.763825 1.20247,3.274359 2.189,4.729006 1.23138,1.812439 2.93702,3.197519 4.58503,4.608739 1.8889,1.597839 3.93442,2.99133 5.98419,4.37159 2.40706,1.631494 4.78913,3.307574 7.27462,4.818869 2.2988,1.506266 4.69917,2.82996 7.15141,4.065385 2.08078,1.016174 4.23084,1.906044 6.40075,2.715318 1.7419,0.667987 3.51235,1.266879 5.28798,1.838997 1.49758,0.385903 2.96039,0.901104 4.36833,1.539671 1.66326,0.80045 3.38323,1.476493 5.06765,2.232349 2.16767,1.189901 4.37017,2.311395 6.57026,3.440094 3.01828,1.54951 6.10139,2.963983 9.21232,4.31614 3.65188,1.677805 7.46907,2.946184 11.26801,4.240668 4.08032,1.387687 8.25601,2.463176 12.43833,3.491646 4.58209,1.123854 9.21598,2.019355 13.80308,3.118981 4.83818,1.236926 9.70463,2.35468 14.5847,3.412441 5.31217,1.103432 10.58591,2.385874 15.83755,3.746208 5.77842,1.527651 11.58324,2.947659 17.39949,4.323442 5.53205,1.216526 11.1391,2.041954 16.76719,2.653853 2.9151,0.2839 5.89726,0.594192 8.74153,-0.254295 0.96404,-0.403419 1.52591,-1.07171 1.94731,-1.99219 0,0 0.49557,0.02113 0.49557,0.02113 l 0,0 c -0.42051,0.933733 -0.9834,1.616581 -1.95473,2.033803 -3.12956,0.950593 -6.49115,0.505202 -9.69587,0.260202 -5.62564,-0.615415 -11.23045,-1.442063 -16.75998,-2.660703 -5.81718,-1.376406 -11.62305,-2.796568 -17.40262,-4.32401 -5.25304,-1.3592 -10.52807,-2.640586 -15.84138,-3.74381 -4.88061,-1.058305 -9.74744,-2.177137 -14.58649,-3.413224 -4.58846,-1.09774 -9.22291,-1.994722 -13.80585,-3.118904 -4.18327,-1.02931 -8.35975,-2.106169 -12.44071,-3.495524 -3.80027,-1.295507 -7.61829,-2.56566 -11.27161,-4.244165 -3.11278,-1.353794 -6.19824,-2.768753 -9.21907,-4.31848 -2.20082,-1.129067 -4.4036,-2.251798 -6.57467,-3.437011 -1.68596,-0.755036 -3.40692,-1.43127 -5.07136,-2.232061 -1.40907,-0.633795 -2.87079,-1.14604 -4.36675,-1.534304 -1.77399,-0.575081 -3.54432,-1.171365 -5.28471,-1.841645 -2.16875,-0.813012 -4.31962,-1.700365 -6.39871,-2.720929 -2.4515,-1.237056 -4.84985,-2.564283 -7.14926,-4.069516 -2.4847,-1.514281 -4.86831,-3.189479 -7.27655,-4.820909 -2.05166,-1.381135 -4.09837,-2.776743 -5.98805,-4.376898 -1.65093,-1.413395 -3.35562,-2.804788 -4.58667,-4.621747 -0.99021,-1.462094 -1.89918,-2.980829 -2.19844,-4.751127 0,0 0.49918,-0.0071 0.49918,-0.0071 z"
       inkscape:connector-curvature="0"
       transform="translate(0,852.36215)" />
    <path
       style="opacity:0.33628319;fill:#000080;fill-opacity:1;stroke:#000000;stroke-width:0.89999998;stroke-miterlimit:4;stroke-opacity:1;stroke-dasharray:none"
       id="path3195"
       d="m 156.52045,25.507636 c -1.6416,1.435323 -3.11169,3.041671 -4.56589,4.662241 -1.92721,2.134169 -3.6077,4.46787 -5.4501,6.671422 -0.82534,0.886087 -0.4113,0.523835 -1.20542,1.127329 0,0 -0.49382,-0.04596 -0.49382,-0.04596 l 0,0 c 0.80057,-0.590767 0.38357,-0.233499 1.21232,-1.115372 1.84653,-2.20138 3.52774,-4.535624 5.45276,-6.67288 1.45226,-1.621148 2.91998,-3.227643 4.55237,-4.671506 0,0 0.49778,0.04472 0.49778,0.04472 z"
       inkscape:connector-curvature="0"
       transform="translate(0,852.36215)" />
    <path
       style="opacity:0.33628319;fill:#000080;fill-opacity:1;stroke:#000000;stroke-width:0.89999998;stroke-miterlimit:4;stroke-opacity:1;stroke-dasharray:none"
       id="path3197"
       d="m 149.24756,22.575648 c 0.15218,2.005205 0.78187,3.91872 1.49471,5.784583 1.19636,2.955302 3.01195,5.578864 4.82667,8.177153 0.80495,1.121189 1.6609,2.20338 2.48725,3.30859 0,0 -0.48741,0.0313 -0.48741,0.0313 l 0,0 c -0.82458,-1.105958 -1.67833,-2.189272 -2.48249,-3.310446 -1.81531,-2.602671 -3.63101,-5.230648 -4.83026,-8.188833 -0.7165,-1.872146 -1.34756,-3.791015 -1.50859,-5.80235 0,0 0.50012,0 0.50012,0 z"
       inkscape:connector-curvature="0"
       transform="translate(0,852.36215)" />
    <path
       style="opacity:0.33628319;fill:#000080;fill-opacity:1;stroke:#000000;stroke-width:0.89999998;stroke-miterlimit:4;stroke-opacity:1;stroke-dasharray:none"
       id="path3199"
       d="m 150.82274,36.269581 c 0.26412,2.270802 0.32333,4.558296 0.38147,6.841586 0,0 -0.48646,0.0012 -0.48646,0.0012 l 0,0 c -0.0582,-2.281496 -0.11757,-4.568012 -0.3942,-6.835742 0,0 0.49919,-0.0071 0.49919,-0.0071 z"
       inkscape:connector-curvature="0"
       transform="translate(0,852.36215)" />
    <path
       style="opacity:0.33628319;fill:#000080;fill-opacity:1;stroke:#000000;stroke-width:0.89999998;stroke-miterlimit:4;stroke-opacity:1;stroke-dasharray:none"
       id="path3201"
       d="m 153.28776,85.265521 c 0.0581,2.125377 -0.0779,4.241949 -0.23371,6.359996 -0.0779,0.960885 -0.13193,1.92334 -0.183,2.885926 0,0 -0.49296,-0.0026 -0.49296,-0.0026 l 0,0 c 0.0524,-0.962912 0.10692,-1.925756 0.18663,-2.886897 0.15771,-2.11672 0.29407,-4.232232 0.22374,-6.356379 0,0 0.4993,0 0.4993,0 z"
       inkscape:connector-curvature="0"
       transform="translate(0,852.36215)" />
    <path
       style="opacity:0.33628319;fill:#000080;fill-opacity:1;stroke:#000000;stroke-width:0.89999998;stroke-miterlimit:4;stroke-opacity:1;stroke-dasharray:none"
       id="path3203"
       d="m 154.8034,110.964 c -0.0741,1.59679 0.0598,3.17879 0.22559,4.76457 0.0531,1.31744 0.30919,2.58452 0.70928,3.83511 0.36201,1.18123 0.47705,2.40887 0.54238,3.63596 0.0504,1.24871 0.044,2.4988 0.0431,3.74827 0.0873,1.25444 0.3954,2.47261 0.6359,3.70225 0.2966,1.63781 0.56305,3.27559 0.71705,4.93378 0.12859,1.54928 0.14761,3.10459 0.15865,4.65826 0.13472,1.29626 0.31329,2.58608 0.41302,3.88617 0.005,0.80233 0.0857,1.58774 0.22698,2.3761 0,0 -0.49775,0.009 -0.49775,0.009 l 0,0 c -0.14013,-0.79005 -0.21888,-1.57747 -0.22594,-2.38109 -0.0991,-1.30127 -0.27904,-2.59201 -0.41155,-3.88962 -0.0103,-1.55224 -0.0288,-3.10612 -0.15654,-4.65403 -0.15422,-1.65669 -0.42089,-3.29279 -0.71951,-4.92877 -0.24152,-1.23268 -0.55194,-2.45391 -0.63709,-3.71188 0.002,-1.24857 0.007,-2.49774 -0.0427,-3.74557 -0.0654,-1.22285 -0.18046,-2.44659 -0.54297,-3.62325 -0.39977,-1.25398 -0.65332,-2.52496 -0.70615,-3.84534 -0.16503,-1.58762 -0.29647,-3.17118 -0.23186,-4.7697 0,0 0.50012,0 0.50012,0 z"
       inkscape:connector-curvature="0"
       transform="translate(0,852.36215)" />
    <path
       style="opacity:0.33628319;fill:#000080;fill-opacity:1;stroke:#000000;stroke-width:0.89999998;stroke-miterlimit:4;stroke-opacity:1;stroke-dasharray:none"
       id="path3205"
       d="m 160.86431,115.50968 c 0.13582,1.39803 0.4175,2.78438 0.77566,4.14163 0.14688,0.53851 0.27852,1.11766 0.60823,1.58293 0.0702,0.099 0.42041,0.23915 0.32498,0.16416 -0.11249,-0.0884 -0.25983,-0.11987 -0.38975,-0.1798 0.39681,-1.11031 0.61735,-2.28858 0.85238,-3.44448 0.16431,-0.59436 0.39963,-1.95081 1.29209,-1.85527 0.26377,0.0282 0.52146,0.0978 0.78218,0.14672 0.68939,0.64726 0.87834,1.56154 1.19732,2.40855 0.0844,0.22951 0.16356,0.54043 0.34983,0.72503 0.0675,0.0669 0.25052,0.0433 0.24914,0.13832 -0.001,0.0869 -0.25815,0.0128 -0.25008,-0.0738 0.0109,-0.11684 0.19121,-0.13717 0.27719,-0.21703 0.11371,-0.10562 0.21351,-0.22529 0.32027,-0.33793 0.63392,-1.07358 1.20922,-2.13672 2.20679,-2.91281 1.53371,-0.72291 2.51243,0.23953 3.42274,1.34783 0.7251,1.06429 1.49486,2.09689 2.31218,3.09165 0,0 -0.48987,0.0337 -0.48987,0.0337 l 0,0 c -0.81641,-0.99622 -1.58573,-2.02945 -2.31539,-3.09125 -0.36814,-0.44262 -0.55493,-0.72101 -1.00559,-1.06946 -0.15395,-0.11903 -0.35584,-0.17293 -0.49595,-0.30798 -0.0397,-0.0382 0.0578,-0.14937 0.005,-0.16524 -0.31929,-0.096 -0.66388,0.0977 -0.93774,0.2062 -1.00589,0.76487 -1.58149,1.82606 -2.20492,2.90487 -0.83921,0.90557 -1.51965,1.05877 -1.94197,-0.25427 -0.31181,-0.83669 -0.4992,-1.74695 -1.19654,-2.37024 0.0701,-0.0424 0.2614,-0.0629 0.21044,-0.12708 -0.36696,-0.46222 -1.06824,0.98343 -1.11876,1.13568 -0.071,0.21392 -0.11526,0.43581 -0.17289,0.65371 -0.23589,1.1604 -0.45873,2.34092 -0.84657,3.45905 -0.2029,0.0774 -0.39935,0.17453 -0.60872,0.23219 -0.43209,0.119 -0.87148,-1.56073 -0.93108,-1.81125 -0.35727,-1.36219 -0.63926,-2.75241 -0.78073,-4.15437 0,0 0.50012,0 0.50012,0 z"
       inkscape:connector-curvature="0"
       transform="translate(0,852.36215)" />
    <path
       style="opacity:0.33628319;fill:#000080;fill-opacity:1;stroke:#000000;stroke-width:0.89999998;stroke-miterlimit:4;stroke-opacity:1;stroke-dasharray:none"
       id="path3207"
       d="m 163.83429,149.35392 c -0.32158,1.79031 0.09,3.55168 0.7711,5.20299 1.3918,2.41113 3.42418,3.49881 5.95942,4.41013 3.62879,1.09862 7.37967,0.53536 11.03928,-0.0677 5.75601,-1.21022 11.34773,-3.06519 17.0071,-4.64597 7.0323,-1.98128 14.17431,-3.52778 21.35515,-4.85724 7.72599,-1.42923 15.5708,-2.04853 23.40436,-2.51783 7.4563,-0.52629 14.91735,-0.14411 22.33681,0.64256 3.76488,0.53037 7.54342,1.14203 11.1661,2.33172 1.91888,0.63016 2.22834,0.83245 4.00416,1.65364 1.99847,1.16031 4.27158,2.54331 5.22249,4.78076 0.12632,0.29723 0.17836,0.62081 0.26754,0.93122 0.25023,2.32888 -1.12242,3.2606 -3.01026,4.18604 -2.41088,0.92328 -4.94769,1.00789 -7.43535,0.35466 -1.90001,-0.64157 -3.13012,-1.67277 -3.60035,-3.64499 0.0245,-2.20547 2.13649,-3.13981 3.90772,-3.87347 3.93388,-1.23457 8.09772,-1.1158 12.17088,-1.07945 6.70791,0.28328 13.41376,0.61287 20.11704,0.99024 8.72758,0.57668 17.46928,0.67211 26.21081,0.50444 9.05786,-0.1872 18.06941,-1.17514 27.03102,-2.4482 6.63108,-0.96876 13.21613,-2.203 19.78347,-3.52828 2.02681,-0.61087 5.16612,-0.69321 6.71281,-2.38697 0.16162,-0.17699 0.2547,-0.40611 0.38205,-0.60917 0,0 0.49437,0.0275 0.49437,0.0275 l 0,0 c -0.12837,0.20846 -0.22138,0.44336 -0.38509,0.62538 -1.54076,1.71305 -4.70478,1.79787 -6.73765,2.40765 -6.57604,1.32208 -13.16872,2.5585 -19.80778,3.52752 -8.96369,1.27427 -17.97744,2.26318 -27.03744,2.4527 -9.03516,0.17508 -18.0716,0.0872 -27.09252,-0.50452 -6.70967,-0.37615 -13.42186,-0.70626 -20.13627,-0.98514 -3.76094,-0.0485 -7.59371,-0.0661 -11.22218,1.0636 -1.74663,0.71561 -3.86384,1.62912 -3.89671,3.8045 0.47219,1.9562 1.70564,2.96413 3.59087,3.59239 0.27395,0.0702 1.35957,0.37803 1.78129,0.40487 1.58979,0.10117 3.20004,-0.18533 4.68189,-0.74993 1.86923,-0.90617 3.2519,-1.80831 3.00567,-4.1176 -0.0885,-0.30665 -0.14025,-0.62638 -0.26549,-0.91995 -0.94962,-2.22588 -3.21725,-3.59795 -5.20682,-4.75165 -1.77223,-0.81795 -2.08184,-1.01978 -3.99664,-1.64744 -3.61908,-1.18631 -7.39345,-1.79669 -11.15418,-2.32501 -7.12047,-0.75368 -14.27952,-1.16549 -21.43612,-0.64171 -7.83256,0.46762 -15.67655,1.0851 -23.40174,2.51258 -7.17864,1.32794 -14.31849,2.87286 -21.3483,4.85405 -5.65606,1.57974 -11.24343,3.43565 -16.99428,4.65281 -3.95453,0.65768 -8.06884,1.20228 -11.989,0.0606 -2.54245,-0.92233 -4.58035,-2.02484 -5.96875,-4.45019 -0.68181,-1.66082 -1.09252,-3.43026 -0.78047,-5.23041 0,0 0.49999,0.008 0.49999,0.008 z"
       inkscape:connector-curvature="0"
       transform="translate(0,852.36215)" />
    <text
       xml:space="preserve"
       style="font-size:16px;font-style:normal;font-weight:normal;line-height:125%;letter-spacing:0px;word-spacing:0px;fill:#000000;fill-opacity:1;stroke:none;font-family:Sans"
       x="257.08383"
       y="178.28172"
       id="text3209"
       sodipodi:linespacing="125%"
       transform="translate(0,852.36215)"><tspan
         sodipodi:role="line"
         id="tspan3211"
         x="257.08383"
         y="178.28172">perturbative region</tspan></text>
    <path
       style="opacity:0.33628319;fill:#000080;fill-opacity:1;stroke:#000000;stroke-width:0.89999998;stroke-miterlimit:4;stroke-opacity:1;stroke-dasharray:none"
       id="path3213"
       d="m 393.13891,96.825989 c -0.31323,2.421362 -0.34482,4.868901 -0.39676,7.306581 0.066,3.32321 0.24059,6.64305 0.35542,9.96482 0.0221,0.68374 0.0408,1.36758 0.0624,2.05134 0.006,0.18642 0.0111,0.37287 0.0187,0.55922 0.003,0.0711 0.0761,0.24612 0.0129,0.21318 -0.7143,-0.37292 -0.55901,-0.55256 -0.63089,-1.25997 -0.24539,-2.89292 -0.28038,-5.79831 -0.32278,-8.69968 -0.0888,-2.65974 -0.0363,-5.30947 0.18587,-7.960134 0.10619,0.02021 0.0411,-1.425189 0.18087,-1.422992 0.74416,0.0117 0.69807,0.540686 0.88114,1.066527 0.30611,1.064235 0.75662,2.070829 1.69762,2.702229 0.12076,0.0441 0.24284,0.0848 0.36228,0.13238 0.0563,0.0224 -0.20421,-0.005 -0.17254,-0.0568 0.0657,-0.10699 0.23154,-0.10671 0.32459,-0.19097 0.40293,-0.36488 0.63028,-0.94081 0.84579,-1.419844 0.38764,-1.253432 0.85983,-2.49075 0.89984,-3.814029 -0.0262,-0.06667 -0.14403,-0.22874 -0.0785,-0.199994 0.52234,0.228939 0.25076,0.388832 0.16485,0.790793 -0.0503,0.235111 -0.0902,0.473262 -0.10941,0.712916 -0.0433,0.541107 -0.001,1.344575 0.0152,1.870554 0.11678,2.252894 0.82103,4.338294 1.92251,6.285214 0.50422,0.82617 1.23939,1.32542 2.04094,1.8176 0,0 -0.49085,0.0501 -0.49085,0.0501 l 0,0 c -0.80173,-0.50109 -1.53715,-1.01019 -2.04,-1.84246 -1.10058,-1.95557 -1.80443,-4.04923 -1.92382,-6.308821 -0.0165,-0.496947 -0.17102,-2.716921 0.2333,-3.101648 0.1807,-0.171935 0.44067,-0.268389 0.68898,-0.291931 0.0771,-0.0073 0.0508,0.146256 0.0762,0.219384 -0.048,1.329385 -0.51588,2.572318 -0.9035,3.833207 -0.45083,1.017089 -1.0165,2.181989 -2.35279,1.562669 -0.93205,-0.65449 -1.39002,-1.66112 -1.69884,-2.733804 -0.11462,-0.327897 -0.59211,-1.019391 0.11891,-1.072022 0.0715,-0.0053 -0.0378,0.1385 -0.0498,0.209169 -0.0624,0.369283 -0.10469,0.852712 -0.14168,1.206754 -0.22758,2.648763 -0.28251,5.296913 -0.19531,7.955263 0.0428,2.90003 0.0792,5.80448 0.33538,8.69526 0.0706,0.66341 0.28184,0.85688 -0.3658,1.26758 -0.0603,0.0383 -0.006,-0.14277 -0.008,-0.21419 -0.005,-0.18642 -0.01,-0.37287 -0.0144,-0.55931 -0.0329,-1.28439 -0.0135,-0.55997 -0.0555,-2.05109 -0.10853,-3.32286 -0.28253,-6.64347 -0.35131,-9.96745 0.049,-2.44 0.0796,-4.888696 0.37891,-7.313839 0,0 0.49998,0.0083 0.49998,0.0083 z"
       inkscape:connector-curvature="0"
       transform="translate(0,852.36215)" />
    <path
       style="opacity:0.33628319;fill:#000080;fill-opacity:1;stroke:#000000;stroke-width:0.89999998;stroke-miterlimit:4;stroke-opacity:1;stroke-dasharray:none"
       id="path3215"
       d="m 401.14607,82.783188 c 1.35458,-0.0038 2.78385,-0.02821 3.9059,0.814838 0.95012,1.033265 0.47664,2.327381 -0.0122,3.463257 -0.97609,1.91043 -2.24436,3.653869 -3.38331,5.468665 -0.5207,0.990372 -1.56263,2.331201 0.26187,2.398514 0.79726,-0.39322 1.73146,-0.670557 2.58661,-0.968555 0,0 0.48781,0.06059 0.48781,0.06059 l 0,0 c -1.17226,0.407733 -2.30024,0.974414 -3.5667,0.983075 -1.8356,-0.140338 -0.79721,-1.483545 -0.26004,-2.501157 1.13874,-1.811868 2.40512,-3.553498 3.38078,-5.461214 0.48074,-1.112764 0.95963,-2.391987 0.009,-3.396677 -0.84585,-0.614653 -1.89104,-0.78322 -2.91573,-0.783101 0,0 -0.49396,-0.07824 -0.49396,-0.07824 z"
       inkscape:connector-curvature="0"
       transform="translate(0,852.36215)" />
    <path
       style="opacity:0.33628319;fill:#000080;fill-opacity:1;stroke:#000000;stroke-width:0.89999998;stroke-miterlimit:4;stroke-opacity:1;stroke-dasharray:none"
       id="path3217"
       d="m 415.6703,100.12281 c 0.9138,-1.440215 1.88811,-2.845518 2.92666,-4.198438 0.9126,-1.091791 2.00336,-1.297431 3.09689,-0.310085 0.93033,1.02073 1.75662,2.129434 2.74121,3.099984 0.36305,0.32295 2.57085,1.477409 2.93209,1.002777 0.83389,-0.21608 1.48421,-0.729515 2.10707,-1.296565 0,0 0.49381,0.041 0.49381,0.041 l 0,0 c -0.62224,0.575239 -1.2742,1.09504 -2.10848,1.32612 -1.60667,0.129353 -2.60896,-0.01291 -3.91861,-1.034191 -0.98027,-0.974231 -1.80683,-2.082115 -2.74302,-3.097071 -0.13437,-0.116661 -0.26873,-0.233323 -0.4031,-0.349985 -0.13241,-0.0606 -0.28054,-0.0947 -0.39722,-0.181814 -0.026,-0.0194 0.11265,-0.05907 0.0805,-0.05463 -0.60848,0.08397 -1.00537,0.419668 -1.38766,0.886893 -1.04174,1.348054 -2.01594,2.752421 -2.9219,4.195342 0,0 -0.49826,-0.0293 -0.49826,-0.0293 z"
       inkscape:connector-curvature="0"
       transform="translate(0,852.36215)" />
    <path
       style="opacity:0.33628319;fill:#000080;fill-opacity:1;stroke:#000000;stroke-width:0.89999998;stroke-miterlimit:4;stroke-opacity:1;stroke-dasharray:none"
       id="path3219"
       d="m 447.38306,90.550417 c -1.55004,0.551672 -3.07433,1.123614 -4.51679,1.921462 -1.35674,0.956293 -2.25224,1.676663 -2.07303,3.42963 0.62368,1.907405 2.436,2.938809 4.01256,3.99772 1.8314,1.151001 3.80893,2.141951 5.24019,3.801511 0.88283,1.55994 -0.0728,2.21425 -1.45159,2.79419 -1.57793,0.53809 -3.21151,0.50449 -4.85128,0.45016 0,0 0.48765,-0.0747 0.48765,-0.0747 l 0,0 c 1.30326,0.14972 2.61873,-0.0818 3.8725,-0.43357 1.35016,-0.55187 2.32958,-1.1653 1.44988,-2.70087 -1.43358,-1.65111 -3.40823,-2.63706 -5.2338,-3.788948 -1.58881,-1.069031 -3.40549,-2.111803 -4.02243,-4.040485 -0.17831,-1.778211 0.70237,-2.508413 2.07893,-3.487027 1.44048,-0.801734 2.96301,-1.375237 4.51125,-1.931344 0,0 0.49596,0.06227 0.49596,0.06227 z"
       inkscape:connector-curvature="0"
       transform="translate(0,852.36215)" />
    <path
       style="opacity:0.33628319;fill:#000080;fill-opacity:1;stroke:#000000;stroke-width:0.89999998;stroke-miterlimit:4;stroke-opacity:1;stroke-dasharray:none"
       id="path3221"
       d="m 76.779058,33.701992 c -1.468809,2.074754 -3.049946,4.057604 -4.736688,5.958122 -1.716161,1.816891 -3.419255,3.745281 -5.604516,5.008262 -1.962851,0.493603 -2.25952,-0.598892 -2.37629,-2.233489 -0.01666,-1.394451 0.27083,-2.781129 0.912495,-4.020642 0.758981,-1.104791 2.118863,-0.694891 3.168753,-0.271815 1.854877,0.979281 3.497957,2.29552 5.224375,3.474808 1.241602,0.916839 2.561532,1.687709 3.952513,2.349466 0,0 -0.487763,0.05511 -0.487763,0.05511 l 0,0 C 75.442881,43.355122 74.123994,42.580539 72.881501,41.66456 71.15602,40.484709 69.511699,39.168311 67.65036,38.201417 c -0.957056,-0.375879 -1.455662,-0.706867 -2.179047,0.23678 -0.646759,1.227405 -0.931707,2.607768 -0.914593,3.993124 0.04638,0.636603 0.07576,1.338527 0.479527,1.876689 0.09321,0.124233 0.254632,0.184525 0.351278,0.306104 0.02207,0.02776 -0.06138,0.103043 -0.02592,0.103195 0.197738,8.48e-4 0.389729,-0.0672 0.584593,-0.100798 2.195522,-1.243973 3.897021,-3.178333 5.613981,-4.991465 1.684045,-1.896603 3.262973,-3.875297 4.720619,-5.952386 0,0 0.498256,0.02933 0.498256,0.02933 z"
       inkscape:connector-curvature="0"
       transform="translate(0,852.36215)" />
    <path
       style="opacity:0.33628319;fill:#000080;fill-opacity:1;stroke:#000000;stroke-width:0.89999998;stroke-miterlimit:4;stroke-opacity:1;stroke-dasharray:none"
       id="path3223"
       d="m 92.375384,19.115964 c -1.916733,2.554059 -3.479476,5.333503 -4.983441,8.14235 -1.98773,4.000953 -3.488557,8.233823 -4.356452,12.614766 -0.227729,2.372828 -0.530423,5.274835 0.563533,7.512819 0.123211,0.252062 0.319044,0.461602 0.478566,0.692403 0.781655,0.580955 0.358533,0.392209 1.255388,0.596592 0,0 -0.491486,0.06587 -0.491486,0.06587 l 0,0 c -0.899422,-0.232473 -0.475609,-0.03168 -1.256518,-0.632911 -0.15867,-0.235177 -0.353255,-0.449766 -0.476011,-0.705531 -1.104612,-2.301486 -0.771716,-5.106262 -0.550147,-7.538576 0.871153,-4.384715 2.372896,-8.621608 4.357644,-12.628798 1.500201,-2.809068 3.058539,-5.588239 4.961912,-8.149849 0,0 0.497012,0.03087 0.497012,0.03087 z"
       inkscape:connector-curvature="0"
       transform="translate(0,852.36215)" />
    <path
       style="opacity:0.33628319;fill:#000080;fill-opacity:1;stroke:#000000;stroke-width:0.89999998;stroke-miterlimit:4;stroke-opacity:1;stroke-dasharray:none"
       id="path3225"
       d="m 94.698909,33.242666 c -0.0062,2.303984 -0.006,4.607981 -0.0073,6.911972 0.01202,3.092443 0.03681,6.181039 -0.143298,9.268967 -0.07341,1.05607 -0.134866,2.113054 -0.218088,3.168437 -0.01369,0.173631 -0.02654,0.347389 -0.0455,0.520523 -0.007,0.06435 0.02496,0.221307 -0.03249,0.19147 -0.232099,-0.120545 -0.394312,-0.343688 -0.591469,-0.515533 -0.305427,-2.313049 -0.400309,-4.652249 -0.354942,-6.983185 0.124625,-1.951334 0.05123,-4.006585 0.837828,-5.834199 0.652826,-1.10434 1.629714,-0.43915 2.284939,0.233462 0.265648,0.241363 0.885739,0.930414 1.336001,0.673335 0.05356,-0.03058 -0.175374,-0.05473 -0.148583,-0.110293 0.05481,-0.113659 0.20529,-0.146781 0.307935,-0.220171 0.833801,-0.73939 1.185689,-1.783576 1.573526,-2.791148 -0.01119,-0.252303 0.512403,-2.346607 0.942933,-0.631024 0.1736,1.071134 0.49722,2.093857 1.09099,3.004363 0.43504,0.58031 1.07876,0.884495 1.67144,0.933629 0,0 0.49299,0.0735 0.49299,0.0735 l 0,0 c -1.22574,0.05214 -1.84531,0.0065 -2.66086,-0.978577 -0.59015,-0.918629 -0.91646,-1.944749 -1.095024,-3.020261 -0.124206,-0.4674 -0.180885,-0.264536 0.353204,-0.431137 0.0604,-0.01885 -0.0539,0.115492 -0.0689,0.177015 -0.0297,0.122351 -0.0551,0.24577 -0.0867,0.367667 -0.0453,0.175063 -0.0959,0.348711 -0.143905,0.523067 -0.390581,1.015033 -0.741681,2.065676 -1.572077,2.81957 -0.865099,0.658631 -1.818794,0.390714 -2.490892,-0.35069 -0.285661,-0.285973 -0.276358,-0.307012 -0.613742,-0.526167 -0.09871,-0.06412 -0.244825,-0.07443 -0.307123,-0.174303 -0.03105,-0.04977 0.215909,-0.08206 0.169978,-0.04557 -0.633308,0.503095 0.07772,-0.370315 -0.540187,0.494097 -0.798576,1.816469 -0.718391,3.870862 -0.84763,5.814785 -0.04538,2.327866 0.05056,4.664797 0.366614,6.973502 -0.136246,0.171717 -0.244416,0.370072 -0.408737,0.515152 -0.0476,0.04203 0.02922,-0.123859 0.03694,-0.18689 0.02114,-0.172736 0.03484,-0.346315 0.04954,-0.519718 0.08942,-1.054798 0.150567,-2.111762 0.22632,-3.167557 0.183001,-3.086902 0.1586,-6.174545 0.144328,-9.266115 -0.0013,-2.303991 -0.0011,-4.607988 -0.0073,-6.911972 0,0 0.499293,0 0.499293,0 z"
       inkscape:connector-curvature="0"
       transform="translate(0,852.36215)" />
    <path
       style="opacity:0.33628319;fill:#000080;fill-opacity:1;stroke:#000000;stroke-width:0.89999998;stroke-miterlimit:4;stroke-opacity:1;stroke-dasharray:none"
       id="path3227"
       d="m 105.42613,20.103739 c 0.88648,2.445974 1.47663,4.973391 2.05454,7.50537 1.06835,4.284501 1.49926,8.667836 1.46855,13.073024 0.002,4.272419 -0.85349,8.464586 -1.98497,12.563544 -0.16697,0.505211 -0.33394,1.010421 -0.50091,1.515632 0,0 -0.48301,-0.01548 -0.48301,-0.01548 l 0,0 c 0.16796,-0.504374 0.33591,-1.008748 0.50387,-1.513122 1.13639,-4.093824 1.99501,-8.281944 1.99142,-12.550909 0.031,-4.402001 -0.40158,-8.781919 -1.47551,-13.061876 -0.58133,-2.531896 -1.17516,-5.059426 -2.07285,-7.502299 0,0 0.49887,-0.01389 0.49887,-0.01389 z"
       inkscape:connector-curvature="0"
       transform="translate(0,852.36215)" />
    <path
       style="opacity:0.33628319000000001;fill:#000080;fill-opacity:1;stroke:#ff0000;stroke-width:0.89999998000000003;stroke-miterlimit:4;stroke-opacity:1;stroke-dasharray:none"
       id="path3229"
       d="m 111.16263,70.98297 c 1.47071,1.532879 3.49366,2.338247 5.48838,2.935969 2.57554,0.636493 5.11888,0.197844 7.65878,-0.360012 3.05086,-0.760176 6.03058,-1.773763 9.01137,-2.766853 3.06831,-1.062975 6.26695,-1.530399 9.46773,-1.969826 3.26588,-0.458899 6.5587,-0.619543 9.85302,-0.585856 3.48904,0.172426 6.97247,0.282653 10.46472,0.198076 3.98387,-0.19861 7.95546,-0.593515 11.90021,-1.180384 3.51648,-0.616308 6.99076,-1.446989 10.50965,-2.049674 2.8654,-0.485622 5.78151,-0.452655 8.5975,0.266004 2.84071,0.991027 5.62447,2.120719 8.52036,2.946786 3.66193,0.89583 7.43678,1.177115 11.19394,0.992758 4.48427,-0.275561 8.84225,-1.432993 13.13723,-2.680463 4.05457,-1.195156 8.10216,-2.424121 12.20666,-3.437902 3.66298,-0.891312 7.40781,-1.248366 11.14925,-1.608493 3.73913,-0.319812 7.48403,-0.577249 11.21959,-0.938254 2.41478,-0.317645 4.98547,-0.330362 7.21141,-1.420889 0,0 0.49169,0.0549 0.49169,0.0549 l 0,0 c -2.22566,1.108535 -4.80692,1.117656 -7.22772,1.436585 -3.73575,0.362668 -7.48119,0.618481 -11.22068,0.938116 -3.74128,0.360689 -7.48648,0.71245 -11.15006,1.601337 -4.10601,1.010517 -8.1541,2.240652 -12.20943,3.435565 -4.29537,1.249049 -8.65318,2.410226 -13.13774,2.692116 -4.07578,0.129657 -8.16816,0.02737 -12.14177,-1.003303 -2.8961,-0.82971 -5.68093,-1.960542 -8.52538,-2.944635 -2.52293,-0.633369 -5.06428,-0.759797 -7.63619,-0.262691 -3.52127,0.599374 -6.99724,1.43037 -10.51488,2.049957 -3.94488,0.589339 -7.91685,0.983991 -11.90097,1.186243 -3.80896,0.09404 -7.60954,-0.0073 -11.41468,-0.196824 -2.97434,-0.05904 -5.94824,0.212438 -8.8974,0.580011 -3.19978,0.439193 -6.3986,0.899169 -9.4666,1.960946 -2.98092,0.993537 -5.9606,2.007479 -9.01055,2.772064 -2.84187,0.629452 -5.74133,1.040037 -8.62272,0.356753 -2.00202,-0.606632 -4.02306,-1.422244 -5.50242,-2.958957 0,0 0.4977,-0.03917 0.4977,-0.03917 z"
       inkscape:connector-curvature="0"
       transform="translate(0,852.36215)" />
    <path
       style="opacity:0.33628319;fill:#000080;fill-opacity:1;stroke:#000000;stroke-width:0.89999998;stroke-miterlimit:4;stroke-opacity:1;stroke-dasharray:none"
       id="path3231"
       d="m 76.763932,73.412005 c 0.779495,-1.03367 1.707426,-1.86688 3.010367,-2.081942 1.123303,-0.174851 1.797585,0.42765 2.89907,0.472501 -0.01872,-0.02116 -0.07988,-0.04816 -0.05615,-0.06349 0.239676,-0.154794 0.533162,-0.207605 0.783858,-0.343831 0.448282,-0.243593 0.819001,-0.540243 1.190565,-0.886126 0.40249,-0.474919 0.749648,-0.99048 1.139276,-1.474728 0,0 0.498072,0.03394 0.498072,0.03394 l 0,0 c -0.393783,0.483627 -0.740986,1.001745 -1.140977,1.481425 -0.82883,0.784751 -1.731231,1.35031 -2.908251,1.328576 -0.663033,-0.0362 -1.386211,-0.283684 -1.912198,-0.477852 -1.303577,0.186272 -2.232304,1.0134 -3.004986,2.04522 0,0 -0.498649,-0.0337 -0.498649,-0.0337 z"
       inkscape:connector-curvature="0"
       transform="translate(0,852.36215)" />
    <path
       style="opacity:0.33628319;fill:#000080;fill-opacity:1;stroke:#000000;stroke-width:0.89999998;stroke-miterlimit:4;stroke-opacity:1;stroke-dasharray:none"
       id="path3233"
       d="m 79.16801,79.421313 c 0.459298,-1.213101 1.151868,-2.347346 2.294859,-3.002648 1.265729,-0.405739 2.035714,0.24268 2.613325,1.269186 0.06126,0.155828 0.118724,0.313199 0.183769,0.467484 0.165046,0.391479 0.347678,0.882686 0.714518,1.136734 0.176121,0.12197 0.519816,0.165839 0.230771,0.12167 0.561585,-0.109663 0.937636,-0.501716 1.347499,-0.867484 0,0 0.494643,0.04156 0.494643,0.04156 l 0,0 c -0.409825,0.371523 -0.788726,0.773798 -1.348363,0.903223 -0.293847,-9.33e-4 -0.590209,0.03558 -0.881541,-0.0028 -0.756928,-0.09971 -0.971506,-1.231014 -1.238982,-1.77467 -0.243276,-0.424716 -0.479154,-0.805346 -0.896393,-1.0845 -0.112602,-0.07534 -0.259138,-0.09673 -0.361864,-0.18506 -0.02444,-0.02102 0.105469,-0.06546 0.07333,-0.06304 -0.147999,0.01113 -0.290664,0.06021 -0.435995,0.09031 -1.147641,0.629422 -1.836284,1.762705 -2.289981,2.96611 0,0 -0.499592,-0.01608 -0.499592,-0.01608 z"
       inkscape:connector-curvature="0"
       transform="translate(0,852.36215)" />
    <path
       style="opacity:0.33628319;fill:#000080;fill-opacity:1;stroke:#000000;stroke-width:0.89999998;stroke-miterlimit:4;stroke-opacity:1;stroke-dasharray:none"
       id="path3235"
       d="m 94.563519,66.956097 c 1.24905,-0.445293 2.207683,-1.257863 3.10551,-2.197656 0.549918,-0.811412 1.382693,-1.510211 1.587213,0.01 0.131776,1.403207 -0.06256,2.796488 -0.218992,4.187938 -0.204637,1.86411 -0.250524,3.739943 -0.283568,5.613351 -0.02456,1.870226 -0.0224,3.740662 -0.02018,5.611007 -0.111587,0.710604 0.275324,2.334518 -0.19798,2.871211 -0.886519,0.172451 -1.833104,-0.02614 -2.729559,-0.09619 -0.01061,-0.134998 -1.237445,0.08179 -0.678828,0.204518 0.915722,0.131515 1.847214,0.116718 2.770538,0.126253 0.921098,0.0069 1.842227,0.0048 2.763337,0.0039 0.49562,0.01483 0.98104,0.0048 1.47216,-0.05844 0,0 0.49376,0.07139 0.49376,0.07139 l 0,0 c -0.49191,0.07017 -0.97664,0.08145 -1.47407,0.0649 -1.2488,0.0012 -2.497621,0.004 -3.746398,-0.0045 -0.925498,-0.01012 -1.863193,0.01168 -2.778254,-0.141784 -0.830077,-0.401046 1.471969,-0.414721 1.670812,-0.340371 0.682748,0.05437 1.614908,0.192428 1.735733,0.1317 0.459421,-0.427501 0.106891,-2.197064 0.20438,-2.832576 5.45e-4,-1.870641 -4.08e-4,-3.741366 0.023,-5.611892 0.03271,-1.87492 0.07805,-3.752257 0.281436,-5.618002 0.155239,-1.387432 0.349269,-2.776643 0.213251,-4.175564 -0.05125,-0.360802 -0.355331,-0.732479 0.173452,-0.806927 0.07583,-0.01068 -0.131547,0.08074 -0.186738,0.133831 -0.13191,0.126886 -0.490713,0.584782 -0.578628,0.694149 -0.900081,0.940802 -1.85076,1.770135 -3.104912,2.214943 0,0 -0.496476,-0.05519 -0.496476,-0.05519 z"
       inkscape:connector-curvature="0"
       transform="translate(0,852.36215)" />
    <path
       style="opacity:0.33628319000000001;fill:#000080;fill-opacity:1;stroke:#ff0000;stroke-width:0.89999998000000003;stroke-miterlimit:4;stroke-opacity:1;stroke-dasharray:none"
       id="path3237"
       d="m 273.3612,59.998429 c 1.81276,-0.314223 3.65827,-0.162755 5.48506,-0.08602 2.01887,0.08814 4.03956,0.116026 6.06005,0.133198 1.73285,-0.08983 3.50148,0.172041 5.22569,-0.04748 0,0 0.48649,0.07388 0.48649,0.07388 l 0,0 c -2.06498,0.08926 -4.13068,0.06288 -6.19737,0.05002 -2.02079,-0.01758 -4.04173,-0.04624 -6.06087,-0.134727 -1.50324,-0.06285 -3.01321,-0.202966 -4.50393,0.08118 0,0 -0.49512,-0.07006 -0.49512,-0.07006 z"
       inkscape:connector-curvature="0"
       transform="translate(0,852.36215)" />
    <path
       style="opacity:0.33628319000000001;fill:#000080;fill-opacity:1;stroke:#ff0000;stroke-width:0.89999998000000003;stroke-miterlimit:4;stroke-opacity:1;stroke-dasharray:none"
       id="path3239"
       d="m 302.64608,57.658188 c 1.56521,0.683777 3.15534,1.300785 4.77437,1.844978 2.17972,0.699499 4.4606,0.932016 6.73888,0.931632 2.30334,-0.07672 4.55749,-0.595579 6.79214,-1.118406 1.70333,-0.456821 3.40103,-1.007278 5.17297,-1.089866 1.68051,-0.132018 3.14166,0.616583 4.65948,1.213558 2.15203,0.96335 4.47376,1.256552 6.79782,1.455887 2.73747,0.254778 5.46213,-0.102603 8.15781,-0.549906 2.43875,-0.449864 4.83944,-1.071055 7.28994,-1.455739 2.10938,-0.320224 4.23074,-0.360157 6.35474,-0.208948 2.27896,0.295521 4.52263,0.777049 6.80549,1.046457 2.68186,0.294139 5.37185,0.308931 8.06204,0.184129 2.65201,-0.130957 5.28494,-0.488379 7.93223,-0.687874 2.21953,-0.153858 4.44164,-0.220795 6.66036,-0.03539 2.16558,0.328347 4.29085,0.89365 6.42071,1.400639 2.63219,0.621423 5.29564,1.036606 7.98721,1.281011 1.62619,0.0034 3.30374,0.365379 4.92633,0.151165 0,0 0.48777,0.07439 0.48777,0.07439 l 0,0 c -1.967,0.07283 -3.933,0.0052 -5.89557,-0.153792 -2.69239,-0.247484 -5.35673,-0.665924 -7.98991,-1.287637 -2.1304,-0.505869 -4.25585,-1.074032 -6.4234,-1.392786 -1.89693,-0.155573 -3.78985,-0.114986 -5.68988,0.03528 -2.64908,0.197473 -5.28346,0.554924 -7.93685,0.688555 -3.00957,0.141799 -6.02367,0.12903 -9.02367,-0.187091 -2.28323,-0.272052 -4.52783,-0.755558 -6.80859,-1.043631 -1.80174,-0.12527 -3.5929,-0.0795 -5.38396,0.204651 -2.45245,0.38084 -4.8543,1.001714 -7.2937,1.454723 -3.01584,0.501764 -6.05826,0.838401 -9.12031,0.553751 -2.32792,-0.202723 -4.65087,-0.504327 -6.80635,-1.468978 -1.19998,-0.470765 -2.38612,-1.052902 -3.67996,-1.196979 -1.77387,0.06695 -3.47391,0.622513 -5.17747,1.079876 -2.54888,0.596278 -5.12302,1.190517 -7.75931,1.1292 -2.28089,-0.0061 -4.56357,-0.241264 -6.74436,-0.946837 -1.6212,-0.545789 -3.21107,-1.169591 -4.78295,-1.843763 0,0 0.49595,-0.06227 0.49595,-0.06227 z"
       inkscape:connector-curvature="0"
       transform="translate(0,852.36215)" />
    <text
       xml:space="preserve"
       style="font-size:16px;font-style:normal;font-weight:normal;line-height:125%;letter-spacing:0px;word-spacing:0px;fill:#000000;fill-opacity:1;stroke:none;font-family:Sans"
       x="260.61935"
       y="35.345135"
       id="text3241"
       sodipodi:linespacing="125%"
       transform="translate(0,852.36215)"><tspan
         sodipodi:role="line"
         id="tspan3243"
         x="260.61935"
         y="35.345135">strong coupling</tspan></text>
  </g>
</svg>
