<?xml version="1.0" encoding="UTF-8" standalone="no"?>
<!-- Created with Inkscape (http://www.inkscape.org/) -->

<svg
   xmlns:dc="http://purl.org/dc/elements/1.1/"
   xmlns:cc="http://creativecommons.org/ns#"
   xmlns:rdf="http://www.w3.org/1999/02/22-rdf-syntax-ns#"
   xmlns:svg="http://www.w3.org/2000/svg"
   xmlns="http://www.w3.org/2000/svg"
   xmlns:sodipodi="http://sodipodi.sourceforge.net/DTD/sodipodi-0.dtd"
   xmlns:inkscape="http://www.inkscape.org/namespaces/inkscape"
   width="549.43048"
   height="429.03363"
   id="svg2"
   version="1.1"
   inkscape:version="0.48.2 r9819"
   sodipodi:docname="New document 1">
  <defs
     id="defs4" />
  <sodipodi:namedview
     id="base"
     pagecolor="#ffffff"
     bordercolor="#666666"
     borderopacity="1.0"
     inkscape:pageopacity="0.0"
     inkscape:pageshadow="2"
     inkscape:zoom="0.88"
     inkscape:cx="270.46875"
     inkscape:cy="192.2027"
     inkscape:document-units="px"
     inkscape:current-layer="layer1"
     showgrid="false"
     fit-margin-top="0"
     fit-margin-left="0"
     fit-margin-right="0"
     fit-margin-bottom="0"
     inkscape:window-width="1280"
     inkscape:window-height="737"
     inkscape:window-x="-8"
     inkscape:window-y="-8"
     inkscape:window-maximized="1" />
  <metadata
     id="metadata7">
    <rdf:RDF>
      <cc:Work
         rdf:about="">
        <dc:format>image/svg+xml</dc:format>
        <dc:type
           rdf:resource="http://purl.org/dc/dcmitype/StillImage" />
        <dc:title></dc:title>
      </cc:Work>
    </rdf:RDF>
  </metadata>
  <g
     inkscape:label="Layer 1"
     inkscape:groupmode="layer"
     id="layer1"
     transform="translate(-104.53125,-295.53125)">
    <path
       sodipodi:type="arc"
       style="opacity:0.33628319;fill:#000000;fill-opacity:1;stroke:#000080;stroke-width:1.10000002;stroke-miterlimit:4;stroke-opacity:1;stroke-dasharray:none"
       id="path2985"
       sodipodi:cx="290.90909"
       sodipodi:cy="501.22583"
       sodipodi:rx="106.81818"
       sodipodi:ry="95.454544"
       d="m 186.48844,521.33619 c -12.42887,-51.53484 24.24627,-102.31579 81.9162,-113.42244 57.66994,-11.10664 114.49624,21.66689 126.9251,73.20172 12.42886,51.53484 -24.24627,102.31579 -81.91621,113.42244 -57.09383,10.99569 -113.48505,-21.02424 -126.59626,-71.8836"
       sodipodi:start="2.9293222"
       sodipodi:end="9.1983595"
       sodipodi:open="true" />
    <path
       style="fill:none;stroke:#000000;stroke-width:1px;stroke-linecap:butt;stroke-linejoin:miter;stroke-opacity:1"
       d="m 209.09091,460.31673 c 1.71472,5.10305 3.87268,9.21811 6.81818,13.63636 0.75758,1.13637 1.3984,2.3599 2.27273,3.40909 1.02881,1.23458 2.475,2.10137 3.40909,3.40909 0.98461,1.37846 1.45005,3.06464 2.27273,4.54546 2.14527,3.86149 4.54545,7.57576 6.81818,11.36363 1.13636,1.89394 2.05308,3.93839 3.40909,5.68182 1.31552,1.69139 3.22993,2.85407 4.54545,4.54546 1.35601,1.74343 2.14249,3.87238 3.40909,5.68182 1.39089,1.98698 3.15457,3.69483 4.54546,5.68181 1.2666,1.80944 2.14249,3.87239 3.40909,5.68182 1.39089,1.98699 3.05639,3.7673 4.54545,5.68182 2.65152,3.40909 5.30303,6.81818 7.95455,10.22727 1.16277,1.49499 2.16192,3.12012 3.40909,4.54546 10.29818,11.76934 -0.64122,-2.37011 7.95455,9.09091 1.13636,1.51515 2.17653,3.10746 3.40909,4.54545 1.7431,2.03362 3.78788,3.78788 5.68182,5.68182 1.13636,1.13636 2.15418,2.40517 3.40909,3.40909 0.66139,0.52911 1.67381,0.53745 2.27272,1.13636 0.59892,0.59892 0.53745,1.67381 1.13637,2.27273 0.26784,0.26784 0.79756,-0.1694 1.13636,0 0.29585,0.14793 1.3844,2.02469 2.27273,1.13636 0.26784,-0.26784 0.1694,-0.79756 0,-1.13636 -2.36464,-4.72927 0.0784,1.21481 -2.27273,-1.13636 -0.26784,-0.26785 0.1694,-0.79757 0,-1.13637 -0.23957,-0.47913 -0.75757,-0.75757 -1.13636,-1.13636"
       id="path2987"
       inkscape:connector-curvature="0" />
    <path
       style="fill:none;stroke:#000000;stroke-width:1px;stroke-linecap:butt;stroke-linejoin:miter;stroke-opacity:1"
       d="m 246.59091,428.49855 c 1.51515,1.51515 3.30001,2.80183 4.54545,4.54545 0.69623,0.97472 0.60068,2.33772 1.13637,3.40909 1.22155,2.44311 3.19026,4.4466 4.54545,6.81818 0.84046,1.4708 1.45005,3.06464 2.27273,4.54546 1.07264,1.93074 2.35145,3.74281 3.40909,5.68182 1.21676,2.23072 2.27273,4.54545 3.40909,6.81818 1.51515,2.27273 3.16914,4.45879 4.54546,6.81818 1.28032,2.19485 2.12876,4.62333 3.40909,6.81818 1.37631,2.35939 3.11389,4.4919 4.54545,6.81818 3.60317,5.85515 5.48774,10.05394 9.09091,15.90909 1.43156,2.32629 3.0303,4.54546 4.54545,6.81819 1.51516,2.27272 2.93888,4.60913 4.54546,6.81818 1.42657,1.96153 3.15456,3.69483 4.54545,5.68182 4.35571,6.22244 2.10772,4.84388 6.81819,10.22727 2.46926,2.82202 5.55397,5.07386 7.95454,7.95454 0.87433,1.04919 1.3984,2.35991 2.27273,3.4091 1.02881,1.23457 2.38027,2.17451 3.40909,3.40909 0.87432,1.04919 1.41956,2.34262 2.27273,3.40909 0.66928,0.8366 1.6299,1.41563 2.27272,2.27272 0.5082,0.6776 0.53745,1.67382 1.13637,2.27273 0.59891,0.59892 1.56798,0.66654 2.27272,1.13637 0.55176,0.36783 2.05352,2.27272 2.27273,2.27272 0.37879,0 0.11979,-0.77701 0,-1.13636 -0.26784,-0.80353 -0.66653,-1.56799 -1.13636,-2.27273 -0.29715,-0.44572 -0.75758,-0.75757 -1.13637,-1.13636"
       id="path2989"
       inkscape:connector-curvature="0" />
    <path
       style="fill:none;stroke:#000000;stroke-width:1px;stroke-linecap:butt;stroke-linejoin:miter;stroke-opacity:1"
       d="m 282.95455,420.544 c 1.12584,3.66423 4.63658,5.22756 6.81818,7.95455 0.85317,1.06646 1.4789,2.29774 2.27272,3.40909 1.10083,1.54116 2.24633,3.05047 3.4091,4.54545 1.48906,1.91452 3.15456,3.69483 4.54545,5.68182 1.2666,1.80943 2.14249,3.87239 3.40909,5.68182 1.39089,1.98698 3.11889,3.72029 4.54546,5.68182 1.60657,2.20904 3.0303,4.54545 4.54545,6.81818 1.51515,2.27273 3.25046,4.41319 4.54545,6.81818 1.36767,2.53995 2.04143,5.4146 3.4091,7.95455 1.29499,2.40498 3.11389,4.49189 4.54545,6.81818 1.60053,2.60086 2.94492,5.35368 4.54545,7.95454 1.43157,2.32629 3.16915,4.45879 4.54546,6.81818 1.28033,2.19485 2.12876,4.62334 3.40909,6.81819 1.37631,2.35939 3.07899,4.51374 4.54545,6.81818 1.1858,1.86339 2.18393,3.84407 3.4091,5.68182 1.05056,1.57585 2.4053,2.93939 3.40909,4.54545 0.89781,1.4365 1.37491,3.10895 2.27272,4.54546 7.98135,12.77015 -0.15294,-0.96151 5.68182,6.81818 0.5082,0.67759 0.62817,1.59513 1.13637,2.27272 0.64282,0.8571 1.67843,1.38129 2.27272,2.27273 0.21012,0.31517 -0.26784,0.86852 0,1.13637 0.26785,0.26784 0.79757,-0.1694 1.13637,0 0.47913,0.23956 0.60067,1.13636 1.13636,1.13636 0.37879,0 0,-0.75758 0,-1.13636 0,-0.37879 0.11978,-0.77702 0,-1.13637 -0.53569,-1.60706 -1.73704,-2.93839 -2.27273,-4.54545 -0.49388,-1.48164 -0.75757,-3.03031 -1.13636,-4.54546"
       id="path2991"
       inkscape:connector-curvature="0" />
    <path
       style="fill:none;stroke:#000000;stroke-width:1px;stroke-linecap:butt;stroke-linejoin:miter;stroke-opacity:1"
       d="m 328.40909,422.81673 c 2.14869,2.62253 1.96175,6.19621 3.40909,9.09091 0.61078,1.22155 1.59513,2.22329 2.27273,3.40909 0.84045,1.47079 1.37491,3.10895 2.27273,4.54545 1.00378,1.60606 2.35852,2.9696 3.40909,4.54546 1.22516,1.83774 2.14249,3.87238 3.40909,5.68182 1.39089,1.98698 3.15456,3.69483 4.54545,5.68181 1.26661,1.80944 2.2233,3.81843 3.40909,5.68182 2.93293,4.60889 6.15799,9.02748 9.09091,13.63637 1.1858,1.86339 2.2233,3.81842 3.40909,5.68181 1.46647,2.30445 3.07899,4.51374 4.54546,6.81819 2.37159,3.72678 4.36785,7.68814 6.81818,11.36363 1.05057,1.57585 2.35852,2.9696 3.40909,4.54546 1.22516,1.83774 2.23849,3.80885 3.40909,5.68181 0.72384,1.15815 1.59513,2.2233 2.27273,3.4091 0.84045,1.47079 1.33307,3.13596 2.27273,4.54545 0.59429,0.89144 1.72151,1.35403 2.27272,2.27273 0.61628,1.02713 0.60068,2.33771 1.13637,3.40909 0.30345,0.60691 2.81083,2.81083 3.40909,3.40909"
       id="path2993"
       inkscape:connector-curvature="0" />
    <path
       style="fill:none;stroke:#000000;stroke-width:1px;stroke-linecap:butt;stroke-linejoin:miter;stroke-opacity:1"
       d="m 196.59091,504.63491 c 1.13636,1.89394 2.12531,3.88453 3.40909,5.68182 0.62272,0.87181 1.60345,1.43612 2.27273,2.27273 0.85317,1.06646 1.51515,2.27272 2.27272,3.40909 1.13637,1.13636 2.35084,2.19965 3.4091,3.40909 3.50861,4.00984 4.8237,6.20191 7.95454,10.22727 1.48907,1.91452 3.15457,3.69483 4.54546,5.68182 1.2666,1.80943 2.14248,3.87238 3.40909,5.68182 1.39089,1.98698 3.15456,3.69483 4.54545,5.68181 1.2666,1.80944 2.05308,3.93839 3.40909,5.68182 1.31552,1.69139 3.25981,2.83126 4.54546,4.54546 1.01639,1.35519 1.28811,3.16699 2.27272,4.54545 0.93409,1.30772 2.38028,2.17451 3.40909,3.40909 0.87433,1.04919 1.30701,2.44337 2.27273,3.40909 5.48511,5.48512 1.94789,-0.64968 4.54546,4.54546"
       id="path2995"
       inkscape:connector-curvature="0" />
    <path
       style="fill:none;stroke:#000000;stroke-width:1px;stroke-linecap:butt;stroke-linejoin:miter;stroke-opacity:1"
       d="m 193.18182,677.36218 c 0.37879,-1.51515 0.55633,-3.09537 1.13636,-4.54545 0.19895,-0.49737 0.8968,-0.65723 1.13637,-1.13637 1.5909,-3.18181 1.81818,-7.04545 3.40909,-10.22727 3.29691,-6.59383 1.5571,0.0144 4.54545,-7.95454 0.54838,-1.46235 0.58799,-3.08312 1.13636,-4.54546 0.5948,-1.58613 1.51516,-3.0303 2.27273,-4.54545 1.51515,-3.03031 3.21086,-5.97687 4.54546,-9.09091 0.47185,-1.10098 0.66451,-2.30811 1.13636,-3.40909 0.6673,-1.55703 1.67793,-2.95932 2.27273,-4.54546 0.54838,-1.46234 0.70731,-3.04376 1.13636,-4.54545 0.32907,-1.15175 0.75758,-2.27273 1.13636,-3.40909 0.37879,-1.13637 0.60068,-2.33772 1.13637,-3.40909 0.61078,-1.22156 1.66195,-2.18754 2.27273,-3.40909 1.07137,-2.14275 1.383,-4.59387 2.27272,-6.81819 0.92905,-2.32262 2.28993,-4.57986 3.40909,-6.81818 0.37879,-0.75757 0.86852,-1.4692 1.13637,-2.27273 0.11978,-0.35935 -0.11979,-0.77701 0,-1.13636 1.37321,-4.11965 0.53916,-0.80875 2.27272,-3.40909 0.46983,-0.70474 0.66654,-1.56798 1.13637,-2.27273 0.29714,-0.44572 0.8968,-0.65723 1.13636,-1.13636 0.1694,-0.3388 0,-0.75758 0,-1.13636 0.37879,-0.75758 0.66654,-1.56799 1.13637,-2.27273 0.29714,-0.44572 0.89679,-0.65723 1.13636,-1.13637 0.1694,-0.33879 0,-0.75757 0,-1.13636 0.37879,-0.37879 0.8968,-0.65723 1.13636,-1.13636 0.1694,-0.3388 -0.37879,-1.13637 0,-1.13637 0.37879,0 0.26785,0.86852 0,1.13637 -0.26784,0.26784 -0.75757,0 -1.13636,0"
       id="path2997"
       inkscape:connector-curvature="0" />
    <path
       style="fill:none;stroke:#000000;stroke-width:1px;stroke-linecap:butt;stroke-linejoin:miter;stroke-opacity:1"
       d="m 203.40909,622.81673 c 1.13636,-1.89394 2.27273,-3.78788 3.40909,-5.68182 0.37879,-0.37879 0.83922,-0.69065 1.13637,-1.13636 0.46982,-0.70475 0.66653,-1.56799 1.13636,-2.27273 0.31505,-0.47257 4.13903,-4.34224 4.54545,-4.54546 0.3388,-0.16939 0.75758,0 1.13637,0 0.37879,0 0.75757,0 1.13636,0 0.75758,0 1.55403,-0.23956 2.27273,0 0.5082,0.1694 0.75757,0.75758 1.13636,1.13637 0.37879,0.37879 0.8968,0.65723 1.13637,1.13636 0.16939,0.3388 -0.11979,0.77702 0,1.13637 0.53568,1.60706 1.86187,2.90204 2.27272,4.54545 0.18374,0.73496 -0.14857,1.52986 0,2.27273 0.23492,1.17457 0.90145,2.23452 1.13637,3.40909 0.14857,0.74286 -0.18374,1.53777 0,2.27273 0.41085,1.64341 1.86187,2.90204 2.27272,4.54545 0.18374,0.73496 0,1.51515 0,2.27273"
       id="path2999"
       inkscape:connector-curvature="0" />
    <path
       style="fill:none;stroke:#000000;stroke-width:1px;stroke-linecap:butt;stroke-linejoin:miter;stroke-opacity:1"
       d="m 293.18182,587.58946 c 0,3.40909 0,6.81818 0,10.22727 0,1.51515 0.21427,3.04553 0,4.54545 -0.1694,1.1858 -0.98779,2.22051 -1.13637,3.40909 -0.23491,1.87932 0,3.78788 0,5.68182 0,3.78788 0,7.57576 0,11.36364 0,6.0606 0,12.12121 0,18.18182 0,1.89394 0,3.78788 0,5.68181 0,1.89394 0.18846,3.79728 0,5.68182 -0.19218,1.92186 -0.92307,3.76219 -1.13636,5.68182 -0.16732,1.50589 0,3.0303 0,4.54546 0,1.51515 0,3.0303 0,4.54545 0,1.13636 0.18682,2.28819 0,3.40909 -1.37593,8.25558 -1.13636,-0.39938 -1.13636,5.68182 0,0.75757 0,1.51515 0,2.27273 0,0.37878 0.37879,1.13636 0,1.13636 -1.40421,0 -1.13637,-1.5936 -1.13637,-2.27273"
       id="path3001"
       inkscape:connector-curvature="0" />
    <path
       style="fill:none;stroke:#000000;stroke-width:1px;stroke-linecap:butt;stroke-linejoin:miter;stroke-opacity:1"
       d="m 281.81818,648.95309 c 5.17305,-10.3461 0.065,0.40571 3.40909,-7.95454 3.3441,-8.36026 -1.49611,5.62471 2.27273,-5.68182 0.37879,-1.13637 0.60068,-2.33772 1.13636,-3.40909 0.61078,-1.22156 1.66195,-2.18754 2.27273,-3.40909 0.44378,-0.88756 1.2798,-4.6889 2.27273,-5.68182 0.59891,-0.59892 1.4692,-0.86852 2.27273,-1.13637 0.56404,-0.18801 3.31231,-0.0968 3.40909,0 0.59891,0.59892 0.75757,1.51516 1.13636,2.27273 0.37879,0.75758 0.75758,1.51515 1.13636,2.27273 1.75186,3.50372 3.31685,7.07398 5.68182,10.22727 0.64283,0.8571 1.51515,1.51515 2.27273,2.27273"
       id="path3003"
       inkscape:connector-curvature="0" />
    <path
       style="fill:none;stroke:#000000;stroke-width:1px;stroke-linecap:butt;stroke-linejoin:miter;stroke-opacity:1"
       d="m 361.36364,567.13491 c -0.1076,2.87737 1.81937,5.23445 2.27272,7.95455 0.18682,1.1209 -0.1607,2.28414 0,3.40909 0.44174,3.09217 1.59513,6.04172 2.27273,9.09091 0.83798,3.7709 1.58171,7.56305 2.27273,11.36363 0.41216,2.26691 0.53012,4.59529 1.13636,6.81818 0.53672,1.96796 1.73601,3.71386 2.27273,5.68182 0.60624,2.22289 0.57754,4.5829 1.13636,6.81818 0.58104,2.32414 1.51515,4.54546 2.27273,6.81819 0.75758,2.27272 1.51515,4.54545 2.27273,6.81818 0.75757,2.27272 1.45402,4.56675 2.27272,6.81818 1.3942,3.83405 3.03031,7.57576 4.54546,11.36364 0.75757,1.89393 1.44427,3.81779 2.27273,5.68181 0.68799,1.54799 1.60543,2.98843 2.27272,4.54546 0.9437,2.20196 1.51516,4.54545 2.27273,6.81818 0.37879,1.13636 0.90145,2.23452 1.13636,3.40909 0.14858,0.74286 0,1.51515 0,2.27273 0,0.37879 0.37879,1.13636 0,1.13636 -0.37878,0 0.1694,-0.79756 0,-1.13636 -0.23956,-0.47913 -0.75757,-0.75758 -1.13636,-1.13637"
       id="path3005"
       inkscape:connector-curvature="0" />
    <path
       style="fill:none;stroke:#000000;stroke-width:1px;stroke-linecap:butt;stroke-linejoin:miter;stroke-opacity:1"
       d="m 364.77273,630.77127 c 1.45113,-4.15881 1.13636,-8.22684 1.13636,-12.5 0,-10.87531 -0.5082,2.54099 1.13636,-5.68181 0.22286,-1.1143 -0.18681,-2.28819 0,-3.4091 0.20534,-1.23199 1.44841,-4.44534 2.27273,-5.68181 0.29715,-0.44572 0.75758,-0.75758 1.13637,-1.13637 0.37878,-0.37879 0.65723,-0.89679 1.13636,-1.13636 0.3388,-0.1694 0.75757,0 1.13636,0 0.37879,0 0.77702,-0.11978 1.13637,0 0.80353,0.26784 1.51515,0.75757 2.27272,1.13636 0.75758,0.37879 1.59513,0.62817 2.27273,1.13637 0.8571,0.64282 1.41563,1.6299 2.27273,2.27272 0.67759,0.5082 1.51515,0.75758 2.27273,1.13637 0.75757,0.37879 1.48631,0.82179 2.27272,1.13636 1.11216,0.44486 2.29693,0.6915 3.40909,1.13636 0.78642,0.31457 1.45102,0.93094 2.27273,1.13637 0.73496,0.18374 1.51515,0 2.27273,0 1.89394,0 3.78788,0 5.68182,0 8.41965,-4.81123 5.79512,-2.38603 9.09091,-5.68182"
       id="path3007"
       inkscape:connector-curvature="0" />
    <path
       style="fill:none;stroke:#000000;stroke-width:1px;stroke-linecap:butt;stroke-linejoin:miter;stroke-opacity:1"
       d="m 417.04545,595.544 12.5,-17.04545"
       id="path3009"
       inkscape:connector-curvature="0" />
    <path
       style="fill:none;stroke:#000000;stroke-width:1px;stroke-linecap:butt;stroke-linejoin:miter;stroke-opacity:1"
       d="m 409.09091,518.27127 c -0.37879,1.89394 -1.40951,3.76979 -1.13636,5.68182 0.15151,1.06061 1.51515,1.51515 2.27272,2.27273 0.75758,0.75757 1.60345,1.43612 2.27273,2.27273 1.70634,2.13292 2.7968,4.7198 4.54545,6.81818 1.02882,1.23458 2.27273,2.27273 3.4091,3.40909 3.0303,3.0303 6.24378,5.88789 9.0909,9.09091 1.61137,1.81278 2.93409,3.86903 4.54546,5.68182 1.42356,1.60151 3.0303,3.0303 4.54545,4.54545 3.78788,3.78788 7.57576,7.57576 11.36364,11.36364 3.78788,3.78788 7.57576,7.57575 11.36364,11.36363 1.89394,1.89394 3.89004,3.69096 5.68181,5.68182 1.62253,1.80281 3.03031,3.78788 4.54546,5.68182 1.51515,1.89394 3.15456,3.69483 4.54545,5.68182 4.8551,6.93585 1.6795,4.23214 6.81819,10.22727 1.04586,1.22017 2.51765,2.07194 3.40909,3.40909 0.66443,0.99666 0.52008,2.38196 1.13636,3.40909 0.55122,0.9187 1.6299,1.41563 2.27273,2.27273 0.55614,0.74152 1.64203,2.90342 1.13636,3.40909 -0.26784,0.26784 -0.86852,0.26784 -1.13636,0 -0.26785,-0.26784 0.11978,-0.77701 0,-1.13636 -0.26785,-0.80353 -0.75758,-1.51515 -1.13637,-2.27273"
       id="path3011"
       inkscape:connector-curvature="0" />
    <path
       style="fill:none;stroke:#000000;stroke-width:1px;stroke-linecap:butt;stroke-linejoin:miter;stroke-opacity:1"
       d="m 423.86364,554.63491 c 1.60771,-2.4536 -0.64309,-5.3822 0,-7.95455 0.20542,-0.8217 0.86852,-1.46919 1.13636,-2.27272 0.36296,-1.08888 -0.35091,-4.62908 0,-5.68182 0.1694,-0.5082 0.8968,-0.65723 1.13636,-1.13636 0.1694,-0.3388 -0.26784,-0.86852 0,-1.13637 0.26785,-0.26784 0.75758,0 1.13637,0 0.74671,0 2.76795,-0.21371 3.40909,0 6.43828,3.21914 -1.69399,-0.4235 4.54545,1.13637 0.82171,0.20542 1.51515,0.75757 2.27273,1.13636 1.13636,0.37879 2.23452,0.90145 3.40909,1.13636 0.74287,0.14858 1.52986,-0.14857 2.27273,0 1.17457,0.23492 2.22755,0.93944 3.40909,1.13637 1.1209,0.18681 2.28819,-0.18682 3.40909,0 1.18153,0.19692 2.23452,0.90145 3.40909,1.13636 1.48573,0.29715 3.0303,0 4.54546,0"
       id="path3013"
       inkscape:connector-curvature="0" />
    <path
       style="fill:none;stroke:#000000;stroke-width:1px;stroke-linecap:butt;stroke-linejoin:miter;stroke-opacity:1"
       d="m 503.40909,630.77127 c 2.33318,0.91102 -2.00013,3.95428 -1.13636,5.68182 0.23956,0.47913 0.96696,0.62817 1.13636,1.13637 0.23957,0.71869 0,1.51515 0,2.27272 0,0.63427 -0.17339,5.16163 0,5.68182 0.1694,0.5082 0.8968,0.65723 1.13636,1.13636 0.1694,0.3388 0,0.75758 0,1.13637 0,0.75757 0,1.51515 0,2.27273 0,0.37878 0,1.51515 0,1.13636 0,-0.75758 0,-1.51515 0,-2.27273 0,-0.93034 -0.24542,-4.94555 0,-5.68182 3.21914,-6.43828 -0.42349,1.69399 1.13637,-4.54545 0.20542,-0.82171 1.36905,-1.45832 1.13636,-2.27273 -0.60677,-2.12371 -4.39685,-3.7063 -3.40909,-5.68182 0.86377,-1.72753 3.77665,0.81884 5.68182,1.13637 0.37363,0.0623 0.86852,0.26784 1.13636,0 0.26785,-0.26785 -0.26784,-0.86852 0,-1.13637 0.75758,-0.75757 2.16179,0.80353 2.27273,1.13637 0.35935,1.07805 -0.35935,2.33104 0,3.40909 0.26784,0.80353 0.93094,1.45102 1.13636,2.27273 0.18374,0.73495 -0.14857,1.52986 0,2.27272 0.5682,2.84097 2.13165,5.39966 3.40909,7.95455 0.37879,0.75757 0.53745,1.67381 1.13637,2.27273 0.59891,0.59891 1.56798,0.66653 2.27273,1.13636 1.70454,1.13636 1.13636,2.27273 3.40909,3.40909 0.67759,0.3388 1.51515,0 2.27272,0 0.75758,0 1.51516,0 2.27273,0"
       id="path3015"
       inkscape:connector-curvature="0" />
    <path
       style="fill:none;stroke:#000000;stroke-width:1px;stroke-linecap:butt;stroke-linejoin:miter;stroke-opacity:1"
       d="m 172.72727,696.68036 c 8.07375,2.01844 2.37916,2.16631 5.68182,-1.13636 0.59892,-0.59892 1.67381,-0.53745 2.27273,-1.13636 0.59891,-0.59892 0.66653,-1.56799 1.13636,-2.27273 0.29715,-0.44572 0.96697,-0.62817 1.13637,-1.13636 1.4042,-4.21263 -1.52862,-0.74412 1.13636,-3.40909 1.40421,-1.40421 1.13636,-0.60068 1.13636,-2.27273 0,-0.37879 0,-1.51515 0,-1.13637 0,11.36364 0,22.72728 0,34.09091 0,0.41732 0.0457,4.49973 0,4.54546 -0.26784,0.26784 -0.86852,-0.26785 -1.13636,0 -0.26784,0.26784 0.26784,0.86852 0,1.13636 -0.0366,0.0366 -3.13349,0 -3.40909,0 -0.37879,0 -1.51515,0 -1.13637,0 3.78788,0 7.57576,0 11.36364,0 1.18173,0 5.9243,0.22347 6.81818,0 0.82171,-0.20542 1.51515,-0.75757 2.27273,-1.13636"
       id="path3017"
       inkscape:connector-curvature="0" />
    <path
       style="fill:none;stroke:#000000;stroke-width:1px;stroke-linecap:butt;stroke-linejoin:miter;stroke-opacity:1"
       d="m 280.68182,703.49855 c 3.38798,-1.09415 -0.847,-3.98783 0,-5.68182 0.47913,-0.95827 1.93393,-1.25633 2.27273,-2.27273 0.23956,-0.7187 -0.23957,-1.55403 0,-2.27273 0.75376,-2.2613 1.0606,-0.5303 2.27272,-1.13636 0.47914,-0.23957 0.65723,-0.8968 1.13637,-1.13636 0.33879,-0.1694 0.75757,0 1.13636,0 0.37879,0 0.79757,-0.1694 1.13636,0 0.47914,0.23956 0.75758,0.75757 1.13637,1.13636 0.37879,0.37879 0.83922,0.69065 1.13636,1.13636 0.46983,0.70475 0.66654,1.56799 1.13636,2.27273 0.29715,0.44572 0.96697,0.62817 1.13637,1.13636 0.23956,0.7187 0,1.51516 0,2.27273 0,0.75758 0,1.51515 0,2.27273 0,0.75757 0,1.51515 0,2.27273 0,0.75757 0.18374,1.53777 0,2.27272 -0.20543,0.82171 -0.75758,1.51516 -1.13637,2.27273 -1.13636,2.27273 -2.27272,4.54546 -3.40909,6.81818 -1.37593,2.75186 -0.53744,1.67381 -2.27272,3.40909 -0.37879,0.37879 -0.65723,0.8968 -1.13637,1.13637 -0.3388,0.1694 -0.79756,-0.1694 -1.13636,0 -0.47913,0.23956 -0.60068,1.13636 -1.13636,1.13636 -0.37879,0 0,-0.75757 0,-1.13636 0,-0.37879 0,-0.75758 0,-1.13637 0,-0.9621 -0.20364,-3.93454 0,-4.54545 1.18231,-3.54696 0.75757,0.37879 2.27272,-1.13636 0.26785,-0.26785 -0.26784,-0.86852 0,-1.13637 0.26785,-0.26784 0.75758,0 1.13637,0 0.37878,0 0.75757,0 1.13636,0 0.37879,0 0.79757,-0.1694 1.13636,0 1.00721,0.5036 2.37465,2.71946 3.40909,3.40909 0.70475,0.46983 1.56799,0.66654 2.27273,1.13637 0.44572,0.29714 0.62817,0.96696 1.13637,1.13636 0.71869,0.23957 1.53777,-0.18374 2.27272,0 0.82171,0.20543 1.45102,0.93094 2.27273,1.13636 0.73496,0.18374 1.53777,-0.18374 2.27273,0 0.8217,0.20543 1.42573,1.13637 2.27272,1.13637 1.19784,0 2.22756,-0.93944 3.4091,-1.13637 1.1209,-0.18681 2.28818,0.18682 3.40909,0 1.18153,-0.19692 2.27272,-0.75757 3.40909,-1.13636 1.13636,-0.37879 2.27272,-0.75758 3.40909,-1.13636"
       id="path3019"
       inkscape:connector-curvature="0" />
    <path
       style="fill:none;stroke:#000000;stroke-width:1px;stroke-linecap:butt;stroke-linejoin:miter;stroke-opacity:1"
       d="m 388.63636,687.58946 c 0,15.39866 -0.84699,0.0211 1.13637,7.95454 0.18374,0.73496 0,1.51515 0,2.27273 0,2.65151 0,5.30303 0,7.95454 0,2.27273 0,4.54546 0,6.81819 0,0.37878 0.37879,1.13636 0,1.13636 -0.37879,0 0,-0.75758 0,-1.13636 0,-1.51516 0,-3.03031 0,-4.54546 0,-0.75757 0,-1.51515 0,-2.27273 0,-0.75757 -0.18374,-1.53777 0,-2.27272 0.20542,-0.82171 0.93093,-1.45102 1.13636,-2.27273 0.18374,-0.73496 -0.18374,-1.53777 0,-2.27273 0.41085,-1.64341 1.73704,-2.93839 2.27273,-4.54545 0.11978,-0.35935 -0.1694,-0.79757 0,-1.13637 0.23956,-0.47913 0.75757,-0.75757 1.13636,-1.13636 0.37879,-0.37879 0.60068,-1.13636 1.13637,-1.13636 0.53568,0 0.75757,0.75757 1.13636,1.13636 0.37879,0.37879 0.75757,0.75758 1.13636,1.13636 0.37879,0.37879 0.8968,0.65723 1.13637,1.13637 0.1694,0.3388 -0.11979,0.77701 0,1.13636 0.26784,0.80353 0.93093,1.45102 1.13636,2.27273 0.18374,0.73495 -0.18374,1.53777 0,2.27273 0.41085,1.64341 1.73704,2.93839 2.27273,4.54545 0.11978,0.35935 -0.1694,0.79757 0,1.13636 0.23956,0.47914 0.75757,0.75758 1.13636,1.13637 0.37879,0.37879 0.62817,0.96696 1.13636,1.13636 1.07805,0.35935 2.27273,0 3.4091,0 5.05827,0 3.31451,-0.78134 6.81818,-3.40909 6.46198,-4.84649 -2.41311,3.54947 4.54545,-3.40909"
       id="path3021"
       inkscape:connector-curvature="0" />
    <path
       style="fill:none;stroke:#000000;stroke-width:1px;stroke-linecap:butt;stroke-linejoin:miter;stroke-opacity:1"
       d="m 209.09091,443.27127 c -1.12585,-3.66422 -4.63659,-5.22755 -6.81818,-7.95454 -1.70634,-2.13293 -2.79681,-4.7198 -4.54546,-6.81818 -1.02881,-1.23458 -2.36323,-2.18892 -3.40909,-3.40909 -1.23256,-1.43799 -2.17653,-3.10747 -3.40909,-4.54546 -1.04586,-1.22017 -2.44485,-2.12344 -3.40909,-3.40909 -1.32522,-1.76696 -2.05308,-3.93838 -3.40909,-5.68182 -1.31552,-1.69138 -3.12189,-2.94394 -4.54546,-4.54545 -1.61136,-1.81279 -2.93408,-3.86904 -4.54545,-5.68182 -1.42356,-1.60151 -3.12189,-2.94395 -4.54545,-4.54546 -13.46044,-15.14298 2.94735,2.49162 -7.95455,-10.22727 -2.09172,-2.44034 -4.76055,-4.34902 -6.81818,-6.81818 -0.87433,-1.04919 -1.30701,-2.44337 -2.27273,-3.40909 -7.57576,-7.57576 2.65152,5.68182 -3.40909,-3.40909 -0.38723,-0.58085 -3.3324,-2.34942 -2.27273,-3.40909 0.26785,-0.26785 0.75758,0 1.13637,0 0.75757,0 1.51515,0 2.27272,0 0.37879,0 0.79757,-0.1694 1.13637,0 0.47913,0.23956 0.69064,0.83922 1.13636,1.13636 0.70474,0.46983 1.51515,0.75758 2.27273,1.13636"
       id="path3023"
       inkscape:connector-curvature="0" />
    <path
       style="fill:none;stroke:#000000;stroke-width:1px;stroke-linecap:butt;stroke-linejoin:miter;stroke-opacity:1"
       d="m 164.77273,413.72582 c 0.37879,-1.51515 1.13636,-2.98367 1.13636,-4.54546 0,-0.84699 -0.93094,-1.45102 -1.13636,-2.27272 -0.18374,-0.73496 0,-1.51515 0,-2.27273 0,-2.27273 0,-4.54545 0,-6.81818 0,-1.64836 -0.72713,-3.61371 1.13636,-4.54546 0.3388,-0.1694 0.75758,0 1.13636,0 0.75758,0 1.55403,-0.23956 2.27273,0 0.5082,0.1694 0.62817,0.96697 1.13637,1.13637 0.71869,0.23956 1.53777,-0.18374 2.27272,0 0.82171,0.20542 1.45102,0.93093 2.27273,1.13636 0.57239,0.1431 7.74804,0.0413 7.95455,0 0.83054,-0.16611 1.44218,-0.97025 2.27272,-1.13636 11.51731,-2.30346 -4.95314,2.78741 6.81818,-1.13637"
       id="path3025"
       inkscape:connector-curvature="0" />
    <path
       style="fill:none;stroke:#000000;stroke-width:1px;stroke-linecap:butt;stroke-linejoin:miter;stroke-opacity:1"
       d="m 248.86364,411.45309 c -0.75758,-1.51515 -1.51516,-3.0303 -2.27273,-4.54545 -0.37879,-0.75758 -0.8218,-1.48631 -1.13636,-2.27273 -0.88973,-2.22432 -1.32903,-4.61622 -2.27273,-6.81818 -0.6673,-1.55703 -1.51515,-3.0303 -2.27273,-4.54546 -0.75757,-1.51515 -1.58473,-2.99746 -2.27273,-4.54545 -1.65691,-3.72805 -2.85727,-7.64964 -4.54545,-11.36364 -1.05147,-2.31323 -2.35762,-4.50495 -3.40909,-6.81818 -1.84679,-4.06293 -2.69867,-7.3007 -4.54546,-11.36364 -1.05146,-2.31322 -2.46539,-4.45893 -3.40909,-6.81818 -4.34019,-10.85048 2.98201,2.55492 -3.40909,-10.22727 -0.61078,-1.22155 -1.66195,-2.18754 -2.27273,-3.40909 -0.53568,-1.07137 -0.6915,-2.29693 -1.13636,-3.40909 -0.31457,-0.78642 -0.86852,-1.4692 -1.13636,-2.27273 -0.11979,-0.35935 0.1694,-0.79756 0,-1.13636 -0.23957,-0.47914 -0.75758,-0.75758 -1.13637,-1.13637 -0.37878,-0.37878 -0.60067,-1.13636 -1.13636,-1.13636 -0.37879,0 -0.26784,0.86852 0,1.13636 0.26784,0.26785 0.96696,-0.33879 1.13636,0 0.3388,0.6776 0,1.51516 0,2.27273"
       id="path3027"
       inkscape:connector-curvature="0" />
    <path
       style="fill:none;stroke:#000000;stroke-width:1px;stroke-linecap:butt;stroke-linejoin:miter;stroke-opacity:1"
       d="m 221.59091,377.36218 c -2.76948,-4.7509 -2.27273,-4.47415 -2.27273,-9.09091 0,-0.75757 0,-1.51515 0,-2.27272 0,-0.37879 -0.1694,-0.79757 0,-1.13637 0.23957,-0.47913 0.8968,-0.65723 1.13637,-1.13636 0.78372,-1.56745 -1.3762,-1.01645 1.13636,-2.27273 0.3388,-0.1694 0.75757,0 1.13636,0 1.13637,0 2.33104,-0.35935 3.40909,0 0.5082,0.1694 0.62817,0.96697 1.13637,1.13637 0.7187,0.23956 1.59513,-0.3388 2.27272,0 0.95827,0.47913 1.38129,1.67843 2.27273,2.27272 0.31517,0.21012 0.76889,-0.0919 1.13637,0 1.16206,0.29052 2.29693,0.6915 3.40909,1.13637 0.15709,0.0628 4.49185,2.262 4.54545,2.27272 7.09348,1.4187 0.27783,-1.56563 5.68182,1.13637"
       id="path3029"
       inkscape:connector-curvature="0" />
    <path
       style="fill:none;stroke:#000000;stroke-width:1px;stroke-linecap:butt;stroke-linejoin:miter;stroke-opacity:1"
       d="m 269.31818,359.18036 c 3.7719,1.44206 7.45007,1.13637 11.36364,1.13637 0.37879,0 0.77701,-0.11979 1.13636,0 0.80353,0.26784 1.4692,0.86852 2.27273,1.13636 0.7187,0.23957 1.51515,0 2.27273,0"
       id="path3031"
       inkscape:connector-curvature="0" />
    <path
       style="fill:none;stroke:#000000;stroke-width:1px;stroke-linecap:butt;stroke-linejoin:miter;stroke-opacity:1"
       d="m 298.86364,363.72582 c 1.51515,0.37879 3.014,0.83007 4.54545,1.13636 0.74287,0.14858 1.51515,0 2.27273,0 1.89394,0 3.78788,0 5.68182,0"
       id="path3033"
       inkscape:connector-curvature="0" />
    <path
       style="fill:none;stroke:#000000;stroke-width:1px;stroke-linecap:butt;stroke-linejoin:miter;stroke-opacity:1"
       d="m 321.59091,369.40764 c 1.51515,0.75757 5.30303,0.75757 4.54545,2.27272 -0.75757,1.51516 -5.74328,-3.47056 -4.54545,-2.27272 1.89394,1.13636 3.78788,2.27272 5.68182,3.40909 0.37879,0 0.79756,-0.1694 1.13636,0 0.47913,0.23956 0.65723,0.8968 1.13636,1.13636 0.3388,0.1694 0.79757,-0.1694 1.13637,0 0.47913,0.23957 0.65723,0.8968 1.13636,1.13637 0.3388,0.16939 0.79757,-0.1694 1.13637,0 2.80841,1.4042 -0.39225,1.13636 2.27272,1.13636"
       id="path3035"
       inkscape:connector-curvature="0" />
    <path
       style="fill:none;stroke:#000000;stroke-width:1px;stroke-linecap:butt;stroke-linejoin:miter;stroke-opacity:1"
       d="m 348.86364,387.58946 c 1.13636,1.51515 2.27272,3.0303 3.40909,4.54545 0,0.37879 -0.1694,0.79757 0,1.13636 0.23956,0.47914 0.89679,0.65723 1.13636,1.13637 0.75758,1.51515 -1.13636,1.13636 1.13636,1.13636"
       id="path3037"
       inkscape:connector-curvature="0" />
    <path
       style="fill:none;stroke:#000000;stroke-width:1px;stroke-linecap:butt;stroke-linejoin:miter;stroke-opacity:1"
       d="m 365.90909,439.86218 c 4.57924,-5.23086 10.15414,-9.57682 14.77273,-14.77272 1.61136,-1.81279 2.92293,-3.87902 4.54545,-5.68182 1.79178,-1.99087 3.78788,-3.78788 5.68182,-5.68182 1.89394,-1.89394 3.69994,-3.88011 5.68182,-5.68182 3.98353,-3.62139 8.51647,-6.60588 12.5,-10.22727 2.37826,-2.16205 4.34902,-4.76055 6.81818,-6.81818 2.09838,-1.74865 4.633,-2.90657 6.81818,-4.54546 5.52419,-4.14314 8.11218,-7.2205 13.63637,-11.36363 2.18518,-1.63889 4.54545,-3.03031 6.81818,-4.54546 2.27273,-1.51515 4.45879,-3.16914 6.81818,-4.54545 8.7937,-4.39685 4.6393,-2.10177 12.5,-6.81819 1.89394,-1.13636 3.78788,-2.27272 5.68182,-3.40909 1.51515,-1.13636 2.9394,-2.4053 4.54545,-3.40909 5.76701,-2.8835 3.13597,-1.33307 7.95455,-4.54545 2.51317,0.11098 2.9696,-2.35852 4.54545,-3.40909 0.70475,-0.46983 1.67381,-0.53745 2.27273,-1.13637 0.26784,-0.26784 0.37879,-1.13636 0,-1.13636 -0.847,0 -1.4692,0.86852 -2.27273,1.13636 -0.35935,0.11979 -0.75757,0 -1.13636,0"
       id="path3039"
       inkscape:connector-curvature="0" />
    <path
       style="fill:none;stroke:#000000;stroke-width:1px;stroke-linecap:butt;stroke-linejoin:miter;stroke-opacity:1"
       d="m 421.59091,373.95309 c 1.51515,0 3.05973,0.29715 4.54545,0 0.52529,-0.10506 0.62817,-0.96696 1.13637,-1.13636 0.7187,-0.23957 1.51515,0 2.27272,0 0.75758,0 1.51516,0 2.27273,0 2.80571,0 4.35121,-0.50829 6.81818,1.13636 0.44572,0.29715 0.8968,0.65723 1.13637,1.13637 0.1694,0.33879 -0.11979,0.77701 0,1.13636 0.26784,0.80353 0.97025,1.44218 1.13636,2.27273 0.14139,0.70696 0.10866,8.33031 0,9.09091 -0.22087,1.54608 -0.91549,2.99936 -1.13636,4.54545 -0.16071,1.12494 0.18681,2.28819 0,3.40909 -0.39385,2.36307 -1.87889,4.45511 -2.27273,6.81818 -0.18682,1.1209 0.22286,2.2948 0,3.40909 -1.30576,6.52882 -1.13636,-0.32613 -1.13636,3.40909"
       id="path3041"
       inkscape:connector-curvature="0" />
    <path
       style="fill:none;stroke:#000000;stroke-width:1px;stroke-linecap:butt;stroke-linejoin:miter;stroke-opacity:1"
       d="m 485.22727,368.27127 c -1.18706,3.89138 3.46077,3.51245 4.54546,5.68182 0.1694,0.3388 -0.1694,0.79757 0,1.13637 0.23956,0.47913 0.89679,0.65723 1.13636,1.13636 0.1694,0.3388 -0.1694,0.79756 0,1.13636 0.23957,0.47914 0.8968,0.65723 1.13636,1.13637 0.1694,0.33879 -0.16939,0.79756 0,1.13636 0.23957,0.47913 0.8968,0.65723 1.13637,1.13636 0.1694,0.3388 0,0.75758 0,1.13637 0,0.37879 0,0.75757 0,1.13636 0,0.37879 0,0.75758 0,1.13636 0,0.37879 0.37879,1.13637 0,1.13637 -0.37879,0 0,-0.75758 0,-1.13637 0,-0.37878 0,-0.75757 0,-1.13636 0,-2.66497 -0.26785,0.53569 1.13636,-2.27273 0.3388,-0.67759 -0.23956,-1.55402 0,-2.27272 0.26785,-0.80353 0.86852,-1.4692 1.13637,-2.27273 0.11978,-0.35935 -0.1694,-0.79757 0,-1.13636 0.23956,-0.47914 0.89679,-0.65724 1.13636,-1.13637 0.1694,-0.3388 -0.26784,-0.86852 0,-1.13636 0.26784,-0.26785 0.86852,0.26784 1.13636,0 0.26785,-0.26785 -0.26784,-0.86852 0,-1.13637 0.26785,-0.26784 0.75758,0 1.13637,0 0.37878,0 0.75757,0 1.13636,0 0.51177,0 3.06326,-0.17291 3.40909,0 0.47913,0.23957 0.75758,0.75758 1.13636,1.13637 0.37879,0.37879 0.8968,0.65723 1.13637,1.13636 0.1694,0.3388 -0.1694,0.79757 0,1.13637 0.47913,0.95826 1.79359,1.31446 2.27273,2.27272 0.16939,0.3388 0,0.75758 0,1.13637 0,0.37878 0,0.75757 0,1.13636"
       id="path3043"
       inkscape:connector-curvature="0" />
    <path
       style="fill:none;stroke:#000000;stroke-width:1px;stroke-linecap:butt;stroke-linejoin:miter;stroke-opacity:1"
       d="m 513.63636,360.31673 c 1.25634,-1.67511 3.75211,-4.43815 4.54546,-6.81818 0.11978,-0.35935 -0.1694,-0.79757 0,-1.13637 0.23956,-0.47913 0.96696,-0.62816 1.13636,-1.13636 0.23957,-0.7187 -0.23956,-1.55403 0,-2.27273 0.1694,-0.5082 0.8968,-0.65723 1.13637,-1.13636 0.16939,-0.3388 -0.1694,-0.79757 0,-1.13637 0.23956,-0.47913 0.89679,-0.65723 1.13636,-1.13636 0.1694,-0.3388 -0.1694,-0.79756 0,-1.13636 0.23957,-0.47914 0.8968,-0.65723 1.13636,-1.13637 1.67205,-3.3441 -2.63248,1.49612 1.13637,-2.27272"
       id="path3045"
       inkscape:connector-curvature="0" />
    <path
       style="fill:none;stroke:#000000;stroke-width:1px;stroke-linecap:butt;stroke-linejoin:miter;stroke-opacity:1"
       d="m 231.81818,325.08946 c 1.51515,-0.75758 2.97263,-1.6436 4.54546,-2.27273 0.95055,-0.38022 2.49724,0.45592 3.40909,0 0.47913,-0.23957 0.65723,-0.8968 1.13636,-1.13637 1.33249,-0.66624 1.34874,0.67437 2.27273,1.13637 0.3388,0.1694 0.79756,-0.1694 1.13636,0 0.47913,0.23956 0.75758,0.75757 1.13637,1.13636 0.37878,0.37879 0.89679,0.65723 1.13636,1.13637 0.0845,0.16893 0.0832,4.29593 0,4.54545 -0.26784,0.80353 -0.86852,1.4692 -1.13636,2.27273 -0.11979,0.35935 0.11978,0.77701 0,1.13636 -0.26785,0.80353 -0.86852,1.4692 -1.13637,2.27273 -0.11978,0.35935 0.1694,0.79756 0,1.13636 -0.23956,0.47913 -0.96696,0.62817 -1.13636,1.13637 -0.35935,1.07804 0,2.27272 0,3.40909 0,0.37878 -0.1694,0.79756 0,1.13636 0.3696,0.73919 1.33225,1.6066 2.27273,1.13636 0.47913,-0.23956 0.65723,-0.89679 1.13636,-1.13636 0.3388,-0.1694 0.79756,0.1694 1.13636,0 0.47914,-0.23957 0.75758,-0.75758 1.13637,-1.13636 0.75757,-0.75758 1.41562,-1.62991 2.27272,-2.27273 0.6776,-0.5082 1.67381,-0.53745 2.27273,-1.13636 0.59892,-0.59892 0.62817,-1.59514 1.13636,-2.27273 0.64283,-0.8571 1.51516,-1.51515 2.27273,-2.27273 0.75758,-0.75757 1.51515,-1.51515 2.27273,-2.27273"
       id="path3047"
       inkscape:connector-curvature="0" />
    <path
       style="fill:none;stroke:#000000;stroke-width:1px;stroke-linecap:butt;stroke-linejoin:miter;stroke-opacity:1"
       d="m 264.77273,315.99855 c 2.50456,-1.55607 -1.86498,-4.63235 -1.13637,-6.81819 0.26785,-0.80353 0.93094,-1.45102 1.13637,-2.27272 0.27561,-1.10244 -0.35935,-2.33104 0,-3.40909 0.26784,-0.80353 0.86852,-1.4692 1.13636,-2.27273 0.11978,-0.35935 -0.1694,-0.79757 0,-1.13636 0.23957,-0.47914 0.8968,-0.65724 1.13636,-1.13637 0.1694,-0.3388 -0.16939,-0.79756 0,-1.13636 1.40421,-2.80842 1.13637,0.39225 1.13637,-2.27273"
       id="path3049"
       inkscape:connector-curvature="0" />
    <path
       style="fill:none;stroke:#000000;stroke-width:1px;stroke-linecap:butt;stroke-linejoin:miter;stroke-opacity:1"
       d="m 104.54545,379.63491 c 6.5218,-0.38586 1.36049,-3.85733 2.27273,-5.68182 0.23957,-0.47913 0.96697,-0.62816 1.13637,-1.13636 0.23956,-0.7187 -0.23957,-1.55403 0,-2.27273 0.16939,-0.5082 0.89679,-0.65723 1.13636,-1.13636 0.1694,-0.3388 -0.11978,-0.77702 0,-1.13637 0.26784,-0.80353 0.86852,-1.46919 1.13636,-2.27272 0.23957,-0.7187 -0.53568,-1.73704 0,-2.27273 0.26785,-0.26784 0.86852,0.26784 1.13637,0 0.26784,-0.26784 0,-0.75758 0,-1.13636 0,-0.37879 0,-1.51516 0,-1.13637 0,0.27004 -0.12735,4.29076 0,4.54546 0.23956,0.47913 0.96696,0.62816 1.13636,1.13636 0.23957,0.7187 -0.18374,1.53777 0,2.27273 0.20543,0.8217 0.93094,1.45102 1.13636,2.27272 0.18374,0.73496 0,1.51516 0,2.27273 0.37879,0.75758 0.93094,1.45102 1.13637,2.27273 0.18374,0.73496 -0.23957,1.55403 0,2.27273 0.1694,0.50819 0.96696,0.62816 1.13636,1.13636 0.47913,1.4374 -0.47913,3.10806 0,4.54545 0.1694,0.5082 0.8968,0.65724 1.13636,1.13637 0.51347,1.02692 -0.97873,2.93621 -1.13636,3.40909 -0.23957,0.7187 0.53569,1.73704 0,2.27273 -0.26784,0.26784 -0.79756,-0.1694 -1.13636,0 -0.95827,0.47913 -1.31446,1.79359 -2.27273,2.27272 -0.3388,0.1694 -0.75758,0 -1.13636,0 -0.37879,0 -0.75758,0 -1.13637,0 -0.37879,0 -0.86852,0.26785 -1.13636,0 -0.26784,-0.26784 -0.26784,-0.86852 0,-1.13636 0.26784,-0.26784 0.79756,0.1694 1.13636,0 0.47914,-0.23957 0.65723,-0.8968 1.13637,-1.13636 0.33879,-0.1694 0.79756,0.1694 1.13636,0 0.95827,-0.47914 1.25633,-1.93393 2.27273,-2.27273 0.7187,-0.23957 1.53777,0.18374 2.27272,0 2.05676,0.68492 2.11344,-1.84084 3.4091,-2.27273 0.71869,-0.23956 1.55402,0.23957 2.27272,0 0.5082,-0.1694 0.62817,-0.96696 1.13637,-1.13636 0.7187,-0.23957 1.55402,0.23956 2.27272,0 0.5082,-0.1694 0.65723,-0.8968 1.13637,-1.13637 3.3441,-1.67205 -1.49612,2.63248 2.27272,-1.13636"
       id="path3051"
       inkscape:connector-curvature="0" />
    <path
       style="fill:none;stroke:#000000;stroke-width:1px;stroke-linecap:butt;stroke-linejoin:miter;stroke-opacity:1"
       d="m 126.13636,356.90764 c -0.97006,-2.8862 1.6917,-4.49405 2.27273,-6.81818 0.36748,-1.46992 -0.36748,-3.07555 0,-4.54546 0.20543,-0.82171 0.93094,-1.45102 1.13636,-2.27273 0.18374,-0.73495 -0.23956,-1.55402 0,-2.27272 0.1694,-0.5082 0.96697,-0.62817 1.13637,-1.13637 0.23956,-0.7187 -0.23957,-1.55403 0,-2.27272 0.1694,-0.5082 0.83922,-0.69065 1.13636,-1.13637 0.46983,-0.70474 0.66654,-1.56798 1.13637,-2.27273 0.59429,-0.89143 1.51515,-1.51515 2.27272,-2.27272"
       id="path3053"
       inkscape:connector-curvature="0" />
    <path
       style="fill:none;stroke:#000000;stroke-width:1px;stroke-linecap:butt;stroke-linejoin:miter;stroke-opacity:1"
       d="m 386.36364,469.40764 c 0.37878,-1.51515 0.55633,-3.09538 1.13636,-4.54546 0.14278,-0.35695 4.1484,-4.34693 4.54545,-4.54545 0.3388,-0.1694 0.79757,0.1694 1.13637,0 0.47913,-0.23957 0.62816,-0.96697 1.13636,-1.13637 2.66049,-0.88683 1.84164,0.0914 3.40909,1.13637 0.70475,0.46983 1.56799,0.66653 2.27273,1.13636 0.44572,0.29715 0.69065,0.83922 1.13636,1.13637 0.70475,0.46982 1.51516,0.75757 2.27273,1.13636 0.75758,0.75757 1.41563,1.6299 2.27273,2.27273 0.67759,0.50819 1.59513,0.62816 2.27273,1.13636 0.85709,0.64282 1.35403,1.72151 2.27272,2.27273 4.11965,2.47179 2.21641,0.44328 5.68182,1.13636 1.17457,0.23492 2.22756,0.93944 3.40909,1.13636 1.1209,0.18682 2.27273,0 3.40909,0 1.13637,0 2.27273,0 3.40909,0 1.13637,0 2.27273,0 3.40909,0 1.13637,0 2.28819,0.18682 3.4091,0 1.18153,-0.19692 2.27272,-0.75757 3.40909,-1.13636 2.27272,-0.75757 4.54545,-1.51515 6.81818,-2.27273 1.13636,-0.37878 2.29693,-0.6915 3.40909,-1.13636 2.32262,-0.92905 4.57986,-2.28993 6.81818,-3.40909 0.75758,-0.37879 1.59513,-0.62817 2.27273,-1.13636 0.8571,-0.64283 1.51515,-1.51516 2.27273,-2.27273"
       id="path3055"
       inkscape:connector-curvature="0" />
    <text
       xml:space="preserve"
       style="font-size:20px;font-style:normal;font-variant:normal;font-weight:normal;font-stretch:normal;text-align:start;line-height:125%;writing-mode:lr-tb;text-anchor:start;opacity:0.33628319;fill:#000000;fill-opacity:1;stroke:#000080;stroke-width:1.10000002;stroke-miterlimit:4;stroke-opacity:1;stroke-dasharray:none;font-family:Sans;-inkscape-font-specification:Sans"
       x="476.13635"
       y="461.45309"
       id="text3057"
       sodipodi:linespacing="125%"><tspan
         sodipodi:role="line"
         id="tspan3059"
         x="476.13635"
         y="461.45309">Something happens</tspan></text>
  </g>
</svg>
