<?xml version="1.0" encoding="UTF-8" standalone="no"?>
<!-- Created with Inkscape (http://www.inkscape.org/) -->

<svg
   xmlns:dc="http://purl.org/dc/elements/1.1/"
   xmlns:cc="http://creativecommons.org/ns#"
   xmlns:rdf="http://www.w3.org/1999/02/22-rdf-syntax-ns#"
   xmlns:svg="http://www.w3.org/2000/svg"
   xmlns="http://www.w3.org/2000/svg"
   xmlns:sodipodi="http://sodipodi.sourceforge.net/DTD/sodipodi-0.dtd"
   xmlns:inkscape="http://www.inkscape.org/namespaces/inkscape"
   width="500"
   height="200"
   id="svg2"
   version="1.1"
   inkscape:version="0.48.2 r9819"
   sodipodi:docname="New document 3">
  <defs
     id="defs4" />
  <sodipodi:namedview
     id="base"
     pagecolor="#ffffff"
     bordercolor="#666666"
     borderopacity="1.0"
     inkscape:pageopacity="0.0"
     inkscape:pageshadow="2"
     inkscape:zoom="1.979899"
     inkscape:cx="230.02998"
     inkscape:cy="82.062358"
     inkscape:document-units="px"
     inkscape:current-layer="layer1"
     showgrid="false"
     inkscape:window-width="1280"
     inkscape:window-height="737"
     inkscape:window-x="-8"
     inkscape:window-y="-8"
     inkscape:window-maximized="1" />
  <metadata
     id="metadata7">
    <rdf:RDF>
      <cc:Work
         rdf:about="">
        <dc:format>image/svg+xml</dc:format>
        <dc:type
           rdf:resource="http://purl.org/dc/dcmitype/StillImage" />
        <dc:title></dc:title>
      </cc:Work>
    </rdf:RDF>
  </metadata>
  <g
     inkscape:label="Layer 1"
     inkscape:groupmode="layer"
     id="layer1"
     transform="translate(0,-852.36215)">
    <path
       style="opacity:0.33628319;fill:#000080;fill-opacity:1;stroke:#ff0000;stroke-width:0;stroke-miterlimit:4;stroke-opacity:1;stroke-dasharray:none"
       id="path3097"
       d="m 196.85683,71.540043 c -2.08103,0.680445 -3.96614,1.779335 -5.76971,2.99931 -2.04147,1.542665 -3.81402,3.422412 -5.25887,5.535727 -1.10277,1.612966 -1.49394,2.515962 -2.39604,4.271909 -1.5171,3.331177 -2.5813,6.891544 -3.06018,10.526567 -0.28776,2.184337 -0.21896,3.055506 -0.22077,5.235394 0.24891,3.13789 0.9697,6.24179 2.51933,9.0066 0.94049,1.678 1.47842,2.21782 2.68159,3.71304 3.32635,3.86111 7.4757,6.18592 12.09332,8.15864 2.95852,1.15046 6.09572,1.78775 9.27901,1.62005 1.89918,-0.10005 2.56942,-0.31731 4.41799,-0.70928 4.32875,-1.19565 8.05775,-3.69622 11.39693,-6.62502 3.11746,-2.89188 5.81986,-6.18953 8.10457,-9.76847 2.25781,-3.70733 3.65842,-7.794142 4.58831,-12.009837 0.5073,-2.635692 0.69659,-5.344405 0.39322,-8.018467 -0.18225,-1.606471 -0.364,-2.089133 -0.76532,-3.65265 -0.94965,-3.372644 -2.89357,-6.225905 -5.25028,-8.7636 -2.15457,-2.040576 -4.6225,-3.676663 -7.33261,-4.870463 -2.81666,-1.12986 -5.75318,-1.1349 -8.71904,-0.836134 -3.8211,0.558214 -7.41251,1.975837 -10.9122,3.548843 -3.09275,1.480051 -6.01746,3.332191 -8.6132,5.574872 -0.23296,0.24156 -0.46592,0.48312 -0.69889,0.724681 -0.74607,0.768986 -1.83358,-0.286115 -1.08751,-1.055101 l 0,0 c 0.26574,-0.27246 0.53148,-0.54492 0.79722,-0.81738 2.71208,-2.331807 5.75201,-4.27272 8.98162,-5.809304 3.64953,-1.637718 7.3967,-3.106948 11.38279,-3.67438 3.32505,-0.327614 6.32452,-0.29242 9.48308,0.958595 2.89327,1.289046 5.53945,3.026129 7.83067,5.226439 2.52038,2.730721 4.59762,5.796257 5.60662,9.418616 0.43034,1.698814 0.61507,2.182341 0.80906,3.928183 0.313,2.816882 0.11033,5.669145 -0.4258,8.444661 -0.97416,4.38795 -2.43409,8.642276 -4.79124,12.498806 -2.36773,3.69574 -5.15421,7.10884 -8.3834,10.09252 -3.61458,3.15434 -7.40491,5.67392 -12.08279,6.96739 -1.98865,0.41491 -2.69271,0.64271 -4.73851,0.74169 -3.38553,0.16379 -6.72156,-0.51519 -9.86664,-1.74231 -4.92872,-2.11429 -9.1168,-4.48824 -12.67921,-8.60383 -1.29373,-1.61947 -1.85699,-2.1846 -2.86603,-4.00649 -1.64592,-2.97181 -2.4173,-6.2977 -2.66788,-9.66365 0.006,-2.318726 -0.0647,-3.175796 0.24498,-5.502479 0.50357,-3.783004 1.61897,-7.485687 3.20403,-10.950328 0.40734,-0.789553 0.78528,-1.594978 1.22202,-2.368658 1.75231,-3.104222 4.07551,-5.861154 6.93253,-8.001432 1.92018,-1.292648 3.92524,-2.459086 6.13807,-3.180742 1.01645,-0.338816 1.49561,1.098656 0.47916,1.437472 z"
       inkscape:connector-curvature="0"
       transform="translate(0,852.36215)" />
    <path
       style="opacity:0.33628319;fill:#000080;fill-opacity:1;stroke:#ff0000;stroke-width:0;stroke-miterlimit:4;stroke-opacity:1;stroke-dasharray:none"
       id="path3099"
       d="m 203.3206,71.042907 c -1.9886,2.473627 -3.79423,5.076918 -5.51109,7.743831 -2.30698,3.850611 -4.48336,7.788705 -6.28607,11.902166 -0.14845,0.414938 -0.29691,0.829877 -0.44536,1.244815 -0.36228,1.008323 -1.78826,0.495986 -1.42599,-0.512337 l 0,0 c 0.16124,-0.447032 0.32248,-0.894064 0.48372,-1.341097 1.83737,-4.185804 4.04745,-8.196707 6.39974,-12.113877 1.75094,-2.718551 3.59227,-5.372743 5.62102,-7.893527 0.68591,-0.823094 1.84994,0.146931 1.16403,0.970026 z"
       inkscape:connector-curvature="0"
       transform="translate(0,852.36215)" />
    <path
       style="opacity:0.33628319;fill:#000080;fill-opacity:1;stroke:#ff0000;stroke-width:0;stroke-miterlimit:4;stroke-opacity:1;stroke-dasharray:none"
       id="path3101"
       d="m 217.19283,72.431977 c -1.81044,3.624498 -4.18494,6.927733 -6.44193,10.280828 -2.6755,4.144076 -5.53654,8.168921 -8.15405,12.350705 -1.5375,2.456333 -2.25376,3.763231 -3.67891,6.25387 -1.6525,3.22372 -3.6682,6.3276 -4.63904,9.84719 -0.28841,1.03188 -1.74771,0.62399 -1.4593,-0.40788 l 0,0 c 1.02771,-3.63497 3.04305,-6.86719 4.78323,-10.19192 1.44958,-2.532619 2.15769,-3.8257 3.72251,-6.325386 2.6224,-4.189085 5.48809,-8.221367 8.16857,-12.372679 2.20436,-3.274818 4.52233,-6.500349 6.3062,-10.031606 0.42206,-0.984798 1.81478,-0.38792 1.39272,0.596878 z"
       inkscape:connector-curvature="0"
       transform="translate(0,852.36215)" />
    <path
       style="opacity:0.33628319;fill:#000080;fill-opacity:1;stroke:#ff0000;stroke-width:0;stroke-miterlimit:4;stroke-opacity:1;stroke-dasharray:none"
       id="path3103"
       d="m 227.72029,77.583532 c -2.31889,4.237331 -4.91103,8.320141 -7.3746,12.474448 -3.90406,6.449032 -7.44741,13.10228 -10.66756,19.91645 -0.36538,0.82376 -0.73075,1.64752 -1.09613,2.47129 -0.43449,0.97937 -1.81954,0.36491 -1.38505,-0.61447 l 0,0 c 0.37042,-0.83476 0.74084,-1.66953 1.11125,-2.5043 3.24114,-6.85661 6.80557,-13.552302 10.73421,-20.041861 2.44524,-4.123169 5.01606,-8.176404 7.32262,-12.379188 0.47915,-0.958314 1.83442,-0.280683 1.35526,0.677631 z"
       inkscape:connector-curvature="0"
       transform="translate(0,852.36215)" />
    <path
       style="opacity:0.33628319;fill:#000080;fill-opacity:1;stroke:#ff0000;stroke-width:0;stroke-miterlimit:4;stroke-opacity:1;stroke-dasharray:none"
       id="path3105"
       d="m 234.03213,81.289046 c -0.89162,3.455444 -2.62113,6.617093 -4.23077,9.776983 -2.00684,3.836776 -3.93717,7.712337 -5.75038,11.644231 -0.44873,0.97294 -1.82467,0.33833 -1.37594,-0.6346 l 0,0 c 1.82187,-3.949609 3.75997,-7.843305 5.77619,-11.697435 1.54044,-3.023567 3.1939,-6.044217 4.08628,-9.338281 0.17615,-1.05685 1.67076,-0.807748 1.49462,0.249102 z"
       inkscape:connector-curvature="0"
       transform="translate(0,852.36215)" />
    <path
       style="opacity:0.33628319;fill:#000080;fill-opacity:1;stroke:#ff0000;stroke-width:0;stroke-miterlimit:4;stroke-opacity:1;stroke-dasharray:none"
       id="path3107"
       d="m 194.47742,119.93714 c -1.4456,3.54445 -3.42316,6.83838 -5.33914,10.1418 -3.68516,6.18189 -7.36403,12.3673 -11.04648,18.5509 -3.33882,5.69922 -6.58507,11.45499 -10.15898,17.01187 -1.26025,1.82029 -0.65056,1.00208 -1.80429,2.47291 -0.66218,0.8423 -1.85338,-0.0942 -1.19119,-0.93647 l 0,0 c 1.08971,-1.38278 0.50685,-0.60416 1.72113,-2.35615 3.56519,-5.54177 6.80023,-11.28402 10.13147,-16.96745 3.67947,-6.17859 7.35534,-12.35902 11.03763,-18.53584 1.87383,-3.23057 3.81055,-6.45032 5.23109,-9.9136 0.37621,-1.00321 1.79496,-0.47118 1.41876,0.53203 z"
       inkscape:connector-curvature="0"
       transform="translate(0,852.36215)" />
    <path
       style="opacity:0.33628319;fill:#000080;fill-opacity:1;stroke:#ff0000;stroke-width:0;stroke-miterlimit:4;stroke-opacity:1;stroke-dasharray:none"
       id="path3109"
       d="m 174.34026,140.61236 c 1.20558,-2.00384 2.84791,-3.64817 4.74689,-4.98932 1.58704,-0.9838 3.47683,-1.39257 5.08999,-0.20225 0.30775,0.22708 0.55453,0.52687 0.8318,0.7903 0.83621,0.99803 1.36362,2.186 1.92061,3.34849 0.46223,0.9666 -0.90475,1.62028 -1.36697,0.65369 l 0,0 c -0.48016,-1.00621 -0.9308,-2.0388 -1.62009,-2.9258 -1.31226,-1.38407 -2.33297,-1.39502 -3.98468,-0.42432 -1.72424,1.20242 -3.20395,2.69576 -4.30196,4.50097 -0.53158,0.93026 -1.84717,0.1785 -1.31559,-0.75176 z"
       inkscape:connector-curvature="0"
       transform="translate(0,852.36215)" />
    <path
       style="opacity:0.33628319;fill:#000080;fill-opacity:1;stroke:#ff0000;stroke-width:0;stroke-miterlimit:4;stroke-opacity:1;stroke-dasharray:none"
       id="path3111"
       d="m 221.98102,117.14574 c 0.26116,3.11994 1.52775,6.07275 2.57547,8.99373 2.14841,5.72884 4.47648,11.38567 6.8783,17.01203 2.28522,5.52821 4.84469,10.93681 7.22917,16.42208 0.22256,0.50389 0.44512,1.00778 0.66768,1.51167 0.43288,0.98009 -0.95317,1.59227 -1.38605,0.61218 l 0,0 c -0.22375,-0.5066 -0.4475,-1.0132 -0.67125,-1.5198 -2.38558,-5.48842 -4.94699,-10.8998 -7.23312,-16.43125 -2.41347,-5.65382 -4.75277,-11.33832 -6.91099,-17.09535 -1.10623,-3.08439 -2.43518,-6.20369 -2.66444,-9.50529 0,-1.07143 1.51523,-1.07143 1.51523,0 z"
       inkscape:connector-curvature="0"
       transform="translate(0,852.36215)" />
    <path
       style="opacity:0.33628319;fill:#000080;fill-opacity:1;stroke:#ff0000;stroke-width:0;stroke-miterlimit:4;stroke-opacity:1;stroke-dasharray:none"
       id="path3113"
       d="m 221.04159,145.97487 c 0.27839,-1.96167 0.6252,-3.91451 1.0504,-5.84975 0.40458,-1.45192 0.86687,-3.21596 2.40441,-3.85784 0.27935,-0.11662 0.58696,-0.14844 0.88044,-0.22266 2.45005,-0.0869 4.85121,0.49579 7.29122,0.64573 1.06933,0.067 0.97461,1.57924 -0.0947,1.51226 l 0,0 c -2.30054,-0.14665 -4.56024,-0.62751 -6.86515,-0.67943 -0.0895,0.0157 -0.72076,0.10141 -0.85617,0.2004 -0.81397,0.59502 -0.97812,1.86366 -1.28023,2.72726 -0.42107,1.90951 -0.76025,3.83737 -1.03559,5.77313 -0.17614,1.05685 -1.67075,0.80775 -1.49461,-0.2491 z"
       inkscape:connector-curvature="0"
       transform="translate(0,852.36215)" />
    <path
       style="opacity:0.33628319;fill:#000080;fill-opacity:1;stroke:#ff0000;stroke-width:0;stroke-miterlimit:4;stroke-opacity:1;stroke-dasharray:none"
       id="path3115"
       d="m 191.55645,71.08108 c -1.94992,-3.921392 -4.0385,-7.77251 -6.11717,-11.626883 -3.73877,-6.806575 -8.02106,-13.292612 -12.41099,-19.691447 -2.73232,-3.723418 -5.38461,-7.786875 -9.26472,-10.428672 -0.6833,-0.292806 -0.4201,-0.359787 -0.78921,-0.202444 -1.07143,0.0024 -1.07478,-1.512852 -0.003,-1.515225 l 0,0 c 1.10132,0.09221 0.54595,-0.04494 1.65085,0.468958 4.01461,2.782019 6.83899,6.909712 9.65591,10.820215 4.42018,6.443426 8.73135,12.97503 12.49517,19.82938 2.10011,3.894167 4.21238,7.784265 6.17624,11.74924 0.42205,0.984798 -0.97066,1.581676 -1.39272,0.596878 z"
       inkscape:connector-curvature="0"
       transform="translate(0,852.36215)" />
    <path
       style="opacity:0.33628319;fill:#000080;fill-opacity:1;stroke:#ff0000;stroke-width:0;stroke-miterlimit:4;stroke-opacity:1;stroke-dasharray:none"
       id="path3117"
       d="m 171.7159,53.816685 c 0.89641,-2.432737 1.55094,-4.961246 2.21808,-7.467232 0.53254,-1.606387 0.82679,-4.068975 2.686,-4.75394 0.30659,-0.112953 0.64447,-0.108053 0.96671,-0.162079 1.60956,0.183909 3.01614,1.072103 4.42893,1.80366 0.95138,0.492766 0.25451,1.838233 -0.69688,1.345467 l 0,0 c -1.15534,-0.59856 -2.30533,-1.279513 -3.56073,-1.643614 -0.28245,-0.0019 -0.55428,-0.05322 -0.80462,0.130543 -0.98418,0.722427 -1.14661,2.635934 -1.55521,3.669909 -0.68639,2.57631 -1.35849,5.176073 -2.28957,7.674164 -0.42205,0.984798 -1.81477,0.38792 -1.39271,-0.596878 z"
       inkscape:connector-curvature="0"
       transform="translate(0,852.36215)" />
    <path
       style="opacity:0.33628319;fill:#000080;fill-opacity:1;stroke:#ff0000;stroke-width:0;stroke-miterlimit:4;stroke-opacity:1;stroke-dasharray:none"
       id="path3119"
       d="m 229.57607,69.357605 c 1.92388,-1.923882 3.84776,-3.847764 5.77164,-5.771646 2.72284,-2.605818 5.40039,-5.25778 8.12695,-7.859804 2.14677,-2.008596 4.1958,-4.115923 6.30564,-6.162771 0.60698,-0.639907 1.31621,-1.186228 1.87433,-1.873376 0.17915,-0.220581 0.24598,-0.581837 0.15854,-0.257619 0.20519,0.216262 0.41038,0.432525 0.61558,0.648787 0.0489,0.01136 0.13687,-0.01513 0.14659,0.03408 0.0116,0.05868 -0.0734,0.09449 -0.11217,0.140059 -0.27625,0.324895 -0.48612,0.624122 -0.68518,1.002539 -0.11649,0.24855 -0.0825,0.893235 0.2728,0.576334 0.21246,-0.156113 0.65928,-0.67946 0.4236,-0.93447 -0.30355,0.112209 -0.60502,0.269311 -0.87644,0.46582 -0.34465,0.359031 -0.22398,0.344594 0.0925,0.507844 0.52735,0.24146 1.07567,0.08031 1.49656,-0.282956 0.25827,-0.304392 0.53157,-0.818632 0.0655,-1.04887 -0.0277,0.01163 -0.0555,0.02326 -0.0833,0.03489 -0.99234,-0.404009 -0.42098,-1.807388 0.57136,-1.403379 l 0,0 c 0.19951,0.104161 0.39903,0.208322 0.59855,0.312482 1.02199,1.207692 0.80735,2.214149 -0.24645,3.319635 -1.03894,0.724328 -2.22331,0.949926 -3.35451,0.246796 -1.09721,-0.989135 -1.09297,-1.990137 0.0382,-2.959595 1.23314,-0.749513 2.52065,-0.974355 3.19704,0.586217 0.0933,1.373603 -0.54804,2.358541 -1.92959,2.670794 -0.23248,-0.02342 -0.47535,0.0023 -0.69744,-0.07027 -1.19737,-0.39149 -1.28894,-1.751892 -0.90046,-2.743415 0.25103,-0.453514 1.30239,-2.153236 1.98105,-1.969772 0.35322,0.09549 0.59045,0.432313 0.88568,0.648469 0.005,1.538247 -1.52436,2.421775 -2.47727,3.436511 -2.11283,2.049712 -4.16471,4.160082 -6.31461,6.171402 -2.71805,2.593845 -5.3871,5.237623 -8.10162,7.835057 -1.92388,1.923883 -3.84776,3.847765 -5.77164,5.771647 -0.75762,0.757614 -1.82905,-0.313814 -1.07143,-1.071429 z"
       inkscape:connector-curvature="0"
       transform="translate(0,852.36215)" />
    <path
       style="opacity:0.33628319;fill:#000080;fill-opacity:1;stroke:#ff0000;stroke-width:0;stroke-miterlimit:4;stroke-opacity:1;stroke-dasharray:none"
       id="path3129"
       d="m 251.68312,47.196686 c 0.979,-1.125511 1.90936,-2.287857 2.83829,-3.454571 0.91324,-1.056673 1.79944,-2.131436 2.67248,-3.221402 1.02188,-1.319126 2.12917,-2.564326 3.09926,-3.924513 1.28106,-1.738791 2.56043,-3.479181 3.86542,-5.200192 1.48021,-1.779131 2.86847,-3.629296 4.29459,-5.451355 1.21858,-1.587806 2.64967,-2.992089 3.95059,-4.507785 0.15527,-0.187257 0.31671,-0.369573 0.46582,-0.56177 0.25477,-0.32836 0.49796,-0.665537 0.74734,-0.998002 0.21955,-0.292698 0.59322,-0.843351 0.39473,-0.607102 0.27556,-1.035387 1.73982,-0.645685 1.46426,0.389701 l 0,0 c -0.37922,1.05934 -1.28332,1.864056 -1.92329,2.765119 -1.28858,1.495825 -2.69755,2.88811 -3.9063,4.45381 -1.42152,1.815823 -2.80467,3.660242 -4.28043,5.432992 -1.29655,1.709317 -2.5669,3.43845 -3.83979,5.165357 -0.98836,1.381457 -2.10822,2.651878 -3.14961,3.991053 -0.87217,1.088692 -1.75672,2.163125 -2.66971,3.217929 -0.92969,1.167517 -1.86033,2.331313 -2.84045,3.457287 -0.66932,0.836645 -1.85251,-0.109911 -1.1832,-0.946556 z"
       inkscape:connector-curvature="0"
       transform="translate(0,852.36215)" />
    <path
       style="opacity:0.33628319;fill:#000080;fill-opacity:1;stroke:#ff0000;stroke-width:0;stroke-miterlimit:4;stroke-opacity:1;stroke-dasharray:none"
       id="path3131"
       d="m 263.99975,31.069731 c -0.35208,0.531589 -0.75716,1.028594 -1.07135,1.585246 -0.018,0.03185 -0.48135,1.099039 -0.25346,0.661841 1.46243,-1.092106 -0.75899,-0.397162 -0.62947,-0.676674 0.0543,-0.117192 0.22305,-0.130507 0.3313,-0.200962 0.15266,-0.09935 0.30331,-0.201888 0.45115,-0.308278 0.442,-0.31808 0.60825,-0.463323 1.03759,-0.81111 0.75149,-0.569886 1.71581,-1.750654 2.80939,-1.498581 0.2212,0.05099 0.40729,0.200585 0.61094,0.300877 0.12483,0.247389 0.29298,0.477327 0.37449,0.742169 0.33918,1.102167 -0.43803,2.430037 -0.84383,3.399946 -0.3292,0.723789 -0.68218,1.435599 -1.01444,2.157977 -0.44797,0.973284 -1.8244,0.339757 -1.37643,-0.633526 l 0,0 c 0.32524,-0.706172 0.66835,-1.403083 0.99311,-2.109439 0.23879,-0.570383 0.53715,-1.13703 0.69168,-1.7387 0.0352,-0.136932 0.0583,-0.276977 0.0764,-0.41719 0.0112,-0.08664 -0.0553,-0.205306 0.0113,-0.261844 0.0544,-0.04618 0.13078,0.05717 0.19617,0.08576 0.0658,-0.0053 0.24891,-0.07747 0.18289,-0.0761 -0.69125,0.01432 -1.22737,0.918951 -1.75876,1.226764 -0.46935,0.379083 -2.24957,1.917552 -2.90099,1.692456 -0.31707,-0.109562 -0.49657,-0.451185 -0.74486,-0.676778 -0.004,-1.3304 0.91963,-2.343917 1.64401,-3.390406 0.66932,-0.836645 1.85251,0.109911 1.1832,0.946556 z"
       inkscape:connector-curvature="0"
       transform="translate(0,852.36215)" />
    <path
       style="opacity:0.33628319;fill:#000080;fill-opacity:1;stroke:#ff0000;stroke-width:0;stroke-miterlimit:4;stroke-opacity:1;stroke-dasharray:none"
       id="path3133"
       d="m 250.46008,48.615235 c 1.12018,-0.942995 2.35383,-1.721203 3.59653,-2.487783 1.46578,-0.98323 3.101,-1.679643 4.69054,-2.435108 2.10936,-0.884698 4.26248,-1.659334 6.39503,-2.485555 2.48986,-0.959915 4.9724,-1.939108 7.44866,-2.933612 2.39764,-0.930815 4.7501,-1.967525 7.14945,-2.893379 1.74164,-0.75694 3.56849,-1.290384 5.33883,-1.966409 0.35668,-0.181267 0.75365,-0.255578 1.12069,-0.40846 0.0942,-0.03924 0.18394,-0.09073 0.26637,-0.150886 0.0192,-0.01404 0.0443,-0.08376 0.0295,-0.06506 -0.32227,0.408822 -0.22354,0.226165 -0.10759,0.829028 0.004,0.02357 0.009,0.04714 0.0129,0.07071 -1.0074,-0.364828 -0.49146,-1.78951 0.51595,-1.424682 l 0,0 c 0.16987,0.08353 0.33974,0.167056 0.50961,0.250585 0.11989,0.258759 0.33766,0.491944 0.35968,0.776278 0.078,1.0074 -1.55295,1.251742 -2.16927,1.539028 -1.77051,0.66893 -3.58997,1.212631 -5.33125,1.963507 -2.39294,0.923286 -4.73878,1.958049 -7.13023,2.885814 -2.48204,0.996753 -4.97031,1.978311 -7.46597,2.940441 -2.09774,0.812621 -4.21474,1.576702 -6.29197,2.441176 -1.53976,0.731804 -3.12627,1.402766 -4.54547,2.356191 -1.22791,0.75743 -2.44259,1.529728 -3.55154,2.458919 -0.89148,0.594321 -1.73198,-0.666425 -0.84049,-1.260747 z"
       inkscape:connector-curvature="0"
       transform="translate(0,852.36215)" />
    <path
       style="opacity:0.33628319;fill:#000080;fill-opacity:1;stroke:#ff0000;stroke-width:0;stroke-miterlimit:4;stroke-opacity:1;stroke-dasharray:none"
       id="path3135"
       d="m 268.68254,36.173475 c 1.38668,0.240237 2.79793,0.255339 4.18966,0.445174 1.7133,0.39523 2.53706,0.970347 2.81752,2.758809 0.0277,1.729101 -0.95925,3.036053 -2.04529,4.272436 -0.80418,0.87921 -1.67501,1.698043 -2.60168,2.446405 -0.83576,0.670421 -1.78387,-0.511523 -0.94811,-1.181944 l 0,0 c 0.86398,-0.687307 1.66261,-1.457317 2.41312,-2.266417 0.79372,-0.896877 1.59932,-1.816055 1.68003,-3.07018 -0.0188,-0.205315 0.0234,-0.427587 -0.0616,-0.615441 -0.24544,-0.542732 -0.95797,-0.709424 -1.46288,-0.8429 -1.40353,-0.199859 -2.83165,-0.196249 -4.22991,-0.45133 -1.05685,-0.176142 -0.80775,-1.670754 0.2491,-1.494612 z"
       inkscape:connector-curvature="0"
       transform="translate(0,852.36215)" />
    <path
       style="opacity:0.33628319;fill:#000080;fill-opacity:1;stroke:#ff0000;stroke-width:0;stroke-miterlimit:4;stroke-opacity:1;stroke-dasharray:none"
       id="path3137"
       d="m 293.44062,15.33832 c -0.51546,1.241306 -0.94233,2.647278 -0.53841,3.974025 0.57307,1.089892 1.76255,1.041976 2.84332,1.011864 0.67402,-0.140001 2.56383,-0.371722 2.81778,-1.131731 -0.034,0.04658 -0.10162,0.08204 -0.10215,0.139731 -0.01,1.077347 0.77191,0.282965 -0.23748,1.131456 -0.72248,0.757311 -0.37895,1.842516 -0.13042,2.734393 0.64671,1.92971 1.62758,3.720189 2.43655,5.581935 0.42746,1.279291 0.9962,2.610393 0.98762,3.987936 -0.005,0.877633 -0.14545,1.139459 -0.39026,1.958955 -0.89161,1.819169 -2.54751,2.786859 -4.39681,3.411964 -0.27328,0.0677 -0.54655,0.135405 -0.81982,0.203107 -1.04075,0.254542 -1.40073,-1.217305 -0.35998,-1.471847 l 0,0 c 0.23365,-0.05628 0.4673,-0.112558 0.70095,-0.168836 1.38161,-0.452008 2.67327,-1.121095 3.42916,-2.425583 0.16427,-0.49746 0.3154,-0.829819 0.32853,-1.36229 0.03,-1.218188 -0.50722,-2.39809 -0.86945,-3.530378 -0.83553,-1.929386 -1.86054,-3.781198 -2.50892,-5.788453 -0.40316,-1.520876 -0.62866,-3.121621 0.64031,-4.309288 0.78321,-0.617279 2.39956,-1.514831 2.69886,0.185853 0.033,0.187355 -0.0935,0.368804 -0.14022,0.553205 -0.97523,1.304624 -2.51047,1.598431 -4.05056,1.814725 -1.92392,0.0339 -3.49169,-0.204828 -4.3447,-2.150146 -0.0665,-0.290032 -0.1664,-0.574381 -0.19938,-0.870097 -0.1586,-1.422393 0.31667,-2.867341 0.85022,-4.158131 0.47916,-0.958315 1.83442,-0.280684 1.35526,0.677631 z"
       inkscape:connector-curvature="0"
       transform="translate(0,852.36215)" />
    <path
       style="opacity:0.33628319;fill:#000080;fill-opacity:1;stroke:#ff0000;stroke-width:0;stroke-miterlimit:4;stroke-opacity:1;stroke-dasharray:none"
       id="path3139"
       d="m 311.52136,19.229724 c 0.77895,1.507881 1.34021,3.129673 1.84561,4.748176 0.12045,0.310585 0.21767,0.619968 0.39482,0.903467 0.019,0.03038 0.10936,0.09255 0.0814,0.07018 -0.10295,-0.0823 -0.18241,-0.205157 -0.30634,-0.250017 -0.68726,-0.248755 -0.2139,0.128959 -0.40161,-0.02751 0.43884,-0.825335 0.72571,-1.718315 1.10181,-2.570892 0.30258,-0.721117 0.80018,-1.67849 1.73653,-1.629489 0.20847,0.01091 0.40124,0.115392 0.60186,0.173089 0.89061,0.651441 1.42007,1.646657 2.04151,2.53456 0.41749,0.504364 0.98492,1.108317 1.70074,0.915834 0.82829,-0.355126 1.43338,-1.02613 1.95339,-1.739353 0.3849,-0.600279 1.07639,-1.381912 0.83586,-2.158825 -0.24924,-0.100241 -0.58238,0.06063 -0.82287,0.198687 -0.70994,0.420948 -0.98398,1.123743 -1.16336,1.888874 -0.0658,0.875918 0.51117,1.329602 1.2362,1.674762 1.21326,0.316071 2.40173,0.04599 3.58048,-0.269118 1.03605,-0.273028 1.42217,1.192178 0.38612,1.465206 l 0,0 c -1.54945,0.403233 -3.10547,0.696679 -4.66536,0.1484 -1.33508,-0.729859 -2.23726,-1.767364 -2.00887,-3.380923 0.30853,-1.214802 0.84782,-2.277639 1.99413,-2.900328 1.17518,-0.499387 2.46782,-0.427526 2.961,0.943145 0.13552,1.252135 -0.35383,2.30982 -1.11618,3.292595 -0.7793,1.037684 -1.69546,1.988582 -2.98738,2.340997 -1.32553,0.0991 -2.33395,-0.486354 -3.12568,-1.551676 -0.46781,-0.669662 -0.9202,-1.370162 -1.40704,-2.014642 0.0255,-0.0131 0.27672,-0.222706 0.14409,-0.145483 -0.27484,0.160026 -0.35464,0.587147 -0.4918,0.831918 -0.40946,0.901014 -0.69511,1.860616 -1.18306,2.727525 -1.26387,1.716468 -2.08833,0.259775 -2.51703,-1.02033 -0.4706,-1.51464 -0.99602,-3.032016 -1.71453,-4.447061 -0.53158,-0.93026 0.784,-1.682024 1.31558,-0.751764 z"
       inkscape:connector-curvature="0"
       transform="translate(0,852.36215)" />
    <path
       style="opacity:0.33628319;fill:#000080;fill-opacity:1;stroke:#ff0000;stroke-width:0;stroke-miterlimit:4;stroke-opacity:1;stroke-dasharray:none"
       id="path3141"
       d="m 331.81143,21.051727 c -1.06421,0.568227 -2.1509,1.21291 -2.72462,2.31358 0.0366,0.434826 0.0373,-0.0695 0.0525,-0.126513 0.0247,-0.09287 0.15066,-0.119564 0.22934,-0.174765 0.27026,-0.199434 0.82771,-0.631266 0.62061,-1.005921 0.0501,0.107159 0.0346,0.346211 0.15025,0.321478 2.65288,-0.567268 0.3094,-0.907656 2.02547,-0.224106 0.68036,0.07821 1.19026,-0.341963 1.53262,-0.884304 0.30751,-0.62578 0.34547,-1.673483 1.11749,-1.965598 0.22959,-0.08687 0.48679,-0.06382 0.73018,-0.09572 1.1394,0.468713 1.62788,1.564134 1.8204,2.715487 0.0139,0.943794 0.0737,1.137797 -1.53712,0.371453 -0.15713,-0.07475 0.3554,-1.260473 0.40981,-1.380159 0.54215,-1.05945 1.42962,-1.854776 2.23807,-2.702342 0.12476,-0.113902 0.24951,-0.227804 0.37427,-0.341705 0.79399,-0.719404 1.81138,0.403465 1.01739,1.122868 l 0,0 c -0.099,0.0888 -0.19792,0.177593 -0.29688,0.26639 -0.698,0.727475 -1.46896,1.406099 -1.96199,2.300272 -0.0996,0.200133 -0.17877,0.329454 -0.23709,0.537954 -0.0153,0.05487 0.0279,0.161038 -0.0286,0.168508 -1.73992,0.230103 -1.49631,0.456749 -1.47836,-0.132586 -0.0296,-0.349464 -0.12987,-0.6534 -0.29748,-0.96397 -0.0831,-0.153965 -0.29364,-0.252999 -0.30434,-0.427627 -0.003,-0.04421 0.0867,-0.01796 0.13011,-0.02694 0.0966,-0.05531 0.3562,-0.262773 0.25617,-0.214026 -0.383,0.18665 -0.33944,1.353212 -0.71016,1.635916 -0.81827,1.111459 -1.96066,1.789835 -3.3739,1.40775 -1.0565,-0.475227 -2.60989,-1.466403 -0.39276,-2.27578 0.1703,-0.06217 0.19688,0.304489 0.29532,0.456734 0.18974,1.202922 -0.45879,2.123369 -1.4812,2.719334 -0.19771,0.07564 -0.38528,0.186803 -0.59313,0.226907 -1.30835,0.252441 -2.09979,-0.876413 -1.62766,-2.051729 0.7856,-1.337763 1.98812,-2.240298 3.3677,-2.9261 0.95831,-0.479158 1.63594,0.876104 0.67763,1.355262 z"
       inkscape:connector-curvature="0"
       transform="translate(0,852.36215)" />
    <path
       style="opacity:0.33628319;fill:#000080;fill-opacity:1;stroke:#ff0000;stroke-width:0;stroke-miterlimit:4;stroke-opacity:1;stroke-dasharray:none"
       id="path3143"
       d="m 342.27113,9.2040865 c 0.55918,1.8374905 0.94902,3.7166455 1.31081,5.6011795 0.32398,1.431581 0.56196,2.890524 1.27722,4.187111 0.50642,0.944191 -0.82887,1.66038 -1.33529,0.716189 l 0,0 c -0.76029,-1.447994 -1.1043,-3.022433 -1.43003,-4.617851 -0.34864,-1.819081 -0.72331,-3.633127 -1.26019,-5.4074711 -0.33881,-1.0164463 1.09866,-1.4956038 1.43748,-0.4791574 z"
       inkscape:connector-curvature="0"
       transform="translate(0,852.36215)" />
    <path
       style="opacity:0.33628319;fill:#000080;fill-opacity:1;stroke:#ff0000;stroke-width:0;stroke-miterlimit:4;stroke-opacity:1;stroke-dasharray:none"
       id="path3145"
       d="m 348.25009,18.535038 c 0.0671,0.444139 0.0882,0.981123 0.32946,1.379413 0.12883,0.212711 0.12424,-0.08005 0.10333,-0.126064 0.73966,-0.566925 1.25848,-1.33699 1.64506,-2.172536 0.3635,-1.008142 0.19623,-1.773939 1.88799,-1.054382 0.0724,0.03079 0.36685,1.316192 0.36781,1.320148 0.64715,2.630353 1.13138,5.29828 1.64844,7.95655 0.51766,2.905724 1.0161,5.843822 0.81164,8.801341 -0.20903,1.601866 -1.1258,3.091989 -2.9564,2.84858 -0.3188,-0.04239 -0.61725,-0.180933 -0.92587,-0.271399 -1.69328,-0.884736 -2.88838,-2.445911 -3.06439,-4.389545 -0.0404,-0.446464 0.016,-0.896439 0.024,-1.344659 0.22981,-1.610525 1.09846,-2.886336 1.96648,-4.210437 0.59059,-0.893955 1.85484,-0.05872 1.26424,0.83523 l 0,0 c -0.71843,1.078025 -1.46742,2.121483 -1.71627,3.423848 -0.10178,1.988464 0.26804,3.142545 2.00257,4.247263 1.30099,0.527064 1.63869,0.151378 1.89433,-1.248218 0.21455,-2.821694 -0.31366,-5.629616 -0.78771,-8.402706 -0.51265,-2.63575 -0.99211,-5.281249 -1.63377,-7.889294 -0.11673,-0.483454 -0.22404,-0.903503 -0.20418,-0.913622 1.95134,-0.99421 1.03869,0.02205 0.79048,0.939829 -0.60656,1.25869 -1.44098,2.512385 -2.80045,3.024046 -0.24035,0.0015 -0.48694,0.05905 -0.72104,0.0046 -1.18874,-0.276639 -1.34187,-1.78413 -1.44101,-2.757959 0,-1.071428 1.51523,-1.071428 1.51523,0 z"
       inkscape:connector-curvature="0"
       transform="translate(0,852.36215)" />
    <path
       style="opacity:0.33628319;fill:#000080;fill-opacity:1;stroke:#ff0000;stroke-width:0;stroke-miterlimit:4;stroke-opacity:1;stroke-dasharray:none"
       id="path3147"
       d="m 366.56901,16.429906 c -0.91472,1.185001 -1.56569,2.509003 -1.7869,3.992231 -0.0629,1.199313 0.53111,2.020106 1.52604,2.605247 0.41795,0.162447 0.77829,0.05396 1.19297,-0.05103 1.0485,-0.220489 1.36031,1.262308 0.31182,1.482797 l 0,0 c -0.81314,0.151044 -1.53099,0.251528 -2.30383,-0.144349 -1.49188,-0.958051 -2.36804,-2.301163 -2.22289,-4.133998 0.28842,-1.691033 0.96165,-3.232723 2.02204,-4.591398 0.59432,-0.891483 1.85507,-0.05099 1.26075,0.840498 z"
       inkscape:connector-curvature="0"
       transform="translate(0,852.36215)" />
    <path
       style="opacity:0.33628319;fill:#000080;fill-opacity:1;stroke:#ff0000;stroke-width:0;stroke-miterlimit:4;stroke-opacity:1;stroke-dasharray:none"
       id="path3149"
       d="m 373.92764,19.51088 c -0.52062,0.599626 -1.76937,1.344977 -1.58801,2.284524 0.48154,0.03144 0.95485,-0.08312 1.42866,-0.196349 0.5159,-0.179959 1.52776,-0.587243 1.34466,-1.305658 -0.64907,-0.145411 -1.42323,-0.247562 -2.12426,-0.306848 -0.19746,0.009 -0.39492,0.01801 -0.59237,0.02701 -1.07074,0.03862 -1.12535,-1.475627 -0.0546,-1.514244 l 0,0 c 0.25909,-0.0075 0.51817,-0.01492 0.77725,-0.02239 1.39224,0.122254 3.16634,0.20365 3.50861,1.859993 -0.15432,1.637704 -1.03288,2.238472 -2.51556,2.737864 -1.42728,0.325577 -2.84912,0.418253 -3.2874,-1.303897 0.11767,-1.599059 1.03006,-2.414642 2.15648,-3.443204 0.83665,-0.669316 1.7832,0.513879 0.94656,1.183195 z"
       inkscape:connector-curvature="0"
       transform="translate(0,852.36215)" />
    <path
       style="opacity:0.33628319;fill:#000080;fill-opacity:1;stroke:#ff0000;stroke-width:0;stroke-miterlimit:4;stroke-opacity:1;stroke-dasharray:none"
       id="path3151"
       d="m 379.56482,6.4132076 c 0.0155,2.1453534 0.3301,4.2809084 0.64685,6.3993654 0.32821,2.693978 0.95166,5.336618 1.58691,7.970716 0.36019,1.26438 0.15857,0.675041 0.58682,1.774095 0.38525,0.999769 -1.02864,1.544598 -1.41389,0.544828 l 0,0 c -0.47687,-1.249483 -0.25804,-0.596089 -0.64593,-1.963689 -0.64571,-2.677511 -1.27756,-5.364084 -1.61253,-8.102193 -0.32694,-2.192697 -0.64996,-4.4025315 -0.66346,-6.6231224 0,-1.0714285 1.51523,-1.0714285 1.51523,0 z"
       inkscape:connector-curvature="0"
       transform="translate(0,852.36215)" />
    <path
       style="opacity:0.33628319;fill:#000080;fill-opacity:1;stroke:#ff0000;stroke-width:0;stroke-miterlimit:4;stroke-opacity:1;stroke-dasharray:none"
       id="path3153"
       d="m 385.12066,8.4335127 c 0.0331,1.9342873 0.28259,3.8614233 0.5048,5.7818963 0.32211,2.295845 0.71132,4.579457 1.10314,6.863987 0.0596,0.240997 0.11921,0.481993 0.17882,0.722989 0.25465,1.040728 -1.21716,1.400855 -1.47181,0.360128 l 0,0 c -0.0668,-0.27567 -0.13363,-0.55134 -0.20044,-0.82701 -0.39639,-2.311726 -0.79015,-4.622593 -1.11489,-6.94593 -0.2289,-1.978257 -0.48338,-3.963317 -0.51485,-5.9560603 0,-1.0714286 1.51523,-1.0714286 1.51523,0 z"
       inkscape:connector-curvature="0"
       transform="translate(0,852.36215)" />
    <path
       style="opacity:0.33628319;fill:#000080;fill-opacity:1;stroke:#ff0000;stroke-width:0;stroke-miterlimit:4;stroke-opacity:1;stroke-dasharray:none"
       id="path3155"
       d="m 395.31386,18.387321 c 0.36612,1.378348 0.6575,2.784742 1.12817,4.13256 0.1721,0.356826 0.0438,0.376257 0.22145,0.320114 0.77993,0.734619 -0.25898,1.837609 -1.03891,1.102991 l 0,0 c -0.51004,-0.575782 -0.30941,-0.263042 -0.61515,-0.929589 -0.46911,-1.377298 -0.79047,-2.801656 -1.15249,-4.20981 -0.29434,-1.030205 1.16259,-1.44647 1.45693,-0.416266 z"
       inkscape:connector-curvature="0"
       transform="translate(0,852.36215)" />
    <path
       style="opacity:0.33628319;fill:#000080;fill-opacity:1;stroke:#ff0000;stroke-width:0;stroke-miterlimit:4;stroke-opacity:1;stroke-dasharray:none"
       id="path3157"
       d="m 401.37478,15.356864 c 0.52482,1.652192 1.08376,3.292237 1.50051,4.975922 0.12397,0.26395 0.38024,1.810542 0.69311,1.883595 0.0558,0.01303 -0.0388,-0.133543 -0.0953,-0.143081 -0.24514,-0.04137 -0.49721,7.41e-4 -0.74582,0.0011 0.31404,-1.097946 0.52079,-2.224268 0.79846,-3.332572 0.33681,-1.467699 0.71302,-2.999375 1.94262,-3.967704 0.27934,-0.01996 0.56743,-0.132108 0.83801,-0.05989 0.94796,0.253018 1.29315,2.194791 1.50628,2.995191 0.37963,1.063743 0.56605,2.205773 1.12807,3.195991 0.29452,0.440949 0.72499,0.851531 1.28299,0.670664 0.88063,-0.240148 1.67017,-0.770707 2.41944,-1.280208 1.06902,-0.661942 1.71005,-1.6873 2.35063,-2.732104 0.47373,-0.812208 0.83624,-1.676506 0.60759,-2.620033 -0.21894,-0.392572 -0.43853,-0.245521 -0.75816,-0.07584 -0.85294,0.474872 -1.28193,1.280931 -1.59695,2.167278 -0.30433,0.949413 -0.34751,1.873641 0.2543,2.698021 0.68161,0.596019 1.68561,0.666097 2.55303,0.634972 0.19537,-0.01833 0.39074,-0.03666 0.5861,-0.055 1.06705,-0.09678 1.20392,1.41225 0.13688,1.509034 l 0,0 c -0.23042,0.02029 -0.46083,0.04057 -0.69124,0.06086 -1.41117,0.01463 -2.8699,-0.192433 -3.84882,-1.31434 -0.80051,-1.279182 -0.90583,-2.618978 -0.4134,-4.053682 0.47892,-1.283475 1.1735,-2.408546 2.43732,-3.045817 1.34274,-0.502005 2.28197,-0.208745 2.82898,1.188759 0.22295,1.337385 -0.0879,2.545824 -0.80402,3.698034 -0.75257,1.226408 -1.54589,2.413238 -2.79269,3.194517 -0.93887,0.633373 -1.92722,1.278479 -3.04642,1.524336 -1.23135,0.120889 -2.18468,-0.37026 -2.83625,-1.444777 -0.59031,-1.114004 -0.88043,-2.336027 -1.26181,-3.531611 -0.0627,-0.236655 -0.59601,-1.709867 -0.54426,-1.889466 0.0525,-0.182198 0.80574,0.408907 0.53457,-0.194445 -0.84326,0.326983 -1.10184,2.361443 -1.34317,3.096234 -0.33953,1.349246 -0.46436,2.82629 -1.19119,4.029527 -0.34096,0.09368 -0.66943,0.290937 -1.02289,0.281025 -0.75568,-0.02119 -1.22061,-2.211895 -1.377,-2.725407 -0.41025,-1.666408 -0.97153,-3.286814 -1.48638,-4.922836 -0.29435,-1.030204 1.16258,-1.44647 1.45693,-0.416265 z"
       inkscape:connector-curvature="0"
       transform="translate(0,852.36215)" />
    <path
       style="opacity:0.33628319;fill:#000080;fill-opacity:1;stroke:#ff0000;stroke-width:0;stroke-miterlimit:4;stroke-opacity:1;stroke-dasharray:none"
       id="path3159"
       d="m 423.52105,17.465036 c -1.26099,0.304406 -2.45257,0.890868 -3.3992,1.779123 -0.4557,0.618672 -1.37441,1.577178 -1.00288,2.432607 0.59455,0.300109 1.29697,0.04747 1.88782,-0.122957 1.28061,-0.45895 2.31136,-1.354704 3.0051,-2.511688 0.14637,0.591644 0.28485,-1.156179 0.20731,-0.880962 -0.0169,0.0599 -0.0262,0.14456 0.0206,0.185558 0.6224,0.545024 0.53685,0.374195 1.15522,0.01716 0.0287,0.647485 0.29074,1.176647 0.68523,1.6925 0.50115,0.532426 1.12856,0.686073 1.79609,0.383515 0.80373,-0.471437 1.14979,-1.292929 1.38708,-2.151407 0.36425,-1.24433 0.62473,-2.511665 1.06315,-3.733628 0.67145,-1.481059 1.61207,-1.88867 2.9469,-0.819911 0.77471,1.087122 1.48038,2.232383 2.13681,3.396354 0.53232,0.828072 1.1076,1.626021 1.77151,2.353257 0.7206,0.792907 -0.40074,1.811982 -1.12134,1.019075 l 0,0 c -0.73677,-0.813871 -1.3852,-1.699617 -1.97037,-2.628703 -0.57066,-1.01445 -1.2211,-1.977879 -1.80026,-2.987446 -0.0606,-0.05975 -0.13276,-0.109652 -0.18169,-0.179248 -0.0358,-0.05094 0.24572,-0.608475 -0.14333,-0.02072 -0.0807,0.121922 -0.14234,0.255448 -0.21351,0.383172 -0.43475,1.187927 -0.6662,2.42989 -1.03234,3.638929 -0.39826,1.332465 -1.02468,2.524337 -2.33175,3.156793 -1.34815,0.429742 -2.57847,0.188226 -3.53107,-0.91702 -0.66252,-0.93622 -1.12713,-1.955781 -0.87723,-3.124493 0.22911,-0.213073 0.38114,-0.574858 0.68732,-0.639219 0.29122,-0.06122 0.59747,0.13844 0.83363,0.31951 0.60964,0.467421 0.058,1.846176 -0.19849,2.33267 -0.92554,1.469131 -2.22375,2.61449 -3.89154,3.176603 -1.42073,0.378766 -3.03273,0.566255 -3.76812,-1.000638 -0.27335,-1.591026 0.42869,-2.729691 1.46274,-3.892515 1.19264,-1.054042 2.60072,-1.813503 4.1675,-2.150877 1.05685,-0.176142 1.30596,1.318471 0.24911,1.494612 z"
       inkscape:connector-curvature="0"
       transform="translate(0,852.36215)" />
    <path
       style="opacity:0.33628319;fill:#000080;fill-opacity:1;stroke:#ff0000;stroke-width:0;stroke-miterlimit:4;stroke-opacity:1;stroke-dasharray:none"
       id="path3161"
       d="m 243.19422,62.476673 c 0.0653,1.558002 -0.0574,3.101363 -0.2336,4.647355 0.0451,0.64405 -0.3162,1.365915 -0.15639,2.005 0.0611,0.24443 -0.35514,-0.3579 -0.54275,-0.526076 -0.0784,-0.0042 -0.22158,0.06469 -0.23532,-0.01265 -0.016,-0.09022 0.13749,-0.121662 0.19944,-0.189175 0.0986,-0.107426 0.18861,-0.222413 0.28143,-0.334848 0.47694,-0.577705 0.95552,-1.152121 1.44412,-1.720148 1.24067,-1.295598 2.4427,-2.621475 3.84621,-3.744534 1.06208,-1.016423 3.08682,-0.65203 1.84329,1.153753 -0.82794,0.793165 -1.80976,1.422494 -2.74622,2.085787 -0.40326,0.323641 -1.13036,0.592386 -0.54553,1.053574 0.70224,0.674842 1.64259,1.007209 2.56926,1.238233 0.80278,0.144814 0.40022,0.08274 1.20764,0.18636 1.06248,0.138182 0.86706,1.640756 -0.19542,1.502575 l 0,0 c -0.9202,-0.121076 -0.45723,-0.04785 -1.38866,-0.221211 -1.26418,-0.331429 -2.51783,-0.813276 -3.41355,-1.808336 -0.9199,-1.434497 -0.42059,-2.293215 0.89178,-3.188611 0.82501,-0.581564 1.66989,-1.151239 2.44029,-1.798391 0.24328,-0.05753 -0.23229,0.03243 0.17039,0.379457 0.19997,0.172343 0.99208,0.248419 0.7331,0.299657 -0.27486,0.05438 -0.33614,0.135547 -0.62248,0.302472 -1.33486,1.057044 -2.45795,2.329345 -3.64145,3.547409 -0.49486,0.575106 -1.62806,2.169091 -2.23256,2.516335 -0.20415,0.11727 -0.436,0.177833 -0.65399,0.266749 -0.27354,-0.170649 -0.58691,-0.289857 -0.82062,-0.511946 -0.37529,-0.356623 0.0819,-2.190328 0.0625,-2.653063 0.16984,-1.489276 0.28988,-2.974632 0.22384,-4.475731 0,-1.071428 1.51523,-1.071428 1.51523,0 z"
       inkscape:connector-curvature="0"
       transform="translate(0,852.36215)" />
    <path
       style="opacity:0.33628319;fill:#000080;fill-opacity:1;stroke:#ff0000;stroke-width:0;stroke-miterlimit:4;stroke-opacity:1;stroke-dasharray:none"
       id="path3163"
       d="m 280.62267,43.237048 c 0.25476,1.809975 0.34686,3.624232 0.25056,5.447867 -0.0205,0.290509 -0.0299,0.582019 -0.0616,0.871528 -0.12699,0.852439 -0.11758,0.719052 -0.19763,1.48258 -0.0523,0.498957 -0.0564,0.686893 -0.064,0.682238 -0.35766,-0.218551 -0.62988,-0.553173 -0.94483,-0.82976 0.71172,-0.760266 1.29473,-1.623622 1.87618,-2.484811 0.74013,-0.960849 1.32014,-2.078173 2.29732,-2.825319 0.27384,0.450586 0.67175,0.846203 0.82152,1.351756 0.0461,0.155746 -0.20528,0.251812 -0.30956,0.376357 -0.53977,0.644666 -1.08053,1.277205 -1.59359,1.944049 -0.1912,0.332575 -1.10553,1.347697 -0.47008,1.678447 0.63958,0.281314 1.35217,0.297845 2.03894,0.328444 0.13284,-0.01557 0.26569,-0.03115 0.39853,-0.04672 1.06635,-0.104184 1.21369,1.403865 0.14734,1.508048 l 0,0 c -0.20505,0.01744 -0.41011,0.03488 -0.61516,0.05232 -1.12202,-0.05258 -2.28108,-0.111733 -3.15841,-0.902531 -0.97247,-1.441429 -0.41872,-2.239849 0.45799,-3.542065 0.5231,-0.67968 1.07402,-1.325583 1.62424,-1.982559 0.10223,-0.122074 0.15081,-0.414176 0.30347,-0.36891 0.4783,0.141822 0.83094,0.552316 1.24641,0.828474 -0.87438,0.556227 -1.24378,1.710965 -1.93319,2.448129 -0.71073,1.052545 -1.4104,2.152718 -2.40289,2.9652 -0.43099,-0.212897 -0.8978,-0.364965 -1.29296,-0.638689 -0.0117,-0.0081 0.31543,-2.699972 0.31886,-2.977051 0.0933,-1.725021 0.002,-3.440316 -0.23749,-5.152732 -0.15152,-1.06066 1.34848,-1.274946 1.5,-0.214286 z"
       inkscape:connector-curvature="0"
       transform="translate(0,852.36215)" />
    <path
       style="opacity:0.33628319;fill:#000080;fill-opacity:1;stroke:#ff0000;stroke-width:0;stroke-miterlimit:4;stroke-opacity:1;stroke-dasharray:none"
       id="path3165"
       d="m 292.6771,48.67955 c 1.0141,-0.162915 2.28286,-0.277952 3.05448,0.567122 0.1444,0.158155 0.22593,0.363896 0.33889,0.545844 0.31882,1.328141 -0.40685,2.496212 -1.13759,3.54882 -0.30519,0.509193 -1.72006,1.552853 -1.65118,2.153627 0.0192,-0.04551 0.0385,-0.09101 0.0577,-0.13652 -0.006,-0.05358 -0.0375,-0.110072 -0.019,-0.160749 0.0106,-0.0291 0.75342,-0.116302 1.0274,-0.179594 0.64252,-0.194046 1.24886,-0.48577 1.8696,-0.738606 0.99237,-0.40394 1.56363,0.999479 0.57126,1.403418 l 0,0 c -0.70329,0.286078 -1.38986,0.61993 -2.12559,0.817254 -1.22601,0.245801 -2.75107,0.304811 -2.86428,-1.316619 0.30535,-1.111015 1.12949,-1.880599 1.89231,-2.710511 0.43795,-0.620858 0.80034,-1.256197 1.03521,-1.981098 -0.035,-0.693138 -1.40596,-0.359565 -1.80012,-0.317776 -1.05685,0.176142 -1.30596,-1.31847 -0.24911,-1.494612 z"
       inkscape:connector-curvature="0"
       transform="translate(0,852.36215)" />
    <path
       style="opacity:0.33628319;fill:#000080;fill-opacity:1;stroke:#ff0000;stroke-width:0;stroke-miterlimit:4;stroke-opacity:1;stroke-dasharray:none"
       id="path3167"
       d="m 250.31809,14.447701 c 0.23789,1.906871 0.1063,3.839839 -0.11971,5.740982 -0.0452,0.818641 -0.34161,1.666789 -0.18845,2.493118 0.005,0.02825 0.044,-0.05991 0.0259,-0.0822 -0.12154,-0.149471 -0.27841,-0.266343 -0.41762,-0.399515 -0.0828,-0.01859 -0.21685,0.023 -0.2485,-0.05577 -0.006,-0.01591 0.34294,-0.492902 0.42264,-0.613146 0.38763,-0.584869 0.75423,-1.181432 1.14909,-1.762003 0.84148,-1.010391 1.63574,-2.097727 2.79718,-2.752318 1.76602,-0.444091 2.07295,0.820629 1.07514,2.07099 -0.76822,0.75647 -1.62294,1.427741 -2.45915,2.110633 -0.47228,0.617215 -0.30329,0.448355 -0.0174,0.673173 0.62419,0.417211 1.32358,0.462988 2.04587,0.403813 1.0685,-0.07915 1.18043,1.431942 0.11193,1.511089 l 0,0 c -1.15621,0.07883 -2.26417,-0.08215 -3.20358,-0.818424 -0.99747,-1.020477 -0.8548,-1.947964 0.10477,-2.943262 0.76297,-0.623052 1.53756,-1.239357 2.25596,-1.909959 0.30777,-0.332114 0.097,-0.116164 0.34578,0.106885 0.11652,0.104486 0.49207,0.284762 0.44999,0.134015 -0.97331,0.448878 -1.52365,1.529482 -2.25389,2.265956 -0.44811,0.657803 -1.31058,2.32342 -1.92434,2.741548 -0.23803,0.162161 -0.52799,0.230322 -0.79198,0.345483 -0.26629,-0.145005 -0.57941,-0.225802 -0.79888,-0.435016 -0.55655,-0.530547 -0.003,-2.609761 0.0149,-3.26453 0.21184,-1.770343 0.3409,-3.570984 0.12427,-5.347259 -0.15152,-1.060661 1.34848,-1.274946 1.5,-0.214286 z"
       inkscape:connector-curvature="0"
       transform="translate(0,852.36215)" />
    <path
       style="opacity:0.33628319;fill:#000080;fill-opacity:1;stroke:#ff0000;stroke-width:0;stroke-miterlimit:4;stroke-opacity:1;stroke-dasharray:none"
       id="path3169"
       d="m 260.36682,18.535038 c -0.0829,1.246997 0.1167,2.454802 0.42446,3.656178 0.16675,0.49299 0.33532,1.083767 0.85355,1.301692 0.8987,0.583354 0.0737,1.854304 -0.82499,1.27095 l 0,0 c -0.77809,-0.568643 -1.26056,-1.243727 -1.49661,-2.197468 -0.33746,-1.323418 -0.55433,-2.659066 -0.47164,-4.031352 0,-1.071428 1.51523,-1.071428 1.51523,0 z"
       inkscape:connector-curvature="0"
       transform="translate(0,852.36215)" />
  </g>
</svg>
