<?xml version="1.0" encoding="UTF-8" standalone="no"?>
<!-- Created with Inkscape (http://www.inkscape.org/) -->

<svg
   xmlns:dc="http://purl.org/dc/elements/1.1/"
   xmlns:cc="http://creativecommons.org/ns#"
   xmlns:rdf="http://www.w3.org/1999/02/22-rdf-syntax-ns#"
   xmlns:svg="http://www.w3.org/2000/svg"
   xmlns="http://www.w3.org/2000/svg"
   xmlns:sodipodi="http://sodipodi.sourceforge.net/DTD/sodipodi-0.dtd"
   xmlns:inkscape="http://www.inkscape.org/namespaces/inkscape"
   width="500"
   height="200"
   id="svg2"
   version="1.1"
   inkscape:version="0.48.2 r9819"
   sodipodi:docname="New document 2">
  <defs
     id="defs4">
    <inkscape:path-effect
       effect="spiro"
       id="path-effect2996"
       is_visible="true" />
    <inkscape:path-effect
       effect="spiro"
       id="path-effect2992"
       is_visible="true" />
  </defs>
  <sodipodi:namedview
     id="base"
     pagecolor="#ffffff"
     bordercolor="#666666"
     borderopacity="1.0"
     inkscape:pageopacity="0.0"
     inkscape:pageshadow="2"
     inkscape:zoom="1.979899"
     inkscape:cx="230.02998"
     inkscape:cy="82.062358"
     inkscape:document-units="px"
     inkscape:current-layer="layer1"
     showgrid="false"
     inkscape:window-width="1280"
     inkscape:window-height="737"
     inkscape:window-x="-8"
     inkscape:window-y="-8"
     inkscape:window-maximized="1" />
  <metadata
     id="metadata7">
    <rdf:RDF>
      <cc:Work
         rdf:about="">
        <dc:format>image/svg+xml</dc:format>
        <dc:type
           rdf:resource="http://purl.org/dc/dcmitype/StillImage" />
        <dc:title></dc:title>
      </cc:Work>
    </rdf:RDF>
  </metadata>
  <g
     inkscape:label="Layer 1"
     inkscape:groupmode="layer"
     id="layer1"
     transform="translate(0,-852.36215)">
    <path
       style="fill:none;stroke:#000000;stroke-width:1px;stroke-linecap:butt;stroke-linejoin:miter;stroke-opacity:1"
       d="m 218.69802,30.79945 0,108.08632"
       id="path2990"
       inkscape:path-effect="#path-effect2992"
       inkscape:original-d="m 218.69802,30.79945 0,108.08632"
       inkscape:connector-curvature="0"
       transform="translate(0,852.36215)" />
    <path
       style="fill:none;stroke:#000000;stroke-width:1px;stroke-linecap:butt;stroke-linejoin:miter;stroke-opacity:1"
       d="M 138.3909,92.923831 340.92648,94.43906"
       id="path2994"
       inkscape:path-effect="#path-effect2996"
       inkscape:original-d="m 138.3909,92.923831 c 2.52538,0.505076 202.53558,1.515229 202.53558,1.515229"
       inkscape:connector-curvature="0"
       transform="translate(0,852.36215)" />
    <path
       style="opacity:0.33628319;fill:#000000;fill-opacity:1;stroke:#000000;stroke-width:0.89999998;stroke-miterlimit:4;stroke-opacity:1;stroke-dasharray:none"
       id="path2998"
       d="m 336.36671,89.673528 c 0.91414,1.183453 1.96323,2.242913 3.00533,3.309819 0.84349,0.909263 1.82862,1.719133 2.28009,2.901073 0.30655,1.052609 -0.28518,1.87674 -0.92338,2.659715 -0.91813,1.009865 -1.96535,1.890055 -2.88895,2.893855 -0.42454,0.45251 -0.77371,0.96449 -1.15923,1.44904 0,0 -0.49617,-0.0335 -0.49617,-0.0335 l 0,0 c 0.38789,-0.48446 0.73611,-0.99825 1.16097,-1.45236 0.92065,-1.00523 1.96735,-1.884406 2.8873,-2.891184 0.63032,-0.764475 1.22452,-1.573859 0.92189,-2.607305 -0.45473,-1.172179 -1.44066,-1.975151 -2.27648,-2.881074 -1.04361,-1.068526 -2.08892,-2.134235 -3.01002,-3.314412 0,0 0.49865,-0.0337 0.49865,-0.0337 z"
       inkscape:connector-curvature="0"
       transform="translate(0,852.36215)" />
    <path
       style="opacity:0.33628319;fill:#000000;fill-opacity:1;stroke:#000000;stroke-width:0.89999998;stroke-miterlimit:4;stroke-opacity:1;stroke-dasharray:none"
       id="path3000"
       d="m 216.74566,32.242608 c -0.75999,1.670373 -1.71729,3.236785 -2.62314,4.828985 -0.0529,0.130004 -1.05673,1.735097 -1.1274,1.723047 -0.61862,-0.105476 -0.46027,-0.121396 -0.23909,-0.50646 0.82802,-1.533536 1.80593,-2.97419 2.69634,-4.471376 0.52008,-0.785632 1.18443,-2.091885 2.28433,-2.188721 0.28058,-0.0247 0.56325,0.0091 0.84487,0.01359 0.76372,0.171493 1.30571,0.770994 1.85748,1.283538 0.37388,0.457172 0.79328,0.869662 1.18787,1.307877 0,0 -0.49764,0.03663 -0.49764,0.03663 l 0,0 c -0.39526,-0.436008 -0.80979,-0.851832 -1.18786,-1.303561 -0.54592,-0.50968 -1.09031,-1.10042 -1.8544,-1.248939 0.37626,-0.0648 -0.0742,0.0079 -0.26344,0.0872 -0.5867,0.245703 -1.0382,0.757606 -1.39632,1.264416 -0.17562,0.24854 -0.32243,0.516238 -0.48365,0.774357 -0.89008,1.495678 -1.86767,2.935063 -2.68853,4.470913 -0.25829,0.454628 -0.10783,0.392495 -0.76174,0.43786 -0.0352,0.0024 0.0612,-0.03798 0.0831,-0.06563 0.0866,-0.109081 0.16164,-0.22688 0.24034,-0.341792 0.47973,-0.700491 0.33419,-0.487443 0.81395,-1.298427 0.90542,-1.589446 1.86382,-3.152614 2.61654,-4.823701 0,0 0.49838,0.02019 0.49838,0.02019 z"
       inkscape:connector-curvature="0"
       transform="translate(0,852.36215)" />
    <path
       style="opacity:0.33628319;fill:#000000;fill-opacity:1;stroke:#000000;stroke-width:0.89999998;stroke-miterlimit:4;stroke-opacity:1;stroke-dasharray:none"
       id="path3002"
       d="m 310.81108,21.124377 c -0.3213,2.360629 -0.15447,4.751142 -0.091,7.123607 0.081,2.954897 0.11419,5.910781 0.1353,8.866621 0.2087,1.625692 -0.3751,3.34411 0.14584,4.920809 0.60482,0.870795 1.93783,0.90687 2.90765,0.814017 2.25481,-0.199721 4.51336,-0.326661 6.77559,-0.398403 2.48122,-0.06294 4.96335,-0.07086 7.44522,-0.07593 1.049,-0.05437 2.09819,-0.13264 3.12463,-0.359346 0,0 0.49211,0.06684 0.49211,0.06684 l 0,0 c -1.02799,0.234668 -2.08054,0.309978 -3.13235,0.369137 -2.48272,0.0043 -4.96572,0.01184 -7.44781,0.07406 -2.26025,0.07089 -4.51717,0.194543 -6.76964,0.398925 -1.22723,0.03013 -3.0849,0.296448 -3.89345,-0.873639 -0.50734,-1.587158 0.0645,-3.302563 -0.13493,-4.936139 -0.0183,-2.955526 -0.0495,-5.911106 -0.13262,-8.865633 -0.0651,-2.375358 -0.23257,-4.76719 0.0762,-7.132003 0,0 0.49918,0.0071 0.49918,0.0071 z"
       inkscape:connector-curvature="0"
       transform="translate(0,852.36215)" />
    <path
       style="opacity:0.33628319;fill:#000000;fill-opacity:1;stroke:#000000;stroke-width:0.89999998;stroke-miterlimit:4;stroke-opacity:1;stroke-dasharray:none"
       id="path3004"
       d="m 320.46759,23.201556 c 0.0623,2.248783 -0.0904,4.488815 -0.23451,6.73112 -0.11571,2.123328 -0.56164,4.203565 -0.837,6.304324 -0.40854,-0.518973 0.12138,0.672872 -0.0402,0.571258 -0.15081,-0.09483 -0.32553,-0.221128 -0.35872,-0.396152 -0.0339,-0.178771 0.66747,-1.667766 0.74683,-1.85439 0.72785,-1.854463 1.69148,-3.559068 2.88178,-5.150972 0.82084,-1.142121 1.8484,-2.079164 2.88155,-3.016101 0.0704,-0.07668 0.39743,-0.474796 0.33666,0.22133 -0.0135,0.154593 -0.22034,0.218593 -0.33216,0.326195 -0.47318,0.45534 -0.91242,0.927723 -1.35085,1.417095 -0.87593,1.061413 -1.92587,1.957217 -2.78971,3.02775 -0.57534,0.810622 -0.39815,1.412785 0.26569,2.072526 0.96837,0.822491 2.12106,1.411446 3.25572,1.971269 0.80277,0.346303 1.60257,0.689801 2.43131,0.969103 0,0 -0.49296,0.06162 -0.49296,0.06162 l 0,0 c -0.82778,-0.282987 -1.62875,-0.626166 -2.43046,-0.975818 -1.13713,-0.564819 -2.29515,-1.154078 -3.26114,-1.987237 -0.66749,-0.683386 -0.84711,-1.316022 -0.26406,-2.14511 0.86163,-1.074271 1.91578,-1.967063 2.79183,-3.030197 0.29489,-0.330301 1.31221,-1.558612 1.6776,-1.743773 0.22384,-0.113429 0.47754,-0.157401 0.72281,-0.210419 0.0297,-0.0064 -0.0409,0.04495 -0.0613,0.06743 -1.0343,0.934816 -2.07034,1.861756 -2.88966,3.005947 -1.19157,1.586808 -2.15585,3.286027 -2.87879,5.139192 -0.0742,0.175222 -0.64511,1.749937 -0.74155,1.852175 -0.17047,0.180713 -0.40697,0.299589 -0.64319,0.376505 -0.18311,0.05962 0.47872,-0.98931 0.0471,-0.5758 0.28464,-2.099033 0.7291,-4.178032 0.84603,-6.300865 0.14304,-2.241224 0.29672,-4.480386 0.22294,-6.728005 0,0 0.49847,0 0.49847,0 z"
       inkscape:connector-curvature="0"
       transform="translate(0,852.36215)" />
    <path
       style="opacity:0.33628319;fill:#000000;fill-opacity:1;stroke:#000000;stroke-width:0.89999998;stroke-miterlimit:4;stroke-opacity:1;stroke-dasharray:none"
       id="path3006"
       d="m 330.43482,19.087251 c 1.55348,-0.229637 3.13493,-0.388001 4.69035,-0.0981 1.13053,0.410635 1.41771,1.034097 1.03909,2.146756 -0.41803,1.045026 -1.28337,1.806466 -1.80825,2.776455 -0.31958,1.003628 0.69924,1.108761 1.44757,1.219149 0.78841,-0.09847 1.58387,-0.163363 2.36408,-0.330039 0,0 0.4927,0.06724 0.4927,0.06724 l 0,0 c -1.09536,0.243071 -2.22882,0.342568 -3.34991,0.333276 -0.79052,-0.124276 -1.77811,-0.281271 -1.45234,-1.314183 0.51787,-0.971706 1.3873,-1.726871 1.80805,-2.76841 0.37998,-1.09224 0.0765,-1.676576 -1.0328,-2.061384 -1.2405,-0.219473 -2.46193,-0.116516 -3.70343,0.09929 0,0 -0.49511,-0.07006 -0.49511,-0.07006 z"
       inkscape:connector-curvature="0"
       transform="translate(0,852.36215)" />
    <path
       style="opacity:0.33628319000000001;fill:#000080;fill-opacity:1;stroke:#000080;stroke-width:0.89999998000000003;stroke-miterlimit:4;stroke-opacity:1;stroke-dasharray:none"
       id="path3008"
       d="m 196.28,92.777121 c 0.25647,1.168492 0.88171,2.066379 1.90224,2.6716 0.76053,0.297577 1.37673,-0.307347 1.91248,-1.008085 0.46302,-0.90572 -0.061,-1.604365 -0.69974,-2.238466 -0.11618,-0.07997 -0.2306,-0.162579 -0.34855,-0.239918 -0.48352,-0.317032 -0.99882,-0.615407 -1.59632,-0.620332 -0.0537,-4.42e-4 0.10282,0.03101 0.15423,0.04652 -0.31243,0.123303 -0.5476,0.326577 -0.78078,0.559519 0,0 -0.49896,-0.03882 -0.49896,-0.03882 l 0,0 c 0.23399,-0.24268 0.47387,-0.449178 0.78451,-0.592261 1.18484,-0.06597 1.8445,0.08352 2.78356,0.846231 0.64916,0.659361 1.16493,1.380001 0.69921,2.309778 -0.72724,0.971055 -1.66625,1.486174 -2.90493,1.026961 -1.02035,-0.624282 -1.64633,-1.537528 -1.90693,-2.714467 0,0 0.49998,-0.0083 0.49998,-0.0083 z"
       inkscape:connector-curvature="0"
       transform="translate(0,852.36215)" />
    <path
       style="opacity:0.33628319;fill:#000080;fill-opacity:1;stroke:#000080;stroke-width:0.89999998;stroke-miterlimit:4;stroke-opacity:1;stroke-dasharray:none"
       id="path3010"
       d="m 161.00507,89.092065 c -1.2438,0.577589 -2.14423,1.540799 -2.88472,2.667054 -0.51412,0.922968 -0.78331,1.967544 -0.72132,3.023075 0.0631,0.842588 0.34183,1.621391 0.59458,2.417453 0.31106,0.888744 0.94443,1.555137 1.84522,1.827031 0.15276,0.01842 0.30445,0.05193 0.45828,0.05526 0.0298,6.44e-4 -0.10024,-0.02962 -0.076,-0.047 0.10175,-0.07308 0.23362,-0.09136 0.34592,-0.146848 0.3715,-0.183547 0.59222,-0.40026 0.83797,-0.726631 0.56871,-0.624555 0.77033,-1.390919 0.89113,-2.203685 0.10903,-1.021928 0.0982,-2.051811 0.0996,-3.078129 0.003,-1.037802 0.0814,-2.083604 -0.29786,-3.067686 -0.11423,-0.425054 -1.05631,-0.687641 -0.76753,-0.562442 0,0 -0.4941,-0.0737 -0.4941,-0.0737 l 0,0 c 0.80776,-0.02861 1.31757,-0.117312 1.76075,0.617997 0.3724,0.992541 0.30089,2.041408 0.29578,3.085883 -8e-4,1.028739 0.0111,2.060977 -0.0978,3.085394 -0.12031,0.819025 -0.31808,1.598171 -0.89113,2.228215 -0.62599,0.858831 -1.4999,1.123137 -2.55991,0.89625 -0.90253,-0.299951 -1.5378,-0.973239 -1.84963,-1.874519 -0.25506,-0.799508 -0.53059,-1.583775 -0.59417,-2.429994 -0.0593,-1.066125 0.20713,-2.120765 0.72445,-3.054712 0.73958,-1.132645 1.63949,-2.106131 2.88402,-2.693458 0,0 0.49647,0.05519 0.49647,0.05519 z"
       inkscape:connector-curvature="0"
       transform="translate(0,852.36215)" />
    <path
       style="opacity:0.33628319;fill:#000080;fill-opacity:1;stroke:#000080;stroke-width:0.89999998;stroke-miterlimit:4;stroke-opacity:1;stroke-dasharray:none"
       id="path3012"
       d="m 155.0725,92.6386 c -0.45103,-0.545302 -1.14962,-0.912228 -1.88043,-0.768962 -0.0477,0.0093 -0.0354,0.0995 -0.0779,0.123127 -0.17863,0.09945 -0.37753,0.157031 -0.5663,0.235547 -1.03432,0.498892 -1.6913,1.510187 -2.77641,1.906917 -0.27165,-0.0015 -0.54643,0.03671 -0.81495,-0.0044 -0.54825,-0.08393 -0.93953,-1.213337 -1.12867,-1.617551 -0.5409,-1.011429 -1.02966,-1.599493 -2.22682,-1.618935 -0.0401,0.03818 -0.0692,0.0932 -0.12032,0.114534 -0.22718,0.09482 -0.47568,0.132401 -0.70221,0.228782 -1.15628,0.491952 -2.17032,1.324559 -3.18024,2.052561 -1.46939,1.074412 -2.9213,2.229523 -4.58763,2.986161 -1.35791,0.485096 -2.26314,0.123171 -3.16425,-0.896541 -0.91624,-1.255722 -2.06569,-2.268286 -3.35445,-3.121519 -1.59427,-1.014858 -2.74568,-0.731326 -4.40743,-0.101559 -2.22456,0.868524 -4.11971,2.321819 -6.06701,3.66437 -0.9185,0.569348 -1.78328,1.399316 -2.8686,1.650284 -0.55197,0.127638 -1.06129,0.01108 -1.62253,-0.04282 -1.35849,-0.533611 -1.9621,-2.024259 -2.75823,-3.154066 -1.1707,-1.711553 -2.49373,-2.527427 -4.51133,-2.90047 -2.24157,-0.127745 -4.34475,0.83064 -6.34931,1.722549 -2.010354,0.980397 -4.057976,1.883255 -6.220741,2.46476 -1.812214,0.373531 -2.995312,-0.03471 -4.411169,-1.084353 -1.068979,-0.858185 -1.946,-1.917382 -3.056822,-2.723042 -1.138072,-0.605412 -2.159606,0.06844 -3.18058,0.623022 -1.440449,0.924096 -2.948689,1.749776 -4.629798,2.113669 -1.971866,0.180793 -3.80868,-0.480898 -5.636644,-1.104725 -0.784204,-0.268579 -1.61455,-0.503908 -2.455382,-0.422353 -0.301573,0.02925 -1.093975,0.6048 -1.336382,0.777808 -0.152747,0.153878 -0.305494,0.307757 -0.458241,0.461635 0,0 -0.494636,-0.03855 -0.494636,-0.03855 l 0,0 c 0.153095,-0.156636 0.30619,-0.313271 0.459285,-0.469907 0.311819,-0.227369 0.755779,-0.601158 1.15097,-0.691933 1.216672,-0.279467 2.468083,-0.08831 3.623019,0.322309 1.501958,0.512878 3.058208,1.139098 4.658445,1.098626 1.682541,-0.34898 3.191545,-1.173442 4.628201,-2.099388 1.288714,-0.707044 2.728705,-1.364227 4.166133,-0.616822 1.104834,0.812421 1.984241,1.869222 3.056086,2.723333 1.030739,0.755458 2.115383,1.373706 3.429236,1.066351 2.165204,-0.57451 4.214937,-1.473864 6.22487,-2.456436 2.34009,-1.044828 4.69285,-1.998741 7.32016,-1.73434 2.02026,0.390417 3.34528,1.221102 4.5169,2.938028 0.78977,1.123186 1.39463,2.609023 2.75857,3.115149 0.14979,0.247181 0.0659,0.173103 0.63763,0.05081 1.08894,-0.232929 1.95606,-1.070815 2.87324,-1.636477 1.95067,-1.340674 3.84322,-2.800538 6.06674,-3.676101 1.77563,-0.687475 3.70811,-0.990564 5.38666,0.112115 1.28915,0.859228 2.43628,1.879166 3.35886,3.133845 0.31032,0.343911 0.3989,0.491463 0.77813,0.737561 0.12812,0.08315 0.28796,0.114987 0.40672,0.211038 0.0267,0.02159 -0.055,0.09488 -0.0212,0.100811 0.36458,0.064 0.67335,-0.07371 1.01189,-0.173569 1.67282,-0.741131 3.12284,-1.903725 4.59232,-2.975581 1.52896,-1.104123 3.00719,-2.376372 4.98297,-2.42597 1.19638,0.05208 1.69535,0.65816 2.23273,1.673452 0.18743,0.396799 0.37552,0.829198 0.64397,1.181001 0.0697,0.09129 0.14854,0.17722 0.23852,0.248571 0.0724,0.05744 0.20571,0.04886 0.24314,0.133389 0.0238,0.05381 -0.11697,0.01296 -0.17546,0.01944 1.0992,-0.36931 1.74735,-1.398281 2.77874,-1.903464 1.19545,-0.515348 2.61477,-0.64983 3.51652,0.434577 0,0 -0.49865,0.0337 -0.49865,0.0337 z"
       inkscape:connector-curvature="0"
       transform="translate(0,852.36215)" />
    <path
       style="opacity:0.33628319000000001;fill:#000080;fill-opacity:1;stroke:#000000;stroke-width:0.89999998000000003;stroke-miterlimit:4;stroke-opacity:1;stroke-dasharray:none"
       id="path3014"
       d="m 48.66366,80.762947 c 2.36579,-0.01585 4.720641,-0.344818 7.063217,-0.650791 3.912007,-0.479599 7.835468,-0.849761 11.769253,-1.090964 4.706722,-0.340384 9.419121,-0.5839 14.121838,-0.979167 4.713173,-0.431739 9.401318,-1.042412 14.056931,-1.892172 3.675299,-0.676462 7.292691,-1.610535 10.816081,-2.852922 1.65334,-0.621266 3.58606,-1.113063 4.67623,-2.609415 0.51486,-0.981202 -0.0231,-1.656691 -0.80388,-2.24644 -1.05371,-0.476315 -2.32194,-0.762532 -3.48504,-0.653214 -1.40861,0.03952 -2.7188,0.542418 -3.93453,1.220665 -1.05392,0.661486 -1.47171,1.71501 -1.53756,2.914506 0.14997,1.541609 1.59556,2.22967 2.81602,2.888585 2.09813,0.995165 4.37895,1.465916 6.62684,1.9838 2.5866,0.584974 5.22686,0.813285 7.87351,0.737321 2.80883,-0.07125 5.60428,-0.405185 8.38816,-0.767306 2.55983,-0.344004 5.14053,-0.45342 7.71988,-0.515053 2.84002,-0.05121 5.64481,0.376753 8.43837,0.826757 2.29738,0.38157 4.54855,0.919939 6.71488,1.777726 1.03069,0.401453 2.01546,0.903503 3.03844,1.323197 0,0 -0.49209,0.05833 -0.49209,0.05833 l 0,0 c -1.02003,-0.42232 -2.00408,-0.922681 -3.03343,-1.323052 -2.16556,-0.852219 -4.41547,-1.387118 -6.71022,-1.767672 -2.47659,-0.398821 -4.96019,-0.782228 -7.47465,-0.820224 -2.57901,0.06054 -5.15953,0.1675 -7.71921,0.509947 -2.78495,0.362376 -5.58118,0.698766 -8.39103,0.772276 -2.9684,0.04376 -5.93349,-0.03964 -8.83571,-0.746904 -2.25116,-0.518313 -4.53511,-0.993185 -6.63329,-1.996327 -1.239,-0.672173 -2.67922,-1.378494 -2.82379,-2.944122 0.0661,-1.212076 0.4811,-2.287069 1.54148,-2.964247 1.21469,-0.686108 2.52801,-1.197678 3.93917,-1.243993 1.50796,-0.02851 3.09728,-0.03115 4.47013,0.683328 0.79353,0.61501 1.3215,1.320053 0.80391,2.323186 -1.08434,1.516367 -3.02653,2.016736 -4.69179,2.63786 -3.5268,1.245117 -7.147974,2.180904 -10.827128,2.859131 -4.656578,0.851342 -9.345623,1.463492 -14.059932,1.896359 -4.701555,0.396531 -9.412905,0.639478 -14.118497,0.98077 -3.931135,0.239755 -7.851768,0.609681 -11.761065,1.088823 -2.337615,0.307552 -4.687629,0.636653 -7.048353,0.659524 0,0 -0.493145,-0.07811 -0.493145,-0.07811 z"
       inkscape:connector-curvature="0"
       transform="translate(0,852.36215)" />
    <path
       style="opacity:0.33628319;fill:#000080;fill-opacity:1;stroke:#000000;stroke-width:0.89999998;stroke-miterlimit:4;stroke-opacity:1;stroke-dasharray:none"
       id="path3016"
       d="m 50.25261,46.314233 c -0.01385,1.288807 -0.05889,2.57889 0.22847,3.84338 0.02558,0.05514 0.137194,0.1719 0.07675,0.165422 -0.115834,-0.01241 -0.262788,-0.07653 -0.294157,-0.188722 -0.02914,-0.104236 0.112104,-0.18531 0.162851,-0.280909 0.20806,-0.391956 0.358138,-0.806905 0.556752,-1.203923 0.778113,-0.947156 1.598099,-0.425844 2.149064,0.375998 0.279609,0.294168 0.425686,0.687918 0.696648,0.987812 0.327251,0.362191 0.553677,0.248052 0.412054,0.245633 -0.112932,-0.0019 -0.222191,-0.04075 -0.333287,-0.06112 0.480022,-0.38479 0.847807,-0.797232 1.476933,-0.940211 1.265255,-0.04004 1.437033,0.539967 1.942513,1.530249 0.198872,0.507598 0.08849,0.262877 0.329123,0.735078 0,0 -0.499142,0.0234 -0.499142,0.0234 l 0,0 c -0.239221,-0.475831 -0.129169,-0.231059 -0.329024,-0.734823 -0.173025,-0.335975 -0.348818,-0.720475 -0.575411,-1.024217 -0.07028,-0.09421 -0.151719,-0.182275 -0.245535,-0.253083 -0.08884,-0.06705 -0.237854,-0.06017 -0.295592,-0.155334 -0.03066,-0.05052 0.112776,-0.03536 0.169164,-0.05304 -0.641685,0.119467 -1.003351,0.529996 -1.474066,0.932845 -0.221352,0.02073 -0.441777,0.06642 -0.664058,0.06218 -0.541917,-0.01033 -0.767023,-0.988215 -1.108658,-1.265026 -0.189524,-0.268569 -0.253672,-0.405898 -0.514177,-0.604442 -0.07931,-0.06045 -0.22504,-0.05281 -0.261281,-0.145716 -0.02361,-0.06051 0.244653,-0.06944 0.192403,-0.03085 -0.874463,0.645788 0.26651,-0.507806 -0.569342,0.397897 -0.106633,0.210946 -0.958538,2.636506 -1.500137,1.495833 -0.276456,-1.269873 -0.237342,-2.561786 -0.22898,-3.854317 0,0 0.500119,0 0.500119,0 z"
       inkscape:connector-curvature="0"
       transform="translate(0,852.36215)" />
    <path
       style="opacity:0.33628319;fill:#000080;fill-opacity:1;stroke:#000000;stroke-width:0.89999998;stroke-miterlimit:4;stroke-opacity:1;stroke-dasharray:none"
       id="path3018"
       d="m 61.80888,48.843743 c -0.134325,1.281131 0.0391,2.461496 0.7611,3.535907 0.775217,0.785001 1.124929,0.840319 1.934683,0.306891 0.662656,-0.812406 0.857917,-1.899251 0.820823,-2.924309 -0.07617,-0.605722 -0.182674,-1.206623 -0.263639,-1.811749 0,0 0.498706,-0.0066 0.498706,-0.0066 l 0,0 c 0.08146,0.606664 0.18885,1.209102 0.263362,1.816654 0.03509,1.042703 -0.165032,2.137653 -0.82241,2.974694 -0.941085,0.653426 -2.168079,0.554871 -2.927918,-0.326358 -0.718031,-1.089692 -0.894166,-2.280626 -0.764689,-3.573343 0,0 0.499982,0.0083 0.499982,0.0083 z"
       inkscape:connector-curvature="0"
       transform="translate(0,852.36215)" />
    <path
       style="opacity:0.33628319;fill:#000080;fill-opacity:1;stroke:#000000;stroke-width:0.89999998;stroke-miterlimit:4;stroke-opacity:1;stroke-dasharray:none"
       id="path3020"
       d="m 69.505856,38.73396 c 0.260927,1.824231 0.326125,3.668182 0.382729,5.507695 0.05053,2.031236 0.05743,4.063221 0.06224,6.094979 0.02054,0.222446 0.04108,0.444891 0.06162,0.667337 0,0 -0.495863,0.0045 -0.495863,0.0045 l 0,0 c -0.01989,-0.223913 -0.03977,-0.447827 -0.05966,-0.67174 -0.0014,-2.031276 -0.0064,-4.062796 -0.05811,-6.093536 -0.05748,-1.837384 -0.122397,-3.680045 -0.392944,-5.500956 0,0 0.499983,-0.0083 0.499983,-0.0083 z"
       inkscape:connector-curvature="0"
       transform="translate(0,852.36215)" />
    <path
       style="opacity:0.33628319;fill:#000080;fill-opacity:1;stroke:#000000;stroke-width:0.89999998;stroke-miterlimit:4;stroke-opacity:1;stroke-dasharray:none"
       id="path3022"
       d="m 75.566771,37.723807 c 0.375708,2.121406 0.55756,4.266691 0.807568,6.404599 0.317378,2.196587 0.345577,4.425882 0.734237,6.611449 0,0 -0.495089,0.0086 -0.495089,0.0086 l 0,0 c -0.378005,-2.187978 -0.409554,-4.416808 -0.725728,-6.614373 -0.250284,-2.137656 -0.433502,-4.282649 -0.82097,-6.402009 0,0 0.499982,-0.0083 0.499982,-0.0083 z"
       inkscape:connector-curvature="0"
       transform="translate(0,852.36215)" />
    <path
       style="opacity:0.33628319;fill:#000080;fill-opacity:1;stroke:#000000;stroke-width:0.89999998;stroke-miterlimit:4;stroke-opacity:1;stroke-dasharray:none"
       id="path3024"
       d="m 73.856071,44.341064 c 1.503396,-0.215599 2.967675,-0.617867 4.489078,-0.695938 0,0 0.489023,0.07506 0.489023,0.07506 l 0,0 c -1.520607,0.06743 -2.981981,0.47259 -4.482982,0.690936 0,0 -0.495119,-0.07006 -0.495119,-0.07006 z"
       inkscape:connector-curvature="0"
       transform="translate(0,852.36215)" />
    <path
       style="opacity:0.33628319;fill:#000080;fill-opacity:1;stroke:#000000;stroke-width:0.89999998;stroke-miterlimit:4;stroke-opacity:1;stroke-dasharray:none"
       id="path3026"
       d="m 84.920753,45.879667 c -0.582843,1.338515 -0.808615,2.75123 -0.365572,4.153569 0.309979,0.624133 0.981535,1.270457 1.755567,1.048623 0,0 0.490904,0.07502 0.490904,0.07502 l 0,0 c -1.191968,0.03323 -2.174759,0.09913 -2.742778,-1.108598 -0.437836,-1.415022 -0.217707,-2.836683 0.363504,-4.188802 0,0 0.498375,0.02019 0.498375,0.02019 z"
       inkscape:connector-curvature="0"
       transform="translate(0,852.36215)" />
    <path
       style="opacity:0.33628319;fill:#000080;fill-opacity:1;stroke:#000000;stroke-width:0.89999998;stroke-miterlimit:4;stroke-opacity:1;stroke-dasharray:none"
       id="path3028"
       d="m 94.059122,46.866446 c 0.852389,-0.226657 1.708799,-0.431929 2.572849,-0.608659 0,0 0.491013,0.0677 0.491013,0.0677 l 0,0 c -0.863278,0.174646 -1.719876,0.375191 -2.568744,0.611018 0,0 -0.495118,-0.07006 -0.495118,-0.07006 z"
       inkscape:connector-curvature="0"
       transform="translate(0,852.36215)" />
    <path
       style="opacity:0.33628319;fill:#000080;fill-opacity:1;stroke:#000000;stroke-width:0.89999998;stroke-miterlimit:4;stroke-opacity:1;stroke-dasharray:none"
       id="path3030"
       d="m 103.40582,45.357553 c 0.61396,1.728947 0.95059,3.533624 1.32946,5.323737 0.0558,0.918412 0.73979,2.867288 0.31943,3.721237 -0.2065,-0.120207 -0.48338,-0.16425 -0.61952,-0.360622 -0.14003,-0.20198 -0.0884,-0.483523 -0.13323,-0.725177 -0.0618,-0.333294 -0.13076,-0.66531 -0.18653,-0.999664 -0.23238,-1.393243 -0.37084,-2.792314 -0.50053,-4.197977 0.002,-2.174968 -0.70373,-4.566401 0.1125,-6.663716 0.85656,-1.054884 1.70032,0.106029 2.06087,0.900256 0.50377,1.202874 0.10472,2.237431 -0.52434,3.282938 -0.10585,0.132381 -0.21169,0.264762 -0.31754,0.397143 0,0 -0.49701,-0.03379 -0.49701,-0.03379 l 0,0 c 0.10589,-0.130124 0.21179,-0.260248 0.31768,-0.390372 0.62478,-1.031325 1.02942,-2.044655 0.5239,-3.23449 -0.18693,-0.401884 -0.19961,-0.516382 -0.48977,-0.833842 -0.0868,-0.095 -0.26949,-0.127878 -0.28997,-0.254941 -0.0137,-0.08532 0.27266,-0.0459 0.22943,-0.120727 -0.10016,-0.173367 -0.59879,0.253573 -0.51653,0.306564 -0.8385,2.079463 -0.11629,4.478217 -0.12495,6.640496 0.1308,1.404477 0.27054,2.801845 0.50734,4.193302 0.0569,0.334391 0.12672,0.666457 0.1904,0.999624 0.0458,0.239484 0.19244,0.480673 0.13797,0.718331 -0.0387,0.168799 -0.25536,0.233987 -0.38304,0.350981 0.42656,-0.663497 -0.25493,-2.914662 -0.30828,-3.685314 -0.37778,-1.789708 -0.71496,-3.594266 -1.3366,-5.320094 0,0 0.49886,-0.01389 0.49886,-0.01389 z"
       inkscape:connector-curvature="0"
       transform="translate(0,852.36215)" />
    <path
       style="opacity:0.33628319;fill:#000080;fill-opacity:1;stroke:#000000;stroke-width:0.89999998;stroke-miterlimit:4;stroke-opacity:1;stroke-dasharray:none"
       id="path3032"
       d="m 112.02253,42.960398 c -1.14337,-0.0295 -2.24064,0.401195 -3.14518,1.086845 -0.77455,0.951697 -0.41936,1.364389 0.61378,1.667457 0.96159,0.254171 1.83494,-0.234445 2.52952,-0.869531 0.26907,-0.33771 0.54964,-0.712645 0.4629,-1.175983 -0.0651,-0.347962 -0.32755,-0.387536 -0.31165,-0.399517 0.0833,-0.06274 0.20771,0.01834 0.31156,0.02751 -0.37697,0.615861 0.33574,1.632829 0.63657,2.166998 0.44073,0.720906 1.05711,1.274873 1.69366,1.814808 0,0 -0.49475,0.04294 -0.49475,0.04294 l 0,0 c -0.63831,-0.544803 -1.25438,-1.106227 -1.69491,-1.832299 -0.3367,-0.598387 -1.00654,-1.571214 -0.63744,-2.267587 0.22838,4.44e-4 0.46015,-0.03795 0.68512,0.0013 0.6693,0.116879 0.14808,1.406714 -0.15498,1.662777 -0.98351,0.920728 -2.18613,1.2203 -3.52012,0.891987 -1.06377,-0.334386 -1.38083,-0.811365 -0.61401,-1.776403 1.21219,-0.937545 2.60936,-1.207446 4.13389,-1.11957 0,0 -0.49396,0.07824 -0.49396,0.07824 z"
       inkscape:connector-curvature="0"
       transform="translate(0,852.36215)" />
    <path
       style="opacity:0.33628319;fill:#000080;fill-opacity:1;stroke:#000000;stroke-width:0.89999998;stroke-miterlimit:4;stroke-opacity:1;stroke-dasharray:none"
       id="path3034"
       d="m 117.66868,44.216663 c 0.65058,0.983466 1.25341,2.027123 1.71983,3.113119 0.03,0.06859 0.06,0.13718 0.09,0.205769 0.0137,0.007 0.0542,0.02912 0.0412,0.02091 -0.18525,-0.116716 -0.42049,-0.176155 -0.55801,-0.346532 -0.14502,-0.179672 -0.20105,-1.253537 -0.21345,-1.494149 -0.0579,-1.184386 0.33571,-2.113253 1.18223,-2.917241 1.01227,-0.764688 2.22091,-1.07506 3.45033,-1.270823 0,0 0.49102,0.06996 0.49102,0.06996 l 0,0 c -1.22565,0.189463 -2.42892,0.49109 -3.44539,1.241454 -0.84731,0.787539 -1.23847,1.700349 -1.18036,2.87407 0.008,0.145424 0.22584,1.464013 0.21549,1.489162 -0.32324,0.784709 -0.45749,0.421184 -0.57208,0.147628 -0.46261,-1.08304 -1.06296,-2.12519 -1.71948,-3.099627 0,0 0.49865,-0.0337 0.49865,-0.0337 z"
       inkscape:connector-curvature="0"
       transform="translate(0,852.36215)" />
    <path
       style="opacity:0.33628319;fill:#000080;fill-opacity:1;stroke:#000000;stroke-width:0.89999998;stroke-miterlimit:4;stroke-opacity:1;stroke-dasharray:none"
       id="path3036"
       d="m 129.16508,32.164057 c 0.73157,1.946208 1.13526,3.987693 1.54789,6.018814 0.42849,2.368634 0.701,4.762708 1.02651,7.147649 0.13225,1.070648 0.0673,0.5836 0.19035,1.46176 0,0 -0.49692,0.0068 -0.49692,0.0068 l 0,0 c -0.11718,-0.878899 -0.0545,-0.391741 -0.18471,-1.461892 -0.32127,-2.384219 -0.59314,-4.777319 -1.02287,-7.144478 -0.41389,-2.029781 -0.81757,-4.071013 -1.55985,-6.012527 0,0 0.4996,-0.01608 0.4996,-0.01608 z"
       inkscape:connector-curvature="0"
       transform="translate(0,852.36215)" />
    <path
       style="opacity:0.33628319;fill:#000080;fill-opacity:1;stroke:#000000;stroke-width:0.89999998;stroke-miterlimit:4;stroke-opacity:1;stroke-dasharray:none"
       id="path3038"
       d="m 126.88866,41.254084 c 1.57837,-0.47697 3.08733,-1.135209 4.62591,-1.720832 0.22502,-0.07384 0.45004,-0.147687 0.67506,-0.22153 0,0 0.49147,0.06203 0.49147,0.06203 l 0,0 c -0.22525,0.07303 -0.4505,0.146058 -0.67575,0.219087 -1.5386,0.581807 -3.04472,1.243972 -4.62073,1.723518 0,0 -0.49596,-0.06227 -0.49596,-0.06227 z"
       inkscape:connector-curvature="0"
       transform="translate(0,852.36215)" />
    <path
       style="opacity:0.33628319;fill:#000080;fill-opacity:1;stroke:#000000;stroke-width:0.89999998;stroke-miterlimit:4;stroke-opacity:1;stroke-dasharray:none"
       id="path3040"
       d="m 136.11558,41.768546 c -0.0707,1.412422 0.052,2.807524 0.22647,4.20672 0.0455,0.192541 0.091,0.385081 0.13652,0.577622 0,0 -0.4968,0.01143 -0.4968,0.01143 l 0,0 c -0.0451,-0.19431 -0.0902,-0.38862 -0.13534,-0.58293 -0.17341,-1.401307 -0.29375,-2.79851 -0.23097,-4.212845 0,0 0.50012,0 0.50012,0 z"
       inkscape:connector-curvature="0"
       transform="translate(0,852.36215)" />
    <path
       style="opacity:0.33628319;fill:#000080;fill-opacity:1;stroke:#000000;stroke-width:0.89999998;stroke-miterlimit:4;stroke-opacity:1;stroke-dasharray:none"
       id="path3042"
       d="m 143.3274,40.604743 c -1.21899,0.703736 -2.30064,1.601095 -3.14221,2.728872 -0.70218,1.365264 -0.46611,2.05978 0.92706,2.643524 1.75902,0.383152 3.3695,-0.535677 4.82587,-1.416049 0,0 0.48749,0.05017 0.48749,0.05017 l 0,0 c -1.79439,1.092342 -3.6505,1.937709 -5.80621,1.423589 -1.40514,-0.616605 -1.63128,-1.351573 -0.92843,-2.732826 0.83865,-1.136569 1.92305,-2.03597 3.13996,-2.752472 0,0 0.49647,0.05519 0.49647,0.05519 z"
       inkscape:connector-curvature="0"
       transform="translate(0,852.36215)" />
    <path
       style="opacity:0.33628319;fill:#000080;fill-opacity:1;stroke:#000000;stroke-width:0.89999998;stroke-miterlimit:4;stroke-opacity:1;stroke-dasharray:none"
       id="path3044"
       d="m 148.29735,30.208666 c 0.25344,2.388494 0.50188,4.777337 0.68513,7.17258 0.19884,2.028153 0.19254,4.137552 0.82952,6.090928 0.0944,0.147885 0.18879,0.295769 0.28318,0.443654 0,0 -0.49703,0.02788 -0.49703,0.02788 l 0,0 c -0.0938,-0.152016 -0.18756,-0.304033 -0.28135,-0.456049 -0.6279,-1.959903 -0.62474,-4.070081 -0.81961,-6.102711 -0.18293,-2.394621 -0.43169,-4.782861 -0.69902,-7.169199 0,0 0.49918,-0.0071 0.49918,-0.0071 z"
       inkscape:connector-curvature="0"
       transform="translate(0,852.36215)" />
    <path
       style="opacity:0.33628319;fill:#000080;fill-opacity:1;stroke:#000000;stroke-width:0.89999998;stroke-miterlimit:4;stroke-opacity:1;stroke-dasharray:none"
       id="path3046"
       d="m 154.66785,41.75916 c 1.28604,-0.663025 2.31972,-1.684298 2.93712,-2.989964 0.47708,-1.46397 -0.16931,-1.996321 -1.59405,-2.054491 -1.63457,0.66646 -2.42289,1.477182 -3.01593,3.140268 -0.38441,2.244409 0.62558,3.413339 2.46682,4.495965 1.10724,0.555781 2.28998,0.704593 3.50935,0.585732 0,0 0.48591,0.0745 0.48591,0.0745 l 0,0 c -1.55597,0.0518 -3.05851,0.143475 -4.48374,-0.609461 -1.85206,-1.107359 -2.85691,-2.300719 -2.47081,-4.56352 0.10035,-0.284666 0.17003,-0.582088 0.30107,-0.853998 0.45848,-0.951349 1.4185,-1.969916 2.48843,-2.216652 0.39492,-0.09107 0.80609,-0.08519 1.20914,-0.127786 1.45384,0.0965 2.07599,0.671548 1.59925,2.15125 -0.61709,1.317879 -1.65235,2.343448 -2.9366,3.030432 0,0 -0.49596,-0.06227 -0.49596,-0.06227 z"
       inkscape:connector-curvature="0"
       transform="translate(0,852.36215)" />
    <path
       style="opacity:0.33628319;fill:#000080;fill-opacity:1;stroke:#000000;stroke-width:0.89999998;stroke-miterlimit:4;stroke-opacity:1;stroke-dasharray:none"
       id="path3048"
       d="m 117.56825,58.730612 c -0.7371,0.404805 -2.1076,0.626378 -2.25745,1.609854 0.56437,0.846212 1.75778,1.019797 2.64723,1.40685 0.64426,0.26946 1.63869,0.619624 1.33756,1.474582 -0.42517,0.570872 -1.10341,0.727363 -1.77717,0.768697 0,0 -0.49301,-0.07558 -0.49301,-0.07558 l 0,0 c 0.66147,-0.02511 1.3321,-0.169537 1.76919,-0.710796 0.31265,-0.810703 -0.74704,-1.144789 -1.33028,-1.399242 -0.90231,-0.387652 -2.13445,-0.566649 -2.65473,-1.471965 0.15002,-1.017527 1.49425,-1.245817 2.26271,-1.664672 0,0 0.49595,0.06227 0.49595,0.06227 z"
       inkscape:connector-curvature="0"
       transform="translate(0,852.36215)" />
    <path
       style="opacity:0.33628319;fill:#000080;fill-opacity:1;stroke:#000000;stroke-width:0.89999998;stroke-miterlimit:4;stroke-opacity:1;stroke-dasharray:none"
       id="path3050"
       d="m 121.08386,51.862032 c 0.46251,1.799041 0.99375,3.577575 1.5095,5.36165 0.56152,1.787149 1.10321,3.578614 1.7103,5.350888 0.0974,0.535969 0.42677,1.031119 0.44029,1.584084 0,0 -0.50376,5.3e-4 -0.50376,5.3e-4 l 0,0 c 0.003,-0.546211 -0.34477,-1.039327 -0.43056,-1.568336 -0.6049,-1.77338 -1.1455,-3.565659 -1.70641,-5.35336 -0.51644,-1.783998 -1.0454,-3.563224 -1.51896,-5.359376 0,0 0.4996,-0.01608 0.4996,-0.01608 z"
       inkscape:connector-curvature="0"
       transform="translate(0,852.36215)" />
    <path
       style="opacity:0.33628319;fill:#000080;fill-opacity:1;stroke:#000000;stroke-width:0.89999998;stroke-miterlimit:4;stroke-opacity:1;stroke-dasharray:none"
       id="path3052"
       d="m 130.25649,58.337594 c -0.9279,0.82835 -1.85599,1.671144 -1.87196,2.985649 0.11621,0.485145 0.54044,1.041576 1.12771,0.845396 0.0407,-0.01359 -0.0776,-0.09022 -0.0467,-0.119943 0.11461,-0.110087 0.27687,-0.15608 0.4153,-0.234121 0.81124,-0.591628 1.44087,-1.440604 1.34611,-2.478849 0.46085,-0.09552 -0.31803,-0.268724 -0.21162,-0.247393 0.13046,0.02615 0.29597,-0.0053 0.38891,0.08993 0.0538,0.05508 -0.0779,0.135123 -0.0963,0.209845 -0.0574,0.232496 0.002,0.313994 0.0683,0.543498 0.25379,0.87266 0.91126,1.405897 1.70662,1.770339 0.43802,0.238123 0.91913,0.353766 1.41434,0.389803 0.15751,0.01146 0.29527,-0.113261 0.44704,-0.156927 0,0 0.49468,0.06363 0.49468,0.06363 l 0,0 c -0.95564,0.298542 -1.96011,0.209797 -2.85157,-0.240067 -0.80045,-0.380417 -1.45624,-0.93049 -1.71168,-1.813062 -0.21463,-0.780757 0.32473,-1.533515 0.85118,-0.613952 0.0883,1.056559 -0.52618,1.922419 -1.35016,2.535295 -0.90782,0.537201 -2.18767,0.670203 -2.49044,-0.544094 0.0196,-1.331073 0.93307,-2.184713 1.87253,-3.029704 0,0 0.49778,0.04472 0.49778,0.04472 z"
       inkscape:connector-curvature="0"
       transform="translate(0,852.36215)" />
    <path
       style="opacity:0.33628319;fill:#000080;fill-opacity:1;stroke:#000000;stroke-width:0.89999998;stroke-miterlimit:4;stroke-opacity:1;stroke-dasharray:none"
       id="path3054"
       d="m 136.681,51.360867 c 0.3856,1.567104 0.69222,3.150739 1.08662,4.716299 0.39734,1.528046 0.78669,3.059454 1.31333,4.548432 0.20682,0.66919 0.72594,0.715638 -0.0925,0.455985 0,0 0.5025,0.0024 0.5025,0.0024 l 0,0 c -0.75057,0.322273 -0.59512,0.285649 -0.90655,-0.441558 -0.52385,-1.491008 -0.91051,-3.024408 -1.30896,-4.553113 -0.39515,-1.567203 -0.70143,-3.153027 -1.09441,-4.720195 0,0 0.49998,-0.0083 0.49998,-0.0083 z"
       inkscape:connector-curvature="0"
       transform="translate(0,852.36215)" />
    <path
       style="opacity:0.33628319;fill:#000080;fill-opacity:1;stroke:#000000;stroke-width:0.89999998;stroke-miterlimit:4;stroke-opacity:1;stroke-dasharray:none"
       id="path3056"
       d="m 133.51597,54.442072 c 1.72532,-0.269232 3.46809,-0.474969 5.18185,-0.812577 0,0 0.48939,0.06771 0.48939,0.06771 l 0,0 c -1.71124,0.342368 -3.45424,0.540988 -5.17709,0.81596 0,0 -0.49415,-0.07109 -0.49415,-0.07109 z"
       inkscape:connector-curvature="0"
       transform="translate(0,852.36215)" />
    <path
       style="opacity:0.33628319;fill:#000080;fill-opacity:1;stroke:#000000;stroke-width:0.89999998;stroke-miterlimit:4;stroke-opacity:1;stroke-dasharray:none"
       id="path3058"
       d="m 118.29282,55.068497 c 1.63535,0.312603 3.2818,0.231939 4.93118,0.156917 0.37501,-0.01711 0.75001,-0.03422 1.12501,-0.05133 0,0 0.484,0.07439 0.484,0.07439 l 0,0 c -0.37487,0.01713 -0.74975,0.03426 -1.12462,0.05139 -1.97331,0.09105 -3.954,0.180501 -5.91068,-0.161306 0,0 0.49511,-0.07006 0.49511,-0.07006 z"
       inkscape:connector-curvature="0"
       transform="translate(0,852.36215)" />
    <path
       style="opacity:0.33628319;fill:#000080;fill-opacity:1;stroke:#000000;stroke-width:0.89999998;stroke-miterlimit:4;stroke-opacity:1;stroke-dasharray:none"
       id="path3060"
       d="m 145.89879,56.689345 c 0.34038,-0.892617 0.60587,-2.07092 -0.35251,-2.643416 -0.12475,-0.0081 -0.25342,-0.05622 -0.37426,-0.02421 -0.0406,0.01076 0.10226,0.07764 0.0702,0.104759 -0.1298,0.109618 -0.31784,0.127451 -0.45829,0.223029 -0.50032,0.340454 -0.77197,0.844123 -1.04592,1.361896 -0.5625,1.405449 -0.50485,2.293152 0.40456,3.494398 0.85921,0.760779 2.24095,1.366405 3.3991,1.011637 1.00166,-0.23216 0.50802,-0.0864 1.48062,-0.438312 0,0 0.49075,0.06018 0.49075,0.06018 l 0,0 c -0.97321,0.359589 -0.47923,0.209755 -1.4816,0.450622 -1.60413,0.09942 -3.15797,0.160761 -4.38451,-1.05215 -0.90947,-1.219957 -0.96722,-2.130119 -0.40534,-3.550417 0.59558,-1.14062 1.38165,-1.968731 2.80227,-1.691732 0.94287,0.627403 0.70185,1.788845 0.35397,2.716868 0,0 -0.499,-0.02315 -0.499,-0.02315 z"
       inkscape:connector-curvature="0"
       transform="translate(0,852.36215)" />
    <path
       style="opacity:0.33628319;fill:#000080;fill-opacity:1;stroke:#000000;stroke-width:0.89999998;stroke-miterlimit:4;stroke-opacity:1;stroke-dasharray:none"
       id="path3062"
       d="m 154.94348,53.118251 c -1.23582,0.125236 -2.38274,0.536334 -3.27398,1.415217 -0.60442,1.183475 1.44578,1.246537 2.15139,1.339243 1.48289,0.326643 3.06492,0.231837 4.49018,0.783217 1.09364,0.820129 -0.27265,1.469237 -0.97893,1.86168 -1.0371,0.474223 -2.06168,0.978449 -3.18237,1.214819 0,0 -0.49278,-0.06789 -0.49278,-0.06789 l 0,0 c 1.12302,-0.222429 2.1439,-0.731139 3.18219,-1.199694 0.65794,-0.36094 2.06036,-0.983236 0.97785,-1.748959 -1.42836,-0.532772 -3.00409,-0.450376 -4.48532,-0.772353 -0.77526,-0.105732 -2.77829,-0.190943 -2.15914,-1.449301 0.88699,-0.890129 2.03326,-1.320624 3.27579,-1.446038 0,0 0.49512,0.07006 0.49512,0.07006 z"
       inkscape:connector-curvature="0"
       transform="translate(0,852.36215)" />
    <path
       style="opacity:0.33628319;fill:#000080;fill-opacity:1;stroke:#000000;stroke-width:0.89999998;stroke-miterlimit:4;stroke-opacity:1;stroke-dasharray:none"
       id="path3064"
       d="m 136.47557,110.12181 c 1.21341,0.0668 2.49963,0.49058 3.71727,0.3246 0.2134,-0.0193 0.42681,-0.0386 0.64021,-0.058 0,0 0.49087,0.0731 0.49087,0.0731 l 0,0 c -0.21373,0.0202 -0.42745,0.0404 -0.64117,0.0605 -1.57531,0.0335 -3.1451,-0.0769 -4.7023,-0.33024 0,0 0.49512,-0.0701 0.49512,-0.0701 z"
       inkscape:connector-curvature="0"
       transform="translate(0,852.36215)" />
    <path
       style="opacity:0.33628319;fill:#000080;fill-opacity:1;stroke:#000000;stroke-width:0.89999998;stroke-miterlimit:4;stroke-opacity:1;stroke-dasharray:none"
       id="path3066"
       d="m 151.20738,100.36152 c -0.36442,1.75923 -1.11308,3.40356 -1.90917,5.00309 -0.66724,1.41075 -1.66987,2.63821 -2.34523,4.03928 -0.30474,0.92521 0.50764,1.05183 1.22971,1.14058 0.47209,-0.005 0.96519,0.10219 1.43693,0.0449 0.0249,-0.003 -0.0711,-0.0495 -0.0476,-0.0584 0.27122,-0.10301 0.56869,-0.11523 0.85267,-0.17463 0.83041,-0.22726 1.4243,-0.67875 1.87078,-1.40617 0.168,-0.40069 0.19197,-0.37041 0.23404,-0.78548 0.0306,-0.30153 -0.0342,-0.36544 -0.028,-0.36407 0.51727,0.11513 0.4331,0.1051 0.44392,0.47435 0.11944,0.98278 0.23661,1.96001 0.42611,2.93203 0.21641,1.10185 0.3037,2.21681 0.53329,3.31575 0.0702,0.38027 0.14147,0.7593 0.25655,1.12857 0,0 -0.50169,0.0148 -0.50169,0.0148 l 0,0 c -0.11009,-0.37181 -0.18128,-0.75205 -0.2525,-1.13313 -0.22901,-1.09921 -0.31575,-2.21448 -0.53244,-3.31643 -0.19004,-0.97469 -0.30898,-1.9548 -0.43045,-2.94009 -0.013,-0.42799 -0.10741,-0.40663 0.56056,-0.4885 0.0412,-0.005 0.0549,0.4503 -0.0398,0.77418 -0.042,0.14368 -0.11405,0.27683 -0.17108,0.41524 -0.4453,0.74131 -1.03616,1.20604 -1.87474,1.44684 -1.06614,0.22364 -2.14259,0.3133 -3.23057,0.19196 -0.75887,-0.10304 -1.54267,-0.28838 -1.23255,-1.23466 0.67529,-1.40254 1.68127,-2.62899 2.35136,-4.03967 0.79524,-1.59349 1.54393,-3.23325 1.9,-4.98864 0,0 0.49998,0.008 0.49998,0.008 z"
       inkscape:connector-curvature="0"
       transform="translate(0,852.36215)" />
    <path
       style="opacity:0.33628319;fill:#000080;fill-opacity:1;stroke:#000000;stroke-width:0.89999998;stroke-miterlimit:4;stroke-opacity:1;stroke-dasharray:none"
       id="path3068"
       d="m 158.90436,109.44464 c 0.37922,1.12319 0.40757,2.36325 0.94492,3.42794 0.0481,0.0423 0.20811,0.12013 0.1444,0.12678 -0.1321,0.0138 -0.3123,0.009 -0.38527,-0.10162 -0.0546,-0.083 0.10659,-0.1683 0.14861,-0.25832 0.19442,-0.41643 0.2955,-0.88122 0.44073,-1.3159 0.1876,-0.69308 1.19621,-1.96142 1.89411,-0.93623 0.24847,0.78378 0.32873,1.6042 0.74363,2.32826 0.0502,0.0427 0.2148,0.14323 0.15064,0.12813 -0.12007,-0.0282 -0.2878,-0.0536 -0.32867,-0.17001 -0.0355,-0.10101 0.12412,-0.1752 0.17422,-0.26981 0.20015,-0.37794 0.29884,-0.81266 0.43851,-1.21459 0.34135,-0.82894 1.0864,-1.40405 1.93814,-0.70859 0.60579,0.72879 0.81812,1.63668 1.10125,2.51493 0,0 -0.49772,0.0155 -0.49772,0.0155 l 0,0 c -0.27985,-0.86956 -0.48978,-1.77246 -1.10225,-2.48502 -0.97121,-0.7215 0.17709,0.23502 -0.0156,-0.25656 -0.11694,-0.2984 -1.08342,0.92702 -0.92561,0.93638 -0.17578,0.50604 -0.53448,2.26858 -1.43269,1.53529 -0.40318,-0.72718 -0.49104,-1.54269 -0.7444,-2.32266 -0.25186,-0.32938 -0.18714,-0.11711 0.1448,-0.2814 0.076,-0.0376 -0.17343,0.0171 -0.24782,0.0579 -0.42494,0.23286 -0.62295,0.72534 -0.79285,1.14457 -0.1647,0.49301 -0.45359,2.32375 -1.34565,1.55599 -0.52382,-1.07609 -0.56423,-2.31429 -0.94546,-3.44267 0,0 0.49999,-0.008 0.49999,-0.008 z"
       inkscape:connector-curvature="0"
       transform="translate(0,852.36215)" />
    <path
       style="opacity:0.33628319;fill:#000080;fill-opacity:1;stroke:#000000;stroke-width:0.89999998;stroke-miterlimit:4;stroke-opacity:1;stroke-dasharray:none"
       id="path3070"
       d="m 166.156,102.30043 c 0.7222,1.0661 0.8312,2.23383 0.68891,3.47563 -0.0985,0.83488 -1.08542,1.80777 -0.2733,2.45796 1.25741,0.20885 2.54543,-0.32739 3.7531,-0.66821 0,0 0.4878,0.0635 0.4878,0.0635 l 0,0 c -1.51637,0.43124 -3.15521,1.00655 -4.73968,0.64803 -0.8032,-0.72171 0.1535,-1.63068 0.27512,-2.50699 0.14224,-1.22964 0.0357,-2.38601 -0.69059,-3.43623 0,0 0.49864,-0.0337 0.49864,-0.0337 z"
       inkscape:connector-curvature="0"
       transform="translate(0,852.36215)" />
    <path
       style="opacity:0.33628319;fill:#000080;fill-opacity:1;stroke:#000000;stroke-width:0.89999998;stroke-miterlimit:4;stroke-opacity:1;stroke-dasharray:none"
       id="path3072"
       d="m 193.69386,109.00411 c 0.002,1.27779 -0.0762,2.61852 0.44799,3.81298 0.0491,0.0505 0.20645,0.11289 0.14747,0.15141 -0.0888,0.058 -0.25549,0.0458 -0.31559,-0.0416 -0.045,-0.0654 0.13029,-0.0947 0.17854,-0.15779 0.0651,-0.0851 0.10662,-0.18579 0.15663,-0.28047 0.23705,-0.44883 0.17427,-0.33557 0.3671,-0.85687 0.24771,-0.61676 0.35706,-2.08837 1.18283,-2.24509 0.20886,0.0503 0.44032,0.0439 0.62658,0.15089 0.1916,0.11011 0.23041,1.71079 0.23763,1.94676 0.0841,0.18721 -0.0373,0.4023 0.0123,0.59406 0.006,0.0222 0.0789,0.0463 0.0608,0.0322 -0.11995,-0.0928 -0.32343,-0.12364 -0.36687,-0.26891 -0.042,-0.14056 0.11444,-0.27034 0.16436,-0.4083 0.0579,-0.16007 0.10598,-0.32353 0.15897,-0.4853 0.34536,-0.83773 0.67996,-1.93297 1.61074,-2.2595 0.27191,0.0173 0.54985,-0.008 0.81572,0.0519 0.68094,0.15248 1.00057,1.45129 1.17465,1.97847 0.40508,0.96215 0.52608,2.04765 1.11048,2.92628 0,0 -0.49899,0.0289 -0.49899,0.0289 l 0,0 c -0.57132,-0.89126 -0.70682,-1.97055 -1.10847,-2.93926 -0.17037,-0.51129 -0.33809,-1.01861 -0.64718,-1.46746 -0.0697,-0.10126 -0.14567,-0.20073 -0.23849,-0.28136 -0.0849,-0.0737 -0.23968,-0.0742 -0.28775,-0.17575 -0.0266,-0.0561 0.11784,-0.0392 0.17676,-0.0588 -0.93972,0.2735 -1.26735,1.3947 -1.60965,2.21225 -0.008,0.0248 -0.26384,0.85035 -0.32081,0.90039 -0.83447,0.73285 -0.68437,0.11755 -0.70507,-0.3783 -0.0173,-0.54845 -0.003,-1.13374 -0.14782,-1.6684 -0.0225,-0.0832 -0.14553,-0.17369 -0.0924,-0.24156 0.08,-0.10215 0.24788,-0.0768 0.37182,-0.11522 -0.70062,-0.002 -1.01475,1.67696 -1.1825,2.18857 -0.19602,0.53984 -0.69169,2.08294 -1.53096,1.18816 -0.51036,-1.2068 -0.44301,-2.54728 -0.44812,-3.8333 0,0 0.4993,0 0.4993,0 z"
       inkscape:connector-curvature="0"
       transform="translate(0,852.36215)" />
    <path
       style="opacity:0.33628319;fill:#000080;fill-opacity:1;stroke:#000000;stroke-width:0.89999998;stroke-miterlimit:4;stroke-opacity:1;stroke-dasharray:none"
       id="path3074"
       d="m 204.16633,99.450705 c 1.22242,-0.01088 2.33164,0.322475 2.76297,1.547295 0.0507,1.07287 -0.58235,1.96751 -1.17977,2.79905 -0.41648,0.62717 -0.93651,1.4178 -0.15575,1.9419 1.01558,0.37307 2.01926,0.19452 3.05195,0.0104 0.25696,-0.0719 0.51392,-0.1438 0.77089,-0.2157 0,0 0.48998,0.0638 0.48998,0.0638 l 0,0 c -0.25708,0.0735 -0.51415,0.14698 -0.77123,0.22047 -1.3242,0.24341 -2.74215,0.42768 -4.04018,-0.0313 -0.76693,-0.5731 -0.28248,-1.36334 0.15737,-2.02063 0.58845,-0.81717 1.22482,-1.69422 1.17796,-2.75088 -0.22846,-0.62919 -0.61258,-1.046051 -1.25419,-1.288927 -0.53459,-0.202364 -0.48724,0.04103 -0.51604,-0.197273 0,0 -0.49396,-0.07824 -0.49396,-0.07824 z"
       inkscape:connector-curvature="0"
       transform="translate(0,852.36215)" />
    <path
       style="opacity:0.33628319;fill:#000080;fill-opacity:1;stroke:#000000;stroke-width:0.89999998;stroke-miterlimit:4;stroke-opacity:1;stroke-dasharray:none"
       id="path3076"
       d="m 35.98938,13.492315 c -0.537366,1.81192 -0.664101,3.706776 -0.78061,5.582713 -0.08256,1.64705 -0.111643,3.296314 -0.115304,4.945266 5.05e-4,0.03225 0.02941,0.112929 0.0015,0.09674 -0.162328,-0.09418 -0.373484,-0.175711 -0.440064,-0.351173 -0.08069,-0.212642 0.821509,-1.843467 0.966043,-2.069833 1.030251,-1.18026 1.723596,-1.374649 3.236761,-1.269611 0.983849,0.342362 1.41753,1.119322 1.353204,2.12544 -0.461749,1.096312 -1.574641,1.542106 -2.636002,1.875565 -0.73875,0.168735 -1.651629,0.375571 -2.300363,-0.118971 0,0 0.498396,-0.04708 0.498396,-0.04708 l 0,0 c 0.08726,0.0604 0.198913,0.09571 0.261788,0.181212 0.02099,0.02854 -0.104401,0.07651 -0.06922,0.08065 0.361589,0.04258 0.775156,-0.08313 1.116851,-0.158704 1.047083,-0.320742 2.153307,-0.747347 2.629173,-1.815952 0.06668,-0.987407 -0.377333,-1.738686 -1.347896,-2.051367 0.153539,-0.157096 0.167873,-0.145386 -0.388162,-0.0048 -0.744789,0.188249 -1.373903,0.650048 -1.858959,1.232013 -0.114503,0.176777 -0.244843,0.344251 -0.343509,0.530332 -0.118654,0.223777 -0.494259,1.387622 -0.617925,1.519988 -0.598502,0.640605 -0.568319,0.520493 -0.561457,0.245264 0.01783,-1.649801 0.03968,-3.299994 0.125408,-4.947972 0.116242,-1.879942 0.24328,-3.777282 0.770735,-5.595762 0,0 0.499593,0.01608 0.499593,0.01608 z"
       inkscape:connector-curvature="0"
       transform="translate(0,852.36215)" />
    <path
       style="opacity:0.33628319;fill:#000080;fill-opacity:1;stroke:#000000;stroke-width:0.89999998;stroke-miterlimit:4;stroke-opacity:1;stroke-dasharray:none"
       id="path3078"
       d="m 45.382534,19.533614 c 0.443531,0.702891 0.533706,1.660007 0.860472,2.352389 -0.204804,-0.102758 -0.450778,-0.147874 -0.614413,-0.308272 -0.331289,-0.324737 -0.162864,-1.874257 -0.07369,-2.290577 0.370187,-1.218237 1.350802,-1.928109 2.393417,-2.552443 0.213892,-0.105522 0.427784,-0.211044 0.641676,-0.316566 0,0 0.492232,0.05511 0.492232,0.05511 l 0,0 c -0.213721,0.104185 -0.427442,0.20837 -0.641164,0.312556 -1.033896,0.61349 -2.015771,1.307404 -2.388125,2.511916 -0.102952,0.475198 -0.180119,0.943206 -0.123576,1.432629 0.01702,0.147289 0.05694,0.291108 0.09147,0.435301 0.03186,0.133071 0.153871,0.26736 0.107623,0.396141 -0.0612,0.170414 -0.257895,0.254236 -0.386842,0.381355 -0.291787,-0.784 -0.426592,-1.646646 -0.858071,-2.386381 0,0 0.498997,-0.02315 0.498997,-0.02315 z"
       inkscape:connector-curvature="0"
       transform="translate(0,852.36215)" />
    <path
       style="opacity:0.33628319;fill:#000080;fill-opacity:1;stroke:#000000;stroke-width:0.89999998;stroke-miterlimit:4;stroke-opacity:1;stroke-dasharray:none"
       id="path3080"
       d="m 53.423568,20.344816 c -1.122016,0.286212 -2.18119,0.762864 -2.679067,1.858254 -0.111995,0.407259 -0.169909,0.833058 0.07317,1.209955 0.161634,0.250621 0.748363,0.413226 0.467292,0.378703 0.946215,-0.241402 1.206112,-1.126588 1.380247,-1.981326 -0.03726,-0.672854 -0.242741,-1.864245 0.836284,-0.498333 0.478729,0.579874 1.072218,1.036463 1.777475,1.292731 0,0 -0.494996,0.06025 -0.494996,0.06025 l 0,0 c -0.704468,-0.273555 -1.302289,-0.732547 -1.781987,-1.319642 -0.266039,-0.339691 -0.31728,-0.228286 0.134946,-0.504801 0.01598,-0.0098 -0.01775,0.03419 -0.019,0.05288 -0.02091,0.312371 0.120534,0.611389 0.0457,0.926867 -0.175396,0.871809 -0.437663,1.768746 -1.385012,2.049146 -0.295145,-0.0022 -0.592721,0.03127 -0.885435,-0.0066 -0.779912,-0.100888 -0.81377,-1.126838 -0.64678,-1.680867 0.491847,-1.110159 1.544383,-1.612648 2.681217,-1.899505 0,0 0.495957,0.06227 0.495957,0.06227 z"
       inkscape:connector-curvature="0"
       transform="translate(0,852.36215)" />
    <path
       style="opacity:0.33628319;fill:#000080;fill-opacity:1;stroke:#000000;stroke-width:0.89999998;stroke-miterlimit:4;stroke-opacity:1;stroke-dasharray:none"
       id="path3082"
       d="m 61.303804,18.034091 c -0.20161,1.485035 -0.381908,2.981 -0.330035,4.481058 0.0107,0.102965 0.06321,0.771753 0.130739,0.945377 0.02297,0.05906 0.18576,0.164526 0.126584,0.141849 -0.488043,-0.187028 -0.237618,-0.218945 -0.06515,-0.559869 0.07527,-0.148785 0.129767,-0.307197 0.19465,-0.460795 0.477581,-1.114974 0.976054,-2.225744 1.711487,-3.195768 0.724818,-0.656035 1.804532,-0.877031 2.447121,0.01866 0.334681,0.651242 0.609111,1.26167 1.18593,1.732412 0,0 -0.497555,0.04375 -0.497555,0.04375 l 0,0 c -0.567988,-0.48111 -0.847366,-1.095357 -1.187711,-1.744411 -0.06825,-0.09009 -0.122594,-0.192639 -0.204739,-0.270263 -0.07736,-0.0731 -0.22655,-0.07685 -0.266841,-0.175359 -0.02279,-0.05573 0.225274,-0.06187 0.16585,-0.07157 -0.439969,-0.0718 -0.845306,0.236254 -1.14623,0.499137 -0.739126,0.962654 -1.233837,2.071694 -1.709511,3.183142 -0.03249,0.07841 -0.292669,0.767242 -0.41242,0.839927 -1.02234,0.620521 -0.880785,-0.261486 -0.966958,-0.924537 -0.05049,-1.50341 0.130897,-3.001623 0.324805,-4.491002 0,0 0.499983,0.0083 0.499983,0.0083 z"
       inkscape:connector-curvature="0"
       transform="translate(0,852.36215)" />
    <path
       style="opacity:0.33628319;fill:#000080;fill-opacity:1;stroke:#000000;stroke-width:0.89999998;stroke-miterlimit:4;stroke-opacity:1;stroke-dasharray:none"
       id="path3084"
       d="m 76.152377,17.933617 c -1.576881,1.033801 -2.877741,2.355206 -3.690696,4.061437 -0.517065,1.584061 -0.534048,2.575017 1.343119,2.740078 0.09421,-0.0304 0.188428,-0.0608 0.282642,-0.09119 0,0 0.489229,0.07157 0.489229,0.07157 l 0,0 c -0.42086,0.03077 -0.841719,0.06154 -1.262579,0.0923 -0.219235,-0.02486 -0.445444,-0.01434 -0.657704,-0.07457 -1.261801,-0.358028 -1.055393,-1.823675 -0.686875,-2.760016 0.810488,-1.713827 2.110182,-3.043157 3.686154,-4.088585 0,0 0.49671,0.04897 0.49671,0.04897 z"
       inkscape:connector-curvature="0"
       transform="translate(0,852.36215)" />
    <path
       style="opacity:0.33628319;fill:#000080;fill-opacity:1;stroke:#000000;stroke-width:0.89999998;stroke-miterlimit:4;stroke-opacity:1;stroke-dasharray:none"
       id="path3086"
       d="m 79.606982,8.9954629 c 0.328333,2.0578631 0.544991,4.1300711 0.808724,6.1968411 0.294923,2.041528 0.465651,4.096035 0.589746,6.153891 0.0097,0.154015 0.0047,0.309666 0.02913,0.462046 0.01191,0.07439 0.02915,0.155153 0.07877,0.211837 0.02044,0.02335 0.117546,-4.89e-4 0.09149,-0.01735 -0.126376,-0.08177 -0.343715,-0.05381 -0.410184,-0.188868 -0.0051,-0.01041 0.295162,-0.751347 0.345793,-0.877333 0.511602,-1.129472 0.943974,-2.304721 1.939736,-3.096179 1.420227,-0.540406 1.823256,0.653643 2.248842,1.708811 0.328976,0.849645 0.798708,1.616373 1.356063,2.331351 0,0 -0.49501,0.03269 -0.49501,0.03269 l 0,0 C 85.634404,21.192178 85.163337,20.421324 84.832974,19.56824 84.62998,19.068167 84.46983,18.491758 84.080265,18.095603 c -0.09364,-0.09522 -0.262873,-0.120117 -0.320299,-0.240693 -0.02678,-0.05623 0.237952,-0.07147 0.176534,-0.06116 -0.121965,0.02047 -0.239639,0.06124 -0.359459,0.09186 -1.007003,0.770289 -1.429316,1.947789 -1.939454,3.069841 -0.06821,0.17137 -0.137797,0.342199 -0.204634,0.51411 -0.04698,0.120841 -0.03726,0.281039 -0.136804,0.364106 -0.743983,0.620811 -0.762555,0.05499 -0.785942,-0.48459 -0.115528,-2.057124 -0.289932,-4.110131 -0.582595,-6.150573 -0.264042,-2.067016 -0.481031,-4.139265 -0.819814,-6.1959563 0,0 0.499184,-0.00708 0.499184,-0.00708 z"
       inkscape:connector-curvature="0"
       transform="translate(0,852.36215)" />
    <path
       style="opacity:0.33628319;fill:#000080;fill-opacity:1;stroke:#000000;stroke-width:0.89999998;stroke-miterlimit:4;stroke-opacity:1;stroke-dasharray:none"
       id="path3088"
       d="m 102.53814,15.461013 c -1.17757,1.555757 -2.13152,3.263859 -3.073002,4.968167 -0.523584,1.121672 -1.493832,2.645281 -0.887981,3.935652 0.08009,0.170575 0.224713,0.302561 0.337069,0.453841 1.177294,0.724395 2.416154,0.06935 3.588664,-0.36161 0,0 0.48607,0.05943 0.48607,0.05943 l 0,0 c -1.42798,0.531288 -3.146589,1.221463 -4.570991,0.333447 -0.112436,-0.157561 -0.257209,-0.296468 -0.337308,-0.472681 -0.596033,-1.311246 0.359008,-2.833566 0.895654,-3.972754 0.940945,-1.70567 1.895325,-3.413393 3.063175,-4.977187 0,0 0.49865,0.0337 0.49865,0.0337 z"
       inkscape:connector-curvature="0"
       transform="translate(0,852.36215)" />
    <path
       style="opacity:0.33628319;fill:#000080;fill-opacity:1;stroke:#000000;stroke-width:0.89999998;stroke-miterlimit:4;stroke-opacity:1;stroke-dasharray:none"
       id="path3090"
       d="m 110.0534,17.484054 c -0.90941,1.10365 -1.60231,2.386812 -1.87913,3.794304 -0.20086,0.695802 1.1173,1.602151 1.53556,1.164035 1.59853,-0.515468 2.46027,-1.762965 3.08269,-3.241393 0.55185,-1.266311 0.61984,-2.647945 0.66275,-4.007784 0,0 0.49511,0.0016 0.49511,0.0016 l 0,0 c -0.0445,1.36542 -0.11346,2.753398 -0.66456,4.02581 -0.62433,1.491912 -1.48356,2.74765 -3.08383,3.293021 -1.03883,0.07505 -2.53255,0.197582 -2.5247,-1.244946 0.27953,-1.416069 0.97349,-2.705172 1.87841,-3.823804 0,0 0.4977,0.03917 0.4977,0.03917 z"
       inkscape:connector-curvature="0"
       transform="translate(0,852.36215)" />
    <path
       style="opacity:0.33628319;fill:#000080;fill-opacity:1;stroke:#000000;stroke-width:0.89999998;stroke-miterlimit:4;stroke-opacity:1;stroke-dasharray:none"
       id="path3092"
       d="m 117.04325,6.9102439 c 0.57227,1.7988905 0.91779,3.6379471 1.13671,5.5095071 0.21607,2.223437 0.23865,4.459623 0.25964,6.691646 0.005,1.153238 -0.0226,0.61016 0.0661,1.629962 0,0 -0.4952,0.0042 -0.4952,0.0042 l 0,0 c -0.0849,-1.023838 -0.0589,-0.479476 -0.0628,-1.633736 -0.0174,-2.230308 -0.0401,-4.464734 -0.25738,-6.686352 -0.21973,-1.868689 -0.56531,-3.7056591 -1.14667,-5.4991441 0,0 0.4996,-0.01608 0.4996,-0.01608 z"
       inkscape:connector-curvature="0"
       transform="translate(0,852.36215)" />
    <path
       style="opacity:0.33628319;fill:#000080;fill-opacity:1;stroke:#000000;stroke-width:0.89999998;stroke-miterlimit:4;stroke-opacity:1;stroke-dasharray:none"
       id="path3094"
       d="m 114.82815,11.005513 c 1.92083,-0.17867 3.83557,-0.401876 5.75285,-0.61667 1.05716,-0.09835 2.11361,-0.177394 3.16881,-0.29536 0,0 0.48546,0.07132 0.48546,0.07132 l 0,0 c -1.05523,0.11981 -2.11158,0.198729 -3.16913,0.295356 -1.91443,0.213558 -3.82571,0.440533 -5.74384,0.616451 0,0 -0.49415,-0.07109 -0.49415,-0.07109 z"
       inkscape:connector-curvature="0"
       transform="translate(0,852.36215)" />
    <path
       style="opacity:0.33628319;fill:#000080;fill-opacity:1;stroke:#000000;stroke-width:0.89999998;stroke-miterlimit:4;stroke-opacity:1;stroke-dasharray:none"
       id="path3096"
       d="m 129.69008,14.788977 c -1.23543,0.495533 -2.56451,1.04327 -3.20602,2.273135 -0.237,1.177355 0.837,1.851678 1.67332,2.446365 0.84603,0.647093 1.76966,1.194351 2.06788,2.271027 -0.005,1.170299 -1.15192,1.721849 -2.06202,2.188575 -1.0374,0.467489 -2.16525,0.757417 -3.26118,0.304378 0,0 0.4954,-0.05933 0.4954,-0.05933 l 0,0 c 0.15224,0.05825 0.27949,0.214634 0.44237,0.208402 0.64684,-0.02475 1.24306,-0.256343 1.83057,-0.50787 0.88744,-0.448684 2.03946,-0.980352 2.05589,-2.120501 -0.30125,-1.059513 -1.23182,-1.596917 -2.06283,-2.237555 -0.8591,-0.614652 -1.92208,-1.31228 -1.67648,-2.517191 0.63665,-1.246347 1.9624,-1.805332 3.20715,-2.311705 0,0 0.49595,0.06227 0.49595,0.06227 z"
       inkscape:connector-curvature="0"
       transform="translate(0,852.36215)" />
    <path
       style="opacity:0.33628319;fill:#000080;fill-opacity:1;stroke:#000000;stroke-width:0.89999998;stroke-miterlimit:4;stroke-opacity:1;stroke-dasharray:none"
       id="path3098"
       d="m 139.08555,11.973176 c -0.0686,0.787585 0.0474,1.919631 0.98328,2.084799 -0.0726,-0.0273 -0.22295,-0.0045 -0.2179,-0.0819 0.007,-0.102421 0.17521,-0.115021 0.23612,-0.197632 0.2925,-0.396716 0.11127,-0.798842 -0.23977,-1.042064 -0.68332,-0.118276 0.21864,-0.191825 -0.64573,0.04586 0,0 -0.49477,-0.06414 -0.49477,-0.06414 l 0,0 c 0.5319,-0.161427 1.11024,-0.279235 1.63939,-0.02828 0.79125,0.630031 0.21873,1.578575 -0.77368,1.435881 -0.93001,-0.241369 -1.05497,-1.337691 -0.98692,-2.160777 0,0 0.49998,0.0083 0.49998,0.0083 z"
       inkscape:connector-curvature="0"
       transform="translate(0,852.36215)" />
    <path
       style="opacity:0.33628319;fill:#000080;fill-opacity:1;stroke:#000000;stroke-width:0.89999998;stroke-miterlimit:4;stroke-opacity:1;stroke-dasharray:none"
       id="path3100"
       d="m 138.51986,21.068459 c -0.2004,0.830903 -0.86603,2.159278 -0.0986,2.874579 -0.10816,-0.007 -0.24276,0.05026 -0.32447,-0.02094 -0.0501,-0.04366 0.11239,-0.07616 0.15085,-0.13035 0.0551,-0.07754 0.0917,-0.16749 0.12403,-0.256901 0.14872,-0.410773 0.10978,-0.732627 0.008,-1.146023 -0.0658,-0.110586 -0.13149,-0.221171 -0.19723,-0.331757 0,0 0.49901,-0.02634 0.49901,-0.02634 l 0,0 c 0.0659,0.115395 0.13172,0.230791 0.19758,0.346186 0.0652,0.272664 0.17644,1.539196 -0.2853,1.623376 -0.22054,0.04021 -0.44818,-0.01186 -0.67227,-0.01779 -0.73604,-0.780799 -0.11787,-2.052176 0.0992,-2.930114 0,0 0.49959,0.01608 0.49959,0.01608 z"
       inkscape:connector-curvature="0"
       transform="translate(0,852.36215)" />
    <path
       style="opacity:0.33628319;fill:#000080;fill-opacity:1;stroke:#000000;stroke-width:0.89999998;stroke-miterlimit:4;stroke-opacity:1;stroke-dasharray:none"
       id="path3102"
       d="m 193.69386,127.69193 c 0.033,2.20736 -0.19257,4.40659 -0.31108,6.60902 -0.12512,3.09369 -0.15299,6.18681 -0.33886,9.2778 -0.16917,2.48222 -0.27525,4.96773 -0.33394,7.45483 0.0116,1.23432 -0.25689,2.53259 0.40227,3.63894 0.61144,0.63645 1.56842,0.87896 2.43513,0.77862 2.34481,-0.21411 4.69632,-0.30878 7.04932,-0.37009 3.53071,-0.11507 7.06486,0.0144 10.58487,0.29355 2.73275,0.15736 5.41928,0.76091 8.15302,0.88729 0,0 -0.48619,0.0746 -0.48619,0.0746 l 0,0 c -2.7298,-0.13735 -5.41369,-0.73228 -8.14327,-0.89027 -3.20235,-0.25126 -6.41717,-0.40466 -9.62943,-0.29058 -2.3495,0.0608 -4.69797,0.152 -7.03889,0.37128 -1.19684,0.0231 -2.54245,0.14017 -3.42275,-0.82795 -0.64824,-1.12287 -0.39233,-2.42034 -0.396,-3.66659 0.0634,-2.48766 0.17123,-4.97375 0.34206,-7.45654 0.18609,-3.09085 0.21453,-6.1838 0.33705,-9.27747 0.11552,-2.20148 0.34209,-4.40018 0.29739,-6.60644 0,0 0.4993,0 0.4993,0 z"
       inkscape:connector-curvature="0"
       transform="translate(0,852.36215)" />
    <path
       style="opacity:0.33628319;fill:#000080;fill-opacity:1;stroke:#000000;stroke-width:0.89999998;stroke-miterlimit:4;stroke-opacity:1;stroke-dasharray:none"
       id="path3104"
       d="m 191.49216,127.64309 c -0.81326,1.64328 -1.64897,3.27898 -2.68393,4.79484 -0.15319,0.22254 -0.30107,0.44884 -0.45958,0.66763 -0.19631,0.27098 -0.39085,0.50623 -0.60281,0.75862 -0.0215,0.0256 -0.0422,0.0992 -0.066,0.0757 -0.43322,-0.42726 -0.21658,-0.41979 0.0924,-0.88329 1.0459,-1.60174 2.05049,-3.22411 3.00547,-4.88176 0.70606,-1.18256 1.68534,-2.40045 3.12659,-1.45313 0.99952,1.21488 2.11043,2.29975 3.33353,3.28938 0,0 -0.49064,0.0438 -0.49064,0.0438 l 0,0 c -1.22125,-0.99157 -2.32525,-2.08206 -3.3389,-3.28318 -0.13462,-0.0828 -0.2973,-0.1318 -0.40386,-0.24855 -0.0294,-0.0322 0.13768,-0.0978 0.0948,-0.0901 -0.89143,0.15865 -1.372,1.10091 -1.83029,1.76755 -0.95633,1.65687 -1.95953,3.28037 -3.00071,4.88509 -0.44427,0.67474 -0.19896,0.50902 -1.09066,0.81715 -0.0318,0.011 0.0473,-0.0481 0.0694,-0.0735 0.38944,-0.44786 0.75054,-0.91994 1.06971,-1.4209 1.03815,-1.51009 1.87284,-3.14381 2.67659,-4.78842 0,0 0.499,0.0232 0.499,0.0232 z"
       inkscape:connector-curvature="0"
       transform="translate(0,852.36215)" />
    <path
       style="opacity:0.33628319;fill:#000080;fill-opacity:1;stroke:#000000;stroke-width:0.89999998;stroke-miterlimit:4;stroke-opacity:1;stroke-dasharray:none"
       id="path3106"
       d="m 230.24653,158.71475 c 0.99419,-1.96827 2.03218,-3.91374 3.05182,-5.86906 1.45561,-3.00853 2.86437,-6.0393 4.33856,-9.03881 1.22484,-2.63039 2.65472,-5.15855 4.11335,-7.66461 0.21164,-0.32481 1.08012,-2.23739 1.62922,-2.11323 0.23717,0.0536 0.46215,0.15143 0.69322,0.22714 0.51234,1.13687 1.11661,2.2286 1.69552,3.33239 1.0958,1.92177 2.32495,3.76011 3.51084,5.62598 1.15504,1.91841 2.42901,3.76526 3.76173,5.56411 0.80026,1.14404 1.72446,2.24898 1.98358,3.6523 -0.0104,1.46187 -1.10656,2.28133 -2.31178,2.8646 -2.49526,0.8289 -5.15985,0.74821 -7.75297,0.65373 -2.71668,-0.1744 -5.39324,-0.6812 -8.08875,-1.0338 -1.3085,-0.14693 -0.68655,-0.0564 -1.86733,-0.26117 0,0 0.48859,-0.0689 0.48859,-0.0689 l 0,0 c 1.17761,0.20145 0.55711,0.11151 1.86292,0.25981 2.69349,0.3551 5.36885,0.86064 8.08436,1.02979 2.27525,0.0802 4.59616,0.0979 6.78257,-0.6349 1.19009,-0.5635 2.28954,-1.35833 2.30474,-2.80008 -0.25968,-1.39392 -1.18499,-2.49138 -1.97651,-3.63013 -1.33036,-1.80127 -2.6034,-3.64917 -3.75924,-5.56773 -1.18744,-1.86709 -2.4177,-3.70699 -3.51541,-5.6298 -0.57916,-1.10033 -1.17801,-2.19092 -1.70262,-3.31855 0.10109,-0.0631 0.24325,-0.0863 0.30327,-0.18921 0.0827,-0.14183 -0.33812,0.078 -0.45156,0.19673 -0.51154,0.53524 -0.81167,1.24047 -1.18468,1.86677 -1.46421,2.5031 -2.89801,5.02959 -4.12213,7.66071 -1.47433,2.99921 -2.88353,6.02954 -4.33432,9.04014 -1.01697,1.95422 -2.05397,3.89796 -3.038,5.86889 0,0 -0.49899,-0.0231 -0.49899,-0.0231 z"
       inkscape:connector-curvature="0"
       transform="translate(0,852.36215)" />
    <path
       style="opacity:0.33628319;fill:#000080;fill-opacity:1;stroke:#000000;stroke-width:0.89999998;stroke-miterlimit:4;stroke-opacity:1;stroke-dasharray:none"
       id="path3108"
       d="m 244.26185,135.76961 c 0.37214,2.08649 1.16046,4.05483 2.04242,5.9701 1.17171,2.27283 2.70774,4.3299 4.31629,6.30807 0.55802,0.71873 1.21646,1.35176 1.80467,2.04378 0.10151,0.11942 0.19095,0.2486 0.28509,0.37392 0.0318,0.0423 0.14452,0.11906 0.0926,0.12879 -0.20943,0.0392 -0.42577,-0.0177 -0.63865,-0.0265 -1.40709,-1.38183 -2.59048,-2.975 -3.8054,-4.52362 -1.6437,-2.143 -3.18714,-4.35565 -4.51412,-6.70889 -0.23013,-0.31438 -0.40047,-0.67048 -0.62919,-0.98635 -0.0142,-0.0196 -0.08,-0.0528 -0.0576,-0.0439 0.20215,0.0804 0.44345,0.10708 0.59897,0.2592 0.13961,0.13655 0.14067,0.36458 0.22084,0.54266 0.11943,0.26528 0.25178,0.52454 0.37767,0.78681 1.16553,2.49801 2.42225,4.94998 3.84255,7.31284 0.99687,1.61426 1.98661,3.25374 3.28044,4.65242 -0.23108,-0.12476 -0.50425,-0.19194 -0.69324,-0.37427 -0.18873,-0.18209 -0.26164,-0.45466 -0.39807,-0.67864 -0.18783,-0.30835 -0.3808,-0.61354 -0.57458,-0.91818 -0.79478,-1.24943 -1.61505,-2.48257 -2.43116,-3.71808 -1.61435,-2.26134 -3.12987,-4.58963 -4.67533,-6.89741 0.72979,0.39621 -0.7223,-0.74791 -0.44243,-0.71888 0.27791,0.0288 0.55969,0.13173 0.78261,0.30018 0.1938,0.14645 1.42927,2.08803 1.58305,2.31134 1.67776,2.404 3.36659,4.80271 5.12672,7.14751 1.02151,1.30675 0.51767,0.67692 1.50927,1.8913 0,0 -0.48832,0.0334 -0.48832,0.0334 l 0,0 c -0.98914,-1.21596 -0.4865,-0.58538 -1.50567,-1.89351 -1.75811,-2.34779 -3.44812,-4.74689 -5.13041,-7.1492 -0.14641,-0.21158 -1.54758,-2.07688 -1.59252,-2.30552 -0.027,-0.13733 0.086,-0.30857 0.2162,-0.35993 0.25903,-0.10221 -0.0405,1.28466 0.43317,0.71433 1.53506,2.31292 3.05397,4.63683 4.66568,6.89816 0.81805,1.2361 1.64023,2.46983 2.43861,3.71881 0.0101,0.0158 0.9755,1.53203 0.98163,1.60193 0.0154,0.17603 -0.20333,0.28907 -0.30499,0.4336 -1.27097,-1.41833 -2.27557,-3.04277 -3.26508,-4.66318 -1.41968,-2.36599 -2.67633,-4.82057 -3.85074,-7.31693 -0.0423,-0.0875 -0.62329,-1.25463 -0.60655,-1.33527 0.22118,-1.06563 1.08544,0.70356 1.07843,0.72957 1.32315,2.35201 2.86408,4.56287 4.50837,6.70175 1.21464,1.54407 2.3925,3.14525 3.8211,4.50056 -0.12108,0.0376 -0.23653,0.11683 -0.36325,0.11277 -0.0516,-0.002 -0.0574,-0.0858 -0.0882,-0.12726 -0.0924,-0.12432 -0.1814,-0.25155 -0.28142,-0.36986 -0.58609,-0.69329 -1.24137,-1.32849 -1.79888,-2.04693 -1.60731,-1.9832 -3.14433,-4.04362 -4.31536,-6.32038 -0.88381,-1.92076 -1.6723,-3.89395 -2.05437,-5.98405 0,0 0.49919,-0.007 0.49919,-0.007 z"
       inkscape:connector-curvature="0"
       transform="translate(0,852.36215)" />
    <path
       style="opacity:0.33628319;fill:#000080;fill-opacity:1;stroke:#000000;stroke-width:0.89999998;stroke-miterlimit:4;stroke-opacity:1;stroke-dasharray:none"
       id="path3110"
       d="m 236.18652,131.89333 c 0.27636,-1.52646 1.01914,-2.89899 1.76328,-4.24061 0.81672,-1.29317 1.6332,-1.75136 3.14467,-1.10274 1.22209,0.82105 2.29284,1.82614 3.51515,2.65523 1.0082,0.60055 2.07516,1.08149 3.27439,1.03955 0.38875,-0.0136 0.7518,-0.20012 1.12742,-0.30121 1.0533,-0.41307 0.54121,-0.16596 1.53442,-0.74515 0,0 0.4905,0.0512 0.4905,0.0512 l 0,0 c -0.99327,0.58897 -0.48089,0.33761 -1.53512,0.75821 -1.9234,0.53543 -3.69785,0.33643 -5.38235,-0.75461 -1.2196,-0.82996 -2.2874,-1.84033 -3.51887,-2.64477 -0.16126,-0.0652 -0.33306,-0.10883 -0.48379,-0.19565 -0.0214,-0.0123 0.0459,-0.0714 0.0213,-0.0708 -0.81538,0.0212 -1.28873,0.72444 -1.69353,1.33583 -0.74328,1.33482 -1.48775,2.70111 -1.75827,4.2226 0,0 -0.49918,-0.007 -0.49918,-0.007 z"
       inkscape:connector-curvature="0"
       transform="translate(0,852.36215)" />
    <path
       style="opacity:0.33628319;fill:#000080;fill-opacity:1;stroke:#000000;stroke-width:0.89999998;stroke-miterlimit:4;stroke-opacity:1;stroke-dasharray:none"
       id="path3112"
       d="m 263.1524,131.12348 c -1.32291,1.7579 -1.9482,3.91069 -2.56496,5.9905 -0.86464,3.04755 -0.83892,6.18403 -0.37747,9.28828 0.59456,2.49005 1.37157,4.35744 3.56082,5.78482 0.25322,0.0737 0.50643,0.14749 0.75965,0.22124 0,0 -0.4902,0.063 -0.4902,0.063 l 0,0 c -0.2532,-0.0786 -0.5064,-0.1571 -0.7596,-0.23565 -2.1816,-1.44934 -2.96443,-3.32713 -3.55503,-5.8263 -0.46075,-3.11104 -0.48474,-6.2545 0.37657,-9.30938 0.61563,-2.08474 1.23935,-4.2401 2.55157,-6.01024 0,0 0.49865,0.0337 0.49865,0.0337 z"
       inkscape:connector-curvature="0"
       transform="translate(0,852.36215)" />
    <path
       style="opacity:0.33628319;fill:#000080;fill-opacity:1;stroke:#000000;stroke-width:0.89999998;stroke-miterlimit:4;stroke-opacity:1;stroke-dasharray:none"
       id="path3114"
       d="m 270.52541,133.30508 c 0.2678,2.48086 0.36191,4.97792 0.32013,7.47162 -0.0471,2.71038 -0.24774,5.40681 -0.55288,8.09874 -0.0804,0.72993 -0.12162,0.87048 -0.11446,1.54711 0.001,0.13219 -0.004,0.26721 0.0271,0.39565 0.0143,0.0589 0.1648,0.1372 0.10522,0.14817 -0.65995,0.12157 -0.08,-0.4316 -0.0352,-0.49452 0.96314,-2.11322 1.96213,-4.20465 3.06623,-6.24958 0.21626,-0.39495 0.42838,-0.7922 0.64879,-1.18485 0.32553,-0.57992 0.78463,-1.34292 1.11061,-1.94334 0.28598,-0.52674 0.56214,-0.95701 0.32426,-0.83433 0.0989,0.0606 0.29894,0.0658 0.29655,0.18171 -0.003,0.16693 -0.20705,0.26203 -0.30846,0.39468 -0.12942,0.16931 -0.25503,0.34151 -0.384,0.51116 -0.47411,0.62364 -0.9359,1.25485 -1.39877,1.88694 -0.57772,0.89459 -1.85031,1.97035 -1.52365,3.15427 0.5166,0.70656 1.46453,0.96565 2.27067,1.20961 1.01141,0.3088 1.9724,0.7235 2.90885,1.20909 0.1414,0.0415 0.28281,0.083 0.42421,0.12449 0,0 -0.49495,0.0635 -0.49495,0.0635 l 0,0 c -0.1416,-0.0446 -0.28319,-0.0891 -0.42478,-0.13363 -0.93484,-0.48503 -1.89827,-0.89158 -2.9074,-1.20016 -0.81759,-0.253 -1.77738,-0.51752 -2.27704,-1.25992 -0.30927,-1.21394 0.92455,-2.28239 1.53138,-3.19842 0.24997,-0.34156 1.85391,-2.66102 2.08433,-2.8016 0.20879,-0.12739 0.46809,-0.14207 0.70214,-0.2131 0.18613,0.14973 -0.3091,0.88872 -0.33232,0.93109 -0.57533,1.04957 -1.21961,2.0604 -1.76476,3.12689 -1.10457,2.04483 -2.10678,4.13472 -3.0543,6.25554 -1.33774,2.01084 -1.17785,-1.1238 -0.97107,-1.63204 0.31055,-2.68996 0.51394,-5.38481 0.55988,-8.09394 0.0406,-2.49154 -0.0544,-4.98715 -0.33471,-7.46462 0,0 0.49838,-0.006 0.49838,-0.006 z"
       inkscape:connector-curvature="0"
       transform="translate(0,852.36215)" />
    <path
       style="opacity:0.33628319;fill:#000080;fill-opacity:1;stroke:#000000;stroke-width:0.89999998;stroke-miterlimit:4;stroke-opacity:1;stroke-dasharray:none"
       id="path3116"
       d="m 281.43288,132.40948 c 1.26205,0.5149 1.84581,1.16685 1.81923,2.55276 -0.0843,1.2931 -0.73224,2.4367 -1.08369,3.65841 -0.0862,1.09092 0.489,0.79292 1.09646,0.64162 0.8456,-0.2446 0.42265,-0.10584 1.26814,-0.41844 0,0 0.49206,0.06 0.49206,0.06 l 0,0 c -0.84505,0.31728 -0.42231,0.1768 -1.26745,0.4238 -0.82377,0.21777 -2.2568,0.54391 -2.0868,-0.72097 0.35081,-1.21767 0.99884,-2.35669 1.08397,-3.64543 0.0271,-1.36943 -0.57326,-1.99414 -1.81788,-2.48952 0,0 0.49596,-0.0623 0.49596,-0.0623 z"
       inkscape:connector-curvature="0"
       transform="translate(0,852.36215)" />
    <path
       style="opacity:0.33628319;fill:#000080;fill-opacity:1;stroke:#000000;stroke-width:0.89999998;stroke-miterlimit:4;stroke-opacity:1;stroke-dasharray:none"
       id="path3118"
       d="m 286.86904,126.60669 c 1.24214,1.80155 2.1613,3.75482 2.91831,5.79949 1.14357,2.99299 1.55152,6.17286 1.6649,9.3544 0.0781,3.48745 -0.93611,6.77942 -2.26014,9.96079 -0.46297,1.09222 -1.07153,2.10115 -1.73198,3.08109 0,0 -0.49145,-0.0293 -0.49145,-0.0293 l 0,0 c 0.66524,-0.97509 1.2756,-1.98075 1.74033,-3.07088 1.3279,-3.17299 2.33849,-6.45914 2.26166,-9.93995 -0.11469,-3.17691 -0.52376,-6.35152 -1.66965,-9.33884 -0.75913,-2.04181 -1.68045,-3.99316 -2.93024,-5.78744 0,0 0.49826,-0.0293 0.49826,-0.0293 z"
       inkscape:connector-curvature="0"
       transform="translate(0,852.36215)" />
    <path
       style="opacity:0.33628319;fill:#000080;fill-opacity:1;stroke:#000000;stroke-width:0.89999998;stroke-miterlimit:4;stroke-opacity:1;stroke-dasharray:none"
       id="path3120"
       d="m 312.95262,132.67815 c 0.22072,2.05432 0.39302,4.11165 0.67035,6.16032 0.33975,2.21723 0.55451,4.44865 0.71162,6.68518 0.0683,0.10289 0.16415,1.48039 -0.36309,0.5411 -0.0242,-0.0431 0.19642,-0.81683 0.23414,-0.95508 0.28133,-1.38761 0.79655,-2.68245 1.7456,-3.74158 1.05582,-0.83553 1.89473,-1.192 2.95166,-0.1079 0.69696,1.01714 1.06006,2.24452 1.30682,3.44322 0.0326,0.2189 0.0652,0.4378 0.0979,0.65669 0,0 -0.49596,0.007 -0.49596,0.007 l 0,0 c -0.0326,-0.21798 -0.0652,-0.43596 -0.0978,-0.65394 -0.24702,-1.18933 -0.60495,-2.41122 -1.30775,-3.41444 -0.11537,-0.11445 -0.23075,-0.22889 -0.34612,-0.34333 -0.11824,-0.0697 -0.25284,-0.11711 -0.35472,-0.20908 -0.0223,-0.0202 0.11195,-0.0426 0.0825,-0.0367 -0.51894,0.1038 -0.94894,0.33546 -1.34118,0.69459 -0.95458,1.04637 -1.46681,2.33631 -1.74355,3.71831 -0.0483,0.1782 -0.10185,0.35505 -0.1449,0.53459 -0.0335,0.1398 0.0184,0.3227 -0.0847,0.42288 -0.77675,0.75464 -0.58918,-0.19558 -0.63337,-0.55333 -0.14764,-2.23593 -0.3656,-4.4659 -0.70373,-6.68197 -0.27901,-2.04832 -0.45131,-4.10577 -0.6836,-6.15864 0,0 0.49998,-0.008 0.49998,-0.008 z"
       inkscape:connector-curvature="0"
       transform="translate(0,852.36215)" />
    <path
       style="opacity:0.33628319;fill:#000080;fill-opacity:1;stroke:#000000;stroke-width:0.89999998;stroke-miterlimit:4;stroke-opacity:1;stroke-dasharray:none"
       id="path3122"
       d="m 327.67956,142.51675 c -1.12228,0.26503 -2.12696,0.81488 -2.63126,1.88045 -0.32647,1.04984 0.14224,1.91 0.99106,2.51157 0.81522,0.35598 1.58196,-0.36315 2.11054,-1.01839 0.83354,-1.01715 1.05152,-2.2225 1.21861,-3.47963 0.41457,-1.68599 1.36305,0.8959 1.49698,1.24194 0.34515,1.04628 0.62706,2.11628 0.89079,3.18668 0.10463,0.33591 0.2075,0.65039 0.46907,0.88952 0,0 -0.50077,0.0401 -0.50077,0.0401 l 0,0 c -0.24953,-0.25802 -0.36423,-0.57366 -0.46588,-0.91757 -0.26366,-1.06827 -0.54378,-2.1367 -0.89045,-3.18032 -0.0395,-0.10191 -0.59615,-1.35244 -0.59459,-1.37883 0.008,-0.12813 0.17596,-0.18713 0.25783,-0.28598 0.0942,-0.11373 -0.68136,0.66832 -0.16485,0.41116 -0.17316,1.26375 -0.3852,2.48013 -1.22077,3.50637 -0.77214,0.98094 -1.8371,1.5517 -3.10282,1.03204 -0.85422,-0.62801 -1.31983,-1.51204 -0.99258,-2.58043 0.49999,-1.08169 1.50087,-1.64876 2.63397,-1.92872 0,0 0.49512,0.0701 0.49512,0.0701 z"
       inkscape:connector-curvature="0"
       transform="translate(0,852.36215)" />
    <path
       style="opacity:0.33628319;fill:#000080;fill-opacity:1;stroke:#000000;stroke-width:0.89999998;stroke-miterlimit:4;stroke-opacity:1;stroke-dasharray:none"
       id="path3124"
       d="m 339.29711,139.15192 c -1.1421,0.75006 -2.49129,1.24415 -3.35046,2.34222 -0.47254,1.01459 0.50458,1.53195 1.26029,1.96778 0.98709,0.4586 2.12685,0.85118 2.37011,2.02 -0.33715,1.22503 -1.63541,1.68823 -2.69197,2.142 -0.60379,0.26899 -1.22709,0.4383 -1.87504,0.54926 0,0 -0.4924,-0.0698 -0.4924,-0.0698 l 0,0 c 0.6492,-0.10297 1.27136,-0.2689 1.87569,-0.53709 1.03712,-0.44372 2.32375,-0.88415 2.68464,-2.07402 -0.24631,-1.14742 -1.40603,-1.51723 -2.3654,-1.9785 -0.78597,-0.45735 -1.74104,-1.00891 -1.26249,-2.05245 0.85226,-1.1106 2.20299,-1.60811 3.35032,-2.35841 0,0 0.49671,0.049 0.49671,0.049 z"
       inkscape:connector-curvature="0"
       transform="translate(0,852.36215)" />
    <path
       style="opacity:0.33628319;fill:#000080;fill-opacity:1;stroke:#000000;stroke-width:0.89999998;stroke-miterlimit:4;stroke-opacity:1;stroke-dasharray:none"
       id="path3126"
       d="m 360.95432,139.09603 c -1.33586,0.78978 -2.51603,1.79176 -3.38536,3.07946 -0.44173,0.7847 -0.7401,1.72049 0.0472,2.35751 0.73481,0.38648 1.35676,0.06 2.07698,-0.39334 0.78843,-0.58081 0.8901,-1.54119 1.28707,-2.36251 0.74196,-0.57297 1.50069,0.42604 2.0965,0.78954 0.81211,0.50397 1.68454,0.76515 2.61945,0.90692 0,0 -0.48955,0.0698 -0.48955,0.0698 l 0,0 c -0.93634,-0.15154 -1.81212,-0.41887 -2.62544,-0.92605 -0.12704,-0.0792 -1.24557,-0.89149 -1.24165,-0.89835 0.0535,-0.0936 0.22775,-0.0917 0.3212,-0.0379 0.0624,0.0359 -0.12027,0.0793 -0.18041,0.1189 -0.40959,0.82353 -0.50187,1.79731 -1.2917,2.38952 -0.89774,0.58232 -2.06082,0.90745 -3.07087,0.3871 -0.77705,-0.67675 -0.49963,-1.61896 -0.0437,-2.43044 0.86947,-1.29668 2.05194,-2.30026 3.38485,-3.10813 0,0 0.4954,0.058 0.4954,0.058 z"
       inkscape:connector-curvature="0"
       transform="translate(0,852.36215)" />
    <path
       style="opacity:0.33628319;fill:#000080;fill-opacity:1;stroke:#000000;stroke-width:0.89999998;stroke-miterlimit:4;stroke-opacity:1;stroke-dasharray:none"
       id="path3128"
       d="m 379.50185,142.28285 c -0.20652,1.63061 -0.11018,3.30627 0.0344,4.94068 0.20226,1.69957 0.35626,3.40261 0.46837,5.11025 -0.45387,-0.36817 0.22666,0.61818 0.0475,0.56159 -0.22443,-0.0709 -0.47033,-0.16689 -0.60926,-0.35687 -0.0902,-0.12334 -0.36383,-2.31242 -0.38759,-2.47888 -0.30683,-2.67063 -0.46373,-5.36407 -0.40034,-8.05189 0.0495,-1.65733 0.18666,-3.39342 1.45003,-4.58527 0.91829,-0.61496 2.1594,-0.74282 2.95429,0.11938 0.66178,1.03017 -0.0134,1.95365 -0.69533,2.75367 -0.70582,0.77237 -1.55651,1.24225 -2.53713,1.55899 0,0 -0.49112,-0.0624 -0.49112,-0.0624 l 0,0 c 0.98023,-0.30383 1.82759,-0.76498 2.53349,-1.53166 0.66708,-0.77591 1.35503,-1.6774 0.69196,-2.68084 -0.37039,-0.38361 -0.1597,-0.2233 -0.63349,-0.47902 -0.025,-0.0232 0.093,-0.0799 0.059,-0.0838 -0.50742,-0.0585 -0.97214,0.19451 -1.3858,0.44655 -1.2752,1.16627 -1.40388,2.90219 -1.45866,4.54558 -0.0669,2.68517 0.092,5.37624 0.40383,8.04368 0.0224,0.15381 0.4299,2.35932 0.39647,2.47158 -0.0518,0.17385 -0.23079,0.29532 -0.39309,0.37633 -0.16853,0.0841 0.30612,-0.99149 -0.0414,-0.56356 -0.1052,-1.7076 -0.26293,-3.40985 -0.46326,-5.10907 -0.14534,-1.63881 -0.24147,-3.31743 -0.0428,-4.95327 0,0 0.49998,0.008 0.49998,0.008 z"
       inkscape:connector-curvature="0"
       transform="translate(0,852.36215)" />
    <path
       style="opacity:0.33628319;fill:#000080;fill-opacity:1;stroke:#000000;stroke-width:0.89999998;stroke-miterlimit:4;stroke-opacity:1;stroke-dasharray:none"
       id="path3130"
       d="m 387.46175,140.27 c -0.38044,0.88256 -0.55913,2.0091 0.35253,2.59669 0.64173,0.26277 1.31415,-0.39186 1.73247,-1.04195 0.41842,-1.07828 0.0455,-1.98958 -0.94977,-2.50554 -0.1726,-0.0546 -0.3452,-0.10929 -0.5178,-0.16394 0,0 0.49369,-0.0624 0.49369,-0.0624 l 0,0 c 0.17311,0.0575 0.34622,0.11507 0.51933,0.17261 1.00222,0.55014 1.36973,1.48751 0.95158,2.58739 -0.61151,0.97756 -1.54858,1.49715 -2.72708,1.06251 -0.89661,-0.63697 -0.74262,-1.75424 -0.35395,-2.66854 0,0 0.499,0.0232 0.499,0.0232 z"
       inkscape:connector-curvature="0"
       transform="translate(0,852.36215)" />
    <path
       style="opacity:0.33628319;fill:#000080;fill-opacity:1;stroke:#000000;stroke-width:0.89999998;stroke-miterlimit:4;stroke-opacity:1;stroke-dasharray:none"
       id="path3132"
       d="m 393.25935,125.66808 c 0.26742,2.17277 0.32654,4.36397 0.38147,6.55024 -0.1232,2.65224 -0.2212,5.29382 -0.12265,7.94811 0.0982,0.6261 -0.0679,2.34197 0.52088,2.76199 0,0 -0.50038,0.0447 -0.50038,0.0447 l 0,0 c -0.59347,-0.53833 -0.40201,-2.09208 -0.51094,-2.80487 -0.0933,-2.65444 0.006,-5.29633 0.12663,-7.94864 -0.0566,-2.18443 -0.11518,-4.37466 -0.3942,-6.5444 0,0 0.49919,-0.007 0.49919,-0.007 z"
       inkscape:connector-curvature="0"
       transform="translate(0,852.36215)" />
    <path
       style="opacity:0.33628319;fill:#000080;fill-opacity:1;stroke:#000000;stroke-width:0.89999998;stroke-miterlimit:4;stroke-opacity:1;stroke-dasharray:none"
       id="path3134"
       d="m 396.59939,140.24903 c 0.97381,-0.44575 1.97364,-0.99397 2.56951,-1.9109 0.36747,-0.7953 -0.19041,-1.18305 -0.93374,-1.24264 0.0211,0.006 0.0845,0.0131 0.0633,0.0194 -0.94851,0.28366 -1.61558,0.5695 -2.25336,1.36428 -0.81446,1.39707 -0.45959,2.46567 0.63027,3.55464 1.35663,0.99375 2.63478,0.80499 4.16651,0.52469 0,0 0.4856,0.0678 0.4856,0.0678 l 0,0 c -1.74867,0.32973 -3.6239,0.55118 -5.14524,-0.55395 -1.09227,-1.11769 -1.44982,-2.20426 -0.63307,-3.62647 0.80401,-1.02628 1.86888,-1.50626 3.18037,-1.42362 0.77267,0.0934 1.30463,0.53078 0.93793,1.34442 -0.59327,0.93048 -1.59423,1.48475 -2.57217,1.94463 0,0 -0.49595,-0.0623 -0.49595,-0.0623 z"
       inkscape:connector-curvature="0"
       transform="translate(0,852.36215)" />
    <path
       style="opacity:0.33628319;fill:#000080;fill-opacity:1;stroke:#000000;stroke-width:0.89999998;stroke-miterlimit:4;stroke-opacity:1;stroke-dasharray:none"
       id="path3136"
       d="m 285.81998,160.86808 c -1.85218,1.45954 -3.39762,3.23127 -4.83599,5.08689 -1.30042,1.88114 -2.58001,3.94448 -2.91012,6.25594 -0.0535,0.37433 -0.0484,0.7547 -0.0726,1.13206 0.0493,1.76757 0.64999,2.59074 2.19527,3.33798 0,0 -0.49067,0.0549 -0.49067,0.0549 l 0,0 c -1.5481,-0.7706 -2.14928,-1.61747 -2.1941,-3.39605 0.0245,-0.37981 0.0197,-0.76266 0.0736,-1.13942 0.33173,-2.31846 1.61332,-4.38823 2.91503,-6.27733 1.43536,-1.85778 2.9778,-3.63065 4.82174,-5.09972 0,0 0.49778,0.0447 0.49778,0.0447 z"
       inkscape:connector-curvature="0"
       transform="translate(0,852.36215)" />
    <path
       style="opacity:0.33628319;fill:#000080;fill-opacity:1;stroke:#000000;stroke-width:0.89999998;stroke-miterlimit:4;stroke-opacity:1;stroke-dasharray:none"
       id="path3138"
       d="m 296.93166,161.87823 c -1.25506,0.92905 -2.27415,2.09538 -3.16886,3.36512 -0.73552,1.28042 -1.12374,1.77553 -0.17305,3.01812 1.03775,0.84603 2.20691,1.52052 3.3907,2.13982 0.73721,0.46292 1.76808,0.99997 0.79322,1.81671 -0.46739,0.25441 -0.97889,0.40136 -1.48447,0.55642 0,0 -0.4928,-0.0632 -0.4928,-0.0632 l 0,0 c 0.50271,-0.1519 1.00837,-0.29995 1.47926,-0.53788 0.98564,-0.75753 -0.10528,-1.28298 -0.7885,-1.71822 -1.18557,-0.62516 -2.36384,-1.29811 -3.39378,-2.16143 -0.92915,-1.23806 -0.56747,-1.81678 0.17577,-3.08066 0.89416,-1.27281 1.91225,-2.44369 3.16473,-3.37954 0,0 0.49778,0.0447 0.49778,0.0447 z"
       inkscape:connector-curvature="0"
       transform="translate(0,852.36215)" />
    <path
       style="opacity:0.33628319;fill:#000080;fill-opacity:1;stroke:#000000;stroke-width:0.89999998;stroke-miterlimit:4;stroke-opacity:1;stroke-dasharray:none"
       id="path3140"
       d="m 305.25524,163.55588 c -0.28838,1.68522 -0.16737,3.39182 -0.0866,5.08849 0.12906,1.04484 0.0357,0.53668 0.27409,1.52555 0,0 -0.49465,0.0116 -0.49465,0.0116 l 0,0 c -0.23738,-0.99579 -0.14458,-0.48451 -0.2727,-1.53486 -0.0798,-1.69982 -0.19904,-3.40863 0.0806,-5.0979 0,0 0.49918,0.007 0.49918,0.007 z"
       inkscape:connector-curvature="0"
       transform="translate(0,852.36215)" />
    <path
       style="opacity:0.33628319;fill:#000080;fill-opacity:1;stroke:#000000;stroke-width:0.89999998;stroke-miterlimit:4;stroke-opacity:1;stroke-dasharray:none"
       id="path3142"
       d="m 311.55773,164.99558 c 0.77394,1.30329 1.24848,2.74408 1.57524,4.21595 0.16174,0.48327 0.25353,0.99356 0.45599,1.46348 0.0276,0.0641 0.16843,0.2086 0.10392,0.18187 -0.45537,-0.18864 -0.24534,-0.33143 -0.10724,-0.66146 0.30753,-1.2011 0.54693,-2.41992 0.98726,-3.58154 0.57492,-0.97167 1.45972,-0.97386 1.99832,0.0834 0.31261,0.57826 0.48482,1.20764 0.63212,1.84332 0,0 -0.49796,0.0114 -0.49796,0.0114 l 0,0 c -0.14747,-0.63183 -0.32025,-1.257 -0.63339,-1.83079 -0.0592,-0.11193 -0.10493,-0.23202 -0.17745,-0.33579 -0.063,-0.0901 -0.22609,-0.13084 -0.22551,-0.24081 4.5e-4,-0.0856 0.27031,-0.0454 0.22739,-0.1195 -0.16458,-0.2841 -0.9247,0.52635 -0.82712,0.60685 -0.44503,1.16024 -0.68185,2.38046 -0.98511,3.58282 -0.83294,2.08213 -1.28686,-0.42495 -1.4466,-0.99244 -0.3257,-1.46908 -0.80018,-2.90622 -1.57886,-4.20362 0,0 0.499,-0.0232 0.499,-0.0232 z"
       inkscape:connector-curvature="0"
       transform="translate(0,852.36215)" />
    <path
       style="opacity:0.33628319;fill:#000080;fill-opacity:1;stroke:#000000;stroke-width:0.89999998;stroke-miterlimit:4;stroke-opacity:1;stroke-dasharray:none"
       id="path3144"
       d="m 324.26663,165.97374 c -0.63856,0.86524 -1.30885,1.84596 -0.81393,2.92006 0.51338,0.57264 0.79816,0.47788 1.43911,-0.0923 0.45342,-0.5747 0.54957,-1.25532 0.15165,-1.88262 0.15317,0.0786 0.34881,0.10401 0.45952,0.23588 0.0776,0.0924 0.016,0.24146 0.0404,0.35957 0.035,0.16941 0.0866,0.3351 0.1374,0.50045 0.26013,0.84579 0.59546,1.66781 0.9104,2.49396 0.8609,2.28256 1.44865,4.63576 1.63732,7.06759 0.0279,2.10798 -0.37779,3.80715 -2.08125,5.13798 -2.1266,0.91508 -3.12501,-0.0575 -4.07996,-1.84638 -1.04376,-2.58928 -0.61021,-4.5576 0.40856,-7.04481 0,0 0.48718,0.019 0.48718,0.019 l 0,0 c -1.0166,2.47347 -1.45254,4.42692 -0.40458,7.00158 0.5139,0.94902 0.77456,1.28962 1.61643,1.93838 0.0675,0.052 0.10558,0.15864 0.18987,0.17121 0.54107,0.0807 0.80934,-0.0963 1.28988,-0.28409 1.71029,-1.30321 2.11056,-2.99637 2.08539,-5.08907 -0.18781,-2.42763 -0.77688,-4.77607 -1.63931,-7.05346 -0.37406,-0.97563 -0.84526,-1.97708 -1.05733,-3.00672 -0.0253,-0.1228 -0.12028,-0.27585 -0.042,-0.37378 0.12513,-0.15652 0.363,-0.16986 0.54449,-0.25479 0.38483,0.6574 0.30553,1.3496 -0.15578,1.95165 -0.65558,0.61311 -1.80071,0.85362 -2.4365,0.0719 -0.48288,-1.0996 0.16169,-2.08575 0.81439,-2.97487 0,0 0.49865,0.0337 0.49865,0.0337 z"
       inkscape:connector-curvature="0"
       transform="translate(0,852.36215)" />
    <path
       style="opacity:0.33628319;fill:#000080;fill-opacity:1;stroke:#000000;stroke-width:0.89999998;stroke-miterlimit:4;stroke-opacity:1;stroke-dasharray:none"
       id="path3146"
       d="m 330.12441,155.52844 c 0.32434,2.3867 0.58304,4.77683 0.74753,7.18042 0.29966,2.37724 0.34662,4.7857 0.67615,7.15799 0,0 -0.49345,0.007 -0.49345,0.007 l 0,0 c -0.32127,-2.37435 -0.36884,-4.78304 -0.66843,-7.16141 -0.16437,-2.40318 -0.4237,-4.79275 -0.76018,-7.17753 0,0 0.49838,-0.006 0.49838,-0.006 z"
       inkscape:connector-curvature="0"
       transform="translate(0,852.36215)" />
    <path
       style="opacity:0.33628319;fill:#000080;fill-opacity:1;stroke:#000000;stroke-width:0.89999998;stroke-miterlimit:4;stroke-opacity:1;stroke-dasharray:none"
       id="path3148"
       d="m 334.85791,167.86127 c 0.8925,-1.03737 1.62112,-2.20984 2.19505,-3.44982 0.23895,-0.71576 0.46479,-1.7171 -0.55624,-1.73113 0.0558,0.0345 0.19999,0.0466 0.16746,0.10366 -0.0678,0.11879 -0.24598,0.12558 -0.34932,0.21513 -0.1217,0.10545 -0.21905,0.23658 -0.31829,0.36339 -0.4044,0.51674 -0.61276,1.01878 -0.79222,1.64393 -0.19723,1.47098 0.47289,2.55677 1.66064,3.35008 0.22639,0.0744 0.45278,0.14873 0.67916,0.22309 0,0 -0.49142,0.0615 -0.49142,0.0615 l 0,0 c -0.22701,-0.0788 -0.45402,-0.15754 -0.68102,-0.23631 -1.19353,-0.81814 -1.86096,-1.92353 -1.66342,-3.41216 0.18273,-0.64519 0.71052,-2.05103 1.45943,-2.27084 0.26615,-0.0781 0.5492,-0.0782 0.82381,-0.11733 1.02092,0.0874 0.80447,1.08835 0.55719,1.82845 -0.57349,1.24323 -1.30295,2.4185 -2.19217,3.46204 0,0 -0.49864,-0.0337 -0.49864,-0.0337 z"
       inkscape:connector-curvature="0"
       transform="translate(0,852.36215)" />
    <path
       style="opacity:0.33628319;fill:#000080;fill-opacity:1;stroke:#000000;stroke-width:0.89999998;stroke-miterlimit:4;stroke-opacity:1;stroke-dasharray:none"
       id="path3150"
       d="m 356.83391,164.50208 c -0.0346,1.86708 0.13476,3.73432 0.35939,5.58628 0.2196,2.12169 0.75248,4.20379 0.89027,6.33371 -0.44368,-0.33871 0.17838,0.62215 -0.0333,0.63524 -0.20479,0.0127 -0.43618,-0.005 -0.60279,-0.1247 -0.12912,-0.0928 -0.46888,-1.90647 -0.48551,-1.99135 -0.5798,-2.59874 -0.84894,-5.23835 -0.85246,-7.89681 0.10889,-1.46145 0.0842,-3.10881 1.33472,-4.08146 1.05332,-0.46889 1.91557,-0.52779 2.07442,0.77568 -0.0567,1.32357 -0.9446,2.2915 -1.93341,3.07195 0,0 -0.49417,-0.0449 -0.49417,-0.0449 l 0,0 c 0.9817,-0.7619 1.87038,-1.71397 1.92841,-3.0208 -0.0301,-0.23374 -0.0212,-0.50138 -0.18523,-0.69834 -0.0677,-0.0813 -0.22298,-0.0863 -0.25701,-0.1865 -0.0198,-0.0582 0.22841,-0.0685 0.16754,-0.077 -0.29407,-0.041 -0.55119,0.11673 -0.80401,0.22579 -1.26378,0.93922 -1.22897,2.59202 -1.34312,4.03559 -2.2e-4,2.65576 0.26943,5.29262 0.85615,7.88721 0.18451,0.91885 0.13663,0.80326 0.37102,1.58934 0.038,0.12761 0.18645,0.2618 0.12441,0.37963 -0.0664,0.12616 -0.25916,0.14995 -0.40172,0.14697 -0.20788,-0.004 0.84235,-0.99721 0.041,-0.62241 -0.12866,-2.12953 -0.66554,-4.21048 -0.8849,-6.33089 -0.22506,-1.85421 -0.39466,-3.72287 -0.3699,-5.59219 0,0 0.50012,0 0.50012,0 z"
       inkscape:connector-curvature="0"
       transform="translate(0,852.36215)" />
    <path
       style="opacity:0.33628319;fill:#000080;fill-opacity:1;stroke:#000000;stroke-width:0.89999998;stroke-miterlimit:4;stroke-opacity:1;stroke-dasharray:none"
       id="path3152"
       d="m 364.61188,161.87823 c -0.93372,0.78868 -1.57985,1.75229 -1.64977,2.98674 0.083,0.57098 0.68725,1.24344 1.3432,1.09288 0.064,-0.0147 -0.12091,-0.0511 -0.18137,-0.0766 0.68125,-0.44253 0.72717,-1.28293 0.63125,-2.0171 -0.0801,-1.2463 1.17538,0.24722 1.39103,0.52053 0.48443,0.57945 1.12389,0.97575 1.80208,1.28775 0,0 -0.49533,0.0564 -0.49533,0.0564 l 0,0 c -0.67991,-0.32103 -1.32102,-0.72366 -1.80516,-1.31064 -0.038,-0.0473 -0.71923,-0.75047 -0.71123,-0.77281 0.20762,-0.57981 0.42538,0.0244 0.31875,0.21236 0.0949,0.76023 0.0419,1.60614 -0.63512,2.08944 -0.96823,0.0994 -1.95619,0.0803 -2.15643,-1.08509 0.0724,-1.24671 0.71098,-2.22438 1.65032,-3.02862 0,0 0.49778,0.0447 0.49778,0.0447 z"
       inkscape:connector-curvature="0"
       transform="translate(0,852.36215)" />
    <path
       style="opacity:0.33628319;fill:#000080;fill-opacity:1;stroke:#000000;stroke-width:0.89999998;stroke-miterlimit:4;stroke-opacity:1;stroke-dasharray:none"
       id="path3154"
       d="m 372.49127,161.47162 c -0.0712,1.55972 0.0688,3.10591 0.2254,4.65536 0.32526,1.10891 0.18712,2.41886 0.67771,3.48044 -0.14818,-0.0691 -0.34299,-0.0793 -0.44455,-0.20745 -0.0178,-0.0224 0.11042,-2.22533 0.12887,-2.40013 0.26222,-1.45853 1.25131,-2.50061 2.26701,-3.50256 0.9359,-0.80073 0.44926,-0.41076 1.46194,-1.16741 0,0 0.48984,0.0457 0.48984,0.0457 l 0,0 c -1.01131,0.7524 -0.5253,0.36463 -1.46006,1.16079 -1.00907,0.99215 -1.99713,2.02242 -2.26148,3.46873 -0.0258,0.24303 -0.0667,2.35678 -0.12421,2.40826 -0.14898,0.13327 -0.37323,0.14325 -0.55984,0.21488 -0.45338,-1.08706 -0.36052,-2.37037 -0.6687,-3.49629 -0.15595,-1.55115 -0.29524,-3.09892 -0.23205,-4.66031 0,0 0.50012,0 0.50012,0 z"
       inkscape:connector-curvature="0"
       transform="translate(0,852.36215)" />
    <path
       style="opacity:0.33628319;fill:#000080;fill-opacity:1;stroke:#000000;stroke-width:0.89999998;stroke-miterlimit:4;stroke-opacity:1;stroke-dasharray:none"
       id="path3156"
       d="m 381.52216,152.88945 c -0.31639,1.92248 -0.32843,3.86319 -0.24965,5.80344 0.11893,2.36057 0.17198,4.72104 0.41322,7.07298 0.0857,0.86092 0.17055,1.71606 0.31693,2.56863 0,0 -0.49453,0.008 -0.49453,0.008 l 0,0 c -0.14406,-0.85379 -0.22912,-1.71007 -0.31312,-2.57198 -0.23824,-2.35317 -0.29098,-4.71453 -0.41123,-7.07598 -0.0795,-1.94349 -0.0678,-3.88663 0.2384,-5.81368 0,0 0.49998,0.008 0.49998,0.008 z"
       inkscape:connector-curvature="0"
       transform="translate(0,852.36215)" />
    <path
       style="opacity:0.33628319;fill:#000080;fill-opacity:1;stroke:#000000;stroke-width:0.89999998;stroke-miterlimit:4;stroke-opacity:1;stroke-dasharray:none"
       id="path3158"
       d="m 378.41764,158.03955 c 1.789,-0.23646 3.58044,-0.5119 5.35726,-0.83495 1.13185,-0.21589 0.57797,-0.11292 1.66151,-0.30958 0,0 0.48926,0.0685 0.48926,0.0685 l 0,0 c -1.08486,0.19583 -0.53036,0.093 -1.66335,0.30923 -1.77479,0.32592 -3.56551,0.59074 -5.35072,0.845 0,0 -0.49396,-0.0782 -0.49396,-0.0782 z"
       inkscape:connector-curvature="0"
       transform="translate(0,852.36215)" />
    <path
       style="opacity:0.33628319;fill:#000080;fill-opacity:1;stroke:#000000;stroke-width:0.89999998;stroke-miterlimit:4;stroke-opacity:1;stroke-dasharray:none"
       id="path3160"
       d="m 388.14863,161.9767 c 0.13379,1.47309 0.30077,2.93973 0.55458,4.39686 0.15453,0.91879 0.0581,0.48002 0.28058,1.31821 0,0 -0.49632,0.0128 -0.49632,0.0128 l 0,0 c -0.22042,-0.84286 -0.12478,-0.4026 -0.27882,-1.32248 -0.25362,-1.46032 -0.41864,-2.92997 -0.56013,-4.40538 0,0 0.50011,0 0.50011,0 z"
       inkscape:connector-curvature="0"
       transform="translate(0,852.36215)" />
    <path
       style="opacity:0.33628319;fill:#000080;fill-opacity:1;stroke:#000000;stroke-width:0.89999998;stroke-miterlimit:4;stroke-opacity:1;stroke-dasharray:none"
       id="path3162"
       d="m 396.93672,162.94602 c -1.04059,1.03621 -1.58923,2.28583 -1.65089,3.74164 0.12157,1.13137 0.83172,1.97363 1.8628,2.40134 1.17857,0.30081 2.24413,-0.44579 3.15898,-1.10492 1.68889,-1.4539 2.66085,-3.4619 3.41845,-5.51361 1.06269,-2.7547 1.24208,-5.65461 1.2667,-8.57066 -0.0911,-2.19129 -0.34575,-4.42587 -1.34627,-6.40267 -0.25156,-0.32847 -0.7657,-0.94522 -1.2924,-0.73016 -0.0611,0.0249 0.1095,0.12518 0.0767,0.18242 -0.0939,0.16392 -0.27136,0.26287 -0.40704,0.39431 -0.11792,0.21165 -0.23584,0.42331 -0.35376,0.63497 -0.87183,2.34847 -0.83468,4.91167 -0.67465,7.37526 0.25863,2.83655 0.9533,5.57879 2.48836,7.9917 0.97594,1.38964 2.34828,2.37162 4.04157,2.59634 1.18689,-0.41593 1.57167,-0.76996 2.03021,-1.94894 0.34473,-1.02947 0.18638,-1.92957 -0.76083,-2.49876 -0.1376,-0.0286 -0.27309,-0.0705 -0.4128,-0.0859 -0.0206,-0.002 0.0611,0.0352 0.0428,0.0452 -0.84933,0.46464 -0.94849,0.32961 -1.40713,1.30444 -0.25431,1.21405 0.0848,1.77305 0.98164,2.55277 0,0 -0.49377,0.0421 -0.49377,0.0421 l 0,0 c -0.90381,-0.80171 -1.23928,-1.38574 -0.9851,-2.61648 0.52212,-1.13795 1.49682,-1.68102 2.77101,-1.29285 0.94533,0.60015 1.10826,1.52155 0.76096,2.56779 -0.59538,1.55084 -1.3196,2.02248 -3.01845,2.00143 -1.69537,-0.25181 -3.06455,-1.23851 -4.03859,-2.63955 -1.52832,-2.42489 -2.22477,-5.17233 -2.48377,-8.01615 -0.16204,-2.47269 -0.20009,-5.04288 0.66406,-7.40329 0.1175,-0.21645 0.20914,-0.44909 0.3525,-0.64935 0.70426,-0.98382 2.02271,-0.73116 2.61214,0.16968 0.99229,1.98823 1.24933,4.22715 1.33781,6.4261 -0.026,2.92118 -0.20394,5.82671 -1.26522,8.58742 -0.75646,2.05983 -1.72783,4.07509 -3.41318,5.543 -1.25131,0.91158 -2.55129,1.55339 -4.14588,1.11632 -1.03617,-0.45777 -1.74737,-1.31042 -1.86392,-2.46143 0.0628,-1.46572 0.60772,-2.72846 1.64919,-3.77869 0,0 0.4977,0.0392 0.4977,0.0392 z"
       inkscape:connector-curvature="0"
       transform="translate(0,852.36215)" />
    <path
       style="opacity:0.33628319;fill:#000080;fill-opacity:1;stroke:#000000;stroke-width:0.89999998;stroke-miterlimit:4;stroke-opacity:1;stroke-dasharray:none"
       id="path3164"
       d="m 427.19012,160.13809 c -1.25753,-0.0463 -2.44906,0.37838 -3.47416,1.08791 -1.01424,1.13412 -0.44892,2.32814 0.30596,3.42879 0.90299,1.05836 2.16312,1.74819 2.83681,2.9897 0.37875,1.24852 -0.83349,1.60395 -1.8023,1.85496 -0.76505,0.2019 -1.49598,0.084 -2.27194,0.006 0,0 0.49215,-0.0691 0.49215,-0.0691 l 0,0 c 0.28675,0.31282 0.93915,0.0113 1.28734,-0.003 0.93273,-0.23292 2.1696,-0.54487 1.79776,-1.76461 -0.67982,-1.2335 -1.94363,-1.91833 -2.83348,-2.985 -0.7653,-1.12807 -1.32129,-2.341 -0.30634,-3.50601 1.33788,-0.94298 2.82893,-1.21723 4.46217,-1.11851 0,0 -0.49397,0.0782 -0.49397,0.0782 z"
       inkscape:connector-curvature="0"
       transform="translate(0,852.36215)" />
    <path
       style="opacity:0.33628319;fill:#000080;fill-opacity:1;stroke:#000000;stroke-width:0.89999998;stroke-miterlimit:4;stroke-opacity:1;stroke-dasharray:none"
       id="path3166"
       d="m 428.04966,147.32949 c 0.18175,2.18882 0.52139,4.36007 0.91428,6.51976 0.52428,3.07096 1.12304,6.12898 1.59932,9.20802 0.17827,1.38139 0.40578,2.75151 0.53355,4.13891 0,0 -0.49572,0.004 -0.49572,0.004 l 0,0 c -0.11995,-1.38687 -0.34606,-2.75566 -0.52324,-4.1359 -0.47355,-3.07901 -1.07176,-6.13665 -1.59858,-9.2067 -0.39618,-2.1628 -0.73642,-4.33719 -0.92973,-6.52851 0,0 0.50012,0 0.50012,0 z"
       inkscape:connector-curvature="0"
       transform="translate(0,852.36215)" />
    <path
       style="opacity:0.33628319;fill:#000080;fill-opacity:1;stroke:#000000;stroke-width:0.89999998;stroke-miterlimit:4;stroke-opacity:1;stroke-dasharray:none"
       id="path3168"
       d="m 427.45943,155.07308 c 1.60362,0.21395 3.20972,0.334 4.82437,0.24238 0.99251,-0.15505 0.50917,-0.0671 1.45057,-0.26066 0,0 0.49081,0.0675 0.49081,0.0675 l 0,0 c -0.94326,0.19648 -0.45895,0.10634 -1.45347,0.26755 -1.94176,0.11454 -3.87868,0.0149 -5.80643,-0.24568 0,0 0.49415,-0.0711 0.49415,-0.0711 z"
       inkscape:connector-curvature="0"
       transform="translate(0,852.36215)" />
    <path
       style="opacity:0.33628319;fill:#000080;fill-opacity:1;stroke:#000000;stroke-width:0.89999998;stroke-miterlimit:4;stroke-opacity:1;stroke-dasharray:none"
       id="path3170"
       d="m 438.29169,162.77632 c -1.32024,0.3883 -2.61406,0.91769 -3.78459,1.64409 -1.00343,0.63205 -1.52415,1.54202 -1.78651,2.66645 -0.10191,1.2515 0.50208,1.58247 1.59513,1.88203 1.14773,0.11182 2.10112,-0.59987 2.82708,-1.43575 0.7366,-1.0223 0.8843,-2.27456 0.99805,-3.49399 0.13254,-1.58327 1.11987,0.86698 1.19512,1.02642 0.34983,0.97523 0.95139,1.70354 1.86707,2.17564 0.35179,0.12189 0.53414,0.22527 0.91762,0.1982 0.033,-0.002 -0.0962,-0.0515 -0.0694,-0.0711 0.1204,-0.0882 0.28365,-0.10013 0.4105,-0.17876 0.37853,-0.23463 0.49775,-0.42969 0.78403,-0.76592 1.18819,-1.85066 1.22614,-4.11795 1.36132,-6.24408 0.18897,-3.33558 0.0706,-6.68245 -0.22622,-10.00778 -0.29923,-1.57228 -0.16109,-3.57854 -1.19696,-4.91753 -0.0711,-0.008 -0.24835,-0.0864 -0.21333,-0.024 0.0566,0.1009 0.27319,0.0637 0.29886,0.17649 0.0318,0.13957 -0.12865,0.25744 -0.16882,0.39482 -0.0612,0.20934 -0.10043,0.42495 -0.1339,0.64047 -0.10364,0.66733 -0.12578,1.24557 -0.17161,1.92462 -0.19929,2.93013 0.20169,5.84079 0.62304,8.7318 0.40567,2.34509 0.80458,4.80839 2.31486,6.71929 1.31468,1.1636 1.60458,1.02308 2.87493,0.0849 1.18275,-0.89309 1.88895,-2.13192 2.50544,-3.44674 0.13492,-0.44842 0.32719,-0.98037 0.0749,-1.43212 -0.0715,-0.12797 -0.50313,-0.29256 -0.39454,-0.19412 0.0662,0.06 0.17308,0.0447 0.25962,0.067 -0.72107,0.561 -0.6753,1.59796 -0.52937,2.40843 0.3682,1.15799 1.11484,2.14013 2.23451,2.63007 1.08838,0.36239 1.95597,0.13622 2.85624,-0.55318 1.07515,-1.12091 1.49116,-2.64762 1.84171,-4.12081 0.18769,-0.62703 0.16459,-2.43122 1.12389,-2.55544 0.28984,-0.0375 0.58445,0.008 0.87668,0.0124 1.17789,0.45866 1.83235,1.63399 2.32103,2.73203 0.43975,1.40662 -0.0418,2.70469 -0.96333,3.77932 -0.69894,0.58562 -0.32201,0.32584 -1.13335,0.77559 0,0 -0.49269,-0.0529 -0.49269,-0.0529 l 0,0 c 0.80965,-0.43723 0.4333,-0.1833 1.13163,-0.75798 0.91927,-1.05426 1.40061,-2.33333 0.96258,-3.7232 -0.48538,-1.08238 -1.13768,-2.25995 -2.32001,-2.67748 0.31045,-0.0854 -0.2935,0.10114 -0.49109,0.46327 -0.33522,0.6144 -0.37383,1.34851 -0.52172,2.01592 -0.35115,1.48332 -0.77052,3.01692 -1.84069,4.15442 -1.11937,0.88502 -2.48899,0.98411 -3.84468,0.565 -1.12004,-0.51809 -1.8719,-1.50403 -2.23807,-2.67819 -0.14977,-0.84265 -0.18095,-1.87264 0.52921,-2.48184 0.24507,-0.0232 0.48905,-0.0692 0.73522,-0.0695 0.79498,-10e-4 0.46352,1.34187 0.31766,1.71502 -0.61779,1.32101 -1.32394,2.56876 -2.50711,3.47106 -1.4181,1.06971 -2.53695,1.14232 -3.86107,-0.0981 -1.49861,-1.92757 -1.90184,-4.39133 -2.30576,-6.74509 -0.42198,-2.89442 -0.82319,-5.80835 -0.63026,-8.74204 0.0255,-0.39205 0.0963,-2.73278 0.46523,-2.99713 0.4434,-0.31772 0.56516,-0.24229 0.91378,-0.14422 1.00523,1.37631 0.89511,3.34949 1.18133,4.9455 0.29217,3.32809 0.41246,6.67697 0.22637,10.01508 -0.13217,2.13675 -0.16863,4.4094 -1.34945,6.27585 -0.85056,1.01954 -1.72687,1.36252 -3.0344,0.83684 -0.91392,-0.48834 -1.51556,-1.22813 -1.86935,-2.20779 -0.11417,-0.24206 -0.57552,-1.07449 -0.5408,-1.16967 0.0524,-0.14366 0.24026,-0.19532 0.3805,-0.25633 0.11745,-0.0511 -0.43097,0.78116 -0.0384,0.38236 -0.11942,1.22836 -0.2649,2.49071 -1.00171,3.52451 -1.07163,1.25288 -2.13084,1.64982 -3.81574,1.46489 -1.11318,-0.32077 -1.70126,-0.69325 -1.5994,-1.9578 0.26244,-1.1353 0.78092,-2.06199 1.79109,-2.70522 1.16693,-0.73306 2.4626,-1.26468 3.78211,-1.65622 0,0 0.49596,0.0623 0.49596,0.0623 z"
       inkscape:connector-curvature="0"
       transform="translate(0,852.36215)" />
    <path
       style="opacity:0.33628319;fill:#000080;fill-opacity:1;stroke:#000000;stroke-width:0.89999998;stroke-miterlimit:4;stroke-opacity:1;stroke-dasharray:none"
       id="path3172"
       d="m 441.03656,150.52791 c 1.46883,0.1868 2.97237,0.0987 4.44293,-0.0398 1.20023,-0.14008 0.61019,-0.0496 1.77057,-0.2686 0,0 0.48839,0.0679 0.48839,0.0679 l 0,0 c -1.16132,0.22353 -0.57087,0.13155 -1.77178,0.27304 -1.79447,0.17494 -3.63269,0.23829 -5.42523,0.0374 0,0 0.49512,-0.0701 0.49512,-0.0701 z"
       inkscape:connector-curvature="0"
       transform="translate(0,852.36215)" />
    <path
       style="opacity:0.33628319;fill:#000080;fill-opacity:1;stroke:#000000;stroke-width:0.89999998;stroke-miterlimit:4;stroke-opacity:1;stroke-dasharray:none"
       id="path3174"
       d="m 459.10004,138.72852 c 1.3945,2.13268 3.01526,4.10943 4.52897,6.1588 2.26356,2.89321 3.74468,5.78425 4.81502,9.28588 0.85291,3.38873 0.1311,6.69966 -1.14041,9.86717 -0.82885,1.67005 -0.39647,0.87363 -1.28782,2.3943 0,0 -0.48684,-0.0259 -0.48684,-0.0259 l 0,0 c 0.89389,-1.51574 0.46031,-0.7218 1.2914,-2.38689 1.27269,-3.15596 1.99512,-6.45596 1.14276,-9.8344 -1.07029,-3.49684 -2.5537,-6.38129 -4.81566,-9.26946 -1.51774,-2.05112 -3.14008,-4.03024 -4.54567,-6.16016 0,0 0.49825,-0.0293 0.49825,-0.0293 z"
       inkscape:connector-curvature="0"
       transform="translate(0,852.36215)" />
  </g>
</svg>
