<?xml version="1.0" encoding="UTF-8" standalone="no"?>
<!-- Created with Inkscape (http://www.inkscape.org/) -->

<svg
   xmlns:dc="http://purl.org/dc/elements/1.1/"
   xmlns:cc="http://creativecommons.org/ns#"
   xmlns:rdf="http://www.w3.org/1999/02/22-rdf-syntax-ns#"
   xmlns:svg="http://www.w3.org/2000/svg"
   xmlns="http://www.w3.org/2000/svg"
   xmlns:sodipodi="http://sodipodi.sourceforge.net/DTD/sodipodi-0.dtd"
   xmlns:inkscape="http://www.inkscape.org/namespaces/inkscape"
   width="500"
   height="200"
   id="svg2"
   version="1.1"
   inkscape:version="0.48.2 r9819"
   sodipodi:docname="New document 2">
  <defs
     id="defs4" />
  <sodipodi:namedview
     id="base"
     pagecolor="#ffffff"
     bordercolor="#666666"
     borderopacity="1.0"
     inkscape:pageopacity="0.0"
     inkscape:pageshadow="2"
     inkscape:zoom="1.979899"
     inkscape:cx="230.02998"
     inkscape:cy="82.062358"
     inkscape:document-units="px"
     inkscape:current-layer="layer1"
     showgrid="false"
     inkscape:window-width="1280"
     inkscape:window-height="737"
     inkscape:window-x="-8"
     inkscape:window-y="-8"
     inkscape:window-maximized="1" />
  <metadata
     id="metadata7">
    <rdf:RDF>
      <cc:Work
         rdf:about="">
        <dc:format>image/svg+xml</dc:format>
        <dc:type
           rdf:resource="http://purl.org/dc/dcmitype/StillImage" />
        <dc:title></dc:title>
      </cc:Work>
    </rdf:RDF>
  </metadata>
  <g
     inkscape:label="Layer 1"
     inkscape:groupmode="layer"
     id="layer1"
     transform="translate(0,-852.36215)">
    <path
       style="opacity:0.33628319000000001;fill:#000000;fill-opacity:1;stroke:#ff0000;stroke-width:0;stroke-miterlimit:4;stroke-opacity:1;stroke-dasharray:none"
       id="path2990"
       d="m 216.93026,20.050267 c 0,1.741073 0,3.482147 0,5.22322 0,2.470148 0,4.940295 0,7.410443 0,2.906335 0,5.812671 0,8.719006 0,3.340157 0,6.680313 0,10.02047 -0.0198,3.124293 -0.0277,6.244112 0.14269,9.364161 0.19156,2.99111 0.27897,5.986943 0.3296,8.983279 0.0278,2.702061 0.27829,5.395408 0.40159,8.094309 0.26093,2.898526 0.44611,5.800929 0.54917,8.709171 0.23828,3.282609 0.41294,6.567861 0.5096,9.857612 0.07,3.306207 0.32818,6.604192 0.4569,9.908602 0.10998,3.17095 0.12588,6.34403 0.13653,9.51653 -0.0769,2.79819 0.14645,5.58744 0.30448,8.37843 0.13667,2.38748 0.17227,4.77881 0.19329,7.16957 0.0132,2.09779 0.0104,4.19564 0.009,6.29347 0.13995,2.02932 0.32021,4.05419 0.41039,6.08681 0.16113,2.3496 0.0157,4.69175 -0.13623,7.03615 -0.18114,2.81224 -0.22618,5.63044 -0.25865,8.44752 -0.0932,2.61737 0.0191,5.22431 0.20541,7.83383 0.10777,1.82459 0.39192,3.63393 0.62417,5.44602 0.0183,0.1185 0.0367,0.23699 0.055,0.35548 0.16315,1.05894 -1.33441,1.28967 -1.49756,0.23074 l 0,0 c -0.0201,-0.13121 -0.0403,-0.26241 -0.0604,-0.39362 -0.2358,-1.84023 -0.5234,-3.67773 -0.63261,-5.53072 -0.18927,-2.65118 -0.30245,-5.30013 -0.20916,-7.9592 0.0328,-2.84394 0.0787,-5.689 0.26172,-8.52803 0.14837,-2.28957 0.29394,-4.57641 0.13454,-6.87116 -0.0908,-2.05526 -0.27934,-4.10216 -0.41186,-6.15464 0.001,-2.09311 0.004,-4.18626 -0.009,-6.27934 -0.0208,-2.36664 -0.0557,-4.73384 -0.19092,-7.09723 -0.15951,-2.8178 -0.38351,-5.63396 -0.3069,-8.459 -0.0106,-3.15454 -0.0262,-6.30966 -0.13539,-9.46266 -0.12876,-3.30924 -0.38787,-6.612022 -0.4574,-9.923089 -0.0964,-3.286731 -0.27261,-6.568807 -0.5093,-9.848472 -0.10265,-2.903124 -0.28986,-5.800142 -0.54854,-8.693681 -0.12375,-2.713394 -0.3762,-5.421175 -0.40295,-8.137822 -0.0502,-2.977339 -0.13707,-5.954174 -0.32757,-8.926311 -0.17155,-3.147571 -0.16555,-6.294886 -0.14494,-9.446709 0,-3.340157 0,-6.680313 0,-10.02047 0,-2.906335 0,-5.812671 0,-8.719006 0,-2.470148 0,-4.940295 0,-7.410443 0,-1.741073 0,-3.482147 0,-5.22322 0,-1.071429 1.51523,-1.071429 1.51523,0 z"
       inkscape:connector-curvature="0"
       transform="translate(0,852.36215)" />
    <path
       style="opacity:0.33628319;fill:#000000;fill-opacity:1;stroke:#ff0000;stroke-width:0;stroke-miterlimit:4;stroke-opacity:1;stroke-dasharray:none"
       id="path2992"
       d="m 214.56847,22.001794 c -1.02757,1.752753 -1.81857,3.626401 -2.7483,5.430566 -0.38098,0.741541 -0.71547,1.501933 -1.09218,2.245375 -0.0717,0.141439 -0.14745,0.280964 -0.21267,0.42549 -0.0181,0.04001 0.002,0.147059 -0.0364,0.126546 -0.44208,-0.233672 -0.84073,-0.541591 -1.26109,-0.812387 0.83092,-1.452577 1.70775,-2.87967 2.52733,-4.340355 0.96478,-1.693417 1.92923,-3.391708 3.17414,-4.897597 1.14273,-1.186997 2.05082,-1.137757 3.10019,0.0981 0.72639,0.988555 1.57909,1.915649 2.55271,2.664015 1.20326,0.887015 2.46024,1.693857 3.72561,2.487827 0.59276,0.382852 1.15633,0.805917 1.74059,1.201264 0.88699,0.601004 0.0371,1.855399 -0.84995,1.254395 l 0,0 c -0.56913,-0.386113 -1.12015,-0.796003 -1.696,-1.17218 -1.30978,-0.821881 -2.61058,-1.657901 -3.85444,-2.57833 -1.05246,-0.836068 -2.00837,-1.816757 -2.79849,-2.906422 -0.0923,-0.127886 -0.27834,-0.214036 -0.29354,-0.370993 -0.004,-0.04102 0.0794,-0.03094 0.10751,-0.06103 0.1699,-0.181562 -0.86326,0.283651 -0.56904,0.352028 -1.19473,1.427592 -2.08914,3.064447 -3.01791,4.670458 -0.82617,1.471969 -1.71097,2.909372 -2.54686,4.374118 -0.49126,-0.151748 -1.02596,-0.202616 -1.47378,-0.455245 -0.0964,-0.05438 0.0692,-0.210635 0.11415,-0.311765 0.40428,-0.909624 0.90956,-1.777392 1.31345,-2.687795 0.94071,-1.822848 1.73793,-3.71786 2.77941,-5.48785 0.53158,-0.930261 1.84717,-0.178497 1.31559,0.751764 z"
       inkscape:connector-curvature="0"
       transform="translate(0,852.36215)" />
    <path
       style="opacity:0.33628319;fill:#000000;fill-opacity:1;stroke:#ff0000;stroke-width:0;stroke-miterlimit:4;stroke-opacity:1;stroke-dasharray:none"
       id="path2994"
       d="m 43.247251,168.88501 c 2.380428,-0.28891 4.740682,-0.7086 7.123253,-0.98516 3.894992,-0.49599 7.81231,-0.7831 11.719599,-1.16217 5.191045,-0.48267 10.395386,-0.78937 15.597036,-1.12845 6.548541,-0.46746 13.114686,-0.51822 19.673875,-0.71739 7.314436,-0.19306 14.626586,-0.44623 21.939816,-0.67887 7.65718,-0.29123 15.31079,-0.66903 22.95282,-1.23387 7.34267,-0.49442 14.66626,-1.22468 21.99967,-1.83406 6.62509,-0.58225 13.25139,-1.14513 19.894,-1.48173 6.13209,-0.42467 12.27744,-0.55208 18.41725,-0.80124 5.51218,-0.20524 11.01432,-0.62386 16.50593,-1.13345 4.9533,-0.51578 9.88918,-1.17543 14.82371,-1.84346 4.6994,-0.66845 9.3994,-1.33168 14.09601,-2.02012 4.35681,-0.59682 8.72421,-1.11012 13.08533,-1.67309 4.18232,-0.50221 8.37534,-0.91043 12.57961,-1.17292 4.27369,-0.37112 8.55754,-0.56905 12.8449,-0.68111 4.51172,-0.0924 9.02466,-0.0914 13.53712,-0.0944 4.75067,0.0755 9.49656,-0.15487 14.24355,-0.29922 5.25541,-0.14664 10.51304,-0.17353 15.77014,-0.19272 5.59266,-0.0137 11.18534,-0.0104 16.77801,-0.009 5.75164,0.14024 11.50176,0.32088 17.25449,0.41606 5.82099,0.001 11.6368,0.24241 17.45469,0.39834 5.76067,0.14356 11.52322,0.17401 17.28538,0.19332 5.29914,-0.003 10.59422,0.2477 15.8913,0.37414 4.7099,0.0858 9.41349,0.35723 14.12188,0.50179 3.83434,0.21534 7.66788,0.43172 11.50649,0.55446 2.43575,0.1578 4.86632,0.37804 7.30389,0.50896 1.04284,-0.0927 2.3114,0.0849 3.17786,-0.61781 0.19764,-0.31497 -0.27729,-0.59618 -0.48425,-0.82047 -1.0635,-1.26951 -2.41722,-2.2604 -3.75874,-3.21532 -1.91855,-1.3783 -3.8735,-2.70846 -5.85452,-3.99557 -1.51389,-0.98148 -3.10668,-1.82126 -4.75381,-2.55153 -0.11895,-0.062 -0.23791,-0.12411 -0.35687,-0.18617 -0.024,-0.0108 -0.0858,-0.0101 -0.0719,-0.0324 0.27498,-0.44311 0.47497,-0.97111 0.89033,-1.28644 0.0454,-0.0345 1.92406,0.88887 2.01212,0.93334 2.38186,1.22969 4.77363,2.44122 7.17707,3.62846 2.75444,1.38719 5.50138,2.79795 8.10863,4.44858 1.38443,0.96136 3.0639,2.04616 3.55058,3.78376 0.0811,0.28938 0.0849,0.595 0.12736,0.8925 -0.0995,2.32634 -2.0706,3.58383 -3.86027,4.7047 -2.39867,1.3898 -4.94111,2.46313 -7.60108,3.22983 -1.16652,0.33359 -2.35637,0.47073 -3.56067,0.55268 -1.06919,0.0692 -1.16711,-1.44282 -0.0979,-1.51206 l 0,0 c 1.09651,-0.0669 2.17797,-0.19753 3.2404,-0.497 2.52652,-0.72252 4.93686,-1.74678 7.21716,-3.05896 1.25725,-0.78125 2.90354,-1.65148 3.15618,-3.25408 -0.0827,-1.70166 -1.71289,-2.68924 -2.98296,-3.56158 -2.5601,-1.62483 -5.26373,-3.00388 -7.96854,-4.36988 -2.40774,-1.18961 -4.80401,-2.40311 -7.19024,-3.63504 -0.44395,-0.22525 -1.83678,-0.8129 -1.8419,-0.85989 -0.0554,-0.50879 0.12596,-1.01959 0.26306,-1.51267 0.0405,-0.1457 0.46197,0.53646 0.40359,0.20716 1.72056,0.76283 3.38386,1.6415 4.96534,2.66621 1.99894,1.29936 3.97217,2.64118 5.90831,4.03219 1.43007,1.02053 2.86844,2.08227 4.00497,3.43494 0.90265,1.01876 1.34024,1.97488 0.23278,3.07234 -1.24053,0.81996 -2.67625,0.88549 -4.1334,0.89325 -2.4266,-0.13051 -4.84641,-0.34755 -7.27102,-0.50755 -3.83795,-0.12282 -7.67091,-0.33802 -11.50455,-0.5544 -4.70494,-0.14452 -9.4051,-0.41553 -14.11154,-0.50151 -5.28671,-0.12623 -10.57144,-0.37619 -15.86021,-0.37371 -5.774,-0.0194 -11.54839,-0.0499 -17.3209,-0.19385 -5.81271,-0.15582 -11.62335,-0.39668 -17.43916,-0.39801 -5.74447,-0.0951 -11.48635,-0.27472 -17.2297,-0.41585 -5.59074,-0.001 -11.18148,-0.004 -16.7722,0.009 -5.24359,0.0191 -10.48771,0.0459 -15.72962,0.19203 -4.76199,0.14478 -9.52291,0.37545 -14.28858,0.29992 -4.49962,0.003 -8.9997,0.002 -13.49858,0.0939 -4.2691,0.11142 -8.53464,0.30909 -12.79012,0.67869 -4.171,0.25998 -8.33074,0.66571 -12.47999,1.1634 -4.35253,0.56172 -8.71128,1.0743 -13.05954,1.66953 -4.70211,0.68919 -9.4076,1.35323 -14.1125,2.02244 -4.95558,0.6708 -9.91252,1.33324 -14.887,1.85068 -5.51778,0.51172 -11.04607,0.93254 -16.58449,1.13869 -6.13475,0.24868 -12.27499,0.37634 -18.40202,0.80054 -6.62633,0.33543 -13.23631,0.89801 -19.84517,1.47847 -7.33802,0.60966 -14.66619,1.34054 -22.01348,1.83513 -7.66318,0.56616 -15.33793,0.9455 -23.01631,1.23723 -7.31396,0.23265 -14.62685,0.48584 -21.942019,0.67894 -6.541655,0.19846 -13.090244,0.24905 -19.62129,0.71488 -5.185725,0.33797 -10.374131,0.64363 -15.5493,1.12458 -3.897928,0.37801 -7.805833,0.66453 -11.691491,1.15918 -2.369346,0.27402 -4.71611,0.69369 -7.083364,0.98 -1.06066,0.15152 -1.274945,-1.34848 -0.214285,-1.5 z"
       inkscape:connector-curvature="0"
       transform="translate(0,852.36215)" />
    <path
       style="opacity:0.33628319;fill:#000000;fill-opacity:1;stroke:#ff0000;stroke-width:0;stroke-miterlimit:4;stroke-opacity:1;stroke-dasharray:none"
       id="path2996"
       d="m 219.55303,125.01392 c -0.0866,0.16543 -0.91862,1.15236 -0.6243,1.39517 0.12076,0.0996 -0.0836,-0.30764 -0.17147,-0.43722 -0.0652,-0.0282 -0.19329,-0.0135 -0.19547,-0.0845 -0.002,-0.0503 0.82126,-0.4922 0.42341,-0.53564 -0.0667,0.0885 -0.10827,0.10652 -0.23655,0.18089 -1.0714,0.008 -1.08237,-1.50743 -0.011,-1.51519 l 0,0 c 0.90987,0.0607 1.58273,0.36547 1.76265,1.35143 -0.0247,0.20954 -0.0149,0.42611 -0.0741,0.62862 -0.27385,0.93671 -1.26893,1.39705 -2.15691,1.40889 -0.22228,-0.156 -0.49741,-0.25579 -0.66686,-0.46801 -0.68959,-0.86368 0.30404,-2.19123 0.76736,-2.87102 0.66932,-0.83664 1.85251,0.10991 1.18319,0.94656 z"
       inkscape:connector-curvature="0"
       transform="translate(0,852.36215)" />
    <path
       style="opacity:0.33628319;fill:#000000;fill-opacity:1;stroke:#ff0000;stroke-width:0;stroke-miterlimit:4;stroke-opacity:1;stroke-dasharray:none"
       id="path2998"
       d="m 225.06159,128.01204 c 0.16449,0.46944 0.2481,0.96986 0.44318,1.42893 0.13371,0.31465 0.27694,0.37055 0.23702,0.32423 -0.0533,-0.0619 -0.11828,-0.11267 -0.17741,-0.16901 -0.17741,0.005 -0.35531,0.029 -0.53223,0.0149 -0.22008,-0.0175 0.86025,-1.41482 0.91366,-1.4738 1.27057,-0.92708 1.83062,-0.39674 2.44403,0.80682 0.0291,0.0657 0.19957,0.47003 0.27111,0.58083 0.0316,0.0489 -0.0252,-0.12614 -0.0737,-0.15836 -0.34195,-0.22716 -0.56795,-0.0639 -0.25764,-0.30315 0.8557,-0.65033 1.7567,-0.93055 2.825,-0.85732 1.16315,0.17886 1.83211,1.09088 2.5855,1.88985 0.43644,0.53747 0.22308,0.29162 0.63465,0.74221 0.72013,0.79334 -0.40182,1.81174 -1.12194,1.01841 l 0,0 c -0.44271,-0.49025 -0.23896,-0.2487 -0.61526,-0.72125 -0.4836,-0.51314 -0.91274,-1.19019 -1.60685,-1.41907 -0.72467,-0.0759 -1.26442,0.1524 -1.84485,0.59727 -0.99836,0.64929 -1.73866,0.46576 -2.1478,-0.68489 -0.0685,-0.13591 -0.30204,-0.35035 -0.16894,-0.42411 0.0451,-0.025 0.58404,-0.0925 0.17791,-0.0264 -0.72627,0.70438 -0.66942,1.81298 -1.92264,1.86802 -0.17056,-0.0902 -0.36,-0.15127 -0.5117,-0.27046 -0.72064,-0.56625 -0.7434,-1.73224 -1.04571,-2.51453 -0.17614,-1.05685 1.31847,-1.30595 1.49462,-0.2491 z"
       inkscape:connector-curvature="0"
       transform="translate(0,852.36215)" />
    <path
       style="opacity:0.33628319;fill:#000000;fill-opacity:1;stroke:#ff0000;stroke-width:0;stroke-miterlimit:4;stroke-opacity:1;stroke-dasharray:none"
       id="path3002"
       d="m 336.25632,93.29636 c -1.814,0.90072 -3.62137,1.811305 -5.45587,2.670062 -2.49082,1.327182 -5.08131,2.437 -7.65863,3.57971 -2.92297,1.326898 -5.92726,2.457938 -8.94674,3.542198 -3.04873,1.13585 -6.17295,2.03731 -9.27378,3.01428 -3.12199,1.00575 -6.24364,2.01432 -9.34279,3.08869 -2.77168,0.96762 -5.51257,2.01414 -8.30943,2.90763 -2.43095,0.84554 -4.90366,1.55436 -7.37737,2.26057 -1.98812,0.50661 -3.94322,1.13071 -5.95005,1.56157 -1.81019,0.4185 -3.61298,0.86534 -5.41396,1.32181 -1.70621,0.47254 -3.4237,0.92022 -5.15797,1.27868 -1.44323,0.33312 -2.87415,0.72011 -4.32184,1.03282 -1.39635,0.35818 -2.79002,0.73279 -4.20503,1.0105 -1.61466,0.38456 -3.23103,0.75881 -4.84654,1.13943 -1.67904,0.36541 -3.31914,0.88054 -4.98856,1.28397 -1.4788,0.37679 -2.95514,0.7674 -4.44317,1.10656 -1.13877,0.2947 -2.25055,0.6762 -3.37998,1.00132 -1.16033,0.30549 -2.32093,0.58626 -3.50984,0.75455 -1.04391,0.18401 -2.0512,0.50171 -3.07223,0.77637 -1.03858,0.1873 -2.05375,0.47545 -3.09122,0.66895 -1.02759,0.0925 -2.02618,0.34698 -3.04164,0.51759 -1.01759,0.0825 -2.01405,0.23878 -3.01671,0.42546 -1.03813,0.19264 -2.09319,0.24656 -3.14626,0.27854 -0.98639,0.0591 -1.98357,-0.0561 -2.96407,0.0727 -1.01502,0.19213 -2.03805,0.31758 -3.06815,0.38829 -1.15263,0.0837 -2.31028,0.006 -3.46,0.11864 -1.52557,0.21175 -3.06012,0.32273 -4.59806,0.38817 -1.77618,0.0575 -3.55359,0.0574 -5.33051,0.0598 -1.92488,4.6e-4 -3.84977,-0.001 -5.77465,-0.002 -2.32307,-9e-4 -4.64614,-9.8e-4 -6.96921,-0.001 -2.73982,-7e-5 -5.47964,-4e-5 -8.21947,-4e-5 -3.02057,0.0987 -6.02617,-0.13689 -9.02647,-0.45218 -3.14248,-0.31932 -6.22218,-0.99563 -9.31156,-1.62411 -3.36459,-0.66221 -6.68023,-1.5364 -9.98339,-2.45069 -3.55328,-1.06243 -7.15203,-1.93282 -10.76995,-2.74059 -3.96774,-0.87388 -7.91911,-1.81912 -11.8665,-2.78006 -4.08508,-0.99496 -8.10139,-2.24895 -12.14889,-3.38437 -3.93209,-1.08607 -7.80857,-2.36293 -11.71396,-3.54156 -3.29343,-1.00352 -6.576448,-2.03834 -9.873992,-3.02795 -1.624656,-0.66391 -3.695186,-0.73496 -5.151921,-1.75183 -0.275567,-1.2733 -0.445013,-0.73259 0.514317,-1.62024 0.934096,-0.52481 1.676287,0.79621 0.742191,1.32101 l 0,0 c 0.0016,-0.48904 0.03918,-0.18377 -0.297109,-0.87357 0.04282,0.21906 -0.0043,0.0749 0.463798,0.23104 1.373728,0.45814 2.780341,0.81763 4.164268,1.24231 3.298286,0.98986 6.582098,2.02474 9.876228,3.02862 3.89592,1.17578 7.76298,2.44959 11.68545,3.53326 4.03061,1.13074 8.03019,2.37943 12.09801,3.37105 3.93801,0.95867 7.87998,1.90169 11.8383,2.77347 3.64272,0.81335 7.2662,1.69002 10.844,2.7591 3.26937,0.9051 6.55101,1.7709 9.88126,2.4262 3.04183,0.61902 6.07366,1.2873 9.16784,1.60198 2.94773,0.30987 5.90031,0.54293 8.86808,0.44389 2.73984,-1e-5 5.47968,-3e-5 8.21953,3e-5 2.32328,8e-5 4.64656,1.6e-4 6.96985,0.001 1.92397,8.8e-4 3.84795,0.003 5.77192,0.002 1.75619,-0.002 3.51286,-0.002 5.26834,-0.0584 1.51269,-0.0639 3.02164,-0.17498 4.52216,-0.38304 1.16354,-0.10335 2.33092,-0.0516 3.49701,-0.12162 1.00518,-0.068 2.00199,-0.19669 2.99276,-0.38125 1.02865,-0.11281 2.06333,-0.0462 3.09686,-0.0826 0.97539,-0.0292 1.95293,-0.0761 2.91469,-0.25365 1.01115,-0.18814 2.01782,-0.34941 3.04389,-0.43025 1.0066,-0.16772 1.99682,-0.42265 3.01545,-0.51298 0.99861,-0.18399 1.9745,-0.46708 2.97473,-0.64256 1.08086,-0.28934 2.14791,-0.62542 3.25405,-0.81341 1.11935,-0.15615 2.21024,-0.42537 3.30284,-0.71052 1.15688,-0.33083 2.29445,-0.72527 3.46167,-1.02232 1.48186,-0.33671 2.95139,-0.72772 4.42403,-1.10207 1.67241,-0.40284 3.31456,-0.92165 4.99677,-1.28593 1.63452,-0.38441 3.26928,-0.76494 4.90336,-1.15166 1.40614,-0.27299 2.78867,-0.65329 4.17674,-1.00469 1.45247,-0.31101 2.88654,-0.70469 4.33476,-1.03555 1.71243,-0.35154 3.40683,-0.79852 5.09144,-1.2634 1.81932,-0.46109 3.64053,-0.91227 5.46922,-1.33472 1.97417,-0.42075 3.895,-1.04267 5.85111,-1.53689 2.45865,-0.70182 4.91628,-1.40619 7.3323,-2.24694 2.78517,-0.88935 5.51383,-1.93348 8.2742,-2.89591 3.11282,-1.07882 6.24795,-2.09235 9.38371,-3.10222 3.08184,-0.9709 6.18704,-1.86621 9.21705,-2.99517 2.98505,-1.07172 5.95523,-2.18932 8.84471,-3.501323 2.568,-1.138267 5.14861,-2.244501 7.63034,-3.566822 1.8496,-0.865727 3.67011,-1.787163 5.50137,-2.69045 0.98479,-0.422057 1.58167,0.970658 0.59687,1.392715 z"
       inkscape:connector-curvature="0"
       transform="translate(0,852.36215)" />
    <path
       style="opacity:0.33628319;fill:#000000;fill-opacity:1;stroke:#ff0000;stroke-width:0;stroke-miterlimit:4;stroke-opacity:1;stroke-dasharray:none"
       id="path3004"
       d="m 101.86276,76.98653 c 1.39287,1.289527 3.06011,2.203742 4.77671,2.984153 2.05022,0.835306 4.18347,1.498066 6.3355,2.020477 2.13968,0.555928 4.32261,0.931118 6.51258,1.222241 2.68478,0.237234 5.36871,0.49054 8.05866,0.666839 2.65745,0.185532 5.3236,0.122674 7.98199,0.265059 2.27153,0.108444 4.52638,0.368176 6.78416,0.624665 1.83757,0.153585 3.65043,0.512851 5.42826,0.993747 1.63826,0.393712 3.21845,0.968648 4.7912,1.564239 1.62277,0.639499 3.22907,1.320278 4.85099,1.961864 1.665,0.704959 3.35064,1.346801 5.06238,1.927422 1.88754,0.563564 3.78264,1.10579 5.7138,1.49854 1.98816,0.285374 3.97788,0.572413 5.9782,0.762274 1.91494,0.312834 3.84833,0.461995 5.77393,0.682673 2.14844,0.292954 4.31257,0.409198 6.47779,0.479811 2.3515,0.05762 4.70391,0.0552 7.05595,0.05618 2.42304,-8.01e-4 4.84607,-0.0029 7.26911,-0.004 2.47934,-9.38e-4 4.95869,-0.0011 7.43803,-0.0011 2.47677,-4.8e-5 4.95353,-2.1e-5 7.4303,-9e-6 2.49915,-0.01841 5.00355,-0.183237 7.49149,-0.422951 2.57232,-0.259728 5.14447,-0.535281 7.70602,-0.887087 2.6057,-0.302719 5.19852,-0.689566 7.79029,-1.091306 2.89755,-0.493586 5.79243,-1.00398 8.69786,-1.449872 3.46893,-0.550978 6.92021,-1.205459 10.38065,-1.805799 4.03889,-0.634006 8.03545,-1.492992 12.02712,-2.368786 4.37357,-0.948334 8.73167,-1.950874 13.05544,-3.105408 4.53717,-1.178655 9.02141,-2.554203 13.47696,-4.00884 4.53806,-1.585538 9.0967,-3.113727 13.61071,-4.766926 4.26195,-1.518536 8.52266,-3.040359 12.78252,-4.5649 3.5064,-1.340522 7.0126,-2.676113 10.44882,-4.188203 2.30734,-0.946257 4.45281,-2.21431 6.63876,-3.399755 1.22632,-0.739769 2.50603,-1.404013 3.70286,-2.191206 0.80557,-0.457093 1.58853,-0.955493 2.40009,-1.403256 0.86906,-0.562909 1.78993,-1.049035 2.64939,-1.625762 0.27969,-0.251365 0.24551,-0.380565 0.0676,0.113185 -0.18036,-1.056138 1.31324,-1.31121 1.49361,-0.255071 l 0,0 c -0.0686,0.690076 -0.13911,0.995938 -0.72283,1.40401 -0.90029,0.593223 -1.84887,1.113672 -2.75902,1.692086 -0.77985,0.424893 -1.52689,0.90947 -2.30078,1.343728 -1.23689,0.80197 -2.54223,1.500819 -3.80886,2.254388 -2.22287,1.204436 -4.40471,2.492624 -6.7506,3.454559 -3.46906,1.526308 -7.00836,2.875569 -10.54852,4.227919 -4.25639,1.523241 -8.51357,3.043913 -12.77205,4.561109 -4.53099,1.659002 -9.10631,3.193779 -13.66155,4.784525 -4.4819,1.462773 -8.99238,2.846795 -13.55628,4.032356 -4.34574,1.160211 -8.7258,2.168503 -13.12159,3.121486 -4.0135,0.88057 -8.03201,1.743841 -12.09291,2.381704 -3.47021,0.601671 -6.93108,1.258524 -10.40982,1.810565 -2.90472,0.445418 -5.79866,0.956658 -8.69554,1.449514 -2.60053,0.403022 -5.2021,0.791269 -7.81656,1.095142 -2.58202,0.353389 -5.17425,0.63326 -7.76709,0.8942 -2.53626,0.242466 -5.0886,0.412615 -7.63624,0.429881 -2.47675,-1.2e-5 -4.95349,-3.9e-5 -7.43023,9e-6 -2.47914,8.5e-5 -4.95828,1.98e-4 -7.43742,0.0011 -2.42347,0.0011 -4.84694,0.0032 -7.27041,0.004 -2.36833,-9.9e-4 -4.73703,0.0014 -7.1048,-0.05699 -2.20652,-0.07224 -4.41194,-0.191209 -6.60143,-0.488926 -1.91549,-0.22112 -3.83954,-0.365736 -5.74429,-0.679559 -2.05368,-0.195756 -4.09709,-0.488038 -6.13767,-0.786058 -1.99283,-0.407915 -3.95033,-0.96236 -5.89758,-1.548251 -1.73557,-0.588723 -3.44504,-1.238877 -5.13325,-1.953445 -1.61474,-0.639364 -3.21463,-1.315988 -4.83003,-1.953749 -1.52711,-0.57836 -3.06055,-1.138845 -4.65196,-1.519067 -1.70248,-0.465106 -3.44154,-0.802475 -5.20193,-0.950395 -2.22814,-0.253234 -4.45313,-0.510691 -6.69493,-0.617189 -2.6639,-0.145577 -5.33634,-0.07574 -7.99931,-0.266095 -2.72364,-0.178751 -5.44135,-0.434163 -8.15956,-0.676855 -2.24308,-0.299326 -4.47917,-0.682854 -6.67102,-1.251996 -2.24419,-0.548068 -4.47009,-1.236166 -6.6065,-2.11441 -1.83579,-0.841974 -3.62273,-1.819675 -5.11723,-3.198399 -0.8231,-0.685912 0.14693,-1.849943 0.97002,-1.164031 z"
       inkscape:connector-curvature="0"
       transform="translate(0,852.36215)" />
    <path
       style="opacity:0.33628319;fill:#aa0000;fill-opacity:1;stroke:#ff0000;stroke-width:0;stroke-miterlimit:4;stroke-opacity:1;stroke-dasharray:none"
       id="path3010"
       d="m 133.27103,53.339871 c -1.71269,3.051093 -3.51052,6.05559 -5.26169,9.085566 -2.47994,4.112709 -4.82045,8.308627 -7.05891,12.557106 -0.78369,1.710692 -1.81959,3.329423 -2.51292,5.082291 -0.40209,0.993121 -1.80657,0.424489 -1.40449,-0.568631 l 0,0 c 0.7373,-1.791884 1.7469,-3.472017 2.57689,-5.220002 2.24786,-4.265842 4.59747,-8.479303 7.08754,-12.608965 1.73592,-3.003589 3.51605,-5.983016 5.21831,-9.004995 0.47916,-0.958315 1.83442,-0.280684 1.35527,0.67763 z"
       inkscape:connector-curvature="0"
       transform="translate(0,852.36215)" />
    <path
       style="opacity:0.33628319;fill:#aa0000;fill-opacity:1;stroke:#ff0000;stroke-width:0;stroke-miterlimit:4;stroke-opacity:1;stroke-dasharray:none"
       id="path3012"
       d="m 151.02784,49.198469 c -1.41626,3.011682 -3.11689,5.864844 -4.8897,8.676828 -3.37071,5.176793 -6.82041,10.297403 -10.33552,15.376977 -2.72321,4.087989 -5.51695,8.123974 -8.38311,12.11218 -0.48272,0.61844 -0.91829,1.271269 -1.45381,1.845613 -0.73888,0.775897 -1.83616,-0.269037 -1.09728,-1.044934 l 0,0 c 0.50264,-0.509414 0.85411,-1.144815 1.32066,-1.68496 2.86099,-3.980841 5.6492,-8.009712 8.36755,-12.090131 3.50283,-5.061822 6.94064,-10.164399 10.29982,-15.322942 1.73092,-2.744475 3.39198,-5.527854 4.77867,-8.465509 0.42206,-0.984798 1.81477,-0.38792 1.39272,0.596878 z"
       inkscape:connector-curvature="0"
       transform="translate(0,852.36215)" />
    <path
       style="opacity:0.33628319;fill:#aa0000;fill-opacity:1;stroke:#ff0000;stroke-width:0;stroke-miterlimit:4;stroke-opacity:1;stroke-dasharray:none"
       id="path3014"
       d="m 173.86915,45.11217 c 1.0399,-0.353538 2.84362,-1.080833 3.76326,-0.03652 0.23144,0.262817 0.30512,0.630436 0.45768,0.945654 -0.0288,0.367386 -0.0118,0.741286 -0.0865,1.102158 -0.51717,2.499491 -3.07526,5.816051 -4.48863,7.914474 -3.76476,5.309906 -7.63658,10.544302 -11.46755,15.807027 -3.52746,4.984641 -6.9889,10.033953 -9.81812,15.453061 -0.81827,1.773927 -0.55165,0.966981 -0.92227,2.376897 -0.28405,1.033092 -1.74506,0.631395 -1.46102,-0.401697 l 0,0 c 0.47348,-1.664377 0.15447,-0.761796 1.04031,-2.67686 2.86705,-5.483633 6.36185,-10.599669 9.93607,-15.643155 3.82014,-5.247836 7.68059,-10.467721 11.43586,-15.761779 1.64766,-2.445935 3.55202,-4.8628 4.38007,-7.736206 0.7443,-0.715938 -2.19478,-0.112531 -2.29001,0.09441 -1.01645,0.338816 -1.4956,-1.098656 -0.47916,-1.437472 z"
       inkscape:connector-curvature="0"
       transform="translate(0,852.36215)" />
    <path
       style="opacity:0.33628319;fill:#aa0000;fill-opacity:1;stroke:#ff0000;stroke-width:0;stroke-miterlimit:4;stroke-opacity:1;stroke-dasharray:none"
       id="path3016"
       d="m 191.95774,47.508533 c 1.5814,-0.983251 3.73778,-2.42104 5.70116,-2.226397 0.36283,0.03597 0.70081,0.201577 1.05121,0.302366 0.27186,0.304942 0.65561,0.538916 0.81558,0.914825 0.41319,0.970943 0.11137,2.146708 -0.16295,3.078342 -0.70234,2.385218 -1.97611,4.549395 -3.1548,6.71715 -3.76807,6.329341 -7.86775,12.458389 -11.97027,18.574636 -3.15547,4.872487 -6.45148,9.677927 -9.14524,14.828234 -0.43789,1.053052 -0.38325,0.628439 -0.42473,1.212084 -0.17229,1.057486 -1.6678,0.81383 -1.49551,-0.243655 l 0,0 c 0.19224,-0.96174 0.0388,-0.392677 0.57779,-1.671106 2.72245,-5.197332 6.03991,-10.053356 9.22933,-14.969627 4.07666,-6.077431 8.14963,-12.167994 11.89773,-18.454867 1.14443,-2.100987 3.604,-6.024662 3.33714,-8.554243 -0.15401,-0.07393 -0.29311,-0.196364 -0.46204,-0.221782 -1.62595,-0.244632 -3.57044,1.138538 -4.88526,1.926223 -0.85715,0.642857 -1.76628,-0.569326 -0.90914,-1.212183 z"
       inkscape:connector-curvature="0"
       transform="translate(0,852.36215)" />
    <path
       style="opacity:0.33628319;fill:#aa0000;fill-opacity:1;stroke:#ff0000;stroke-width:0;stroke-miterlimit:4;stroke-opacity:1;stroke-dasharray:none"
       id="path3018"
       d="m 224.10259,46.98557 c 0.0486,0.336924 0.15076,0.670405 0.14568,1.010772 -0.0514,3.439902 -3.46137,8.097307 -5.25489,10.836954 -5.05263,7.276677 -10.44983,14.300855 -15.56069,21.536949 -3.16048,4.472526 -6.16539,9.049605 -8.86299,13.815928 -0.52783,0.932395 -1.84643,0.185938 -1.31861,-0.746457 l 0,0 c 2.72334,-4.809697 5.75371,-9.430327 8.94396,-13.943635 5.10078,-7.221545 10.48549,-14.23287 15.5308,-21.493022 1.89584,-2.8928 4.83664,-6.742989 5.02148,-10.339858 -0.47916,-0.958315 0.8761,-1.635946 1.35526,-0.677631 z"
       inkscape:connector-curvature="0"
       transform="translate(0,852.36215)" />
    <path
       style="opacity:0.33628319;fill:#aa0000;fill-opacity:1;stroke:#ff0000;stroke-width:0;stroke-miterlimit:4;stroke-opacity:1;stroke-dasharray:none"
       id="path3020"
       d="m 246.27631,48.082212 c 1.43846,-0.448036 4.5488,-1.50538 5.63887,0.149277 0.27,0.409852 0.27096,0.943455 0.40644,1.415183 -0.12374,0.552401 -0.18913,1.121192 -0.3712,1.657203 -0.49342,1.452605 -1.39926,2.954208 -2.17764,4.241474 -1.87364,3.098586 -3.98458,6.041728 -6.04984,9.013051 -4.60309,6.570624 -9.39953,13.002764 -13.93412,19.621542 -1.33402,1.959482 -2.65386,3.934313 -3.88578,5.960341 -0.55706,0.91523 -1.85139,0.127431 -1.29433,-0.787798 l 0,0 c 1.24786,-2.048285 2.57913,-4.047917 3.93013,-6.028976 4.53696,-6.621272 9.33401,-13.057116 13.9399,-19.629919 2.04148,-2.93701 4.12346,-5.84676 5.98165,-8.905577 0.9462,-1.557565 1.37727,-2.264821 2.02469,-3.869775 0.13654,-0.338467 0.22596,-0.694082 0.33893,-1.041123 0.0379,-0.162639 0.14465,-0.323839 0.1136,-0.487917 -0.22418,-1.184842 -3.53705,-0.08156 -4.18215,0.130486 -1.01644,0.338816 -1.4956,-1.098657 -0.47915,-1.437472 z"
       inkscape:connector-curvature="0"
       transform="translate(0,852.36215)" />
    <path
       style="opacity:0.33628319;fill:#aa0000;fill-opacity:1;stroke:#ff0000;stroke-width:0;stroke-miterlimit:4;stroke-opacity:1;stroke-dasharray:none"
       id="path3022"
       d="m 281.12775,43.237048 c -0.0102,0.322303 0.0205,0.648525 -0.0306,0.966908 -0.57356,3.571163 -4.00025,7.463996 -6.14428,10.213386 -5.20687,6.449163 -10.70113,12.657511 -16.07424,18.96661 -2.19706,2.523049 -4.22669,5.182597 -6.25891,7.837659 -0.65124,0.850789 -1.85444,-0.07021 -1.2032,-0.920996 l 0,0 c 2.04838,-2.675859 4.09455,-5.355895 6.30854,-7.899111 5.35917,-6.292485 10.83864,-12.484913 16.03312,-18.916173 1.32744,-1.70086 2.48373,-3.108988 3.67188,-4.891319 1.02171,-1.532658 2.11918,-3.246554 2.19769,-5.142678 -0.15153,-1.06066 1.34847,-1.274946 1.5,-0.214286 z"
       inkscape:connector-curvature="0"
       transform="translate(0,852.36215)" />
    <path
       style="opacity:0.33628319;fill:#aa0000;fill-opacity:1;stroke:#ff0000;stroke-width:0;stroke-miterlimit:4;stroke-opacity:1;stroke-dasharray:none"
       id="path3024"
       d="m 299.30931,45.556831 c 1.51599,-0.386178 4.35349,-1.179027 5.62996,0.160251 0.29928,0.314014 0.40895,0.765159 0.61342,1.147738 -0.0468,0.516483 -6.8e-4,1.050018 -0.14037,1.549449 -0.34374,1.228996 -1.36788,2.690937 -2.07537,3.670623 -1.93842,2.684165 -4.17972,5.142869 -6.35395,7.632956 -4.46776,4.866391 -8.80233,9.851018 -13.17602,14.801358 -0.7094,0.802935 -1.84492,-0.200314 -1.13552,-1.003249 l 0,0 c 4.37175,-4.948127 8.70426,-9.930674 13.1702,-14.794737 1.38239,-1.583017 3.19538,-3.626634 4.53469,-5.279194 1.47275,-1.817201 3.10602,-3.73325 3.76584,-6.023671 4.7e-4,-0.137253 0.0712,-0.293587 0.001,-0.411759 -0.62465,-1.057315 -3.44789,-0.236676 -4.35514,-0.01229 -1.01644,0.338815 -1.4956,-1.098657 -0.47916,-1.437472 z"
       inkscape:connector-curvature="0"
       transform="translate(0,852.36215)" />
    <path
       style="opacity:0.33628319;fill:#aa0000;fill-opacity:1;stroke:#ff0000;stroke-width:0;stroke-miterlimit:4;stroke-opacity:1;stroke-dasharray:none"
       id="path3026"
       d="m 334.38354,45.185852 c -0.17831,0.334472 -0.33267,0.682856 -0.53493,1.003416 -1.13509,1.799012 -2.65549,3.379014 -4.12147,4.903713 -1.38066,1.435965 -3.33577,3.332384 -4.73707,4.707443 -3.79593,3.615444 -7.61256,7.208973 -11.40904,10.823865 -0.77594,0.738829 -1.8208,-0.358522 -1.04486,-1.097352 l 0,0 c 3.79099,-3.609651 7.60195,-7.198124 11.39267,-10.808041 1.37276,-1.346955 3.33027,-3.246113 4.68686,-4.655777 1.37926,-1.433221 2.8124,-2.916925 3.90031,-4.595037 0.16859,-0.260048 0.29919,-0.542842 0.44878,-0.814262 0.3762,-1.00321 1.79496,-0.471178 1.41875,0.532032 z"
       inkscape:connector-curvature="0"
       transform="translate(0,852.36215)" />
    <path
       style="opacity:0.33628319;fill:#aa0000;fill-opacity:1;stroke:#ff0000;stroke-width:0;stroke-miterlimit:4;stroke-opacity:1;stroke-dasharray:none"
       id="path3028"
       d="m 351.81302,46.29417 c -2.91108,3.199345 -6.22178,6.021224 -9.48386,8.853623 -2.5252,2.195889 -5.06365,4.376228 -7.58874,6.572259 -0.80846,0.703101 -1.80279,-0.440234 -0.99433,-1.143336 l 0,0 c 2.52542,-2.196297 5.06416,-4.37696 7.58971,-6.573104 3.2011,-2.778834 6.44911,-5.547687 9.31319,-8.679468 0.68591,-0.823095 1.84994,0.146931 1.16403,0.970026 z"
       inkscape:connector-curvature="0"
       transform="translate(0,852.36215)" />
    <path
       style="opacity:0.33628319000000001;fill:#000000;fill-opacity:1;stroke:#ff0000;stroke-width:0;stroke-miterlimit:4;stroke-opacity:1;stroke-dasharray:none"
       id="path3030"
       d="m 224.37678,99.660407 c 1.34418,-0.464323 2.72728,-0.662876 4.10582,-0.27137 1.42486,0.768343 1.60846,1.865363 1.0932,3.304223 -0.63143,1.38014 -1.61613,2.54406 -2.61369,3.67076 -0.14144,0.12205 -1.37269,1.49839 -1.26777,1.65375 0.0391,0.0579 0.10413,-0.12613 0.0825,-0.19254 -0.0696,-0.21427 -0.22382,-0.39107 -0.33573,-0.58661 0.95064,-0.18418 1.87768,-0.45985 2.81266,-0.70773 1.03569,-0.27441 1.42377,1.19027 0.38808,1.46469 l 0,0 c -1.17537,0.31123 -2.36177,0.75554 -3.59196,0.70689 -0.25948,-0.23497 -0.60468,-0.40104 -0.77845,-0.70493 -0.38086,-0.66603 1.18729,-2.23267 1.55658,-2.63844 0.8797,-0.99185 1.75627,-2.01054 2.33535,-3.21457 0.21694,-0.48275 0.3557,-0.9417 -0.13423,-1.30969 -1.0299,-0.38488 -2.16447,-0.0375 -3.17325,0.26304 -1.01645,0.33881 -1.49561,-1.098657 -0.47916,-1.437473 z"
       inkscape:connector-curvature="0"
       transform="translate(0,852.36215)" />
    <path
       style="opacity:0.33628319;fill:#000000;fill-opacity:1;stroke:#ff0000;stroke-width:0;stroke-miterlimit:4;stroke-opacity:1;stroke-dasharray:none"
       id="path3032"
       d="m 236.17326,103.2633 c 0.098,0.60164 0.14176,1.20674 0.29705,1.79811 0.0363,0.13836 0.0784,0.27551 0.12902,0.4093 0.0235,0.0622 0.15844,0.16641 0.0927,0.17668 -0.0664,0.0104 -0.0657,-0.11718 -0.0986,-0.17577 -0.74606,-0.0436 -1.05452,0.21117 -0.83882,-0.29854 0.21793,-0.51495 0.47348,-0.84296 0.89617,-1.20505 0.76835,-0.50666 1.12845,-0.066 1.85309,0.0709 0.15362,0.029 0.3122,-0.0173 0.46835,-0.0251 0.73191,-0.3647 1.38047,-0.86364 2.13321,-1.21013 1.16347,-0.44607 1.86132,-0.004 2.87291,0.49326 0.96048,0.4748 0.28901,1.83312 -0.67147,1.35832 l 0,0 c -0.54942,-0.27282 -0.94156,-0.66331 -1.57643,-0.47126 -0.93235,0.41281 -1.67615,1.19256 -2.71234,1.34434 -0.48841,0.009 -0.9815,0.0216 -1.42789,-0.21638 -0.0962,-0.0513 0.16457,-0.15096 -0.0193,-0.14008 -0.87461,0.34042 -0.0228,1.75302 -1.92839,1.47944 -0.77272,-0.85613 -0.80064,-2.04231 -0.96393,-3.13892 -0.17614,-1.05685 1.31847,-1.30595 1.49461,-0.2491 z"
       inkscape:connector-curvature="0"
       transform="translate(0,852.36215)" />
    <path
       style="opacity:0.33628319;fill:#000000;fill-opacity:1;stroke:#ff0000;stroke-width:0;stroke-miterlimit:4;stroke-opacity:1;stroke-dasharray:none"
       id="path3034"
       d="m 238.64854,14.554844 c -0.01,2.31021 -0.43229,4.608038 -0.88962,6.866317 -0.60263,2.600398 -1.27116,5.185412 -1.76444,7.809619 0.0155,0.365298 -0.27132,1.239353 0.09,1.584321 0.0629,0.06006 0.12005,-0.130493 0.19692,-0.17116 0.10801,-0.05713 0.22522,-0.09485 0.33783,-0.142272 1.87357,-0.796712 3.48955,-2.080747 5.05799,-3.355326 1.00508,-0.925752 0.52271,-0.46247 1.44948,-1.38737 0.75888,-0.756352 1.82852,0.316857 1.06965,1.07321 l 0,0 c -0.99348,0.988955 -0.47328,0.491003 -1.56392,1.49038 -1.73866,1.411065 -3.53775,2.834615 -5.64566,3.649084 -0.30669,0.05741 -0.60823,0.183055 -0.92006,0.172236 -1.74563,-0.06057 -1.75757,-1.925628 -1.56132,-3.193314 0.49563,-2.631086 1.16119,-5.22408 1.76857,-7.830787 0.43913,-2.158793 0.84672,-4.356386 0.85935,-6.564938 0,-1.071429 1.51523,-1.071429 1.51523,0 z"
       inkscape:connector-curvature="0"
       transform="translate(0,852.36215)" />
    <path
       style="opacity:0.33628319;fill:#000000;fill-opacity:1;stroke:#ff0000;stroke-width:0;stroke-miterlimit:4;stroke-opacity:1;stroke-dasharray:none"
       id="path3036"
       d="m 236.49861,23.393891 c 1.69882,-0.669504 3.41966,-1.290774 5.08699,-2.036754 0.96802,-0.509968 2.01522,-0.90837 2.71497,-1.780783 0.69444,-0.81591 1.84831,0.16618 1.15387,0.982089 l 0,0 c -0.89291,1.012469 -2.03763,1.613 -3.2511,2.182282 -1.7137,0.763643 -3.47875,1.407778 -5.22557,2.090638 -1.01645,0.338815 -1.49561,-1.098657 -0.47916,-1.437472 z"
       inkscape:connector-curvature="0"
       transform="translate(0,852.36215)" />
    <path
       style="opacity:0.33628319;fill:#000000;fill-opacity:1;stroke:#ff0000;stroke-width:0;stroke-miterlimit:4;stroke-opacity:1;stroke-dasharray:none"
       id="path3038"
       d="m 237.18035,14.791336 c 3.14937,-0.745963 6.26728,-1.60696 9.35681,-2.569893 2.69036,-0.884818 5.32221,-1.929471 7.95341,-2.9733387 0.99592,-0.3950982 1.55468,1.0133457 0.55876,1.4084437 l 0,0 c -2.66674,1.057912 -5.33439,2.116032 -8.06149,3.011548 -3.11726,0.970699 -6.26252,1.840858 -9.43999,2.593228 -1.03944,0.25986 -1.40694,-1.210128 -0.3675,-1.469988 z"
       inkscape:connector-curvature="0"
       transform="translate(0,852.36215)" />
    <path
       style="opacity:0.33628319;fill:#000000;fill-opacity:1;stroke:#ff0000;stroke-width:0;stroke-miterlimit:4;stroke-opacity:1;stroke-dasharray:none"
       id="path3040"
       d="m 437.30322,172.62888 c 0.27368,-0.84506 0.46708,-2.74343 1.97704,-1.82263 0.24607,0.15006 0.14287,0.55846 0.2143,0.83769 -0.11145,1.67288 -0.51839,3.31806 -0.94788,4.93455 -0.33491,1.37925 -0.80987,2.71243 -1.43746,3.98347 0.26268,-0.5636 -0.0634,0.22666 -1.17876,-0.84987 -0.0584,-0.0564 1.35106,-1.9511 1.46684,-2.10152 1.02977,-1.45161 2.28675,-2.72132 3.61172,-3.90215 0.80996,-0.73702 1.36272,-1.47608 1.53434,0.77403 0.002,0.027 -0.68525,0.64819 -0.88254,0.82831 -0.96334,0.89608 -1.98681,1.72093 -2.9913,2.56926 -0.3142,0.15402 -0.24924,0.59486 -0.19177,0.33595 0.0608,-0.27393 -0.13765,-0.34014 0.19417,-0.28214 0.97349,0.13516 1.96217,0.11035 2.94284,0.11078 0.42105,-0.0309 0.82053,-0.12459 1.218,-0.2597 1.02018,-0.3274 1.48319,1.11535 0.46301,1.44275 l 0,0 c -0.55212,0.17034 -1.09921,0.31065 -1.68171,0.33217 -1.11659,-5.4e-4 -2.24639,0.0337 -3.34929,-0.1665 -1.54242,-0.49046 -1.67021,-1.56937 -0.5722,-2.67154 0.99063,-0.83444 1.99726,-1.6487 2.94702,-2.53041 0.14519,-0.13236 0.29148,-0.26354 0.43558,-0.39709 0.11163,-0.10344 0.19156,-0.37348 0.33157,-0.31385 1.7537,0.7469 1.30266,0.68067 0.60872,1.36067 -1.25773,1.11374 -2.44377,2.32037 -3.4179,3.69428 -0.42658,0.55297 -0.83702,1.10247 -1.21152,1.69192 -0.0915,0.14397 -0.10285,0.43661 -0.27337,0.43256 -1.6742,-0.0397 -1.55676,-0.0793 -1.36208,-0.76877 0.58318,-1.18102 1.02293,-2.41998 1.33189,-3.70254 0.39437,-1.4773 0.76176,-2.97893 0.89739,-4.50437 0.0654,0.0533 0.11192,0.15923 0.19629,0.15979 0.3528,0.002 1.19191,-0.51075 1.0409,-0.19188 -0.21879,0.46202 -0.31004,0.97587 -0.47637,1.45594 -0.33881,1.01645 -1.77628,0.53729 -1.43747,-0.47916 z"
       inkscape:connector-curvature="0"
       transform="translate(0,852.36215)" />
    <path
       style="opacity:0.33628319;fill:#000000;fill-opacity:1;stroke:#ff0000;stroke-width:0;stroke-miterlimit:4;stroke-opacity:1;stroke-dasharray:none"
       id="path3042"
       d="m 433.59338,166.36232 c 1.67085,-0.21884 3.35079,-0.31591 5.02177,-0.53551 1.51991,-0.20681 3.04856,-0.33065 4.58061,-0.39456 0.15024,-0.0239 0.52074,-0.0642 0.69183,-0.14405 0.052,-0.0243 -0.12813,-0.007 -0.16896,0.0336 -0.31966,0.31609 -0.14886,0.54049 -0.47726,0.26228 -0.73896,-0.62843 -1.59925,-1.10241 -2.42601,-1.60626 -0.83237,-0.54953 -1.26603,-1.32207 0.0793,-1.84808 0.0908,-0.0355 0.73171,0.20753 0.86622,0.25582 1.15249,0.53617 2.28679,1.13772 3.32593,1.87158 0.91405,0.69531 1.80048,1.68212 1.47345,2.9343 -0.0683,0.2614 -0.21924,0.49386 -0.32885,0.74079 -0.75377,1.19331 -1.94137,1.91296 -3.15956,2.55364 -0.9498,0.49584 -1.65101,-0.84737 -0.70122,-1.34321 l 0,0 c 0.94049,-0.4867 1.88517,-1.01852 2.51208,-1.90104 0.53741,-0.74602 -0.0453,-1.27182 -0.67626,-1.75124 -0.9185,-0.66462 -1.94352,-1.17711 -2.95779,-1.6788 -0.76986,-0.27669 -0.008,-0.0175 0.26564,-0.83974 0.14064,-0.42217 -0.55774,-0.73676 0.0906,-0.28729 0.94075,0.57522 1.92445,1.11135 2.73996,1.86114 1.2267,1.41453 0.5777,2.26274 -1.08616,2.40047 -1.48714,0.0616 -2.97093,0.18221 -4.44626,0.38297 -1.65377,0.21701 -3.31561,0.31848 -4.96995,0.52779 -1.05685,0.17614 -1.30595,-1.31847 -0.2491,-1.49461 z"
       inkscape:connector-curvature="0"
       transform="translate(0,852.36215)" />
    <path
       style="opacity:0.33628319;fill:#000000;fill-opacity:1;stroke:#ff0000;stroke-width:0;stroke-miterlimit:4;stroke-opacity:1;stroke-dasharray:none"
       id="path3044"
       d="m 319.85586,15.8997 c -1.69693,0 -3.39386,0 -5.09079,0 -2.53506,0.08513 -5.05136,0.396809 -7.57376,0.638806 -2.69053,0.224452 -5.37052,0.542208 -8.06521,0.721118 -1.70558,0.231989 -3.49561,-0.106132 -5.16844,0.340931 -0.59046,0.277004 -0.73668,0.878962 -0.69307,1.488552 0.17718,1.394575 0.29174,2.79335 0.35918,4.1972 0.068,1.742486 0.0746,3.486513 0.08,5.230071 -0.0882,1.354282 0.38316,2.668551 0.14369,4.010841 -0.12817,0.185001 -0.19671,0.430981 -0.38452,0.555002 -1.09053,0.720138 -2.21551,-0.490402 -2.95556,-1.147188 -0.84085,-1.026864 -1.63085,-2.09448 -2.517,-3.084525 -0.18734,-0.228625 -0.41175,-0.524869 -0.63805,-0.727884 -0.19524,-0.175154 -0.5851,-0.274001 -0.34413,-0.237161 0.82872,0.126691 -0.19204,0.660695 1.11509,-0.611688 0.33484,1.004295 0.68241,2.008847 1.04938,3.003456 0.5344,1.110749 1.02226,2.306972 1.91633,3.180969 0.2196,0.191922 0.83371,1.028552 1.18114,0.599091 0.8497,-0.724237 1.42378,-1.712468 2.02633,-2.638942 0.9122,-1.429467 1.74855,-2.91737 2.76615,-4.275565 0.12203,-0.164853 0.24406,-0.329706 0.36609,-0.494559 0.63751,-0.86113 1.85533,0.04044 1.21783,0.90157 l 0,0 c -0.12471,0.168437 -0.24942,0.336875 -0.37413,0.505312 -1.00536,1.322923 -1.80307,2.797124 -2.70603,4.18983 -0.75822,1.16395 -1.48367,2.431827 -2.68075,3.196945 -1.32594,0.475138 -1.95395,0.03176 -2.87584,-0.920085 -1.01828,-1.059264 -1.66973,-2.385306 -2.259,-3.720956 -0.40048,-1.089479 -0.80015,-2.185956 -1.12541,-3.298634 0.24523,-0.330619 0.3943,-0.761847 0.73568,-0.991858 0.38573,-0.259887 1.6028,1.099063 1.76083,1.332388 0.8424,0.949847 1.62726,1.948167 2.39281,2.960384 0.0785,0.07009 1.15574,0.959187 1.13283,0.99029 -0.32814,0.445486 -0.23473,0.0045 -0.28032,0.410146 0.32145,-0.963403 -0.41848,-2.626329 -0.17866,-3.68246 -0.005,-1.720969 -0.0116,-3.442398 -0.0783,-5.162325 -0.0679,-1.422812 -0.19561,-2.838427 -0.36082,-4.253144 0.0242,-1.340674 0.50065,-2.478254 1.84148,-2.975252 1.77881,-0.421994 3.62375,-0.208588 5.43491,-0.38266 2.6799,-0.177507 5.34503,-0.494994 8.02083,-0.71752 2.57041,-0.246377 5.13481,-0.564195 7.7184,-0.645725 1.69693,0 3.39386,0 5.09079,0 1.07143,0 1.07143,1.515229 0,1.515229 z"
       inkscape:connector-curvature="0"
       transform="translate(0,852.36215)" />
    <path
       style="opacity:0.33628319;fill:#000000;fill-opacity:1;stroke:#ff0000;stroke-width:0;stroke-miterlimit:4;stroke-opacity:1;stroke-dasharray:none"
       id="path3046"
       d="m 351.04604,111.79347 c -1.78138,-0.30747 -3.56074,-0.58846 -5.36284,-0.74647 -2.70531,-0.18862 -5.41937,0.0719 -8.11346,0.31144 -3.33881,0.40038 -6.6792,0.79499 -10.01227,1.24049 -2.48542,0.35198 -4.98377,0.59239 -7.49009,0.72357 -1.0629,0.0551 -2.87452,-0.23477 -2.15731,-1.78532 0.10043,-0.21713 0.29774,-0.37454 0.44661,-0.56181 1.02194,-1.04028 2.19572,-1.88402 3.40575,-2.68624 1.12811,-0.76648 2.26822,-1.53423 3.5006,-2.12399 0.86462,-0.38836 1.08029,-0.5143 0.99145,1.33804 -0.006,0.11492 -1.67575,1.31228 -1.8109,1.40898 -1.77516,1.25349 -3.54921,2.50045 -5.27719,3.81934 -0.29333,0.21033 -2.74292,1.88867 -2.39851,2.26835 0.009,-0.059 -0.0186,-0.32567 0.14325,-0.32062 0.35215,0.011 0.69535,0.12828 1.04742,0.14177 0.41879,0.0161 1.42249,-0.0492 1.78855,-0.0687 0.37682,-0.0425 0.75363,-0.085 1.13045,-0.12746 1.06482,-0.11883 1.23288,1.38705 0.16806,1.50588 l 0,0 c -0.40619,0.0449 -0.81238,0.0898 -1.21857,0.1347 -1.06463,0.0556 -3.43496,0.31343 -4.23946,-0.63468 -0.18069,-0.21295 -0.21897,-0.51384 -0.32846,-0.77075 0.0375,-0.20398 0.0417,-0.41695 0.11241,-0.61192 0.458,-1.26345 1.9132,-1.92356 2.87561,-2.72106 1.74082,-1.32836 3.5277,-2.58514 5.31582,-3.84786 0.58011,-0.41344 0.71888,-0.49628 1.24801,-0.93053 0.15113,-0.12404 0.26719,-0.46824 0.44354,-0.38381 0.42595,0.2039 0.62645,0.70699 0.95004,1.05093 0.007,0.007 0.0114,-0.0153 0.0171,-0.023 -0.10407,0.0476 -0.20813,0.0952 -0.31219,0.14283 -1.17287,0.54279 -2.23604,1.30464 -3.30981,2.0165 -1.10219,0.73063 -2.1741,1.49117 -3.11214,2.43184 -0.0605,0.0475 -0.10518,0.15216 -0.18143,0.1424 -0.0642,-0.008 -0.0383,-0.1282 -0.0818,-0.1761 -0.0995,-0.10952 -0.21754,-0.20208 -0.33886,-0.28681 -0.0155,-0.0109 -0.01,0.0514 0.009,0.0562 0.14017,0.0369 0.28629,0.0475 0.43074,0.0594 0.22066,0.0181 0.44234,0.0203 0.66351,0.0304 2.46571,-0.12858 4.92345,-0.36601 7.36855,-0.7123 3.35524,-0.44781 6.71754,-0.84656 10.07868,-1.24786 2.78287,-0.24741 5.58628,-0.51165 8.38057,-0.31156 1.8409,0.16277 3.65919,0.44711 5.47902,0.76124 1.05685,0.17615 0.80775,1.67076 -0.2491,1.49462 z"
       inkscape:connector-curvature="0"
       transform="translate(0,852.36215)" />
    <text
       xml:space="preserve"
       style="font-size:14px;font-style:normal;font-weight:normal;line-height:125%;letter-spacing:0px;word-spacing:0px;fill:#000000;fill-opacity:1;stroke:none;font-family:Sans"
       x="327.79449"
       y="17.667467"
       id="text3048"
       sodipodi:linespacing="125%"
       transform="translate(0,852.36215)"><tspan
         sodipodi:role="line"
         id="tspan3050"
         x="327.79449"
         y="17.667467">,multi-particle continuum</tspan></text>
    <text
       xml:space="preserve"
       style="font-size:16px;font-style:normal;font-weight:normal;line-height:125%;letter-spacing:0px;word-spacing:0px;fill:#000000;fill-opacity:1;stroke:none;font-family:Sans"
       x="356.58386"
       y="112.62181"
       id="text3052"
       sodipodi:linespacing="125%"
       transform="translate(0,852.36215)"><tspan
         sodipodi:role="line"
         id="tspan3054"
         x="356.58386"
         y="112.62181">one-particle</tspan></text>
    <path
       style="opacity:0.33628319000000001;fill:#000080;fill-opacity:1;stroke:#ff0000;stroke-width:0;stroke-miterlimit:4;stroke-opacity:1;stroke-dasharray:none"
       id="path3064"
       d="m 198.59753,99.110713 c -0.59881,1.422267 -0.84067,2.917807 -0.79562,4.453887 0.19127,1.38904 0.8297,2.66825 1.54792,3.85606 0.75405,1.06025 1.49881,2.11484 1.98921,3.32487 0.47162,1.33316 0.43557,2.23112 -0.46772,3.34553 -1.02996,1.10363 -2.54186,1.52738 -3.96436,1.87656 -1.58358,0.31854 -3.1937,0.51745 -4.7903,0.22215 -1.52849,-0.52934 -2.27545,-1.39328 -1.82402,-3.02547 0.58582,-1.31531 1.54534,-1.46818 2.81663,-1.05951 1.33544,0.71581 1.68286,2.00459 1.76867,3.41813 -0.0641,1.71048 -0.55104,3.35705 -1.01576,4.99164 -0.25032,1.09453 -0.64427,2.33912 0.15937,3.27306 0.97983,0.87275 2.28459,0.98878 3.53441,1.11483 1.06583,0.10939 0.91112,1.6167 -0.15471,1.50731 l 0,0 c -1.68504,-0.17566 -3.36751,-0.42961 -4.59418,-1.71607 -0.14364,-0.20673 -0.31679,-0.3958 -0.43092,-0.62017 -0.62525,-1.22917 -0.26825,-2.71013 0.0286,-3.97333 0.41937,-1.47503 0.86263,-2.95697 0.96015,-4.49652 -0.035,-0.79917 -0.0965,-1.54389 -0.77043,-2.0738 -0.4255,-0.1989 -0.65617,-0.33073 -0.8795,0.15694 -0.47261,0.34299 0.38242,0.99237 0.69373,1.01613 1.37035,0.29145 2.77839,0.0313 4.14108,-0.20783 1.10593,-0.26462 2.33602,-0.56169 3.16528,-1.38327 0.57119,-0.62165 0.48351,-0.99483 0.21652,-1.80518 -0.44454,-1.13962 -1.19864,-2.09888 -1.88035,-3.10532 -0.84784,-1.41751 -1.58705,-2.93869 -1.76409,-4.60148 -0.0309,-1.68407 0.19318,-3.3426 0.8535,-4.905412 0.29435,-1.030204 1.75127,-0.613939 1.45693,0.416265 z"
       inkscape:connector-curvature="0"
       transform="translate(0,852.36215)" />
    <path
       style="opacity:0.33628319;fill:#000080;fill-opacity:1;stroke:#ff0000;stroke-width:0;stroke-miterlimit:4;stroke-opacity:1;stroke-dasharray:none"
       id="path3066"
       d="m 187.52588,116.40988 c -2.11011,-0.2258 -4.23126,-0.30196 -6.34511,-0.47655 -2.90916,-0.28857 -5.83034,-0.40565 -8.75157,-0.47912 -2.44343,-0.10246 -4.88184,0.0467 -7.23917,0.71167 -1.51314,0.45696 -2.62309,1.30423 -3.27555,2.73962 -0.5527,1.7619 -0.57758,3.64669 -0.50496,5.47655 0.0751,2.05509 0.34112,4.08708 0.62121,6.12105 0.27653,1.05277 0.29411,2.21236 0.8126,3.18543 0.47198,0.96187 -0.88831,1.62935 -1.36029,0.66748 l 0,0 c -0.53724,-1.15098 -0.70289,-2.40796 -0.95338,-3.64624 -0.2868,-2.08348 -0.55699,-4.16549 -0.63429,-6.27045 -0.0749,-2.07362 -0.0412,-4.20709 0.65146,-6.18607 0.93319,-1.89284 2.21209,-2.91109 4.23577,-3.5468 2.5059,-0.69312 5.08835,-0.88309 7.68474,-0.76699 2.95027,0.0744 5.90048,0.1928 8.8386,0.48382 2.07215,0.17241 4.15235,0.23857 6.21994,0.47137 1.07143,0 1.07143,1.51523 0,1.51523 z"
       inkscape:connector-curvature="0"
       transform="translate(0,852.36215)" />
    <path
       style="opacity:0.33628319;fill:#000080;fill-opacity:1;stroke:#ff0000;stroke-width:0;stroke-miterlimit:4;stroke-opacity:1;stroke-dasharray:none"
       id="path3068"
       d="m 112.02438,149.36641 c 0.43327,-1.69542 0.96879,-3.36229 1.36062,-5.06812 0.3265,-1.51212 0.34997,-3.10345 1.02746,-4.51618 0.15781,-0.14558 0.27482,-0.35518 0.47343,-0.43673 1.32716,-0.54498 2.29102,1.17499 2.88771,2.04683 0.78892,1.46421 1.66189,2.88769 2.3943,4.38174 0.6059,1.42451 0.912,2.36155 -0.14893,3.64205 -1.16046,0.85643 -2.69546,0.8485 -4.07948,0.78079 -0.90826,-0.0532 -1.7911,-0.20941 -2.65965,-0.47425 -1.02324,-0.31769 -0.57395,-1.76478 0.44929,-1.44708 l 0,0 c 0.74711,0.2374 1.51007,0.3566 2.29289,0.40835 0.95065,0.0586 1.99162,0.0624 2.88741,-0.29972 0.65958,-0.46213 0.10606,-1.3748 -0.103,-1.94507 -0.69637,-1.43116 -1.54314,-2.78633 -2.28519,-4.19386 -0.3028,-0.44709 -0.43885,-0.67706 -0.77526,-1.07514 -0.0912,-0.10792 -0.21438,-0.18944 -0.29111,-0.30808 -0.1087,-0.16806 0.40536,-0.18035 0.31163,-0.39976 -0.6862,1.25887 -0.50882,2.82704 -0.90499,4.17644 -0.40021,1.73077 -0.9377,3.42397 -1.38021,5.14405 -0.29434,1.03021 -1.75127,0.61394 -1.45692,-0.41626 z"
       inkscape:connector-curvature="0"
       transform="translate(0,852.36215)" />
    <path
       style="opacity:0.33628319;fill:#000080;fill-opacity:1;stroke:#ff0000;stroke-width:0;stroke-miterlimit:4;stroke-opacity:1;stroke-dasharray:none"
       id="path3070"
       d="m 126.45088,140.88805 c -0.36904,1.66943 -0.88123,3.29943 -1.4237,4.91933 -0.3803,1.23533 -0.95555,2.66983 -0.48157,3.95683 0.40559,0.49881 1.16556,0.21085 1.68597,0.0262 0.5076,-0.20646 0.92894,-0.53124 1.33997,-0.88353 0.82246,-0.68667 1.79356,0.47647 0.9711,1.16314 l 0,0 c -0.56856,0.46575 -1.14203,0.9017 -1.84096,1.16085 -1.39082,0.42927 -2.87211,0.47339 -3.60364,-1.01896 -0.46175,-1.65071 -0.0823,-3.30242 0.49242,-4.88602 0.51776,-1.54404 1.00637,-3.09749 1.3658,-4.68699 0.17614,-1.05685 1.67075,-0.80774 1.49461,0.24911 z"
       inkscape:connector-curvature="0"
       transform="translate(0,852.36215)" />
    <path
       style="opacity:0.33628319;fill:#000080;fill-opacity:1;stroke:#ff0000;stroke-width:0;stroke-miterlimit:4;stroke-opacity:1;stroke-dasharray:none"
       id="path3072"
       d="m 123.47655,145.14912 c 1.18266,-0.214 2.30594,-0.57141 3.38795,-1.08936 0.96813,-0.45902 1.61728,0.91012 0.64915,1.36913 l 0,0 c -1.21212,0.57003 -2.4659,0.98072 -3.78799,1.21484 -1.05686,0.17614 -1.30596,-1.31847 -0.24911,-1.49461 z"
       inkscape:connector-curvature="0"
       transform="translate(0,852.36215)" />
    <path
       style="opacity:0.33628319;fill:#000080;fill-opacity:1;stroke:#ff0000;stroke-width:0;stroke-miterlimit:4;stroke-opacity:1;stroke-dasharray:none"
       id="path3074"
       d="m 123.8666,139.56143 c 1.19179,-0.32503 2.38403,-0.65421 3.58365,-0.95163 1.04002,-0.25756 1.40426,1.21324 0.36425,1.47079 l 0,0 c -1.16112,0.28721 -2.31434,0.60764 -3.46874,0.91831 -1.01645,0.33882 -1.4956,-1.09865 -0.47916,-1.43747 z"
       inkscape:connector-curvature="0"
       transform="translate(0,852.36215)" />
    <path
       style="opacity:0.33628319;fill:#000080;fill-opacity:1;stroke:#ff0000;stroke-width:0;stroke-miterlimit:4;stroke-opacity:1;stroke-dasharray:none"
       id="path3076"
       d="m 132.81703,146.78518 c 1.5103,0.20013 3.03267,0.37043 4.5573,0.31747 1.33771,-0.0354 2.63021,-0.27443 3.88353,-0.73064 0.186,-0.10342 0.41337,-0.19262 0.54001,-0.38088 0.0106,-0.0157 0.0501,-0.18072 -0.0538,-0.14277 -0.0378,0.0138 -0.0526,0.0821 -0.0925,0.0774 -0.0666,-0.008 -0.11308,-0.072 -0.16962,-0.10799 -1.04284,-0.68993 -2.3105,-0.85742 -3.52467,-1.00713 -0.15039,-0.32853 -0.69743,0.12797 -0.90099,-0.0951 -0.0674,-0.0739 0.26724,0.0725 0.29928,-0.0222 0.14216,-0.42041 0.0159,-0.90099 0.15536,-1.32229 0.0285,-0.0862 0.17961,0.0269 0.26967,0.0385 0.18167,0.0234 0.36366,0.0442 0.54549,0.0663 1.64464,0.26248 3.28822,0.51584 4.90393,0.92477 1.20387,0.34739 2.62366,1.31913 1.77055,2.73687 -0.13234,0.21993 -0.34374,0.38128 -0.51561,0.57192 -1.01212,0.85358 -2.23896,1.36234 -3.4128,1.94289 -0.96064,0.47447 -1.63165,-0.88408 -0.671,-1.35856 l 0,0 c 1.02539,-0.50581 2.09428,-0.94817 3.00743,-1.65081 0.0804,-0.0639 0.15098,-0.14263 0.24114,-0.19185 0.0739,-0.0403 0.19615,0.15516 0.23881,0.0825 0.17983,-0.30611 -1.0399,-0.65425 -1.03233,-0.6646 -1.55345,-0.39799 -3.13664,-0.63163 -4.71792,-0.88963 -0.30264,-0.0387 -1.16436,-0.1336 -1.19783,-0.20464 -0.90515,-1.92091 0.13903,-1.55797 1.20407,-1.46772 1.53942,0.19342 3.1222,0.44848 4.3871,1.41799 0.15449,0.16671 0.34985,0.30329 0.46348,0.50014 0.66897,1.15898 -0.1814,2.11748 -1.22039,2.5712 -1.40504,0.50825 -2.85567,0.77999 -4.35331,0.82076 -1.62424,0.0453 -3.24509,-0.11324 -4.8534,-0.33736 -1.05685,-0.17614 -0.80775,-1.67075 0.2491,-1.49461 z"
       inkscape:connector-curvature="0"
       transform="translate(0,852.36215)" />
    <path
       style="opacity:0.33628319;fill:#000080;fill-opacity:1;stroke:#ff0000;stroke-width:0;stroke-miterlimit:4;stroke-opacity:1;stroke-dasharray:none"
       id="path3078"
       d="m 153.27174,143.2591 c -1.07461,0.99779 -1.95107,2.12839 -2.49044,3.49372 -0.29006,1.24055 -0.14368,1.93201 1.01794,2.48276 1.58937,0.57234 2.91275,0.1192 4.33243,-0.62884 0.96845,-0.73992 2.26223,-1.75217 1.94019,-3.12116 -0.82013,-1.05069 -2.44405,-1.08984 -3.66734,-1.13891 -0.30851,0.006 -0.61703,0.0124 -0.92554,0.0187 -1.07125,0.0198 -1.09919,-1.49521 -0.0279,-1.51497 l 0,0 c 0.3413,-0.006 0.68259,-0.0115 1.02389,-0.0173 1.56932,0.0813 3.68825,0.21634 4.70456,1.63468 0.17971,0.25081 0.26446,0.55756 0.39669,0.83634 0.0217,0.30537 0.0917,0.61111 0.0653,0.91611 -0.14338,1.65456 -1.57167,2.83565 -2.80996,3.73047 -1.95473,1.00769 -3.61474,1.44414 -5.75051,0.61907 -0.26142,-0.15063 -0.54607,-0.26671 -0.78428,-0.45188 -1.2428,-0.96609 -1.31629,-2.53178 -0.91984,-3.93378 0.6374,-1.5442 1.59057,-2.86277 2.82347,-3.99642 0.75761,-0.75761 1.82904,0.31381 1.07142,1.07143 z"
       inkscape:connector-curvature="0"
       transform="translate(0,852.36215)" />
    <path
       style="opacity:0.33628319;fill:#000080;fill-opacity:1;stroke:#ff0000;stroke-width:0;stroke-miterlimit:4;stroke-opacity:1;stroke-dasharray:none"
       id="path3080"
       d="m 171.27861,145.31365 c -1.03145,0.73871 -1.88645,1.62277 -2.43265,2.77046 -0.0965,0.36318 -0.61628,1.33238 -0.002,1.4732 0.62791,-0.16648 1.13814,-0.4287 1.64251,-0.83882 0.55695,-0.54205 0.81961,-1.2141 0.77724,-1.97935 -0.13365,-0.40483 -0.18694,-0.0885 0.0214,-0.0202 1.01614,0.33313 0.35102,-0.0416 0.89305,-0.0647 0.2559,0.26117 0.65086,0.38234 1.00738,0.37813 0.66495,-6.1e-4 0.99722,-0.47308 1.272,-1.02009 0.40757,-0.90383 0.36502,-1.91048 0.74479,-2.81971 0.17875,-0.15073 0.3118,-0.38667 0.53625,-0.45219 1.0368,-0.30264 1.85074,0.91916 2.4355,1.54282 1.01925,0.99476 1.61681,1.83118 0.76782,3.18248 -0.51615,0.51429 -1.10493,0.62122 -1.78716,0.73583 -1.05858,0.16545 -1.29256,-1.33161 -0.23398,-1.49706 l 0,0 c 0.24436,-0.0339 0.52351,-0.11635 0.76829,-0.091 0.0433,-0.0519 0.0867,-0.10381 0.13001,-0.15572 0.0296,0.035 0.0563,0.13733 0.0886,0.1049 0.20051,-0.20121 -0.71405,-1.14089 -0.83978,-1.24389 -0.21857,-0.23382 -0.41931,-0.48412 -0.6418,-0.71421 -0.30044,-0.31071 -0.44249,-0.34488 -0.40295,-0.38133 1.03138,-0.95081 -0.28604,0.80507 0.56098,-0.40895 -0.4754,0.87741 -0.18978,2.078 -0.79992,2.93002 -0.61229,1.05501 -1.41939,1.84768 -2.72595,1.79798 -1.17096,-0.1416 -2.22298,-0.67505 -2.39382,-1.95616 0.0299,-0.19839 0.0108,-0.41068 0.0897,-0.59517 0.60131,-1.40716 1.99209,-0.39295 2.02407,0.7014 0.0206,1.25418 -0.40997,2.35466 -1.35051,3.21359 -1.00403,0.78155 -2.19118,1.39223 -3.46484,0.8841 -1.2502,-1.03553 -0.99764,-1.98696 -0.47805,-3.3714 0.68704,-1.37801 1.68812,-2.48167 2.95342,-3.36572 0.89148,-0.59432 1.73198,0.66643 0.8405,1.26075 z"
       inkscape:connector-curvature="0"
       transform="translate(0,852.36215)" />
    <path
       style="opacity:0.33628319;fill:#000080;fill-opacity:1;stroke:#ff0000;stroke-width:0;stroke-miterlimit:4;stroke-opacity:1;stroke-dasharray:none"
       id="path3082"
       d="m 186.17071,143.6694 c 0.0813,0.25294 0.60914,2.65907 0.92881,2.47638 -0.0209,-0.33001 -0.33914,-0.0469 -0.44514,-0.16426 -0.0931,-0.10311 0.58693,-0.95567 0.68292,-1.05626 1.393,-0.71341 1.41539,0.52389 2.06447,1.23255 0.096,-0.0206 -0.17821,-0.10394 -0.27641,-0.10203 -0.0477,9.2e-4 -0.13587,0.0823 -0.13892,0.0347 -0.0121,-0.18893 0.17631,-0.33546 0.25182,-0.50906 0.3587,-0.64566 0.82302,-1.76497 1.78772,-1.55093 0.23324,0.0517 0.41086,0.24394 0.61629,0.36591 0.30366,0.35363 0.47599,0.78808 0.68123,1.20047 0.47724,0.95927 -0.87938,1.63418 -1.35661,0.67491 l 0,0 c -0.13262,-0.26667 -0.25544,-0.53732 -0.39302,-0.80093 0.7238,0.157 0.72139,-0.48144 0.21456,0.44114 -0.0546,0.0994 -0.11329,0.19642 -0.16994,0.29463 -0.50359,1.08343 -1.2257,1.9223 -2.3865,0.91431 -0.0598,-0.0761 -0.71336,-0.99366 -0.59062,-0.997 0.73915,-0.0201 0.30431,0.22021 0.73976,-0.1003 -0.23569,0.12572 -0.3445,0.56032 -0.46385,0.74048 -0.41682,0.62927 -0.93236,0.87398 -1.67114,0.63376 -1.09257,-0.89353 -1.22554,-2.17978 -1.57004,-3.47934 -0.17614,-1.05685 1.31847,-1.30595 1.49461,-0.2491 z"
       inkscape:connector-curvature="0"
       transform="translate(0,852.36215)" />
    <path
       style="opacity:0.33628319;fill:#000080;fill-opacity:1;stroke:#ff0000;stroke-width:0;stroke-miterlimit:4;stroke-opacity:1;stroke-dasharray:none"
       id="path3084"
       d="m 194.18723,146.15927 c 0.29855,-0.01 2.40681,-0.33066 2.05852,-0.90773 -0.18363,-0.40804 -0.52849,-0.74228 -0.80091,-1.10289 0.46763,-0.21056 0.90498,-0.50875 1.40287,-0.63169 0.0985,-0.0243 0.11549,0.16869 0.18903,0.23861 0.45581,0.4334 1.08863,0.77976 1.61731,1.11479 0.81383,0.57407 2.01675,1.10621 2.30178,2.16708 0.0559,0.2079 0.0282,0.42962 0.0424,0.64444 -0.25343,0.91262 -0.93186,1.18689 -1.76833,1.40374 -1.04131,0.25226 -1.39806,-1.22037 -0.35675,-1.47263 l 0,0 c 0.173,-0.0369 0.51833,-0.22986 0.61148,-0.001 0.58145,0.0545 -1.69714,-1.52854 -1.64432,-1.46331 -0.67978,-0.43457 -1.42335,-0.88259 -1.9961,-1.45822 -0.0946,-0.095 -0.3209,-0.20576 -0.24685,-0.31751 0.28134,-0.42458 0.75672,-0.68196 1.13509,-1.02294 -0.0274,-0.029 -0.11117,-0.11473 -0.0823,-0.0871 0.0757,0.0723 0.15449,0.14213 0.22291,0.22143 0.34096,0.39516 0.66388,0.88375 0.77755,1.40246 0.0497,0.22692 0.0496,0.46196 0.0745,0.69293 -0.0782,0.23572 -0.11081,0.49186 -0.23462,0.70715 -0.59488,1.03439 -2.00682,1.19214 -3.05411,1.36721 -1.05685,0.17614 -1.30595,-1.31847 -0.2491,-1.49461 z"
       inkscape:connector-curvature="0"
       transform="translate(0,852.36215)" />
    <path
       style="opacity:0.33628319;fill:#000080;fill-opacity:1;stroke:#ff0000;stroke-width:0;stroke-miterlimit:4;stroke-opacity:1;stroke-dasharray:none"
       id="path3086"
       d="m 209.36871,140.70365 c -1.39257,0.15831 -2.69838,0.65484 -3.85465,1.43608 -1.1023,0.78967 -1.84483,1.87682 -1.82702,3.25233 0.18897,1.20336 1.10296,1.74665 2.21699,1.94885 1.64146,0.0889 3.00842,-0.64988 4.22907,-1.67087 1.05228,-1.08066 1.61537,-2.02958 1.11512,-3.5175 -0.76597,-1.17258 -2.07106,-1.49343 -3.37987,-1.6309 -0.88115,-0.0318 -0.45745,-0.0486 -1.27156,0.0373 -1.06672,0.10035 -1.20864,-1.40822 -0.14192,-1.50857 l 0,0 c 1.05189,-0.09 0.52457,-0.0784 1.58196,-0.0345 1.93147,0.22678 3.73431,0.86307 4.66483,2.70845 0.0787,0.29166 0.19461,0.57575 0.23605,0.87499 0.22948,1.65722 -0.70237,3.13658 -1.84191,4.24089 -1.60207,1.30069 -3.38886,2.18851 -5.51193,1.98179 -2.02653,-0.48329 -3.09312,-1.31634 -3.4117,-3.46261 0.0865,-2.01746 0.88922,-3.28607 2.50608,-4.48345 1.34759,-0.87631 2.83063,-1.48707 4.44136,-1.66684 1.05685,-0.17614 1.30595,1.31847 0.2491,1.49462 z"
       inkscape:connector-curvature="0"
       transform="translate(0,852.36215)" />
    <text
       xml:space="preserve"
       style="font-size:16px;font-style:normal;font-weight:normal;line-height:125%;letter-spacing:0px;word-spacing:0px;fill:#000000;fill-opacity:1;stroke:none;font-family:Sans"
       x="228.29446"
       y="171.71573"
       id="text3088"
       sodipodi:linespacing="125%"
       transform="translate(0,852.36215)"><tspan
         sodipodi:role="line"
         id="tspan3090"
         x="228.29446"
         y="171.71573">Vacuum</tspan></text>
  </g>
</svg>
