<?xml version="1.0" encoding="UTF-8" standalone="no"?>
<!-- Created with Inkscape (http://www.inkscape.org/) -->

<svg
   xmlns:dc="http://purl.org/dc/elements/1.1/"
   xmlns:cc="http://creativecommons.org/ns#"
   xmlns:rdf="http://www.w3.org/1999/02/22-rdf-syntax-ns#"
   xmlns:svg="http://www.w3.org/2000/svg"
   xmlns="http://www.w3.org/2000/svg"
   xmlns:sodipodi="http://sodipodi.sourceforge.net/DTD/sodipodi-0.dtd"
   xmlns:inkscape="http://www.inkscape.org/namespaces/inkscape"
   width="591.20087"
   height="224.44751"
   id="svg2"
   version="1.1"
   inkscape:version="0.48.2 r9819"
   sodipodi:docname="New document 1">
  <defs
     id="defs4" />
  <sodipodi:namedview
     id="base"
     pagecolor="#ffffff"
     bordercolor="#666666"
     borderopacity="1.0"
     inkscape:pageopacity="0.0"
     inkscape:pageshadow="2"
     inkscape:zoom="1.3995495"
     inkscape:cx="252.85714"
     inkscape:cy="123.04659"
     inkscape:document-units="px"
     inkscape:current-layer="layer1"
     showgrid="false"
     fit-margin-top="0"
     fit-margin-left="0"
     fit-margin-right="0"
     fit-margin-bottom="0"
     inkscape:window-width="1280"
     inkscape:window-height="737"
     inkscape:window-x="-8"
     inkscape:window-y="-8"
     inkscape:window-maximized="1" />
  <metadata
     id="metadata7">
    <rdf:RDF>
      <cc:Work
         rdf:about="">
        <dc:format>image/svg+xml</dc:format>
        <dc:type
           rdf:resource="http://purl.org/dc/dcmitype/StillImage" />
        <dc:title></dc:title>
      </cc:Work>
    </rdf:RDF>
  </metadata>
  <g
     inkscape:label="Layer 1"
     inkscape:groupmode="layer"
     id="layer1"
     transform="translate(-122.14286,-430.96125)">
    <path
       style="fill:none;stroke:#000000;stroke-width:1px;stroke-linecap:butt;stroke-linejoin:miter;stroke-opacity:1"
       d="m 137.85714,498.07647 c 2.00745,-11.25655 9.41151,-52.85714 10,-52.85714 13.53797,0 11.01414,24.73477 16.42857,37.14285 0.30113,0.69009 0.4125,1.45306 0.71429,2.14286 1.36639,3.12318 7.33482,7.76116 4.28571,9.28571 -9.4569,4.72846 -21.02938,2.37566 -31.42857,4.28572 -1.36548,0.2508 -2.29536,1.59597 -3.57143,2.14286 -1.31996,0.5657 -3.12203,-0.4494 -2.14285,-1.42858"
       id="path2985"
       inkscape:connector-curvature="0" />
    <path
       style="fill:none;stroke:#000000;stroke-width:1px;stroke-linecap:butt;stroke-linejoin:miter;stroke-opacity:1"
       d="M 184.28571,477.36218 C 186.641,477.93494 195,475.39955 195,478.07647"
       id="path2987"
       inkscape:connector-curvature="0" />
    <path
       style="fill:none;stroke:#000000;stroke-width:1px;stroke-linecap:butt;stroke-linejoin:miter;stroke-opacity:1"
       d="m 180,490.21933 c 3.28512,0.79445 8.97173,0.31398 11.42857,-2.14286"
       id="path2989"
       inkscape:connector-curvature="0" />
    <path
       style="fill:none;stroke:#000000;stroke-width:1px;stroke-linecap:butt;stroke-linejoin:miter;stroke-opacity:1"
       d="m 232.14286,483.07647 c 2.77252,-0.50621 5.79168,0.46329 8.57143,0 6.82118,-1.13687 13.75569,-1.56298 20.71428,-2.14286 4.72946,-0.39412 9.55146,0.33816 14.28572,0 11.42503,-0.81607 22.84309,-1.46976 34.28571,-2.14286 4.0685,-0.23932 8.07436,-1.18924 12.14286,-1.42857 5.93815,-0.3493 11.92302,-0.31868 17.85714,-0.71428 7.15261,-0.47684 14.37672,-1.13545 21.42857,-2.14286 0.68089,-0.0973 5.71429,-0.0146 5.71429,-1.42857 0,-0.33672 -0.47619,-0.47619 -0.71429,-0.71429"
       id="path2991"
       inkscape:connector-curvature="0" />
    <path
       style="fill:none;stroke:#000000;stroke-width:1px;stroke-linecap:butt;stroke-linejoin:miter;stroke-opacity:1"
       d="m 217.14286,473.79075 c 0.75201,3.99397 3.52563,8.19139 7.14285,10 1.40127,0.70064 -0.0547,1.42858 1.42858,1.42858"
       id="path2993"
       inkscape:connector-curvature="0" />
    <path
       style="fill:none;stroke:#000000;stroke-width:1px;stroke-linecap:butt;stroke-linejoin:miter;stroke-opacity:1"
       d="m 223.57143,473.07647 c -1.28154,6.31482 -6.42857,11.35255 -6.42857,17.85714"
       id="path2995"
       inkscape:connector-curvature="0" />
    <path
       style="fill:none;stroke:#000000;stroke-width:1px;stroke-linecap:butt;stroke-linejoin:miter;stroke-opacity:1"
       d="m 375.71429,470.21933 c -1.08954,0.77842 -3.92004,5.89712 -1.42858,7.14285 1.71562,0.85781 4.51312,-2.32654 4.28572,-2.85714 -2.70904,-6.32108 -5.07187,-4.45732 0.71428,-2.14286 0.14036,0.0562 0.71429,-3.86107 0.71429,-3.57143 0,9.24319 9.1431,15.42826 1.42857,25.71429 -0.87129,1.16173 -2.78423,3.78522 -4.28571,4.28571 -3.75082,1.25027 -6.3558,-3.22101 -5.71429,-6.42857 0.0933,-0.46634 2.61945,-5.41716 2.85714,-5.71428 0.53628,-0.67035 1.47251,-0.8923 2.14286,-1.42857 4.69886,-3.75909 8.30712,-4.8238 12.85714,-7.85715"
       id="path2997"
       inkscape:connector-curvature="0" />
    <path
       style="fill:none;stroke:#000000;stroke-width:1px;stroke-linecap:butt;stroke-linejoin:miter;stroke-opacity:1"
       d="m 404.28571,470.21933 c 4.15325,-1.13752 8.57022,-0.71429 12.85715,-0.71429 0.10397,0 2.85714,1.15417 2.85714,0.71429 0,-0.88265 -1.00169,-0.71429 -1.42857,-0.71429"
       id="path2999"
       inkscape:connector-curvature="0" />
    <path
       style="fill:none;stroke:#000000;stroke-width:1px;stroke-linecap:butt;stroke-linejoin:miter;stroke-opacity:1"
       d="m 409.28571,463.79075 c 2.97511,3.88141 0.37498,8.64275 1.42858,12.85715 0.51561,2.06247 0.71428,3.50483 0.71428,5.71428"
       id="path3001"
       inkscape:connector-curvature="0" />
    <path
       style="fill:none;stroke:#000000;stroke-width:1px;stroke-linecap:butt;stroke-linejoin:miter;stroke-opacity:1"
       d="m 480,466.6479 c 11.48461,-0.99827 23.28089,-0.71429 35,-0.71429 1.42857,0 2.85714,0 4.28571,0 0.7353,0 0.89636,1.2465 1.42858,0.71429 0.51699,-0.517 -1.86999,-3.73997 -2.14286,-4.28572 -0.34945,-0.69889 -0.18769,-9.06154 0,-10 0.65659,-3.28297 4.06463,-9.06462 6.42857,-11.42857 0.37646,-0.37646 1.05211,-0.33782 1.42857,-0.71428 0.37646,-0.37647 0.33783,-1.05211 0.71429,-1.42858 1.25072,-1.25072 4.119,-2.0595 5.71428,-2.85714 2.40786,-1.20393 5.23126,-3.04625 7.85715,-3.57143 6.72603,-1.3452 15.93289,-1.58312 22.14285,2.14286 0.57747,0.34648 0.85111,1.08209 1.42857,1.42857 2.4009,1.44054 1.64411,-0.0169 3.57143,1.42857 1.6,1.2 2.68572,3.08572 4.28572,4.28572 0.42591,0.31944 1.10913,0.28836 1.42857,0.71428 0.28811,0.86432 0.79797,2.73063 1.42857,3.57143 1.95063,2.60085 2.24338,4.07405 2.85714,7.14286 0.10441,0.52206 0.47619,0.95238 0.71429,1.42857 0.23809,0.71429 0.5905,1.40018 0.71428,2.14286 0.89408,5.36447 -0.18461,11.45274 -1.42857,16.42857 -0.50343,2.01372 -0.0589,4.46231 -0.71428,6.42857 -0.59742,1.79224 -2.60111,5.3055 -4.28572,6.42857 -0.44298,0.29532 -1.05211,0.33783 -1.42857,0.71429 -0.37646,0.37646 -0.33782,1.05211 -0.71428,1.42857 -1.80422,1.80421 -0.82342,0.27447 -2.14286,0.71428 -1.88205,0.62735 -3.02112,1.64814 -5,2.14286 -5.64041,1.4101 -12.64531,-0.8399 -17.85714,-2.14286 -1.51261,-0.37815 -2.77311,-1.7647 -4.28572,-2.14285 -0.46197,-0.1155 -0.97682,0.15058 -1.42857,0 -3.93834,-1.31278 -13.1932,-8.90749 -16.42857,-12.14286 -3.16962,-3.16962 -0.86042,-8.14941 -2.14286,-10.71429 -0.2904,-0.58079 -1.13307,-0.591 -0.71428,-1.42857 0.44132,-0.88264 0.68963,-0.71428 1.42857,-0.71428"
       id="path3003"
       inkscape:connector-curvature="0" />
    <path
       style="fill:none;stroke:#000000;stroke-width:1px;stroke-linecap:butt;stroke-linejoin:miter;stroke-opacity:1"
       d="m 578.57143,460.93361 c 9.92153,-1.62815 20.20509,-0.89816 30,-2.85714 2.20993,-0.44199 5,-1.29751 5,-0.71429 0,0.95238 -1.90476,0 -2.85714,0"
       id="path3005"
       inkscape:connector-curvature="0" />
    <path
       style="fill:none;stroke:#000000;stroke-width:1px;stroke-linecap:butt;stroke-linejoin:miter;stroke-opacity:1"
       d="m 545.71429,432.36218 c -0.55878,3.41659 -1.58359,7.95136 -0.71429,11.42857 0.92724,3.70898 0.71429,-0.76253 0.71429,2.85715 0,6.22704 -0.0457,12.67414 1.42857,18.57143 0.28873,1.15493 -0.23347,2.40407 0,3.57142 0.37071,1.85358 1.59665,3.36141 2.14285,5 0.52639,1.57915 0.87948,3.35273 1.42858,5 0.22587,0.67763 -0.22588,1.46523 0,2.14286 0.4989,1.49672 1.42857,2.52299 1.42857,4.28572 0,0.482 4.33233,13.57142 2.85714,13.57142 -0.33672,0 0.47619,-0.47619 0.71429,-0.71428 0.18907,-0.18908 0,-1.84874 0,-2.14286"
       id="path3007"
       inkscape:connector-curvature="0" />
    <path
       style="fill:none;stroke:#000000;stroke-width:1px;stroke-linecap:butt;stroke-linejoin:miter;stroke-opacity:1"
       d="m 476.42857,454.50504 c 2.81734,-1.44184 1.97424,3.03903 3.57143,3.57143 0.45175,0.15058 0.97682,-0.15059 1.42857,0 0.63888,0.21296 0.86824,1.05502 1.42857,1.42857 0.47619,0.23809 0.95238,0.47619 1.42857,0.71429 0.2381,0 0.50133,-0.10648 0.71429,0 0.33787,0.16893 1.81099,1.42857 2.14286,1.42857 0.23809,0 0,-0.47619 0,-0.71429"
       id="path3009"
       inkscape:connector-curvature="0" />
    <path
       style="fill:none;stroke:#000000;stroke-width:1px;stroke-linecap:butt;stroke-linejoin:miter;stroke-opacity:1"
       d="m 484.28571,451.6479 c 0.52792,3.24117 -8.57142,11.35458 -8.57142,13.57143"
       id="path3011"
       inkscape:connector-curvature="0" />
    <path
       style="fill:none;stroke:#000000;stroke-width:1px;stroke-linecap:butt;stroke-linejoin:miter;stroke-opacity:1"
       d="m 619.28571,450.21933 c -0.4298,4.64353 0.026,2.90906 1.42858,5.71428 0.10648,0.21296 -0.16836,0.54593 0,0.71429 0.33671,0.33671 1.00265,-0.21296 1.42857,0 0.30117,0.15058 0.37757,0.71428 0.71428,0.71428 1.68948,0 4.46497,-4.10919 5,-5.71428 0.2381,-0.71429 0.71429,-2.89578 0.71429,-2.14286 0,5.03868 0.8244,10.76788 0,15.71429 -0.38795,2.32766 -1.34892,8.51832 -3.57143,10 -0.39621,0.26414 -0.97682,-0.15059 -1.42857,0 -2.02212,0.67404 -3.04403,1.24169 -5,-0.71429 -0.16836,-0.16836 0.0753,-0.48841 0,-0.71429 -1.84629,-5.53887 0.98566,-7.30351 4.28571,-11.42857 2.34973,-2.93716 0.17255,-1.72418 3.57143,-2.85714"
       id="path3013"
       inkscape:connector-curvature="0" />
    <path
       style="fill:none;stroke:#000000;stroke-width:1px;stroke-linecap:butt;stroke-linejoin:miter;stroke-opacity:1"
       d="m 644.28571,457.36218 c 0.95239,0.71429 1.79235,1.61046 2.85715,2.14286 1.0822,0.5411 3.10012,-0.2964 4.28571,0 2.62527,0.65632 8.57143,1.77376 8.57143,-2.14286"
       id="path3015"
       inkscape:connector-curvature="0" />
    <path
       style="fill:none;stroke:#000000;stroke-width:1px;stroke-linecap:butt;stroke-linejoin:miter;stroke-opacity:1"
       d="m 648.57143,450.93361 c 0,1.19048 -0.16836,2.39292 0,3.57143 0.0753,0.52705 0.58516,0.91207 0.71428,1.42857 0.23099,0.92395 -0.23098,1.9332 0,2.85714 0.74062,2.96245 0.74062,4.8947 0,7.85715 -0.27863,1.11453 0.51045,3.26482 0,4.28571 -0.10648,0.21296 -0.71428,0.2381 -0.71428,0 0,-0.5324 1.05211,-0.33782 1.42857,-0.71428"
       id="path3017"
       inkscape:connector-curvature="0" />
    <path
       style="fill:none;stroke:#000000;stroke-width:1px;stroke-linecap:butt;stroke-linejoin:miter;stroke-opacity:1"
       d="m 670.71429,459.50504 c 3.80952,0 3.80952,0 0,0 z"
       id="path3019"
       inkscape:connector-curvature="0" />
    <path
       style="fill:none;stroke:#000000;stroke-width:1px;stroke-linecap:butt;stroke-linejoin:miter;stroke-opacity:1"
       d="m 685.71429,457.36218 c 2.38095,0 4.7619,0 7.14285,0"
       id="path3021"
       inkscape:connector-curvature="0" />
    <path
       style="fill:none;stroke:#000000;stroke-width:1px;stroke-linecap:butt;stroke-linejoin:miter;stroke-opacity:1"
       d="m 704.28571,456.6479 c 1.53111,0.0888 8.57143,0.0267 8.57143,-1.42857"
       id="path3023"
       inkscape:connector-curvature="0" />
    <path
       style="fill:none;stroke:#000000;stroke-width:1px;stroke-linecap:butt;stroke-linejoin:miter;stroke-opacity:1"
       d="m 148.57143,446.6479 c 4.79508,12.29247 7.80778,25.18438 11.42857,37.85714 0.54757,1.91648 0.96339,3.85356 1.42857,5.71429 0.18261,0.73044 0.71429,2.89578 0.71429,2.14285 0,-3.16604 -0.74249,-5.48404 -1.42857,-8.57143 -0.57747,-2.59859 -0.72816,-5.28895 -1.42858,-7.85714 -2.0116,-7.37588 -4.55902,-14.66468 -6.42857,-22.14286 -0.23809,-0.95238 -0.20921,-2.01535 -0.71428,-2.85714 -0.95675,-1.59458 -3.57143,-2.42613 -3.57143,-4.28571 0,-9.12123 5.09812,7.64262 5.71428,9.28571 3.33139,8.88369 8.10659,17.30163 10.71429,26.42857 0.66949,2.34322 1.41073,4.94648 2.14286,7.14286 0.16836,0.50508 1.09074,1.80503 0.71428,1.42857 -1.22198,-1.22198 -2.33551,-8.97552 -2.85714,-10.71428 -1.92383,-6.41276 -3.60219,-12.94942 -5.71429,-19.28572 -1.0035,-3.01052 -1.39457,-6.29259 -2.14285,-9.28571 -0.18261,-0.73045 -1.46721,-2.14286 -0.71429,-2.14286 0.0289,0 -0.0413,3.36484 0,3.57143 0.5261,2.6305 1.61219,5.20378 2.14286,7.85714 0.80383,4.01918 1.79285,7.52618 2.85714,11.42857 0.38107,1.39725 0.33322,2.88847 0.71429,4.28572 1.11274,4.08006 2.87808,7.2685 3.57143,11.42857 0.31916,1.915 1.42857,3.07711 1.42857,5"
       id="path3025"
       inkscape:connector-curvature="0" />
    <path
       style="fill:none;stroke:#000000;stroke-width:1px;stroke-linecap:butt;stroke-linejoin:miter;stroke-opacity:1"
       d="m 134.28571,610.93361 c -0.23809,0.95238 0.2381,3.09524 -0.71428,2.85714 -0.95238,-0.23809 1.40845,-3.5513 0.71428,-2.85714 -0.90664,0.90664 -1.02311,2.35505 -1.42857,3.57143 -0.0753,0.22588 0.2381,0.71429 0,0.71429 -0.54881,0 0.53108,-1.59324 1.42857,-4.28572 1.51368,-4.54103 3.24501,-8.88824 4.28572,-13.57143 1.96842,-8.8579 4.68591,-17.97195 7.85714,-26.42857 1.65318,-4.40847 3.7818,-9.60127 6.42857,-13.57143 0.2381,-0.23809 0.47619,-0.47619 0.71429,-0.71428 0.23809,0 0.54593,0.16836 0.71428,0 0.2381,-0.2381 0.47619,-0.95238 0.71429,-0.71429 0.16836,0.16836 -0.10648,0.50133 0,0.71429 1.57873,3.15745 2.38356,7.54403 4.28571,10.71428 0.34648,0.57747 1.12741,0.82624 1.42858,1.42857 0.43902,0.87806 0.32757,1.95483 0.71428,2.85715 1.74992,4.08315 4.9468,7.58546 7.14286,11.42857 1.05657,1.849 1.72846,3.9084 2.85714,5.71428 3.34091,5.34546 7.96861,9.81007 11.42857,15 1.47466,2.21198 3.4639,2.95186 5,5 1.84519,2.46026 4.42454,5.27765 5.71429,7.85715 1.48634,2.97268 -0.0493,-0.7636 1.42857,0.71428 0.59988,0.59988 -0.60297,2.03154 -0.71429,2.14286 -0.9083,0.9083 -4.90622,-0.44493 -5.71428,-0.71429 -0.67763,-0.22587 -1.4499,0.17324 -2.14286,0 -2.43513,-0.60878 -4.64902,-1.01293 -7.14286,-1.42857 -1.48535,-0.24756 -2.80035,-1.18101 -4.28571,-1.42857 -6.19558,-1.0326 -13.6912,-3.55812 -20,-2.85714 -7.48106,0.83123 -12.31479,2.3859 -19.28571,5 -1.83087,0.68657 -3.27318,0.56516 -5,1.42857 -2.49509,1.24754 -5.9047,3.57143 -8.57143,3.57143"
       id="path3027"
       inkscape:connector-curvature="0" />
    <path
       style="fill:none;stroke:#000000;stroke-width:1px;stroke-linecap:butt;stroke-linejoin:miter;stroke-opacity:1"
       d="m 155,574.50504 c -2.10111,-2.85701 -1.85107,-6.2675 -2.85714,-9.28571 -0.10648,-0.31944 -0.5637,-0.41312 -0.71429,-0.71429 -0.21296,-0.42592 0,-1.90476 0,-1.42857 0,4.15372 5.51524,14.60191 7.14286,17.85714 3.83922,7.67844 7.15842,15.74854 10.71428,23.57143 1.69871,3.73714 3.70285,7.53712 5,11.42857 0.50508,1.51523 2.14286,5.88291 2.14286,4.28572 0,-0.85847 -1.10974,-1.3458 -1.42857,-2.14286 -1.64388,-4.1097 -3.13417,-8.10022 -5,-12.14286 -3.67616,-7.96501 -7.50796,-15.73021 -11.42857,-23.57143 -1.2866,-2.57319 -2.09127,-5.39021 -3.57143,-7.85714 -0.78438,-1.30729 -2.01147,-2.30292 -2.85714,-3.57143 -1.5983,-1.27047 -1.20994,-3.44512 -2.14286,-5 -0.22968,-0.3828 -2.27016,-3.44412 -2.14286,-3.57143 0.5324,-0.53239 0.43466,1.44379 0.71429,2.14286 0.78638,1.96595 2.28627,4.71503 3.57143,6.42857 6.46672,8.62229 -0.8823,-2.74498 5,10 1.4849,3.21729 4.45216,6.3211 6.42857,9.28572 3.26803,4.90205 5.80789,10.80789 10,15 0.51623,0.51623 2.66649,4.28571 3.57143,4.28571 0.75292,0 -0.37757,-1.46942 -0.71429,-2.14286 -1.17283,-2.34566 -1.66287,-4.75432 -2.85714,-7.14285 -5.89271,-11.78542 1.26269,3.03045 -3.57143,-8.57143 -3.02396,-7.2575 -6.80635,-14.24286 -10,-21.42857 -0.86491,-1.94605 -1.67586,-3.94237 -2.85714,-5.71429 -0.83654,-1.25481 -2.97334,-3.57143 -2.14286,-3.57143 0.2381,0 -0.0753,0.48841 0,0.71429 1.0294,3.08821 2.35876,6.25405 3.57143,9.28571 3.88636,9.7159 8.90194,19.59847 14.28571,28.57143 2.51778,4.1963 5.66073,8.26192 8.57143,12.14286 0.0978,0.13039 2.69689,3.57143 2.14286,3.57143 -0.2381,0 0.0753,-0.48841 0,-0.71429 -0.40546,-1.21638 -0.85516,-2.42461 -1.42857,-3.57143 -1.56579,-3.13158 -3.31077,-6.18879 -5,-9.28571 -4.41748,-8.09872 -7.99608,-16.13764 -13.57143,-23.57143 -0.19081,-0.25441 -3.47172,-4.90956 -4.28572,-5 -1.49663,-0.16629 -3.22092,2.49336 -4.28571,1.42857 -1.06479,-1.06479 1.21561,-2.795 1.42857,-4.28571 0.0355,-0.24854 -1.62182,-1.94961 -2.14286,-1.42858 -0.59946,0.59947 0.67942,1.1845 0.71429,1.42858 0.20203,1.41421 -0.69378,3.03691 0,4.28571 0.67423,1.21361 2.52661,1.22864 3.57143,2.14286 0.89592,0.78393 1.4825,1.8666 2.14286,2.85714 4.05322,6.07983 7.97442,12.36409 12.85714,17.85714 2.75602,3.10052 8.89354,9.92995 10.71428,13.57143 0.33672,0.67344 0.32691,1.49723 0.71429,2.14286 2.94145,4.90242 0.1194,-2.49895 2.14286,3.57143"
       id="path3029"
       inkscape:connector-curvature="0" />
    <path
       style="fill:none;stroke:#000000;stroke-width:1px;stroke-linecap:butt;stroke-linejoin:miter;stroke-opacity:1"
       d="M 130.71429,558.07647 C 130.47619,556.88599 130,555.71909 130,554.50504 c 0,-0.33672 0.52751,-0.43412 0.71429,-0.71429 2.74661,-4.11992 10.63566,-12.87679 16.42857,-11.42857 4.89501,1.22376 12.2327,8.19183 16.42857,7.14286 0.95238,-0.2381 1.97909,-0.27526 2.85714,-0.71429 1.8222,-0.91109 5.07422,-6.76562 6.42857,-8.57142 0.8967,-1.1956 2.51418,-2.51418 3.57143,-3.57143"
       id="path3031"
       inkscape:connector-curvature="0" />
    <path
       style="fill:none;stroke:#000000;stroke-width:1px;stroke-linecap:butt;stroke-linejoin:miter;stroke-opacity:1"
       d="m 202.85714,585.93361 c 5.02061,1.51519 9.92328,-0.71428 15,-0.71428"
       id="path3033"
       inkscape:connector-curvature="0" />
    <path
       style="fill:none;stroke:#000000;stroke-width:1px;stroke-linecap:butt;stroke-linejoin:miter;stroke-opacity:1"
       d="m 205.71429,598.79075 c 5.13833,2.87692 3.5166,0.90657 7.14285,0 3.92194,-0.98048 -1.18977,1.30918 2.85715,-0.71428"
       id="path3035"
       inkscape:connector-curvature="0" />
    <path
       style="fill:none;stroke:#000000;stroke-width:1px;stroke-linecap:butt;stroke-linejoin:miter;stroke-opacity:1"
       d="m 243.57143,590.93361 c 21.80061,-4.66116 44.02087,-6.97088 66.42857,-8.57143 11.95453,-0.85389 23.75205,-4.20252 35.71429,-5 1.90054,-0.1267 3.81436,0.13571 5.71428,0 4.31048,-0.30789 8.57119,-1.71426 12.85714,-2.14285 3.06322,-0.30633 6.2477,-0.20795 9.28572,-0.71429 0.27221,-0.0454 5,-0.63414 5,-1.42857 0,-0.47619 -0.97682,0.15058 -1.42857,0 -0.50508,-0.16836 -0.95238,-0.47619 -1.42857,-0.71429"
       id="path3037"
       inkscape:connector-curvature="0" />
    <path
       style="fill:none;stroke:#000000;stroke-width:1px;stroke-linecap:butt;stroke-linejoin:miter;stroke-opacity:1"
       d="m 307.14286,570.21933 c 1.48348,2.29815 2.10807,3.19689 4.28571,4.28571 3.12313,1.56157 9.47639,4.14344 10.71429,7.85714 1.46937,4.40813 -5.89689,10.07304 -9.28572,11.42857 -1.78911,0.71565 -4.86748,2.98966 -6.42857,1.42858"
       id="path3039"
       inkscape:connector-curvature="0" />
    <path
       style="fill:none;stroke:#000000;stroke-width:1px;stroke-linecap:butt;stroke-linejoin:miter;stroke-opacity:1"
       d="m 299.28571,543.79075 c 0.83094,2.00517 0.71429,3.66531 0.71429,5.71429 0,1.65933 -0.71429,2.62638 -0.71429,4.28571 0,0.59796 -0.79435,3.49136 -0.71428,3.57143 0.27537,0.27537 2.31563,-2.31563 2.85714,-2.85714 2.09266,-2.09266 4.00211,-4.09665 6.42857,-5.71429 0.50229,-0.33486 2.88217,-2.83211 3.57143,-2.14285 1.12321,1.1232 -9.28571,4.06089 -9.28571,5 0,1.36329 13.28113,7.14285 15,7.14285"
       id="path3041"
       inkscape:connector-curvature="0" />
    <path
       style="fill:none;stroke:#000000;stroke-width:1px;stroke-linecap:butt;stroke-linejoin:miter;stroke-opacity:1"
       d="m 393.57143,573.07647 c 2.14251,1.07569 15.71428,-0.0478 15.71428,-0.71429 0,-0.33671 -0.47619,-0.47619 -0.71428,-0.71428"
       id="path3043"
       inkscape:connector-curvature="0" />
    <path
       style="fill:none;stroke:#000000;stroke-width:1px;stroke-linecap:butt;stroke-linejoin:miter;stroke-opacity:1"
       d="m 402.14286,564.50504 c 0,7.38095 0,14.7619 0,22.14286"
       id="path3045"
       inkscape:connector-curvature="0" />
    <path
       style="fill:none;stroke:#000000;stroke-width:1px;stroke-linecap:butt;stroke-linejoin:miter;stroke-opacity:1"
       d="m 455,593.07647 c 12.85247,0.93363 26.26248,1.14618 39.28571,-0.71429 4.08236,-0.58319 8.09134,0.096 12.14286,-0.71428 0.92645,-0.18529 10.38316,0.33112 10.71429,0 0.94594,-0.94594 -0.31306,-6.60493 0,-7.85715 1.93052,-7.72209 3.7534,-20.98724 7.85714,-27.14285 0.83213,-1.24819 1.928,-1.21372 2.85714,-2.14286 0.57952,-0.57952 1.4151,-1.77898 2.14286,-2.14286 0.97277,-0.48638 3.15564,-1.14605 4.28571,-1.42857 0.92395,-0.23099 1.95364,0.30117 2.85715,0 0.31944,-0.10648 0.39484,-0.60781 0.71428,-0.71428 0.90351,-0.30117 1.9332,0.23098 2.85715,0 5.96688,-1.49173 12.59244,-0.48152 18.57142,0.71428 2.50629,0.50126 4.70168,2.24685 7.14286,2.85714 1.73818,0.43455 3.21467,0.71444 5,1.42858 1.36575,0.5463 2.84889,1.85549 4.28572,2.14285 0.70041,0.14009 1.44244,-0.14008 2.14285,0 1.51209,0.30242 2.78776,1.76837 4.28572,2.14286 0.46197,0.11549 0.97681,-0.15058 1.42857,0 1.53133,0.51044 8.77975,6.33926 9.28571,7.85714 0.15059,0.45176 -0.15058,0.97682 0,1.42857 0.30661,0.91982 1.83625,1.93733 2.14286,2.85715 0.15058,0.45175 -0.15058,0.97681 0,1.42857 0.5126,1.53779 1.56228,3.25828 2.14286,5 0.22587,0.67763 -0.17324,1.4499 0,2.14286 0.72476,2.89904 2.21176,6.86721 1.42857,10 -2.9163,11.66517 -11.2994,31.81864 -21.42857,38.57142 -3.67643,2.45096 -8.19999,5.11428 -12.14286,6.42858 -0.90351,0.30116 -1.9332,-0.23099 -2.85714,0 -11.00782,2.75195 -26.02826,-1.84263 -35,-8.57143 -0.80812,-0.60609 -1.30236,-1.58253 -2.14286,-2.14286 -0.95392,-0.63595 -2.76826,-1.33969 -3.57143,-2.14286 -1.73486,-1.73486 0.21241,-1.04887 -1.42857,-2.14285 -0.44298,-0.29533 -1.05211,-0.33783 -1.42857,-0.71429 -1.5557,-1.5557 -5.17481,-9.98495 -5.71429,-12.14286 -1.86143,-7.44572 -1.7061,-13.45313 0.71429,-20.71428 0.27147,-0.81441 1.1571,-1.32845 1.42857,-2.14286 0.32016,-0.96047 1.2359,-2.85714 2.14286,-2.85714"
       id="path3047"
       inkscape:connector-curvature="0" />
    <path
       style="fill:none;stroke:#000000;stroke-width:1px;stroke-linecap:butt;stroke-linejoin:miter;stroke-opacity:1"
       d="m 595.71429,587.36218 c 3.06609,1.20942 5.66165,0.72745 8.57142,0 2.25477,-0.56369 5.58481,0 7.85715,0 5.70762,0 -2.10021,-0.17324 5,0.71429 2.12631,0.26579 4.29882,-0.23664 6.42857,0 3.32566,0.36952 6.64598,1.09317 10,1.42857 3.30033,0.33003 6.69967,-0.33003 10,0 3.15504,0.3155 19.30314,2.12543 21.42857,0 0.69416,-0.69416 -2.01185,-1.36307 -2.14286,-1.42857"
       id="path3049"
       inkscape:connector-curvature="0" />
    <path
       style="fill:none;stroke:#000000;stroke-width:1px;stroke-linecap:butt;stroke-linejoin:miter;stroke-opacity:1"
       d="m 630.71429,579.50504 c 2.03189,0.16412 2.17059,2.63754 3.57142,3.57143 11.40418,7.60278 -8.5102,17.20408 -12.14285,13.57143"
       id="path3051"
       inkscape:connector-curvature="0" />
    <path
       style="fill:none;stroke:#000000;stroke-width:1px;stroke-linecap:butt;stroke-linejoin:miter;stroke-opacity:1"
       d="m 632.85714,557.36218 c 0.76098,3.8049 0.71429,2.35738 0.71429,4.28572 0,2.07153 -0.94203,3.76813 -1.42857,5.71428 -0.46795,1.87178 0.0564,1.31581 -0.71429,2.85715 -0.10648,0.21295 0,0.95238 0,0.71428 0,-3.79803 6.66187,-9.60157 10,-10.71428 0.21944,-0.0732 2.28329,-1.28814 2.85714,-0.71429 1.74541,1.74541 -13.76138,4.81004 -12.14285,6.42857 0.87348,0.87349 3.14854,1.04952 4.28571,1.42857 1.1095,0.36984 2.31431,1.72382 3.57143,2.14286 1.43481,0.47827 2.87899,0.72521 4.28571,1.42857"
       id="path3053"
       inkscape:connector-curvature="0" />
    <path
       style="fill:none;stroke:#000000;stroke-width:1px;stroke-linecap:butt;stroke-linejoin:miter;stroke-opacity:1"
       d="m 473.57143,585.21933 c 4.31157,-0.36503 -0.14418,2.71296 0.71428,3.57142 1.08233,1.08233 4.16825,1.62752 5.71429,2.14286 1.48028,0.49343 2.9407,1.69452 4.28571,2.14286 1.00594,0.33531 2.96109,0.20789 3.57143,1.42857 2.59034,5.18068 -8.47293,9.23647 -11.42857,10.71429 -0.48082,0.2404 -2.6805,1.96467 -3.57143,2.14285 -1.04268,0.20854 -3.13032,0 -4.28571,0"
       id="path3055"
       inkscape:connector-curvature="0" />
    <path
       style="fill:none;stroke:#000000;stroke-width:1px;stroke-linecap:butt;stroke-linejoin:miter;stroke-opacity:1"
       d="m 467.14286,558.79075 c 0.15623,0.87126 1.25672,13.57143 0.71428,13.57143 -0.33671,0 0.47619,-0.47619 0.71429,-0.71428 0.5324,-0.5324 0.29664,-1.51639 0.71428,-2.14286 1.80499,-2.70749 4.59565,-4.01614 7.14286,-5.71429 0.10669,-0.0711 3.57143,-1.41364 3.57143,-0.71428 0,0.28864 -6.42755,3.21377 -7.14286,3.57143 -0.42591,0.21296 -1.09185,-0.33672 -1.42857,0 -0.96356,0.96356 2.60993,2.69233 2.85714,2.85714 1.17685,0.78456 2.26017,1.48722 3.57143,2.14286 1.55785,0.77892 3.24683,1.42857 5,1.42857"
       id="path3057"
       inkscape:connector-curvature="0" />
    <path
       style="fill:none;stroke:#000000;stroke-width:1px;stroke-linecap:butt;stroke-linejoin:miter;stroke-opacity:1"
       d="m 549.28571,546.6479 c 0.26025,4.32742 0.39225,8.71184 1.42858,12.85714 0.50333,2.01332 -0.40721,4.39254 0,6.42857 0.10441,0.52206 0.58516,0.91207 0.71428,1.42857 0.59961,2.39845 0.007,5.02983 0.71429,7.85715 1.06442,4.2577 -1.06443,9.31372 0,13.57142 1.65339,6.61358 0.71428,14.47205 0.71428,21.42858 0,6.66666 0,13.33333 0,20 0,1.11577 0,13.35116 0,7.14285"
       id="path3061"
       inkscape:connector-curvature="0" />
    <path
       style="fill:none;stroke:#000000;stroke-width:1px;stroke-linecap:butt;stroke-linejoin:miter;stroke-opacity:1"
       d="m 591.42857,550.93361 c 1.6778,-2.09759 2.82134,-4.17831 3.57143,-6.42857 0.99262,-2.97787 0.16716,-8.32069 -1.42857,-10.71429 -0.21781,-0.3267 -1.55922,-2.01221 -2.14286,-1.42857 -2.29965,2.29965 -0.56426,10.75013 0,13.57143 0.4,2 -1,2.5 0,5 0.2369,0.59226 3.26976,5 5,5"
       id="path3063"
       inkscape:connector-curvature="0" />
    <path
       style="fill:none;stroke:#000000;stroke-width:1px;stroke-linecap:butt;stroke-linejoin:miter;stroke-opacity:1"
       d="m 600.71429,548.79075 c 0.95238,-0.47619 2.38095,-2.38095 2.85714,-1.42857 0.47619,0.95238 -3.61007,2.1815 -2.85714,1.42857 2.24182,-2.24182 7.49327,-2.84368 5.71428,0.71429 -0.75929,1.51859 -1.51668,1.51668 -2.14286,2.14286 -0.23809,0.23809 -0.47619,1.90476 -0.71428,2.14285 -0.16836,0.16836 -0.54593,-0.16835 -0.71429,0 -0.16836,0.16836 -0.10648,0.50133 0,0.71429 0.83283,1.66566 6.45679,-0.72839 7.85715,-1.42857"
       id="path3065"
       inkscape:connector-curvature="0" />
    <path
       style="fill:none;stroke:#000000;stroke-width:1px;stroke-linecap:butt;stroke-linejoin:miter;stroke-opacity:1"
       d="m 580,603.07647 c 1.2485,-5.18674 2.85714,-10.23619 2.85714,-15.71429 0,-1.35526 -0.3395,-3.642 0,-5 0.37289,-1.49155 1.13704,-2.59471 0.71429,-4.28571 -0.4692,-1.8768 -0.31925,-3.41985 -0.71429,-5 -0.56921,-2.27683 -1.60591,-4.28081 -2.14285,-6.42857 -0.14905,-0.59617 -2.52539,-4.66824 -2.85715,-5 -1.47788,-1.47789 0.0578,2.2584 -1.42857,-0.71429 -0.10648,-0.21296 0.16836,-0.54593 0,-0.71428 -0.63673,-0.63673 -2.09855,-0.335 -2.85714,-0.71429 -0.65853,-0.32927 -1.16448,-1.20348 -2.14286,-0.71429 -0.83205,0.41603 -1.3108,1.01255 -2.14286,1.42858 -0.4329,0.21645 -1.84354,0.41496 -2.14285,0.71428 -0.29932,0.29932 -0.49784,1.70996 -0.71429,2.14286 -4.40773,8.81545 -5,23.07928 -5,33.57143 0,1.26942 1.17212,10.97074 0.71429,11.42857 -1.02564,1.02564 -0.65934,-1.31868 -0.71429,-1.42857 -0.85665,-1.7133 -5.41408,-10.30021 -6.42857,-9.28572 -0.2381,0.2381 0.47619,0.47619 0.71429,0.71429 0.48516,0.48517 2.49099,12.32593 5.71428,10.71428 0.26628,-0.13314 5.0997,-7.95684 6.42857,-9.28571"
       id="path3067"
       inkscape:connector-curvature="0" />
    <path
       style="fill:none;stroke:#000000;stroke-width:1px;stroke-linecap:butt;stroke-linejoin:miter;stroke-opacity:1"
       d="m 567.17172,577.10966 c 0.69394,-2.2847 2.96982,-9.65644 1.0101,-11.61616 -1.70359,-1.70359 -2.52525,5.10436 -2.52525,6.0606 0,0.84175 -0.26619,1.7267 0,2.52525 0.35712,1.07138 1.40277,1.90658 1.51515,3.03031 0.0749,0.74915 -0.77202,1.30595 -1.0101,2.0202 -0.2183,0.65488 0.95614,4.49149 1.51515,5.0505"
       id="path3069"
       inkscape:connector-curvature="0" />
    <path
       style="fill:none;stroke:#000000;stroke-width:1px;stroke-linecap:butt;stroke-linejoin:miter;stroke-opacity:1"
       d="m 570.20202,580.64501 c 0.50505,-0.6734 0.84175,-2.52525 1.51515,-2.0202 0.6734,0.50505 -2.26803,1.64376 -1.51515,2.0202 1.0101,0.50505 2.23175,-2.31371 3.0303,-1.51515 0.11904,0.11904 -0.0753,0.35447 0,0.50505 0.33575,0.6715 0.96114,2.11813 0.50505,3.0303 -0.21294,0.4259 -0.79715,0.58421 -1.0101,1.0101 -0.0753,0.15058 0.11904,0.38601 0,0.50505 -1.04496,1.04497 0.0408,-1.59684 -1.0101,0.50505 -0.47235,0.9447 -0.78619,1.15067 -1.51515,1.51516 -0.49861,0.2493 -1.64232,1.89303 -1.51515,2.0202 1.02918,1.02918 2.9707,0.47525 4.0404,1.0101 1.25749,0.62874 2.51828,0.50505 4.04041,0.50505"
       id="path3073"
       inkscape:connector-curvature="0" />
    <path
       style="fill:none;stroke:#000000;stroke-width:1px;stroke-linecap:butt;stroke-linejoin:miter;stroke-opacity:1"
       d="m 542.42424,576.60461 c -0.75758,-1.4727 0.74063,-4.07429 0,-5.55556 -0.54298,-1.08597 -1.14279,-2.41828 -1.51515,-3.53535 -0.16663,-0.49988 -0.11033,-1.62549 -0.50505,-2.0202 -0.11904,-0.11905 -0.38601,0.11904 -0.50505,0 -0.11904,-0.11905 0.11904,-0.38601 0,-0.50505 -0.23808,-0.23809 -0.70895,0.15057 -1.0101,0 -1.21124,-0.60562 -1.31402,-0.60562 -2.52525,0 -0.30494,0.15246 -1.28169,-0.23347 -1.51516,0 -0.11904,0.11904 0.11905,0.386 0,0.50505 -0.16835,0.16835 -1.3468,0.3367 -1.51515,0.50505 -0.32964,0.32964 -0.78103,1.56206 -1.0101,2.0202 -0.21295,0.42589 -0.85952,0.55837 -1.0101,1.0101 -0.62444,1.87333 -1.51175,4.53187 -2.0202,6.56566 -0.23767,0.95068 0.23767,2.07962 0,3.0303 -0.49842,1.9937 -0.51168,4.06691 -1.0101,6.0606 -0.35651,1.42603 0.3565,3.11943 0,4.54546 -0.82317,3.29268 -0.823,7.31405 0,10.60606 0.4697,1.87879 -0.1197,3.68131 0.50505,5.55556 0.45278,1.35834 0.0481,3.1745 0.50505,4.54545 0.0753,0.22587 0.42976,0.27919 0.50505,0.50505 0.50961,1.52884 0.7637,3.04256 1.51515,4.54546 0.15058,0.30115 -0.15058,0.70894 0,1.0101 0.33651,0.67302 0.67359,0.33707 1.0101,1.0101 0.21597,0.43193 0.28909,1.08322 0.50505,1.51515 0.49738,0.99475 1.95833,1.45328 2.52526,2.0202 0.34,0.34001 0.26638,0.63824 1.0101,1.0101 0.41943,0.20972 1.54139,0 2.0202,0 4.59669,0 6.35433,-6.9883 4.54545,-10.60606 -0.15057,-0.30115 0.23809,-0.77202 0,-1.0101 -0.94182,-0.94182 -1.31985,1.31986 -1.51515,1.51515 -0.11904,0.11904 -0.38601,-0.11904 -0.50505,0 -0.23808,0.23808 0.15058,0.70895 0,1.0101 -0.0426,0.0851 -1.92768,2.52526 -1.51515,2.52526 0.83752,0 0.35413,-0.70827 0.50505,-1.01011 0.60739,-1.21478 0.40271,0.20469 1.0101,-1.0101 1.40556,-2.81112 1.73209,-4.61662 3.53535,-1.0101 0.36449,0.72897 1.01011,1.68121 1.01011,2.52525"
       id="path3075"
       inkscape:connector-curvature="0" />
    <path
       style="fill:none;stroke:#000000;stroke-width:1px;stroke-linecap:butt;stroke-linejoin:miter;stroke-opacity:1"
       d="m 532.82828,595.29148 c 0.90117,-1.4799 2.48771,-2.91768 3.03031,-4.54546 0.47054,-1.41164 0.0565,-4.43248 -0.50505,-5.55555 -0.33823,-0.67645 -1.20487,-0.69982 -1.51516,-1.01011 -0.11904,-0.11904 0.11905,-0.386 0,-0.50505 -0.63874,-0.63874 -1.34187,0.66354 -1.51515,1.0101 -1.44899,2.89798 0.7383,16.93847 4.04041,13.63637"
       id="path3077"
       inkscape:connector-curvature="0" />
    <path
       style="fill:none;stroke:#000000;stroke-width:1px;stroke-linecap:butt;stroke-linejoin:miter;stroke-opacity:1"
       d="m 540.40404,593.27127 c -0.51685,2.7355 1.0101,4.54609 1.0101,7.07071"
       id="path3079"
       inkscape:connector-curvature="0" />
    <path
       style="fill:none;stroke:#000000;stroke-width:1px;stroke-linecap:butt;stroke-linejoin:miter;stroke-opacity:1"
       d="m 509.09091,544.28137 c 0.0327,1.91904 0.98107,2.94321 1.51515,4.54546 0.18083,0.54248 2.31562,5.76518 3.0303,5.0505 0.13993,-0.13992 -1.41285,-8.68816 0.50505,-10.60606 1.83906,-1.83905 -1.51018,5.56053 -1.0101,6.06061 0.34567,0.34567 4.68518,-1.14983 5.05051,-1.51515"
       id="path3081"
       inkscape:connector-curvature="0" />
    <path
       style="fill:none;stroke:#000000;stroke-width:1px;stroke-linecap:butt;stroke-linejoin:miter;stroke-opacity:1"
       d="m 522.22222,545.29148 c 2.33382,0.33174 2.61847,-1.51516 4.54546,-1.51516"
       id="path3083"
       inkscape:connector-curvature="0" />
    <path
       style="fill:none;stroke:#000000;stroke-width:1px;stroke-linecap:butt;stroke-linejoin:miter;stroke-opacity:1"
       d="m 530.30303,543.77632 c 0.61409,-1.55138 0.50505,-2.94444 0.50505,-4.54545 0,-0.73008 0.22973,-2.34112 0,-3.0303 -0.24488,-0.73465 -2.46922,-4.65752 -3.53535,-2.52526 -0.61684,1.23369 0.66939,5.03848 1.0101,6.06061 0.15058,0.45173 0.82253,0.57244 1.0101,1.0101 0.41942,0.97865 0.14369,2.41144 1.0101,3.0303 0.69853,0.49895 1.66683,-0.50505 2.52525,-0.50505 0.23809,0 0.29211,0.39858 0.50505,0.50505 1.46673,0.73337 1.85787,-0.84776 2.52526,-1.51515"
       id="path3085"
       inkscape:connector-curvature="0" />
    <path
       style="fill:none;stroke:#000000;stroke-width:1px;stroke-linecap:butt;stroke-linejoin:miter;stroke-opacity:1"
       d="m 537.87879,539.23087 c 0.54096,1.06281 0.28501,5.55556 1.51515,5.55556"
       id="path3087"
       inkscape:connector-curvature="0" />
    <path
       style="fill:none;stroke:#000000;stroke-width:1px;stroke-linecap:butt;stroke-linejoin:miter;stroke-opacity:1"
       d="m 524.24242,618.01875 c -0.77196,2.13144 3.80871,7.02905 3.53536,7.57576 -0.48704,0.97408 -2.21511,1.6126 -3.03031,2.0202 -1.07609,0.53804 -2.17699,2.0202 -3.0303,2.0202"
       id="path3089"
       inkscape:connector-curvature="0" />
    <path
       style="fill:none;stroke:#000000;stroke-width:1px;stroke-linecap:butt;stroke-linejoin:miter;stroke-opacity:1"
       d="m 503.0303,629.63491 c 0,2.0202 0,4.0404 0,6.06061 0,1.6835 0,3.367 0,5.0505 0,1.29896 -0.10463,1.82905 -0.50505,3.0303 -0.0324,0.0971 0.0259,1.51516 0,1.51516 -0.88889,0 1.42451,-4.36417 1.51515,-4.54546 0.99614,-1.99228 1.96201,-4.48726 3.53536,-6.06061 0.11904,-0.11904 0.38601,0.11905 0.50505,0 0.30183,-0.30183 -0.5459,-1.0101 0.50505,-1.0101 1.72181,0 -1.29073,4.18072 -2.0202,4.54546 -0.30609,0.15304 -1.30352,0.29341 -1.51515,0.50505 -0.17411,0.1741 -1.01011,1.74716 -1.01011,0.50505 0,-1.08153 1.71826,1.71826 2.52526,2.52525 1.32959,1.32959 3.64445,4.04041 5.0505,4.04041"
       id="path3091"
       inkscape:connector-curvature="0" />
    <path
       style="fill:none;stroke:#000000;stroke-width:1px;stroke-linecap:butt;stroke-linejoin:miter;stroke-opacity:1"
       d="m 515.65657,642.26117 c 1.63025,0.51126 7.0707,0.26124 7.0707,-1.51515"
       id="path3093"
       inkscape:connector-curvature="0" />
    <path
       style="fill:none;stroke:#000000;stroke-width:1px;stroke-linecap:butt;stroke-linejoin:miter;stroke-opacity:1"
       d="m 518.68687,637.21067 c -0.0254,2.07038 -0.0599,10.04109 1.0101,11.11111"
       id="path3095"
       inkscape:connector-curvature="0" />
    <path
       style="fill:none;stroke:#000000;stroke-width:1px;stroke-linecap:butt;stroke-linejoin:miter;stroke-opacity:1"
       d="m 525.75758,645.79653 c 0.6734,-0.3367 1.6835,-1.68351 2.0202,-1.0101 0.3367,0.6734 -2.3569,1.6835 -2.0202,1.0101 0.48208,-0.96417 1.83515,-1.19209 2.52525,-2.02021 0.25145,-0.30174 -0.1262,-2.14666 0,-2.52525 0.0753,-0.22586 0.39857,-0.2921 0.50505,-0.50505 0.63025,-1.26049 0,-4.56634 0,-6.06061 0,-0.3367 0.23808,-0.77201 0,-1.0101 -0.11904,-0.11904 -0.38601,0.11905 -0.50505,0 -1.04497,-1.04496 1.59685,0.0408 -0.50505,-1.0101 -0.1036,-0.0518 -1.44393,-0.0712 -1.51515,0 -0.46774,0.46774 -0.73304,7.6739 -0.50505,8.58586 0.0913,0.3652 0.50505,0.63366 0.50505,1.0101 0,1.19042 -0.8815,2.40603 -0.50505,3.53536 0.76269,2.28807 2.71273,1.89012 3.53535,3.53535 0.14992,0.29985 1.51515,2.65994 1.51515,1.0101"
       id="path3097"
       inkscape:connector-curvature="0" />
    <path
       style="fill:none;stroke:#000000;stroke-width:1px;stroke-linecap:butt;stroke-linejoin:miter;stroke-opacity:1"
       d="m 533.83838,646.80663 c 7.83153,-4.07057 0.86861,7.43426 1.51516,8.08081 0.0609,0.0609 5.47357,0 6.0606,0"
       id="path3099"
       inkscape:connector-curvature="0" />
    <path
       style="fill:none;stroke:#000000;stroke-width:1px;stroke-linecap:butt;stroke-linejoin:miter;stroke-opacity:1"
       d="m 579.29293,619.02885 c 1.48266,1.43452 7.61735,-3.51456 8.58586,-3.0303 0.84632,0.42316 -0.50505,10.51821 -0.50505,12.62626"
       id="path3101"
       inkscape:connector-curvature="0" />
    <path
       style="fill:none;stroke:#000000;stroke-width:1px;stroke-linecap:butt;stroke-linejoin:miter;stroke-opacity:1"
       d="m 580.80808,641.75612 c 1.50861,-1.89128 1.01031,-3.53617 1.51515,-5.55555 0.29691,-1.18762 0.94645,-2.71621 0.50505,-4.04041 -0.0941,-0.28223 -0.86825,-2.3834 -1.0101,-2.52525 -0.38994,-0.38994 -1.82071,0.10608 -2.0202,0.50505 -0.22587,0.45173 0.12249,1.02518 0,1.51515 -1.07279,4.29115 -0.004,8.83291 2.52525,12.62626 0.13207,0.1981 0.3367,0.3367 0.50505,0.50506 0,0.3367 -0.15057,0.70894 0,1.0101 0.0306,0.0612 1.43338,0.42327 1.51515,0.50505 0.16835,0.16835 0.3367,0.6734 0.50505,0.50505 0.26619,-0.26619 0.23887,-0.74392 0.50506,-1.0101"
       id="path3103"
       inkscape:connector-curvature="0" />
    <path
       style="fill:none;stroke:#000000;stroke-width:1px;stroke-linecap:butt;stroke-linejoin:miter;stroke-opacity:1"
       d="m 588.38384,639.73592 c 0.6734,0 1.35988,0.13206 2.0202,0 0.30965,-0.0619 1.46407,-1.06118 2.0202,-0.50505 0.21872,0.21871 -3.34478,7.9569 -3.0303,8.58586 0.55835,1.11669 0.31346,0.15673 1.0101,0.50505 0.93258,0.46629 1.0621,0.13368 2.0202,-0.50505 0.80471,-0.53647 1.65703,-1.08104 2.52525,-1.51515"
       id="path3105"
       inkscape:connector-curvature="0" />
    <path
       style="fill:none;stroke:#000000;stroke-width:1px;stroke-linecap:butt;stroke-linejoin:miter;stroke-opacity:1"
       d="m 598.48485,638.22077 c 0.69038,0.48313 6.94192,2.14899 7.57576,1.51515 0.23808,-0.23808 0,-0.6734 0,-1.0101"
       id="path3107"
       inkscape:connector-curvature="0" />
    <path
       style="fill:none;stroke:#000000;stroke-width:1px;stroke-linecap:butt;stroke-linejoin:miter;stroke-opacity:1"
       d="m 603.0303,633.67531 c -0.11101,2.89719 1.47411,7.69888 0.50505,10.60606 -0.0753,0.22587 -0.42976,0.27919 -0.50505,0.50506 -0.1486,0.44582 0,1.48962 0,2.0202 0,0.16835 -0.16835,0.50505 0,0.50505 0.6241,0 0.50505,-0.70827 0.50505,-1.0101"
       id="path3109"
       inkscape:connector-curvature="0" />
    <path
       style="fill:none;stroke:#000000;stroke-width:1px;stroke-linecap:butt;stroke-linejoin:miter;stroke-opacity:1"
       d="m 609.09091,628.62481 c 1.09574,1.79125 1.35937,3.96498 1.0101,6.0606 -0.28266,1.69599 -0.72744,3.35452 -1.0101,5.05051 -0.25828,1.5497 -0.50505,2.94329 -0.50505,4.54545 0,0.3367 -0.15058,1.31126 0,1.01011 0.87285,-1.74571 1.29578,-3.74452 2.0202,-5.55556 0.57586,-1.43965 1.78135,-2.29551 2.52525,-3.53535 0.27391,-0.45651 0.18563,-1.08926 0.50505,-1.51516 0.22587,-0.30115 0.74392,-0.23886 1.0101,-0.50505 0.24923,-0.24922 1.73305,-2.30736 2.02021,-2.0202 0.24904,0.24904 -1.70193,1.54279 -2.02021,2.0202 -1.6242,2.43631 -5.41927,6.10604 -1.0101,7.57576 1.03695,0.34565 1.46385,1.2498 2.52526,1.51515 0.32664,0.0817 0.69068,-0.10647 1.0101,0 1.25982,0.41995 2.17177,2.02021 3.53535,2.02021"
       id="path3111"
       inkscape:connector-curvature="0" />
    <path
       style="fill:none;stroke:#000000;stroke-width:1px;stroke-linecap:butt;stroke-linejoin:miter;stroke-opacity:1"
       d="m 548.9899,554.38238 c 0.6734,0.3367 2.3569,0.3367 2.0202,1.01011 -0.3367,0.6734 -2.3569,-0.3367 -2.0202,-1.01011 0.37644,-0.75288 1.71589,0.23125 2.52525,0 0.70875,-0.20249 3.80342,-5.85469 4.04041,-6.56565 3.91265,-11.73795 5.08136,-17.69735 15.65656,-24.74748 1.60472,-1.06981 3.3113,-1.08035 5.05051,-1.51515 3.33696,-0.83424 6.36573,-1.95356 9.59596,-3.0303 1.01898,-0.33966 2.21714,-0.19695 3.0303,-1.0101"
       id="path3113"
       inkscape:connector-curvature="0" />
    <path
       style="fill:none;stroke:#000000;stroke-width:1px;stroke-linecap:butt;stroke-linejoin:miter;stroke-opacity:1"
       d="m 594.94949,518.01875 c 1.34855,-3.41685 4.28406,-10.38015 3.03031,-14.14142 -0.16384,-0.4915 -1.07965,-1.7329 -1.51515,-1.51515 -2.23309,1.11655 -3.48277,8.34376 -3.03031,10.60606 0.14766,0.73827 0.8275,1.2898 1.0101,2.02021 0.24837,0.99345 -0.34699,2.46227 0.50505,3.0303 0.75434,0.50289 1.62778,-0.88189 2.52526,-1.0101 0.37266,-0.0532 0.65297,0.38601 1.0101,0.50505 1.37902,0.45967 2.30533,-0.50505 3.53535,-0.50505"
       id="path3115"
       inkscape:connector-curvature="0" />
    <path
       style="fill:none;stroke:#000000;stroke-width:1px;stroke-linecap:butt;stroke-linejoin:miter;stroke-opacity:1"
       d="m 606.06061,513.47329 c 0,1.0101 0,2.02021 0,3.03031 0,0.94582 0.26185,1.29061 0.50505,2.0202 0.34492,1.03477 0,2.92808 0,4.0404 0,0.56071 0.50505,2.63286 0.50505,1.51515"
       id="path3117"
       inkscape:connector-curvature="0" />
    <path
       style="fill:none;stroke:#000000;stroke-width:1px;stroke-linecap:butt;stroke-linejoin:miter;stroke-opacity:1"
       d="m 612.12121,515.4935 c 1.6501,0.66436 3.32923,0.50505 5.05051,0.50505"
       id="path3119"
       inkscape:connector-curvature="0" />
    <path
       style="fill:none;stroke:#000000;stroke-width:1px;stroke-linecap:butt;stroke-linejoin:miter;stroke-opacity:1"
       d="m 623.73737,515.4935 c 3.02582,-0.41814 3.61061,-2.47174 4.04041,-5.05051 0.17504,-1.05025 0.83506,-1.98005 1.0101,-3.0303 0.41944,-2.51667 0.44447,-9.4343 -1.0101,-11.61616 -1.31293,-1.96939 -3.22614,0.78334 -3.53536,2.0202 -1.26814,5.07257 -1.07846,9.99081 -0.50505,15.15151 0.093,0.83661 -0.26618,1.7267 0,2.52526 0.32969,0.98904 2.18198,3.19208 3.03031,4.0404 1.35344,1.35344 4.13364,1.92696 5.55555,0.50505"
       id="path3121"
       inkscape:connector-curvature="0" />
    <path
       style="fill:none;stroke:#000000;stroke-width:1px;stroke-linecap:butt;stroke-linejoin:miter;stroke-opacity:1"
       d="m 636.86869,518.01875 c 2.15328,-1.27231 2.37715,-1.3063 3.0303,0 1.35893,2.71785 -3.00274,6.62079 -2.0202,8.58586 1.20103,2.40206 6.13212,-1.08162 7.0707,-2.02021"
       id="path3123"
       inkscape:connector-curvature="0" />
  </g>
</svg>
