<?xml version="1.0" encoding="UTF-8" standalone="no"?>
<!-- Created with Inkscape (http://www.inkscape.org/) -->

<svg
   xmlns:dc="http://purl.org/dc/elements/1.1/"
   xmlns:cc="http://creativecommons.org/ns#"
   xmlns:rdf="http://www.w3.org/1999/02/22-rdf-syntax-ns#"
   xmlns:svg="http://www.w3.org/2000/svg"
   xmlns="http://www.w3.org/2000/svg"
   xmlns:sodipodi="http://sodipodi.sourceforge.net/DTD/sodipodi-0.dtd"
   xmlns:inkscape="http://www.inkscape.org/namespaces/inkscape"
   width="349.5625"
   height="308.65268"
   id="svg2"
   version="1.1"
   inkscape:version="0.48.2 r9819"
   sodipodi:docname="New document 1">
  <defs
     id="defs4">
    <inkscape:path-effect
       effect="spiro"
       id="path-effect2995"
       is_visible="true" />
    <inkscape:path-effect
       effect="spiro"
       id="path-effect2991"
       is_visible="true" />
    <inkscape:path-effect
       effect="spiro"
       id="path-effect2987"
       is_visible="true" />
  </defs>
  <sodipodi:namedview
     id="base"
     pagecolor="#ffffff"
     bordercolor="#666666"
     borderopacity="1.0"
     inkscape:pageopacity="0.0"
     inkscape:pageshadow="2"
     inkscape:zoom="0.82"
     inkscape:cx="247.25"
     inkscape:cy="173.08964"
     inkscape:document-units="px"
     inkscape:current-layer="layer1"
     showgrid="false"
     fit-margin-top="0"
     fit-margin-left="0"
     fit-margin-right="0"
     fit-margin-bottom="0"
     inkscape:window-width="1280"
     inkscape:window-height="737"
     inkscape:window-x="-8"
     inkscape:window-y="-8"
     inkscape:window-maximized="1" />
  <metadata
     id="metadata7">
    <rdf:RDF>
      <cc:Work
         rdf:about="">
        <dc:format>image/svg+xml</dc:format>
        <dc:type
           rdf:resource="http://purl.org/dc/dcmitype/StillImage" />
        <dc:title></dc:title>
      </cc:Work>
    </rdf:RDF>
  </metadata>
  <g
     inkscape:label="Layer 1"
     inkscape:groupmode="layer"
     id="layer1"
     transform="translate(-127.75,-396.79913)">
    <path
       style="fill:none;stroke:#000000;stroke-width:1px;stroke-linecap:butt;stroke-linejoin:miter;stroke-opacity:1"
       d="m 142.68293,457.24023 65.85366,89.02439 158.53658,1.21951 39.02439,-76.82926"
       id="path2985"
       inkscape:path-effect="#path-effect2987"
       inkscape:original-d="m 142.68293,457.24023 65.85366,89.02439 158.53658,1.21951 39.02439,-76.82926"
       inkscape:connector-curvature="0" />
    <path
       style="fill:none;stroke:#000000;stroke-width:1px;stroke-linecap:butt;stroke-linejoin:miter;stroke-opacity:1"
       d="m 365.85366,545.04511 53.65854,57.31707"
       id="path2989"
       inkscape:path-effect="#path-effect2991"
       inkscape:original-d="m 365.85366,545.04511 53.65854,57.31707"
       inkscape:connector-curvature="0" />
    <path
       style="fill:none;stroke:#000000;stroke-width:1px;stroke-linecap:butt;stroke-linejoin:miter;stroke-opacity:1"
       d="m 209.7561,547.48413 -48.78049,73.17074"
       id="path2993"
       inkscape:path-effect="#path-effect2995"
       inkscape:original-d="m 209.7561,547.48413 -48.78049,73.17074"
       inkscape:connector-curvature="0" />
    <path
       style="fill:none;stroke:#000000;stroke-width:1px;stroke-linecap:butt;stroke-linejoin:miter;stroke-opacity:1"
       d="m 128.04878,412.11828 c 5.40119,3.98643 7.48573,-16.90451 9.7561,-14.63415 1.14977,1.14977 0,3.25204 0,4.87805 0,9.51582 1.21951,18.4916 1.21951,28.04878 0,1.72804 0,13.27633 0,7.31708"
       id="path2997"
       inkscape:connector-curvature="0" />
    <path
       style="fill:none;stroke:#000000;stroke-width:1px;stroke-linecap:butt;stroke-linejoin:miter;stroke-opacity:1"
       d="m 390.2439,426.75243 c 0.11126,-0.0556 5.26257,-1.98855 6.09756,-3.65854 1.27841,-2.55682 4.49406,-5.32958 6.09756,-8.53659 0.0938,-0.18761 -0.53158,-4.19011 1.21952,-2.43902 1.14976,1.14977 0.39436,3.30058 0,4.87805 -2.02688,8.1075 -1.21952,17.05227 -1.21952,25.60976 0,3.83398 -1.21951,7.18572 -1.21951,10.9756 0,2.03253 0,4.06505 0,6.09757 0,0.4065 0.40651,1.21951 0,1.21951 -1.79439,0 -1.21951,-3.18229 -1.21951,-3.65854"
       id="path2999"
       inkscape:connector-curvature="0" />
    <path
       style="fill:none;stroke:#000000;stroke-width:1px;stroke-linecap:butt;stroke-linejoin:miter;stroke-opacity:1"
       d="m 424.39024,398.70365 c -0.4065,1.62601 -0.94397,3.22479 -1.21951,4.87804 -0.83672,5.02034 -2.43031,9.72124 -3.65853,14.63415 -0.72747,2.90985 -3.65854,5.76602 -3.65854,8.53659"
       id="path3001"
       inkscape:connector-curvature="0" />
    <path
       style="fill:none;stroke:#000000;stroke-width:1px;stroke-linecap:butt;stroke-linejoin:miter;stroke-opacity:1"
       d="m 437.80488,626.75243 c -1.62602,0 -4.87805,1.62601 -4.87805,0 0,-1.62602 4.55916,1.59444 4.87805,0 0.46485,-2.32428 -2.77823,-3.89679 -3.65854,-6.09756 -0.15097,-0.37743 0.93207,0.28744 1.21951,0 1.77063,-1.77063 -0.38083,-2.43903 3.65854,-2.43903 5.31804,0 9.74042,6.03485 10.97561,10.97561 2.49462,9.9785 -2.79373,22.83067 -8.53659,30.48781 -0.63136,0.84182 -3.72131,7.25429 -6.09756,4.87804 -1.32793,-1.32793 0.73451,-3.90803 1.21952,-4.87804 3.97274,-7.9455 9.72798,-4.28236 15.85365,-1.21952 2.29061,1.14531 4.21398,-1.21951 6.09757,-1.21951"
       id="path3003"
       inkscape:connector-curvature="0" />
    <path
       style="fill:none;stroke:#000000;stroke-width:1px;stroke-linecap:butt;stroke-linejoin:miter;stroke-opacity:1"
       d="m 476.82927,602.36218 c -1.55281,10.5203 -4.02356,20.60726 -7.31707,30.48781 -1.50696,4.52086 -1.21952,-1.48653 -1.21952,2.43902"
       id="path3005"
       inkscape:connector-curvature="0" />
    <path
       style="fill:none;stroke:#000000;stroke-width:1px;stroke-linecap:butt;stroke-linejoin:miter;stroke-opacity:1"
       d="m 143.90244,666.99633 c 2.05217,-3.66964 6.85852,-15.47318 13.41463,-12.19512 1.71304,0.85652 2.89567,3.35231 3.65854,4.87805 5.9545,11.909 1.46435,26.01469 -4.87805,36.58536 -0.61713,1.02855 -6.6398,7.99435 -8.53658,6.09756 -2.16605,-2.16605 1.00625,-17.14425 8.53658,-14.63414 1.87084,0.62361 8.76506,8.09818 10.97561,9.75609 3.32033,2.49025 9.92574,8.49418 14.63415,7.31708 7.05958,-1.7649 -3.20566,-1.21952 6.09756,-1.21952"
       id="path3007"
       inkscape:connector-curvature="0" />
    <path
       style="fill:none;stroke:#000080;stroke-width:1px;stroke-linecap:butt;stroke-linejoin:miter;stroke-opacity:1"
       d="m 175.60976,463.33779 c -0.67168,9.27662 3.88005,16.62936 8.53658,24.39025 3.10433,5.17387 5.20645,10.85845 8.53659,15.85365 1.05855,1.58783 2.81759,3.19617 3.65853,4.87805 0.36955,0.7391 0.70849,3.14751 1.21952,3.65854 0.28744,0.28744 0.93207,-0.28744 1.21951,0 0.28744,0.28744 0.4065,1.21951 0,1.21951 -0.28144,0 -8.1021,-6.4481 -8.53659,-7.31707 -0.18179,-0.36359 0.28744,-0.93207 0,-1.21951 -0.28744,-0.28744 -0.81301,0 -1.21951,0 -0.4065,-0.40651 -0.81301,-0.81301 -1.21951,-1.21952 -1.68399,-1.68399 -6.77048,-3.65853 -4.87805,-3.65853 0.4065,0 -0.28744,0.93207 0,1.21951 0.51103,0.51103 2.91944,0.84996 3.65854,1.21951 3.59787,1.79894 6.97384,7.14546 12.19512,9.7561 5.07532,2.53766 -1.3037,-0.0842 1.21951,2.43902 0.57488,0.57489 1.86414,-0.57488 2.43902,0 0.40651,0.40651 0.81301,1.62602 1.21952,1.21952 0.79145,-0.79146 -0.52606,-16.18846 0,-18.29269 0.87584,-3.50338 1.21951,-6.00483 1.21951,-9.75609"
       id="path3009"
       inkscape:connector-curvature="0" />
    <path
       style="fill:none;stroke:#000000;stroke-width:1px;stroke-linecap:butt;stroke-linejoin:miter;stroke-opacity:1"
       d="m 213.41463,451.14267 c 4.41215,8.23563 3.65854,17.55602 3.65854,26.82927 0,2.03252 0,4.06504 0,6.09756 0,0.4065 0.4065,1.21951 0,1.21951 -0.93738,0 1.11689,-7.11182 1.21951,-7.31707 2.20182,-4.40363 2.97069,-9.86573 4.87805,-14.63415 1.29986,-3.24965 7.31707,-11.97348 7.31707,-13.41463"
       id="path3011"
       inkscape:connector-curvature="0" />
    <path
       style="fill:none;stroke:#000000;stroke-width:1px;stroke-linecap:butt;stroke-linejoin:miter;stroke-opacity:1"
       d="m 218.29268,473.09389 c 5.1124,1.97841 7.63425,7.47566 12.19512,9.7561 1.45303,0.72651 4.99628,1.33773 6.09757,2.43902 0.9218,0.92181 0.52903,2.43903 2.43902,2.43903"
       id="path3013"
       inkscape:connector-curvature="0" />
    <path
       style="fill:none;stroke:#000000;stroke-width:1px;stroke-linecap:butt;stroke-linejoin:miter;stroke-opacity:1"
       d="m 246.34146,479.19145 c -0.29444,9.99183 2.43903,19.3552 2.43903,29.26829"
       id="path3015"
       inkscape:connector-curvature="0" />
    <path
       style="fill:none;stroke:#000000;stroke-width:1px;stroke-linecap:butt;stroke-linejoin:miter;stroke-opacity:1"
       d="m 213.41463,575.53291 c -3.09981,5.91208 -7.68905,10.37607 -10.97561,15.85366 -2.45945,4.09909 0.0289,2.80701 -2.43902,6.09756 -0.68986,0.91982 -1.84747,1.45311 -2.43902,2.43903 -0.66138,1.10229 -0.55814,2.55625 -1.21952,3.65853 -2.37595,3.95993 -6.09756,6.24486 -6.09756,10.97561"
       id="path3017"
       inkscape:connector-curvature="0" />
    <path
       style="fill:none;stroke:#000080;stroke-width:1px;stroke-linecap:butt;stroke-linejoin:miter;stroke-opacity:1"
       d="m 198.78049,581.63048 c 0.97767,-5.14011 4.24361,-0.29255 6.09756,-1.21952 1.3713,-0.68565 2.21396,-3.17701 3.65854,-3.65853 0.77128,-0.2571 1.66773,0.25709 2.43902,0 1.29773,-0.43258 5.41298,-4.34312 7.31707,-2.43903 1.51188,1.51188 -2.43902,21.4373 -2.43902,24.39025"
       id="path3019"
       inkscape:connector-curvature="0" />
    <path
       style="fill:none;stroke:#000000;stroke-width:1px;stroke-linecap:butt;stroke-linejoin:miter;stroke-opacity:1"
       d="m 212.19512,608.45974 c 0.0377,9.58142 -2.43902,18.46676 -2.43902,28.04878 0,1.62602 1.62601,4.87805 0,4.87805 -0.90897,0 0.93207,-1.5767 1.21951,-2.43902 0.72764,-2.18292 0.65783,-3.85085 1.21951,-6.09756 1.19694,-4.78776 5.20136,-9.18321 7.31708,-13.41464 0.0937,-0.18736 3.01197,-5.52461 3.65853,-4.87805 0.7437,0.7437 -10.2083,11.29072 -9.7561,12.19513 2.53766,5.07531 -0.0842,-1.30371 2.43903,1.21951 1.5026,1.5026 8.53658,13.92398 8.53658,14.63415"
       id="path3021"
       inkscape:connector-curvature="0" />
    <path
       style="fill:none;stroke:#000000;stroke-width:1px;stroke-linecap:butt;stroke-linejoin:miter;stroke-opacity:1"
       d="m 236.58537,640.16706 c 0.4065,-1.62602 -0.40651,-5.28455 1.21951,-4.87805 1.62601,0.40651 -2.40467,6.0632 -1.21951,4.87805 1.54792,-1.54792 1.31274,-4.22043 2.43902,-6.09756 1.03096,-1.71826 3.65854,1.22512 3.65854,2.43902 0,2.85998 -0.28744,-0.57488 1.21951,2.43903 1.54192,3.08385 -1.62903,11.38512 -3.65854,13.41463 -0.92454,0.92454 -4.3139,5.4422 -6.09756,3.65854 -0.81576,-0.81577 -1.21951,-1.9174 -1.21951,-3.65854 0,-5.88506 12.69348,1.38564 15.85366,2.43903 3.72679,1.24226 6.51043,-1.21952 9.7561,-1.21952"
       id="path3023"
       inkscape:connector-curvature="0" />
    <path
       style="fill:none;stroke:#000080;stroke-width:1px;stroke-linecap:butt;stroke-linejoin:miter;stroke-opacity:1"
       d="m 395.12195,534.0695 c 6.89532,-12.23959 10.46995,-26.07077 18.29268,-37.80488 0.13804,-0.20705 5.52919,-7.31707 3.65854,-7.31707 -2.46853,0 -14.90165,13.14712 -15.85366,12.19512 -2.47257,-2.47257 15.30727,-16.40005 18.29269,-13.41463 0.71829,0.71829 -1.21952,22.08605 -1.21952,25.60975"
       id="path3025"
       inkscape:connector-curvature="0" />
    <path
       style="fill:none;stroke:#000000;stroke-width:1px;stroke-linecap:butt;stroke-linejoin:miter;stroke-opacity:1"
       d="m 437.80488,487.72804 c 3.07861,5.48125 0,8.41862 0,13.41463 0,3.25203 0,6.50407 0,9.7561 0,2.43902 0,4.87805 0,7.31707 0,2.03252 0,4.06504 0,6.09756 0,0.40651 0.4065,1.21951 0,1.21951 -0.81301,0 -0.36359,-1.71184 0,-2.43902 1.18435,-2.3687 1.78003,-3.46158 2.43902,-6.09756 0.86093,-3.4437 4.54958,-6.66014 6.09756,-9.7561 0.27646,-0.55292 3.21467,-6.54143 4.87805,-4.87805 1.06871,1.06871 -2.92371,5.36274 -3.65853,6.09756 -1.21406,1.21406 -0.88147,2.87976 -2.43903,3.65854 -1.00475,0.50238 -1.71422,0.49471 -2.43902,1.21951 -0.28744,0.28744 0.28744,0.93207 0,1.21951 -0.28744,0.28745 -0.93207,-0.28744 -1.21952,0 -0.62894,0.62895 3.23385,6.89239 3.65854,7.31708 0.51103,0.51103 2.91944,0.84996 3.65854,1.21951 1.74038,0.87019 1.4779,2.43902 3.65853,2.43902"
       id="path3027"
       inkscape:connector-curvature="0" />
    <path
       style="fill:none;stroke:#000000;stroke-width:1px;stroke-linecap:butt;stroke-linejoin:miter;stroke-opacity:1"
       d="m 462.19512,515.77682 c 4.30942,4.58082 -1.2305,13.39266 1.21951,18.29268 1.34297,2.68593 2.43903,0.24739 2.43903,-1.21951"
       id="path3029"
       inkscape:connector-curvature="0" />
    <path
       style="fill:none;stroke:#000000;stroke-width:1px;stroke-linecap:butt;stroke-linejoin:miter;stroke-opacity:1"
       d="m 469.5122,470.65487 c 0.36631,8.29085 -2.25175,15.2918 -4.87805,23.17073 -0.36586,1.09756 0.36585,2.56097 0,3.65853 -0.1818,0.54539 -1.21952,0.64463 -1.21952,1.21952 0,0.4065 0.81301,0 1.21952,0"
       id="path3031"
       inkscape:connector-curvature="0" />
    <path
       style="fill:none;stroke:#000080;stroke-width:1px;stroke-linecap:butt;stroke-linejoin:miter;stroke-opacity:1"
       d="m 353.65854,574.3134 c 1.45831,5.43073 6.8203,7.79143 9.75609,12.19512 1.42953,2.1443 3.07642,5.51544 4.87805,7.31708 2.08774,2.08774 5.07995,3.86043 7.31708,6.09756 1.62601,1.62601 3.25203,3.25203 4.87804,4.87805 0.64274,0.64274 3.348,1.21951 2.43903,1.21951 -5.04159,0 -8.7004,-2.08713 -13.41463,-3.65854 -0.77129,-0.25709 -1.71185,0.36359 -2.43903,0 -0.51419,-0.25709 -0.70532,-0.96241 -1.21951,-1.21951 -0.73631,-0.36815 -3.0948,0.56374 -3.65854,0 -0.4065,-0.4065 -1.21951,-1.7944 -1.21951,-1.21951 0,1.86619 7.46616,3.12332 8.53659,3.65853 1.60413,0.80207 3.22882,1.88929 4.87804,2.43903 1.62079,0.54026 4.54916,-0.7742 6.09756,0 8.429,4.2145 7.31708,-8.53703 7.31708,-14.63415"
       id="path3033"
       inkscape:connector-curvature="0" />
    <path
       style="fill:none;stroke:#000000;stroke-width:1px;stroke-linecap:butt;stroke-linejoin:miter;stroke-opacity:1"
       d="m 348.78049,619.43535 c 1.39315,5.11111 2.43902,9.35026 2.43902,14.63415 0,3.65854 0,7.31707 0,10.97561 0,2.02023 0.007,8.53658 -1.21951,8.53658 -1.59686,0 4.7643,-19.05719 4.87805,-19.51219 0.80433,-3.21732 3.57624,-4.71346 4.87805,-7.31707 0.35496,-0.70993 0.91204,-3.65854 2.43902,-3.65854 0.28455,0 -1.21951,1.91057 -1.21951,2.43902 0,1.96157 -4.74712,7.05523 -6.09756,9.7561 -0.92641,1.85282 11.32093,15.85366 14.63415,15.85366"
       id="path3035"
       inkscape:connector-curvature="0" />
    <path
       style="fill:none;stroke:#000000;stroke-width:1px;stroke-linecap:butt;stroke-linejoin:miter;stroke-opacity:1"
       d="m 373.17073,656.02072 c 4.54184,-9.49406 11.15606,-0.3609 8.53659,4.87805 -0.97601,1.95202 -3.54919,7.20772 -4.87805,8.53658 -1.0051,1.0051 -4.57114,1.21952 -2.43903,1.21952 5.1598,0 10.89518,1.29994 14.63415,-2.43903"
       id="path3037"
       inkscape:connector-curvature="0" />
    <path
       style="fill:none;stroke:#000000;stroke-width:1px;stroke-linecap:butt;stroke-linejoin:miter;stroke-opacity:1"
       d="m 371.95122,609.67926 c 1.00626,5.33174 -0.15423,6.71446 -1.21951,10.97561 -0.3547,1.41877 0.47104,3.46491 0,4.87804 -0.28744,0.86233 -1.21951,1.53006 -1.21951,2.43903 0,0.81301 1.21951,-0.40651 1.21951,-1.21951"
       id="path3039"
       inkscape:connector-curvature="0" />
    <path
       style="fill:none;stroke:#000000;stroke-width:1px;stroke-linecap:butt;stroke-linejoin:miter;stroke-opacity:1"
       d="m 290.2439,481.63048 c 0,1.62601 0,3.25203 0,4.87804 0,5.28456 0,10.56911 0,15.85366 0,2.5003 -1.21951,4.04145 -1.21951,6.09756 0,0.40651 0,1.62602 0,1.21952 0,-2.99463 4.73458,-13.19943 7.31707,-17.07317 2.23647,-3.35471 6.09756,-6.41264 6.09756,-6.09757 0,2.21703 -7.25957,8.4216 -8.53658,10.97561 -2.50087,5.00174 11.98612,8.87343 14.63415,9.7561 2.41117,0.80373 3.72,3.65854 6.09756,3.65854"
       id="path3043"
       inkscape:connector-curvature="0" />
    <path
       style="fill:none;stroke:#000080;stroke-width:1px;stroke-linecap:butt;stroke-linejoin:miter;stroke-opacity:1"
       d="m 189.02439,134.26244 c 0.34873,5.74883 -4.66035,-1.43721 -6.09756,0 -0.28744,0.28744 0.28744,0.93207 0,1.21951 -1.9548,1.9548 -9.62319,-1.28597 -12.19512,0 -6.92749,3.46374 -19.92664,1.21951 -28.04878,1.21951 -4.70227,0 -5.61319,2.07146 -9.7561,0 -0.36359,-0.18179 -1.21951,0.4065 -1.21951,0 0,-2.72813 7.31165,-4.87263 8.53658,-6.09756 0.28744,-0.28744 -0.28744,-0.93207 0,-1.21951 0.40651,-0.40651 3.25203,-0.81301 3.65854,-1.21952 0.28744,-0.28744 -0.28744,-0.93207 0,-1.21951 0.57488,-0.57488 1.86414,0.57489 2.43902,0 0.28745,-0.28744 -0.28744,-0.93207 0,-1.21951 1.94715,-1.94715 -1.14717,3.5862 -1.21951,3.65854 -0.35046,0.35045 -5.81174,4.30642 -6.09756,4.87805 -0.74562,1.49123 -1.01938,2.23889 -2.43902,3.65853 -1.21406,1.21406 -2.87976,0.88147 -3.65854,2.43903 -0.85138,1.70276 15.85366,9.61612 15.85366,4.87805"
       id="path3045"
       inkscape:connector-curvature="0"
       transform="translate(127.75,396.79913)" />
  </g>
</svg>
