<?xml version="1.0" encoding="UTF-8" standalone="no"?>
<!-- Created with Inkscape (http://www.inkscape.org/) -->

<svg
   xmlns:dc="http://purl.org/dc/elements/1.1/"
   xmlns:cc="http://creativecommons.org/ns#"
   xmlns:rdf="http://www.w3.org/1999/02/22-rdf-syntax-ns#"
   xmlns:svg="http://www.w3.org/2000/svg"
   xmlns="http://www.w3.org/2000/svg"
   xmlns:sodipodi="http://sodipodi.sourceforge.net/DTD/sodipodi-0.dtd"
   xmlns:inkscape="http://www.inkscape.org/namespaces/inkscape"
   width="606.05981"
   height="420.9375"
   id="svg2"
   version="1.1"
   inkscape:version="0.48.2 r9819"
   sodipodi:docname="WJ diagrams.svg">
  <defs
     id="defs4" />
  <sodipodi:namedview
     id="base"
     pagecolor="#ffffff"
     bordercolor="#666666"
     borderopacity="1.0"
     inkscape:pageopacity="0.0"
     inkscape:pageshadow="2"
     inkscape:zoom="0.67178375"
     inkscape:cx="165.98273"
     inkscape:cy="130.51058"
     inkscape:document-units="px"
     inkscape:current-layer="layer1"
     showgrid="false"
     inkscape:window-width="1280"
     inkscape:window-height="737"
     inkscape:window-x="-8"
     inkscape:window-y="-8"
     inkscape:window-maximized="1"
     fit-margin-top="0"
     fit-margin-left="0"
     fit-margin-right="0"
     fit-margin-bottom="0" />
  <metadata
     id="metadata7">
    <rdf:RDF>
      <cc:Work
         rdf:about="">
        <dc:format>image/svg+xml</dc:format>
        <dc:type
           rdf:resource="http://purl.org/dc/dcmitype/StillImage" />
        <dc:title></dc:title>
      </cc:Work>
    </rdf:RDF>
  </metadata>
  <g
     inkscape:label="Layer 1"
     inkscape:groupmode="layer"
     id="layer1"
     transform="translate(-131.68159,-151.59375)">
    <path
       style="fill:none;stroke:#000000;stroke-width:0.50327802px;stroke-linecap:butt;stroke-linejoin:miter;stroke-opacity:1"
       d="m 154.44316,257.15314 c -0.43987,-3.52361 3.26924,0.11783 4.30373,-0.58375 0.6991,-0.47411 3.96416,-3.97911 4.30372,-4.66997 0.80118,-1.63003 0.72991,-4.66998 0.86075,-4.66998 0.57383,0 0,0.77833 0,1.1675 0,1.08832 0.86074,1.75424 0.86074,2.91873 0,3.85742 1.10895,8.49831 0,12.25869 -1.0422,3.53406 -0.86074,0.24186 -0.86074,2.91873 0,1.36208 0,2.72415 0,4.08623 0,0.38917 -0.57383,1.1675 0,1.1675 1.06363,0 0.86074,-0.81863 0.86074,-1.1675"
       id="path2985"
       inkscape:connector-curvature="0" />
    <path
       style="fill:none;stroke:#000000;stroke-width:0.50327802px;stroke-linecap:butt;stroke-linejoin:miter;stroke-opacity:1"
       d="m 316.26327,257.15314 c 6.08739,2.09112 11.87765,-7.00496 12.05043,-7.00496 0.28692,0 0,0.38916 0,0.58374 0,0.97292 0,1.94583 0,2.91874 0,1.86863 0.44952,4.00833 0,5.83747 -0.14916,0.60695 -0.71158,1.14429 -0.86074,1.75124 -0.60485,2.4612 0.60485,5.12751 0,7.58871 -1.13294,4.61007 -0.86074,-1.05083 -0.86074,3.50248 0,1.1675 0,2.33499 0,3.50249 0,0.38916 -0.57384,1.16749 0,1.16749 1.06362,0 0.86074,-0.81863 0.86074,-1.16749"
       id="path2989"
       inkscape:connector-curvature="0" />
    <path
       style="fill:none;stroke:#000000;stroke-width:0.50327802px;stroke-linecap:butt;stroke-linejoin:miter;stroke-opacity:1"
       d="m 351.55383,243.72696 c -0.28692,0.77833 -0.57383,1.55666 -0.86075,2.33499 0,0.19458 0.0696,0.39497 0,0.58375 -1.09958,2.98288 -4.02682,5.46188 -6.02522,8.17245 -0.78273,1.06169 -4.02472,2.91874 -2.58223,2.91874"
       id="path2991"
       inkscape:connector-curvature="0" />
    <path
       style="fill:none;stroke:#000000;stroke-width:0.50327802px;stroke-linecap:butt;stroke-linejoin:miter;stroke-opacity:1"
       d="m 158.74689,342.96395 c 2.34801,-8.43043 17.97268,-9.57453 14.63267,1.75124 -0.99582,3.37678 -8.25229,9.51139 -12.91118,11.09119 -1.34206,0.45508 -4.84888,2.1793 -6.02522,0.58374 -1.13209,-1.53553 2.37063,-3.50248 4.30373,-3.50248 4.72342,0 8.54373,1.15021 12.91118,2.33499 1.19135,0.32318 2.18477,0.99684 3.44298,1.16749 1.72205,0.23358 5.12348,0.82281 6.88596,0.58375 5.58685,-0.75779 -1.91829,-0.58375 3.44298,-0.58375"
       id="path2993"
       inkscape:connector-curvature="0" />
    <path
       style="fill:none;stroke:#000000;stroke-width:0.50327802px;stroke-linecap:butt;stroke-linejoin:miter;stroke-opacity:1"
       d="m 308.51656,334.20774 c 0.95498,-3.12692 3.5703,-4.15099 6.88597,-5.83747 0.97382,-0.49532 1.42742,-1.49018 2.58223,-1.75124 10.09284,-2.28161 11.67895,4.43035 10.32894,9.9237 -0.82916,3.37398 -5.97731,8.13997 -9.46819,10.50744 -1.49822,1.01607 -5.19123,3.20154 -7.74671,2.33499 -0.25663,-0.087 0.12831,-0.40971 0,-0.58375 -2.42309,-3.28661 3.30585,-6.73634 8.60745,-5.83746 4.99847,0.84747 17.86606,6.56336 22.37938,3.50248"
       id="path2995"
       inkscape:connector-curvature="0" />
    <path
       style="fill:none;stroke:#000000;stroke-width:0.50327802px;stroke-linecap:butt;stroke-linejoin:miter;stroke-opacity:1"
       d="m 341.22488,317.27908 c 0.28692,0.97291 0.86075,1.92655 0.86075,2.91873 0,0.27519 -0.73243,0.32269 -0.86075,0.58375 -0.36292,0.73839 0.27835,1.5799 0,2.33499 -0.54472,1.47769 -1.02487,3.25266 -1.72149,4.66998 -1.06362,2.164 -0.86074,-0.71157 -0.86074,1.16749"
       id="path2997"
       inkscape:connector-curvature="0" />
    <path
       style="fill:none;stroke:#000000;stroke-width:0.50327802px;stroke-linecap:butt;stroke-linejoin:miter;stroke-opacity:1"
       d="m 171.65807,255.98565 c 3.40094,3.88168 7.43457,6.95364 9.4682,11.09119 0.32713,0.66558 1.39435,1.08567 1.72149,1.75124 0.36292,0.73839 -0.36293,1.5966 0,2.33499 0.66104,1.34494 2.02027,2.56175 2.58223,4.08623 0.32257,0.87504 -0.42019,2.06384 0,2.91873 0.12831,0.26106 0.73243,0.32269 0.86075,0.58375 0.51644,1.05074 -0.51645,2.45174 0,3.50248 0.12831,0.26106 0.73243,0.32269 0.86074,0.58375 1.03362,2.10296 -0.79527,4.84758 0,7.00496 0.1556,0.42211 0.70515,0.74539 0.86075,1.16749 0.7426,2.01451 -0.7426,4.40672 0,6.42122 1.48483,4.02798 1.58332,20.61855 -0.86075,23.93363 -0.68859,0.93399 0.6886,2.56848 0,3.50248 -0.97947,1.32853 -0.74434,2.76085 -1.72149,4.08623 -0.45906,0.62266 0.45906,1.71232 0,2.33499 -1.01711,1.37958 -0.78416,3.3986 -1.72149,4.66997 -0.7022,0.95246 -0.3637,1.66082 -0.86074,2.33499 -1.14767,1.55666 -0.86075,-1.75124 -0.86075,0.58375 0,0.38916 0.57383,1.16749 0,1.16749 -1.06362,0 -0.86074,-0.81863 -0.86074,-1.16749"
       id="path2999"
       inkscape:connector-curvature="0" />
    <path
       style="fill:none;stroke:#000000;stroke-width:0.50327802px;stroke-linecap:butt;stroke-linejoin:miter;stroke-opacity:1"
       d="m 211.25235,222.12832 c -3.51502,-0.31109 -3.82272,2.75563 -6.02521,3.50248 -7.92817,2.6884 -13.43845,9.47138 -17.21491,14.59368 -1.38438,1.87774 0.63684,8.45251 1.72149,9.9237 0.45152,0.61243 -0.68702,2.45281 0,2.91873 0.20288,0.13759 0.65786,-0.13759 0.86074,0 0.18619,0.12627 0.13585,2.15073 0,2.33499 -0.17937,0.2433 -3.33627,2.88256 -3.44298,2.91873 -0.25662,0.087 -0.65786,-0.13758 -0.86074,0 -0.20288,0.1376 0.20288,0.44616 0,0.58375 -0.20288,0.13759 -0.65787,-0.13759 -0.86075,0 -0.20288,0.13759 0.20288,0.44616 0,0.58375 -0.20288,0.13759 -0.65787,-0.13759 -0.86074,0 -0.20289,0.13759 0.20287,0.44616 0,0.58375 -0.20289,0.13759 -0.65787,-0.13759 -0.86075,0 -0.20288,0.13759 0.20288,0.44615 0,0.58375 -0.70599,0.47879 -1.50095,0.43417 -2.58223,1.16749 -1.68938,1.14572 -0.86172,1.16749 -1.7215,1.16749"
       id="path3001"
       inkscape:connector-curvature="0" />
    <path
       style="fill:none;stroke:#000000;stroke-width:0.50327802px;stroke-linecap:butt;stroke-linejoin:miter;stroke-opacity:1"
       d="m 225.88502,206.9509 c -0.6871,0.81858 -4.03102,1.23878 -5.16447,1.75124 -1.33214,0.6023 -7.14362,3.73676 -6.02522,5.25373 0.92283,1.25171 7.58236,0.6952 8.60745,0 0.20289,-0.13759 -0.12831,-0.40971 0,-0.58375 1.38387,-1.87705 -0.56199,-2.02941 0,-2.91873 0.75818,-1.19976 3.64986,-2.41641 2.58224,-3.50249 -0.92801,-0.94404 -2.69511,1.43955 -4.30373,1.75124 -0.61688,0.11954 -1.18768,-0.34239 -1.72149,-0.58374 -1.18413,-0.53537 -0.88525,-0.90056 -1.72149,-1.75124 -1.55772,-1.58464 -5.25204,-2.79997 -3.44298,-5.25372 1.52808,-2.07266 8.43531,-4.78673 11.18969,-2.91874"
       id="path3003"
       inkscape:connector-curvature="0" />
    <path
       style="fill:none;stroke:#000000;stroke-width:0.50327802px;stroke-linecap:butt;stroke-linejoin:miter;stroke-opacity:1"
       d="m 228.46726,210.45339 c 3.05456,2.23299 3.44298,3.64009 3.44298,6.42121 0,0.25158 1.06362,1.75124 0.86074,1.75124 -0.86074,0 0,-1.16749 0,-1.75124"
       id="path3005"
       inkscape:connector-curvature="0" />
    <path
       style="fill:none;stroke:#000000;stroke-width:0.50327802px;stroke-linecap:butt;stroke-linejoin:miter;stroke-opacity:1"
       d="m 245.68216,205.78341 c -1.14766,0.77833 -2.29532,1.55666 -3.44298,2.33499 -0.28692,0 -0.60412,-0.087 -0.86074,0 -1.90316,0.64534 -0.26712,0.3623 -0.86076,1.16749 -1.6367,2.22 0.25735,3.83347 4.30374,2.91874 1.60781,-0.36347 3.01309,-1.4597 4.30372,-2.33499 0.5721,-0.38799 1.84408,-2.5186 0.86074,-2.91874 -8.69538,-3.53826 -0.91947,2.04747 -5.16446,-4.66997 -0.49034,-0.77593 -6.65219,-2.01791 -7.74671,-3.50248 -2.26198,-3.0681 8.68895,-7.13277 12.05043,-7.58872 2.86801,-0.389 5.60403,-0.58374 8.60745,-0.58374"
       id="path3007"
       inkscape:connector-curvature="0" />
    <path
       style="fill:none;stroke:#000000;stroke-width:0.50327802px;stroke-linecap:butt;stroke-linejoin:miter;stroke-opacity:1"
       d="m 259.45408,209.86964 c 8.44057,-6.33102 6.71331,1.51877 5.16447,4.66997 -0.32215,0.65546 -4.0801,3.35082 -5.16447,4.08623 -0.57383,0.38917 -2.533,1.1675 -1.72149,1.1675 1.22548,0 2.5037,-0.84899 3.44298,-1.1675 1.13785,-0.38583 3.09231,0.27386 4.30373,0 3.36716,-0.76119 7.13802,-0.0855 10.32894,-1.16749"
       id="path3009"
       inkscape:connector-curvature="0" />
    <path
       style="fill:none;stroke:#000000;stroke-width:0.50327802px;stroke-linecap:butt;stroke-linejoin:miter;stroke-opacity:1"
       d="m 282.69421,200.52969 c 1.25061,0.67344 2.0962,8.42658 2.58223,8.7562 0.20288,0.13759 0.57383,0 0.86074,0"
       id="path3011"
       inkscape:connector-curvature="0" />
    <path
       style="fill:none;stroke:#000000;stroke-width:0.50327802px;stroke-linecap:butt;stroke-linejoin:miter;stroke-opacity:1"
       d="m 293.88389,190.02224 c 2.40992,5.21378 3.50836,10.64046 6.02522,15.76117 0.12831,0.26106 0.73243,0.32269 0.86074,0.58375 0.14967,0.3045 0.68595,4.20477 1.7215,3.50248 0.43337,-0.29391 -0.27777,-6.83521 0,-7.58871 0.83242,-2.25815 1.50953,-4.82249 2.58223,-7.00496 0.32713,-0.66558 1.39436,-1.08567 1.72149,-1.75124 0.17218,-0.35031 0.68978,-4.20218 1.72149,-3.50249 0.83747,0.56796 0.48495,2.73789 0.86075,3.50249 0.75008,1.52609 2.00311,3.09896 2.58223,4.66997 1.01427,2.75146 1.62362,5.70471 3.44299,8.17246 0.34429,0.46699 -0.3443,1.28424 0,1.75124 1.35199,1.8338 0.68752,-2.56631 0.86074,-2.91874 0.12831,-0.26106 0.76234,-0.31678 0.86075,-0.58374 0.91081,-2.47082 0.98367,-5.08683 1.72149,-7.58871 0.44531,-1.51005 1.86267,-3.20599 2.58223,-4.66998 0.43823,-0.89161 0.0311,-2.33499 1.72149,-2.33499"
       id="path3013"
       inkscape:connector-curvature="0" />
    <path
       style="fill:none;stroke:#000000;stroke-width:0.50327802px;stroke-linecap:butt;stroke-linejoin:miter;stroke-opacity:1"
       d="m 308.51656,268.82808 c -0.86074,0.77833 -1.56784,1.64703 -2.58223,2.33499 -0.43038,0.29187 -1.29112,0.29187 -1.72149,0.58375 -1.19644,0.81141 -1.81399,2.98146 -3.44299,4.08623 -0.50595,0.34313 -4.08824,4.23155 -4.30372,4.66997 -0.18146,0.36919 0.18146,0.7983 0,1.16749 -0.58104,1.18216 -1.99376,2.3052 -2.58224,3.50249 -0.27219,0.55379 0.38494,1.22912 0,1.75124 -3.84882,5.22044 -2.58223,13.08159 -2.58223,19.26365 0,1.9163 1.39234,6.55851 2.58223,8.17245 0.41673,0.56524 0.50027,3.25801 0.86075,3.50249 0.20288,0.13759 0.65786,-0.13759 0.86074,0 0.40576,0.27518 -0.25662,0.81941 0,1.16749 0.63375,0.8596 1.14203,0.77451 1.72149,1.16749 0.40576,0.27519 -0.40576,0.89232 0,1.1675 0.20289,0.13759 0.65787,-0.13759 0.86075,0 0.15414,0.10454 1.72149,3.18778 1.72149,1.16749"
       id="path3015"
       inkscape:connector-curvature="0" />
    <path
       style="fill:none;stroke:#000000;stroke-width:0.50327802px;stroke-linecap:butt;stroke-linejoin:miter;stroke-opacity:1"
       d="m 285.27644,305.60414 c -3.10631,2.54705 -5.7869,4.93048 -7.7467,7.58871 -0.48394,0.6564 -2.24238,1.05976 -2.58224,1.75124 -0.66107,1.34498 -1.13447,2.77709 -2.58224,4.08623 -1.40209,1.26784 -2.37849,2.05864 -3.44298,3.50248 -5.17035,7.01293 -8.64206,14.54673 -3.44298,21.59864 0.38493,0.52212 -0.27219,1.19745 0,1.75124 0.25662,0.52212 1.35857,0.67523 1.72149,1.16749 0.44133,0.59862 0.41941,1.73638 0.86075,2.33499 0.82701,1.12175 2.61596,1.79699 3.44298,2.91874 0.26083,0.35378 0.50005,1.50662 0.86074,1.75124 0.20288,0.13759 0.65787,-0.13759 0.86075,0 0.28692,0.19458 0.57383,1.55666 0.86074,1.75124 0.20288,0.13759 0.65787,-0.13759 0.86075,0 0.40575,0.27518 -0.40576,0.89231 0,1.16749 0.43037,0.29188 1.29112,0.29188 1.72149,0.58375 0.71368,0.48401 2.5193,4.62729 2.58224,4.66998 0.20287,0.13758 0.65786,-0.1376 0.86074,0 0.59637,0.40445 0.26438,2.51428 0.86075,2.91873 0.20287,0.13759 0.65786,-0.13759 0.86074,0 0.40576,0.27518 -0.40576,0.89231 0,1.16749 0.20288,0.13759 0.65786,-0.13759 0.86075,0 0.40575,0.27518 -0.40576,0.89232 0,1.1675 0.20287,0.13759 0.65786,-0.13759 0.86074,0 0.70006,0.47477 1.21696,2.2344 1.72149,2.91873 0.20297,0.27531 1.26468,6.42122 0.86074,6.42122 -0.28691,0 0,-0.38917 0,-0.58375"
       id="path3017"
       inkscape:connector-curvature="0" />
    <path
       style="fill:none;stroke:#000000;stroke-width:0.50327802px;stroke-linecap:butt;stroke-linejoin:miter;stroke-opacity:1"
       d="m 293.88389,373.31879 c -0.28691,0.77833 -0.42139,1.59009 -0.86074,2.33499 -0.30139,0.51099 -1.46487,0.64537 -1.72149,1.16749 -0.52443,1.06698 -1.79604,3.98512 -0.86075,5.25372 3.1453,4.26621 10.58957,0.63723 12.05044,-2.33499 0.30046,-0.6113 -0.54355,-1.32099 -0.86075,-1.75124 -3.11992,-4.23179 -1.56297,-1.31498 -7.74671,-4.66997 -1.43457,-0.77833 -2.42391,-1.88206 -3.44298,-2.91874 -2.14664,-2.18373 6.50132,-5.9451 8.60745,-6.42121 0.93553,-0.21149 5.13091,-0.58375 6.02522,-0.58375"
       id="path3019"
       inkscape:connector-curvature="0" />
    <path
       style="fill:none;stroke:#000080;stroke-width:0.50327802px;stroke-linecap:butt;stroke-linejoin:miter;stroke-opacity:1"
       d="m 312.82029,377.40502 c 0.18723,1.36307 0.22602,11.39776 0.86074,12.25868 1.06363,1.44268 0.86075,-0.20149 0.86075,1.16749"
       id="path3021"
       inkscape:connector-curvature="0" />
    <path
       style="fill:none;stroke:#000000;stroke-width:0.50327802px;stroke-linecap:butt;stroke-linejoin:miter;stroke-opacity:1"
       d="m 319.70625,375.65378 c -0.85067,-2.19734 3.44298,-5.93992 3.44298,-7.58871"
       id="path3023"
       inkscape:connector-curvature="0" />
    <path
       style="fill:none;stroke:#000000;stroke-width:0.50327802px;stroke-linecap:butt;stroke-linejoin:miter;stroke-opacity:1"
       d="m 337.7819,373.90253 c -2.33638,1.73405 -9.32231,8.98377 -2.58224,10.50745 3.14894,0.71186 8.04203,-3.33639 8.60746,-5.25372 0.17816,-0.60414 0.59769,-4.97113 -0.86075,-5.25373 -1.65525,-0.32073 -4.0624,0.8969 -5.16447,0 -1.11727,-0.90926 1.10756,-2.33078 0.86075,-3.50248 -0.0882,-0.41885 -6.47576,-2.30763 -5.16448,-4.08623 1.93282,-2.62163 16.73376,-6.74752 19.79715,-4.66997"
       id="path3025"
       inkscape:connector-curvature="0" />
    <path
       style="fill:none;stroke:#000000;stroke-width:0.50327802px;stroke-linecap:butt;stroke-linejoin:miter;stroke-opacity:1"
       d="m 352.41457,383.24248 c 1.14766,0.19459 3.72989,-0.19458 3.44298,0.58375 -0.28691,0.77833 -3.44298,-1.38603 -3.44298,-0.58375 0,1.24594 2.71929,1.77355 3.44298,2.91874 0.29504,0.46687 -4.49862,9.20777 -3.44298,9.9237 2.39203,1.62225 7.78614,-2.97222 8.60745,-4.08623"
       id="path3027"
       inkscape:connector-curvature="0" />
    <path
       style="fill:none;stroke:#000000;stroke-width:0.50327802px;stroke-linecap:butt;stroke-linejoin:miter;stroke-opacity:1"
       d="m 365.32575,376.82127 c 0,0.77833 0.22507,1.57177 0,2.33499 -0.0796,0.26984 -0.73243,0.32268 -0.86074,0.58374 -0.6886,1.401 0.68859,3.26898 0,4.66998 -0.41448,0.84328 -0.86075,1.24179 -0.86075,2.33499"
       id="path3029"
       inkscape:connector-curvature="0" />
    <path
       style="fill:none;stroke:#000000;stroke-width:0.50327802px;stroke-linecap:butt;stroke-linejoin:miter;stroke-opacity:1"
       d="m 367.90798,364.56258 c 1.44142,2.37119 1.70846,4.65229 3.44298,7.00497 1.72821,2.34409 3.06184,4.47826 4.30373,7.00496 2.85473,5.80814 -0.81151,-1.3759 1.72149,2.91873 0.27809,0.47149 2.26419,4.66998 3.44298,4.66998 0.74245,0 -0.80682,-7.33274 -0.86074,-7.58871 -0.46954,-2.22907 -0.79316,-10.69079 0,-12.84243 0.26949,-0.73109 1.57336,-3.50248 1.72149,-3.50248 0.73636,0 1.5049,2.62496 1.72149,2.91873 3.13121,4.2471 5.22059,8.90845 6.88596,13.42618 0.224,0.60766 1.71926,5.25524 2.58224,4.66997 0.60863,-0.41277 0.20876,-1.18492 0,-1.75124 -1.13632,-3.08255 -0.26985,-6.13406 -0.86075,-9.33995 -0.14673,-0.79608 -0.86074,-1.5327 -0.86074,-2.33498 0,-0.80229 0.71401,-1.5389 0.86074,-2.33499 0.94898,-5.14866 -0.93227,-6.32421 2.58224,-11.0912 0.12831,-0.17404 -0.28692,-0.58374 0,-0.58374 0.71104,0 -0.59863,2.74096 -0.86075,2.91874"
       id="path3031"
       inkscape:connector-curvature="0" />
    <path
       style="fill:none;stroke:#000080;stroke-width:0.50327802px;stroke-linecap:butt;stroke-linejoin:miter;stroke-opacity:1"
       d="m 228.46726,396.08492 c 0.57382,-0.77833 0.57382,-2.72415 1.72149,-2.33499 1.14765,0.38916 -1.72149,1.46479 -1.72149,2.33499 0,1.23065 1.32784,2.30114 1.72149,3.50248 0.54623,1.66703 -0.41445,3.5673 0,5.25372 0.42796,1.74146 2.36715,9.9237 5.16447,9.9237"
       id="path3033"
       inkscape:connector-curvature="0" />
    <path
       style="fill:none;stroke:#000080;stroke-width:0.50327802px;stroke-linecap:butt;stroke-linejoin:miter;stroke-opacity:1"
       d="m 217.27757,405.42487 c 6.24648,-3.11388 13.27437,-2.91873 20.65788,-2.91873 1.63315,0 4.38878,-0.27746 6.02522,0 1.56887,0.26599 2.81988,1.16749 4.30372,1.16749"
       id="path3035"
       inkscape:connector-curvature="0" />
    <path
       style="fill:none;stroke:#000080;stroke-width:0.50327802px;stroke-linecap:butt;stroke-linejoin:miter;stroke-opacity:1"
       d="m 163.05061,432.86098 c 1.31484,4.9032 7.59834,6.63762 12.91118,9.33995 5.3097,2.70073 14.81865,6.93959 21.51864,7.58871 1.13612,0.11007 2.30685,-0.11008 3.44298,0 2.65288,0.25702 5.10218,1.45233 7.7467,1.75124 1.98108,0.22393 4.037,-0.19263 6.02522,0 13.57797,1.31549 26.56811,-0.36125 37.87279,-5.83747 3.02986,-1.46772 6.14751,-2.72362 8.60745,-4.66998 0.96668,-0.76485 16.35417,-12.08083 16.35417,-12.25868 0,-0.38917 -1.14767,0 -1.7215,0"
       id="path3037"
       inkscape:connector-curvature="0" />
    <path
       style="fill:none;stroke:#000080;stroke-width:0.50327802px;stroke-linecap:butt;stroke-linejoin:miter;stroke-opacity:1"
       d="m 175.96179,484.81446 c 2.21963,-1.72535 6.27154,-3.66953 8.60746,-5.25373 1.53162,-1.03872 2.39908,-2.5337 4.30372,-3.50248 6.97067,-3.54557 16.09115,-6.7293 24.96161,-7.58871 10.50777,-1.01803 21.5524,2.85435 30.98684,5.25372 6.42453,1.6339 13.45937,4.80288 18.93639,7.58871 1.24074,0.63109 3.50981,2.91874 5.16447,2.91874 0.20288,0 -0.86074,-1.49967 -0.86074,-1.75124"
       id="path3039"
       inkscape:connector-curvature="0" />
    <path
       style="fill:none;stroke:#000080;stroke-width:0.50327802px;stroke-linecap:butt;stroke-linejoin:miter;stroke-opacity:1"
       d="m 132.06379,427.60726 c 1.14766,-0.58375 2.58223,-2.52958 3.44298,-1.75124 0.86074,0.77832 -4.45738,2.43919 -3.44298,1.75124 1.17813,-0.799 6.01862,-2.90534 6.88596,-4.66998 0.18146,-0.3692 -0.18146,-0.7983 0,-1.1675 0.25662,-0.52212 1.35857,-0.67523 1.72149,-1.16749 0.31841,-0.43188 0.25161,-1.75124 0.86074,-1.75124 0.82987,0 0.7517,3.71643 0.86075,4.08623 0.73701,2.49915 1.25083,5.03514 1.72149,7.58871 0.38765,2.10317 -0.4419,4.32334 0,6.42122 1.13294,5.3784 0.86075,-1.77975 0.86075,3.50248 0,1.16127 1.38611,4.31368 3.44298,2.91873"
       id="path3041"
       inkscape:connector-curvature="0" />
    <path
       style="fill:none;stroke:#000080;stroke-width:0.50327802px;stroke-linecap:butt;stroke-linejoin:miter;stroke-opacity:1"
       d="m 290.44091,424.10477 c 1.14766,-0.58375 2.58224,-2.52957 3.44298,-1.75124 0.86075,0.77833 -4.08454,2.62144 -3.44298,1.75124 0.90731,-1.23064 3.12451,-1.79911 4.30373,-2.91873 0.33353,-0.31668 -0.18146,-0.7983 0,-1.1675 0.12831,-0.26106 0.67928,-0.33761 0.86074,-0.58374 0.25663,-0.34808 0,-1.55666 0,-1.1675 0,1.35909 0.33449,1.84802 0.86075,2.91874 0.99229,2.01887 0,9.14707 0,11.67494 0,0.001 1.49272,5.83747 0.86074,5.83747 -0.9073,0 0.21918,-1.31614 0.86075,-1.75124"
       id="path3043"
       inkscape:connector-curvature="0" />
    <path
       style="fill:none;stroke:#000080;stroke-width:0.50327802px;stroke-linecap:butt;stroke-linejoin:miter;stroke-opacity:1"
       d="m 312.82029,413.01358 c -1.74195,4.20653 -4.30373,7.76612 -4.30373,12.25869"
       id="path3045"
       inkscape:connector-curvature="0" />
    <path
       style="fill:none;stroke:#000080;stroke-width:0.50327802px;stroke-linecap:butt;stroke-linejoin:miter;stroke-opacity:1"
       d="m 135.50677,485.3982 c 0.39728,-1.19944 1.1505,-3.11524 2.58223,-4.08623 2.31597,-1.57066 10.53291,-6.06017 14.63267,-4.66997 1.15999,0.39334 1.39985,1.09685 1.72149,1.75124 1.23925,2.52132 1.28719,5.16087 -0.86074,7.58871 -0.41753,0.47193 -1.30397,0.69557 -1.72149,1.16749 -0.46681,0.52764 -0.39394,1.22361 -0.86075,1.75124 -0.624,0.70532 -6.00376,4.805 -6.88596,5.25373 -1.2984,0.66042 -8.35718,4.25596 -10.32894,2.91873 -0.40576,-0.27518 0,-0.77833 0,-1.16749 0,-3.3838 8.70044,-2.66001 12.05043,-1.75124 5.2257,1.4176 10.60035,1.75124 16.35416,1.75124"
       id="path3047"
       inkscape:connector-curvature="0" />
    <path
       style="fill:none;stroke:#000080;stroke-width:0.50327802px;stroke-linecap:butt;stroke-linejoin:miter;stroke-opacity:1"
       d="m 275.80824,477.22575 c -3.56085,-4.57315 9.80977,-7.47751 12.05043,-2.91874 2.58399,5.25728 1.38276,11.24435 -6.02521,14.59367 -1.18479,0.53568 -3.45679,2.33031 -5.16447,1.75124 -2.38416,-0.80845 -0.37089,-3.8078 0.86075,-4.08622 6.71035,-1.51696 12.16686,1.75124 18.93639,1.75124"
       id="path3049"
       inkscape:connector-curvature="0" />
    <path
       style="fill:none;stroke:#000080;stroke-width:0.50327802px;stroke-linecap:butt;stroke-linejoin:miter;stroke-opacity:1"
       d="m 300.76985,464.38331 c -0.13467,2.61574 -0.75586,6.93384 -3.44298,8.75621"
       id="path3051"
       inkscape:connector-curvature="0" />
    <path
       style="fill:none;stroke:#000000;stroke-width:0.50327802px;stroke-linecap:butt;stroke-linejoin:miter;stroke-opacity:1"
       d="m 319.70625,452.12463 c 4.27008,0.30739 13.09247,1.51567 17.2149,0.58374 1.65753,-0.3747 2.29606,-0.58374 4.30373,-0.58374"
       id="path3053"
       inkscape:connector-curvature="0" />
    <path
       style="fill:none;stroke:#000000;stroke-width:0.50327802px;stroke-linecap:butt;stroke-linejoin:miter;stroke-opacity:1"
       d="m 328.3137,444.53592 c 0,0.77832 -0.22507,1.57177 0,2.33498 0.0796,0.26984 0.73244,0.32269 0.86075,0.58375 1.01916,2.07355 -1.29525,13.13151 0,14.00993 0.20288,0.13759 0.57383,0 0.86074,0"
       id="path3055"
       inkscape:connector-curvature="0" />
    <path
       style="fill:none;stroke:#000000;stroke-width:0.50327802px;stroke-linecap:butt;stroke-linejoin:miter;stroke-opacity:1"
       d="m 365.32575,424.68852 c -0.42299,2.67448 1.10817,4.89371 3.44298,7.00496 2.80538,2.53677 5.7957,5.04619 8.60745,7.58871 1.34914,1.21996 2.09385,2.86627 3.44298,4.08623 2.05269,1.85615 4.48775,3.75208 6.02522,5.83747 1.94333,2.63589 5.55739,5.46939 6.88596,8.17246 0.25526,0.51935 1.22808,4.08623 2.58224,4.08623 0.40576,0 0.57383,-0.77833 0.86074,-0.58375 0.28692,0.19458 -0.86074,0.85893 -0.86074,0.58375 0,-3.35817 13.34083,-5.98365 17.2149,-4.66998 0.95871,0.3251 3.81924,1.09409 4.30373,1.75125 0.12831,0.17403 -0.20288,0.44615 0,0.58374 0.20288,0.13759 0.65787,-0.13759 0.86074,0 0.20289,0.13759 -0.20287,0.44616 0,0.58375 0.20289,0.13759 0.65787,-0.13759 0.86075,0 2.03702,1.38148 -4.21306,6.39047 -6.02522,7.00496 -1.11682,0.37871 -2.28016,0.77319 -3.44298,1.1675 -0.51325,0.17404 -1.31573,-0.27518 -1.72149,0 -1.06159,0.71995 0.77467,1.10911 0.86074,1.16749 1.34079,0.9093 4.37609,5.88654 5.16448,6.42122 0.45365,0.30766 1.26784,0.27608 1.72149,0.58374 0.90731,0.61532 0.95161,1.63883 1.72149,2.33499 1.63988,1.48286 4.23277,2.28687 6.02521,3.50248 0.45366,0.30766 0.4071,0.85984 0.86075,1.1675 2.45236,1.66315 7.27498,2.86264 8.60745,4.66997 0.02,0.0271 1.75258,2.91873 0.86075,2.91873 -0.86075,0 0,-1.16749 0,-1.75124"
       id="path3057"
       inkscape:connector-curvature="0" />
    <path
       style="fill:none;stroke:#000000;stroke-width:0.50327802px;stroke-linecap:butt;stroke-linejoin:miter;stroke-opacity:1"
       d="m 466.89369,424.68852 c -0.57383,0.77833 -0.91994,1.65548 -1.72149,2.33499 -0.40078,0.33975 -1.26784,0.27608 -1.72149,0.58375 -1.04884,0.7113 -1.5334,2.20742 -2.58224,2.91873 -0.45365,0.30766 -1.26784,0.27608 -1.72149,0.58375 -2.71799,1.8433 -5.02537,4.57564 -7.74671,6.42121 -0.45365,0.30767 -1.14766,0.38917 -1.72149,0.58375 -0.57383,0.38917 -1.14766,0.77833 -1.72149,1.16749 -4.11817,2.79289 -8.69557,7.04481 -13.77192,9.33995 -1.51347,0.68428 -3.89286,1.4726 -5.16447,2.33499 -0.45366,0.30767 -0.40709,0.85984 -0.86075,1.1675 -1.32501,0.8986 -3.83946,1.43638 -5.16447,2.33498 -2.09058,1.41781 0.25596,0.85719 -1.72149,1.75124 -1.78408,0.80664 -3.44604,0.9743 -5.16447,1.75124 -1.14279,0.51669 -2.15784,2.04447 -3.44298,2.335 -0.54439,0.12306 -1.17711,-0.12307 -1.7215,0 -1.0265,0.23205 -2.4753,1.4231 -3.44298,1.75124 -0.10071,0.0341 -3.29565,1.65132 -3.44297,1.75124 -1.78092,1.20779 2.72146,-0.0472 -0.86075,1.16749 -0.8518,0.28884 -3.72973,1.36197 -4.30373,1.75124 -1.78091,1.20779 2.72147,-0.0472 -0.86074,1.1675 -2.88522,0.97835 -5.56592,2.47111 -8.60745,3.50248 -2.22868,0.75573 -3.82784,2.75736 -6.02522,3.50248 -3.99365,1.35422 -7.21271,3.90515 -11.18969,5.25372 -0.29348,0.0995 -6.88596,4.51073 -6.88596,3.50248 0,-0.55036 1.14766,-0.77833 1.72149,-1.16749"
       id="path3059"
       inkscape:connector-curvature="0" />
    <path
       style="fill:none;stroke:#000000;stroke-width:0.50327802px;stroke-linecap:butt;stroke-linejoin:miter;stroke-opacity:1"
       d="m 372.21171,414.76482 c 1.14766,-0.19458 3.15607,-1.36207 3.44298,-0.58375 0.28692,0.77834 -3.97202,1.30133 -3.44298,0.58375 0.91626,-1.24279 5.67352,-1.85795 6.88596,-3.50248 0.55258,-0.74951 0.86075,-1.40134 0.86075,-2.33499 0,-0.38916 -0.57383,-1.16749 0,-1.16749 0.91625,0 -0.70133,5.40502 -0.86075,5.83747 -0.72255,1.96012 -0.009,4.1106 -0.86074,6.42121 -0.29645,0.80421 0,2.06141 0,2.91874 0,0.38916 -0.57383,1.16749 0,1.16749 1.06362,0 0.86074,-0.81862 0.86074,-1.16749"
       id="path3061"
       inkscape:connector-curvature="0" />
    <path
       style="fill:none;stroke:#000000;stroke-width:0.50327802px;stroke-linecap:butt;stroke-linejoin:miter;stroke-opacity:1"
       d="m 441.93208,415.34857 c 1.14765,-0.19458 3.15606,-1.36208 3.44297,-0.58375 0.28692,0.77833 -3.97202,1.30133 -3.44297,0.58375 0.74818,-1.01482 2.99734,-1.04246 4.30372,-1.75124 0.25789,-0.13992 1.46126,-1.98202 1.72149,-2.33499 1.03043,-1.39765 0.63922,-3.50248 0.86075,-3.50248 0.9505,0 -1.53619,8.7116 -1.7215,9.33995 -0.25857,0.87682 -0.51077,8.0634 0,8.75621 0.94788,1.28568 1.7215,0.11841 1.7215,-0.58375"
       id="path3063"
       inkscape:connector-curvature="0" />
    <path
       style="fill:none;stroke:#000000;stroke-width:0.50327802px;stroke-linecap:butt;stroke-linejoin:miter;stroke-opacity:1"
       d="m 460.86847,404.25738 c 1.1462,2.87572 -4.30373,7.52971 -4.30373,9.92369"
       id="path3065"
       inkscape:connector-curvature="0" />
    <path
       style="fill:none;stroke:#000000;stroke-width:0.50327802px;stroke-linecap:butt;stroke-linejoin:miter;stroke-opacity:1"
       d="m 353.27532,494.15441 c 2.4386,-0.39183 3.39519,-1.15129 5.16447,-1.75124 3.72018,-1.26149 6.88596,1.21684 6.88596,3.50248 0,0.38916 0.25663,0.81941 0,1.16749 -0.50843,0.68962 -1.94921,1.10728 -2.58224,1.75124 -1.38963,1.41366 -2.91343,2.67192 -4.30372,4.08623 -1.2568,1.27852 -4.14862,2.1246 -5.16447,3.50248 -0.12832,0.17404 0.20287,0.44616 0,0.58375 -0.20289,0.13759 -0.65787,-0.13759 -0.86075,0 -1.02971,0.69834 3.06072,1.1675 3.44298,1.1675 3.52432,0 13.03804,1.08146 15.49341,-0.58375"
       id="path3067"
       inkscape:connector-curvature="0" />
    <path
       style="fill:none;stroke:#000000;stroke-width:0.50327802px;stroke-linecap:butt;stroke-linejoin:miter;stroke-opacity:1"
       d="m 433.32462,500.57563 c 7.32512,-1.4056 11.06303,-0.32604 8.60746,4.66997 -0.45079,0.91714 -5.81669,4.38714 -6.88597,5.83747 -1.09621,1.48687 1.85079,2.11118 3.44299,1.75124 2.99122,-0.6762 6.96824,-1.27911 8.60744,-3.50248 1.26651,-1.71785 -1.99398,0.76855 0.86075,-1.16749"
       id="path3069"
       inkscape:connector-curvature="0" />
    <path
       style="fill:none;stroke:#000000;stroke-width:0.50327802px;stroke-linecap:butt;stroke-linejoin:miter;stroke-opacity:1"
       d="m 459.14698,488.90068 c 0.0936,3.91182 -4.30373,6.87188 -4.30373,10.50745"
       id="path3071"
       inkscape:connector-curvature="0" />
    <path
       style="fill:none;stroke:#00ff00;stroke-width:1px;stroke-linecap:butt;stroke-linejoin:miter;stroke-opacity:1"
       d="m 329.89285,151.70235 c -0.43637,1.74547 -1.3091,3.43721 -1.3091,5.2364 0,0.58222 3.56101,6.75575 3.92729,7.85459 4.12865,12.38595 12.53064,26.68114 23.56378,34.03656 3.8209,2.54727 8.66803,8.10242 14.40008,5.2364 3.5631,-1.78155 6.42474,-10.59355 3.9273,-13.09099 -0.30856,-0.30856 -1.00054,0.30856 -1.3091,0 -0.65455,-0.65455 -0.65455,-1.96365 -1.3091,-2.6182 -4.51885,-4.51885 -5.21561,7.81302 -5.23639,7.85459 -0.27599,0.55197 -1.11395,0.72366 -1.3091,1.3091 -0.44806,1.34417 -0.44806,7.81952 0,9.16369 0.19515,0.58545 1.11395,0.72365 1.3091,1.3091 1.0041,3.0123 0.30499,6.15139 1.30909,9.16369 1.61326,4.83976 6.20244,9.44362 7.8546,14.40009 1.25,3.75 2.1575,6.93321 3.92729,10.47278 5.83266,11.66532 9.98837,23.90404 15.70918,35.34567 0.58545,1.17089 -0.41397,2.68537 0,3.92729 0.19515,0.58545 1.03312,0.75714 1.3091,1.3091 0.3903,0.7806 -0.27598,1.79025 0,2.6182 1.33382,4.00144 2.16278,8.25285 3.9273,11.78189 1.46814,2.93627 0,10.94926 0,14.40008 0,0.87273 0.61711,2.00108 0,2.6182 -0.30856,0.30855 -1.00054,-0.30856 -1.3091,0 -0.87273,0.87273 0.87273,4.36366 0,5.23639 -0.30856,0.30856 -1.00054,-0.30856 -1.3091,0 -1.04487,1.04487 0.68672,5.17207 0,6.54549 -0.78314,1.56629 -2.40368,4.35634 -1.3091,6.5455 0.96387,1.92772 1.7369,1.73689 2.6182,2.61819 1.5299,1.5299 2.27187,6.19917 3.9273,7.8546 0.30855,0.30855 1.00054,-0.30856 1.30909,0 0.65586,0.65586 0.45088,4.37817 1.3091,5.23639 0.30856,0.30856 1.00054,-0.30856 1.3091,0 0.61712,0.61712 -0.61711,2.00108 0,2.6182 0.30856,0.30856 1.00054,-0.30856 1.3091,0 0.61712,0.61711 -0.61711,2.00108 0,2.61819 0.30856,0.30856 1.00054,-0.30855 1.3091,0 0.30856,0.30856 -0.19515,0.91881 0,1.3091 0.96386,1.92773 1.73689,1.7369 2.6182,2.6182 0.97249,0.97249 1.30909,13.15281 1.30909,15.70918 0,1.89582 0.82962,6.19537 0,7.8546 -3.0132,6.02641 -11.35077,10.25723 -17.01828,13.09098 -0.7904,0.3952 -3.32214,-0.60515 -3.92729,0 -0.30856,0.30856 0.30855,1.00054 0,1.3091 -0.13091,0.13091 -3.79639,0.13091 -3.9273,0 -0.30856,-0.30856 -0.43636,-1.3091 0,-1.3091 0.43637,0 0,0.87273 0,1.3091"
       id="path3073"
       inkscape:connector-curvature="0" />
    <text
       xml:space="preserve"
       style="font-size:18px;font-style:normal;font-weight:normal;line-height:125%;letter-spacing:0px;word-spacing:0px;fill:#000000;fill-opacity:1;stroke:none;font-family:Sans"
       x="400.58417"
       y="171.33884"
       id="text3097"
       sodipodi:linespacing="125%"><tspan
         sodipodi:role="line"
         id="tspan3099"
         x="400.58417"
         y="171.33884">Each node (like 1,2..) is like a particle</tspan><tspan
         sodipodi:role="line"
         x="400.58417"
         y="193.83884"
         id="tspan3101">so here we have particle 1 and 2 </tspan><tspan
         sodipodi:role="line"
         x="400.58417"
         y="216.33884"
         id="tspan3103">interchanging but this diagram is equal to</tspan><tspan
         sodipodi:role="line"
         x="400.58417"
         y="238.83884"
         id="tspan3105">0 because</tspan><tspan
         sodipodi:role="line"
         x="400.58417"
         y="261.33884"
         id="tspan3107">k10+k20 is greater or equal to 2m which is</tspan><tspan
         sodipodi:role="line"
         x="400.58417"
         y="283.83884"
         id="tspan3109">positive  and not equal to 0  (energy </tspan><tspan
         sodipodi:role="line"
         x="400.58417"
         y="306.33884"
         id="tspan3115">conservation violated)</tspan></text>
    <path
       style="fill:none;stroke:#000000;stroke-width:1px;stroke-linecap:butt;stroke-linejoin:miter;stroke-opacity:1"
       d="m 175,275.36218 c 0.66667,1.33334 3.33333,3.33334 2,4 -1.33333,0.66667 -3.33333,-4.66666 -2,-4 1.98375,0.99188 7.91449,9.45725 11,11 1.05331,0.52666 1.72294,-3.16881 2,-4 0.94249,-2.82748 5.19613,-13.19613 7,-15 0.2357,-0.2357 0.7643,0.2357 1,0 1.06863,-1.06862 -1.42157,-2 1,-2"
       id="path3111"
       inkscape:connector-curvature="0" />
    <path
       style="fill:none;stroke:#000000;stroke-width:1px;stroke-linecap:butt;stroke-linejoin:miter;stroke-opacity:1"
       d="m 185,308.36218 c -1.24705,1.37834 -6.43276,11 -7,11 -0.21561,0 1.72536,-2.45071 2,-3 2.21942,-4.43884 4.39357,-8.75742 10,-11 0.61898,-0.24759 -0.29814,1.40372 0,2 0.52802,1.05604 1.51046,2.02092 2,3 0.67958,1.35916 2.32042,2.64084 3,4 0.14907,0.29815 0,0.66667 0,1 0.33333,0.66667 0.58655,1.37983 1,2 0.52298,0.78447 1.57836,1.15673 2,2 0.30303,0.60606 0.58096,2.58096 1,3 0.2357,0.2357 0.66667,0 1,0"
       id="path3113"
       inkscape:connector-curvature="0" />
    <path
       style="fill:none;stroke:#000000;stroke-width:1px;stroke-linecap:butt;stroke-linejoin:miter;stroke-opacity:1"
       d="m 204,439.36218 c 1.33333,1.33334 2.52758,2.82207 4,4 1.50791,1.20633 9.37743,3.24514 8,6 -0.92949,1.85899 -3.49885,3.24943 -5,4 -1.84101,0.92051 -0.15899,2.0795 -2,3 -0.60606,0.30303 -2.58096,0.58096 -3,1 -0.47478,0.47478 -1,4.43436 -1,2"
       id="path3117"
       inkscape:connector-curvature="0" />
    <path
       style="fill:none;stroke:#000000;stroke-width:1px;stroke-linecap:butt;stroke-linejoin:miter;stroke-opacity:1"
       d="m 201.97368,489.86218 c 4.87904,5.50694 1.47781,10.86018 -1.31579,16.44737 -0.40753,0.81507 0.4232,5.21697 0.6579,5.92105 0.19615,0.58844 1.11964,0.72735 1.31579,1.31579 0.1387,0.41609 -0.1387,0.8997 0,1.31579 0.19615,0.58844 1.0384,0.76101 1.31579,1.31579 0.74098,1.48196 1.36705,2.63158 3.28947,2.63158"
       id="path3119"
       inkscape:connector-curvature="0" />
    <path
       style="fill:none;stroke:#000000;stroke-width:1px;stroke-linecap:butt;stroke-linejoin:miter;stroke-opacity:1"
       d="m 176.97368,552.36218 c 0.6579,-0.87719 1.0965,-3.28947 1.97369,-2.63158 0.5833,0.43748 -13.07255,13.07256 -14.47369,14.47369 -0.46434,0.46434 -3.11529,2.80575 -3.94736,1.97368 -1.12214,-1.12213 2.1783,-10.52631 2.63157,-10.52631 0.88639,0 1.74221,2.16862 1.97369,2.63158 0.52682,1.05363 1.97264,1.64316 2.63158,2.63157 3.00765,4.51148 6.98227,8.7543 11.8421,11.18421"
       id="path3121"
       inkscape:connector-curvature="0" />
    <path
       style="fill:none;stroke:#000000;stroke-width:1px;stroke-linecap:butt;stroke-linejoin:miter;stroke-opacity:1"
       d="m 194.07895,566.83587 c 1.71522,-6.0508 5.1873,-11.61455 7.23684,-17.76316 1.58847,-4.76541 -0.18967,1.03724 1.31579,-1.97369 0.19861,-0.39721 -0.30412,-1.66956 0,-1.97368 0.15507,-0.15507 0.50283,-0.15507 0.65789,0 1.40222,1.40222 2.31801,6.95401 3.28948,9.86842 0.56486,1.6946 1.83641,3.67282 2.63158,5.26316 0.92474,1.8495 4.05285,8.65811 1.97368,6.57895 -0.2193,-0.2193 0.96803,-0.6579 0.6579,-0.6579 -1.22065,0 -3.16623,1.37742 -4.60527,0.6579 -3.31045,-1.65523 -9.45343,-0.7409 -13.15789,0 z"
       id="path3123"
       inkscape:connector-curvature="0" />
    <path
       style="fill:none;stroke:#000000;stroke-width:1px;stroke-linecap:butt;stroke-linejoin:miter;stroke-opacity:1"
       d="m 202.63158,550.3885 c 0.98982,4.86495 3.01188,9.03563 4.60526,13.81579 0.0519,0.15578 1.37315,3.28947 1.31579,3.28947 -0.43859,0 0,-0.87719 0,-1.31579"
       id="path3125"
       inkscape:connector-curvature="0" />
    <path
       style="fill:none;stroke:#000000;stroke-width:1px;stroke-linecap:butt;stroke-linejoin:miter;stroke-opacity:1"
       d="m 202.63158,547.75692 c 2.11856,3.77237 1.9599,7.8534 3.28947,11.8421 0.0981,0.29422 0.4386,0.4386 0.6579,0.6579 0.2193,0.4386 0.50282,0.85059 0.65789,1.31579 0.54134,1.624 0.76751,3.39908 1.97369,4.60526"
       id="path3127"
       inkscape:connector-curvature="0" />
    <path
       style="fill:none;stroke:#000000;stroke-width:1px;stroke-linecap:butt;stroke-linejoin:miter;stroke-opacity:1"
       d="m 222.36842,541.83587 c -2.49447,5.53486 -6.90975,11.83469 -5.26316,18.42105 0.39017,1.56067 1.25904,2.51807 1.97369,3.94737"
       id="path3129"
       inkscape:connector-curvature="0" />
    <path
       style="fill:none;stroke:#000000;stroke-width:1px;stroke-linecap:butt;stroke-linejoin:miter;stroke-opacity:1"
       d="m 227.63158,554.33587 c 0.47647,0.7095 3.05934,5.47703 3.94737,5.92105 0.6786,0.3393 1.50933,0.38708 1.97368,1.31579 0.0981,0.19615 -0.15507,0.50283 0,0.65789 0.15507,0.15507 0.4386,0 0.6579,0 0.21929,0.2193 0.43859,0.4386 0.65789,0.6579"
       id="path3131"
       inkscape:connector-curvature="0" />
    <path
       style="fill:none;stroke:#000000;stroke-width:1px;stroke-linecap:butt;stroke-linejoin:miter;stroke-opacity:1"
       d="m 234.21053,553.67797 c -2.58817,2.21943 -2.43031,4.00146 -3.28948,6.57895 -0.19614,0.58844 -1.11964,0.72735 -1.31579,1.31579 0,2.99492 0.31014,0.0376 -0.65789,1.97368 -0.55874,1.11748 0.42437,1.54931 -0.6579,2.63158"
       id="path3133"
       inkscape:connector-curvature="0" />
    <path
       style="fill:none;stroke:#000000;stroke-width:1px;stroke-linecap:butt;stroke-linejoin:miter;stroke-opacity:1"
       d="m 240.13158,558.94113 c 1.78985,2.95289 0.31409,6.86333 1.31579,9.86842 0.75597,2.2679 0.65789,0.48735 0.65789,1.97369"
       id="path3135"
       inkscape:connector-curvature="0" />
    <path
       style="fill:none;stroke:#000000;stroke-width:1px;stroke-linecap:butt;stroke-linejoin:miter;stroke-opacity:1"
       d="m 247.36842,558.28324 c 1.1422,1.25356 10.52632,2.29085 10.52632,0.65789"
       id="path3137"
       inkscape:connector-curvature="0" />
    <path
       style="fill:none;stroke:#000000;stroke-width:1px;stroke-linecap:butt;stroke-linejoin:miter;stroke-opacity:1"
       d="m 259.86842,552.36218 c 0.87719,0 2.63158,-0.87719 2.63158,0 0,0.8772 -3.25185,-0.62027 -2.63158,0 0.79069,0.79069 2.22865,0.30429 3.28947,0.6579 0.97081,0.3236 2.53569,1.87779 3.28948,2.63158 0.75837,0.75837 4.60526,3.57151 4.60526,1.97368"
       id="path3139"
       inkscape:connector-curvature="0" />
    <path
       style="fill:none;stroke:#000000;stroke-width:1px;stroke-linecap:butt;stroke-linejoin:miter;stroke-opacity:1"
       d="m 271.05263,549.07271 c -0.73567,2.31896 -3.84751,3.64779 -4.60526,5.92105 -0.1387,0.41609 0.13869,0.8997 0,1.31579 -0.19615,0.58844 -1.11964,0.72735 -1.31579,1.31579 -0.1387,0.41609 0.1387,0.8997 0,1.31579 -0.51688,1.55065 -1.31579,0.8789 -1.31579,2.63158"
       id="path3141"
       inkscape:connector-curvature="0" />
    <path
       style="fill:none;stroke:#000000;stroke-width:1px;stroke-linecap:butt;stroke-linejoin:miter;stroke-opacity:1"
       d="m 275.65789,553.67797 c 1.76579,3.5895 -0.006,11.17827 2.63158,13.81579"
       id="path3143"
       inkscape:connector-curvature="0" />
    <path
       style="fill:none;stroke:#000000;stroke-width:1px;stroke-linecap:butt;stroke-linejoin:miter;stroke-opacity:1"
       d="m 283.55263,539.20429 c 0,1.09649 0.18026,2.2079 0,3.28947 -0.21778,1.30669 -4.14484,6.77642 -5.26316,7.89474"
       id="path3145"
       inkscape:connector-curvature="0" />
    <path
       style="fill:none;stroke:#000000;stroke-width:1px;stroke-linecap:butt;stroke-linejoin:miter;stroke-opacity:1"
       d="m 286.84211,527.36218 c 2.24055,4.50361 6.36211,7.90951 7.23684,13.1579 0.35731,2.14389 0.35003,4.42393 0.65789,6.57894 0.35807,2.50648 1.03012,4.63125 0.6579,7.23685 -0.36663,2.5664 -0.80852,5.35839 -1.31579,7.89473 -0.4547,2.2735 -2.63158,4.36447 -2.63158,6.57895"
       id="path3147"
       inkscape:connector-curvature="0" />
    <path
       style="fill:none;stroke:#000000;stroke-width:1px;stroke-linecap:butt;stroke-linejoin:miter;stroke-opacity:1"
       d="m 307.89474,562.8885 c 1.76702,-2.99507 2.09455,-5.33049 2.63158,-8.55263 0.26232,-1.57396 1.05346,-2.37341 1.31579,-3.94737 0.10815,-0.64894 -0.10816,-1.32474 0,-1.97369 0.17211,-1.03271 4.18025,-11.8421 4.60526,-11.8421 0.43859,0 0,0.87719 0,1.31579 0,0.78376 0.42208,1.26624 0.65789,1.97368 0.991,2.973 3.10986,9.68881 5.26316,11.84211 0.34674,0.34674 0.96905,0.31115 1.31579,0.65789 1.31579,1.31579 1.31579,3.94737 2.63158,5.26316 0.34674,0.34674 0.96905,0.31115 1.31579,0.6579 0.67896,0.67895 0.95598,1.91195 1.31579,2.63157 0.30042,0.60085 3.56754,2.35351 2.63158,3.28948 -0.0781,0.0781 -4.24176,-0.56702 -4.60527,-0.6579 -3.14488,-0.78622 -10.58,-2.12473 -13.81579,-1.31579 -2.12764,0.53192 -2.78873,0.6579 -5.26315,0.6579 z"
       id="path3149"
       inkscape:connector-curvature="0" />
    <path
       style="fill:none;stroke:#000000;stroke-width:1px;stroke-linecap:butt;stroke-linejoin:miter;stroke-opacity:1"
       d="m 328.28947,560.91481 c -2.22654,0 -6.04764,-9.71688 -6.57894,-11.8421 -0.55007,-2.20026 -3.15955,-3.87962 -3.94737,-5.92105 1.06388,6.32571 3.79868,12.86052 6.57895,18.42105 0.19614,0.39229 -0.31014,1.00565 0,1.31579 0.34674,0.34674 0.96904,0.31115 1.31578,0.65789"
       id="path3151"
       inkscape:connector-curvature="0" />
    <path
       style="fill:none;stroke:#000000;stroke-width:1px;stroke-linecap:butt;stroke-linejoin:miter;stroke-opacity:1"
       d="m 313.81579,541.83587 c 4.12738,4.33328 5.29977,10.25228 8.55263,15.13158 0.34406,0.51609 1.0384,0.761 1.31579,1.31579 0.0981,0.19614 -0.15507,0.50282 0,0.65789 0.15507,0.15507 0.4386,0 0.6579,0 0.21929,0.2193 0.43859,0.4386 0.65789,0.65789"
       id="path3153"
       inkscape:connector-curvature="0" />
    <path
       style="fill:none;stroke:#000000;stroke-width:1px;stroke-linecap:butt;stroke-linejoin:miter;stroke-opacity:1"
       d="m 340.13158,538.54639 c 0.82736,2.34008 -2.19756,3.5271 -2.63158,5.26316 -0.15956,0.63825 0.24434,1.36285 0,1.97369 -0.23036,0.5759 -1.0384,0.761 -1.31579,1.31578 -0.50008,1.00016 -0.30429,2.22866 -0.65789,3.28948 -1.25102,3.75304 -3.16912,9.46994 1.97368,11.18421 1.50748,0.50249 2.51327,-0.6579 3.94737,-0.6579"
       id="path3155"
       inkscape:connector-curvature="0" />
    <path
       style="fill:none;stroke:#000000;stroke-width:1px;stroke-linecap:butt;stroke-linejoin:miter;stroke-opacity:1"
       d="m 346.05263,551.70429 c 0.87719,0.65789 3.28948,1.09649 2.63158,1.97368 -0.65789,0.8772 -3.12194,-2.95441 -2.63158,-1.97368 0.69348,1.38696 2.29676,2.09821 3.28948,3.28947 0.84654,1.01585 1.73154,3.70523 2.63157,4.60526 0.2193,0.2193 1.53509,0.6579 1.97369,0.6579"
       id="path3157"
       inkscape:connector-curvature="0" />
    <path
       style="fill:none;stroke:#000000;stroke-width:1px;stroke-linecap:butt;stroke-linejoin:miter;stroke-opacity:1"
       d="m 352.63158,551.04639 c -2.89964,3.79722 -5.92105,7.65631 -5.92105,12.5"
       id="path3159"
       inkscape:connector-curvature="0" />
    <path
       style="fill:none;stroke:#000000;stroke-width:1px;stroke-linecap:butt;stroke-linejoin:miter;stroke-opacity:1"
       d="m 359.21053,556.30955 c 0.06,0.03 2.83901,1.07277 3.28947,1.97369 0.39484,0.78967 -6.2016,10.33764 0,7.23684 0.79135,-0.39568 1.70424,-0.85212 2.63158,-1.31579"
       id="path3161"
       inkscape:connector-curvature="0" />
    <path
       style="fill:none;stroke:#000000;stroke-width:1px;stroke-linecap:butt;stroke-linejoin:miter;stroke-opacity:1"
       d="m 369.73684,551.70429 c 3.48721,1.92244 6.67231,1.88032 9.21053,-0.6579"
       id="path3163"
       inkscape:connector-curvature="0" />
    <path
       style="fill:none;stroke:#000000;stroke-width:1px;stroke-linecap:butt;stroke-linejoin:miter;stroke-opacity:1"
       d="m 384.21053,545.12534 c 1.88287,4.75021 5.48454,7.67648 9.86842,9.86842 0.56601,0.28301 1.97368,2.54943 1.97368,0.6579"
       id="path3165"
       inkscape:connector-curvature="0" />
    <path
       style="fill:none;stroke:#000000;stroke-width:1px;stroke-linecap:butt;stroke-linejoin:miter;stroke-opacity:1"
       d="m 393.42105,547.09902 c -1.43776,1.92285 -1.34842,3.38739 -1.97368,5.26316 -0.2824,0.84721 -1.69128,1.78438 -1.97369,2.63158 -0.53999,1.61999 -0.67968,3.31126 -1.97368,4.60526"
       id="path3167"
       inkscape:connector-curvature="0" />
    <path
       style="fill:none;stroke:#000000;stroke-width:1px;stroke-linecap:butt;stroke-linejoin:miter;stroke-opacity:1"
       d="m 400.65789,556.96745 c 0.8772,0 2.63158,-0.8772 2.63158,0 0,0.87719 -3.25184,-0.62027 -2.63158,0 0.94324,0.94323 3.00414,-0.28535 3.94737,0.65789 1.54748,1.54748 -3.27485,6.60818 -2.63158,7.89474 0.71471,1.4294 3.46238,0.31209 3.94737,-0.6579 0.40224,-0.80448 0.54993,-1.20782 1.31579,-1.97368"
       id="path3169"
       inkscape:connector-curvature="0" />
    <path
       style="fill:none;stroke:#000000;stroke-width:1px;stroke-linecap:butt;stroke-linejoin:miter;stroke-opacity:1"
       d="m 403.94737,537.2306 c 0.85902,3.65082 -2.63158,7.19084 -2.63158,9.86842"
       id="path3171"
       inkscape:connector-curvature="0" />
    <path
       style="fill:none;stroke:#000000;stroke-width:1px;stroke-linecap:butt;stroke-linejoin:miter;stroke-opacity:1"
       d="m 411.84211,526.04639 c 4.58938,6.27335 7.43703,20.70958 5.92105,28.28948 -0.23526,1.17631 -0.63813,5.92105 -1.97369,5.92105"
       id="path3173"
       inkscape:connector-curvature="0" />
  </g>
</svg>
